<?xml version="1.0" encoding="UTF-8"?> <svg xmlns="http://www.w3.org/2000/svg" class="desktopnav__logo" width="190" height="27" viewBox="0 0 190 27"><g fill="none" fill-rule="evenodd"><g><g><g><path fill="#017840" d="M11.031 17.943s-5.378-2.545-9.326-1.694l.025 8.468 22.922-.014s-4.642-.615-7.812-2.967c0 0-1.775-1.44-5.809-3.793m25.912-4.082c-1.822.05-8.272 1.207-9.011 1.441-.402.127-7.09 1.569-8.483 1.777-2.798.418-7.41.576-7.41.576l1.345.72c4.513 3.025 5.09 3.361 5.09 3.361 3.792 2.401 9.938 2.873 9.938 2.98 0-.02 13.124-.004 13.114-.024V14.26c-.01.014-1.843-.472-4.583-.398" transform="translate(-56 -65) translate(8 25) translate(48 40)"></path><path fill="#9CCFAE" d="M32.885 16.414l.193-.054.266-.065.17-.038.299-.059.224-.038.119-.02.251-.034.267-.032.282-.025.295-.02c.75-.038 1.606 0 2.45.212l.503.13.294.083.226.07.238.08c.04.013.081.028.121.043l.242.093c.279.114.54.246.723.388l.076.064.022.016.062.05.052.049.055.06c.161.198.277.534-.342.862l-.274.14-.244.12-.31.141-.243.101-.178.067-.169.054-.06.012-.06.018-.074.028c-.205.089-.467.303-.203.793l.03.05.032.058.018.036.035.087c.105.286.168.79-.398 1.243-.825.66-4.742.84-6.116.592l-.126-.025-.697-.073-.563-.07-.67-.096-.439-.07-.455-.079-.31-.058-.31-.063-.31-.068-.308-.072-.302-.077-.149-.04-.29-.084-.278-.09-.265-.094c-1.115-.419-1.782-.981-1.137-1.715l.082-.087.1-.074.154-.097.105-.058.123-.063.143-.067.078-.034.172-.069.193-.068c.135-.046.284-.09.447-.132l.256-.06c.8-.171 1.896-.265 3.338-.11l.116-.01.206-.029.084-.015.185-.04c.32-.077.688-.216.884-.463l.043-.083.054-.093c.144-.233.454-.646.972-.929zM8.173 2.023c.23-.05.466.008.654.133.022.015.033.044.04.078l.019.112c.006.037.016.07.036.093.092.1.32.034.39.18.03.065.038.14.039.215v.15c.002.097.016.185.088.243.25.202.573.157.89.074l.37-.106c.214-.059.435-.06.634.01.273.097.292.445.262.685-.037.3-.41.45-.468.774-.022.124.109.166.294.179l.131.005h.262c.289 0 .568.012.608.168.01.037.084.099.18.166l.154.104.22.143c.062.04.105.073.112.089.034.082.108.115.19.138l.128.031c.105.027.2.067.227.193.079.386-.233.646-.56.782-.039.016-.067.094-.07.145l-.005.095c0 .047.01.091.043.122l.207.192c.235.224.444.46.55.776.067.201-.187.485-.326.593-.015.011-.064.025-.135.042l-.171.035-.964.17-.321.065c-.153.034-.253.066-.257.09-.01.079.015.157.046.234l.05.113c.055.13.088.251-.054.35-.08.055-.181.072-.287.078l-.238.007c-.127.008-.241.03-.307.124l-.033.065c-.038.104-.112.088-.208.032l-.216-.14c-.098-.06-.204-.109-.308-.1-.196.015-.303.087-.408.183l-.13.124c-.047.044-.099.09-.162.135l-.103.067c-.175.105-.561.481-.623.643-.111.292.043.8-.034.962.147.01.217.087.278.182l.072.119c.039.06.084.118.15.164.068.047.191.04.271.003.166-.076.363-.072.475.054.082.094.072.248.175.338.104.09.308.124.363-.003.051-.118-.019-.285.035-.4.025-.054.088-.13.147-.156.126-.054.29.044.327.154.02.065.037.132.052.198l.04.196c.049.226.11.437.312.591.06.046.11.033.154.005l.095-.072c.01-.007.021-.013.032-.017l.04-.023.088-.073c.015-.013.03-.024.046-.032l.053-.033c.03-.015.063-.026.1-.011.257.097.533.148.799.058.065-.021.104-.105.112-.156.015-.085-.045-.197-.144-.213l-.059-.006-.122-.003c-.102-.003-.197-.016-.25-.105l-.013-.031-.015-.073c-.01-.048-.025-.092-.085-.1-.163-.02-.345.007-.465-.091-.094-.077-.095-.247-.09-.367.004-.071.135-.106.196-.17.013-.013.015-.038.014-.066l-.006-.085c-.13.005-.168-.09-.118-.187.127-.243.393-.31.658-.377.041-.01.126-.095.092-.168-.027-.06-.077-.087-.134-.108l-.116-.04c-.02-.007-.038-.016-.055-.027-.101-.061-.187-.153-.126-.273.046-.089.117-.158.194-.22l.159-.124c.027-.021.062-.033.1-.042l.117-.024c.134-.033.27-.014.404.012l.2.04c.166.029.328.036.482-.062-.114-.026-.194-.107-.247-.198-.069-.117.053-.186.153-.208.058-.012.154-.012.27-.004l.256.023.551.06c.172.018.317.026.394.012.138-.027.167-.166.264-.21.125-.057.3-.051.434-.003.112.041.282.16.219.3-.017.038-.053.07-.092.1l-.075.058c-.058.046-.092.089-.028.143.043.036.095.052.151.063l.173.029c.058.012.112.032.159.072.071.063-.01.146-.11.21.284-.072.558.06.714.298.049.076.02.127-.031.174l-.104.084-.034.03c-.021.022-.071.093-.035.107.226.087.415.286.37.523-.015.082-.064.141-.12.192l-.116.096c-.054.047-.099.097-.106.165-.01.078.033.14.083.201l.075.09c.06.078.098.162.033.282.167.03.312-.093.479-.057.166.036.322.072.478.129.046.017.079.052.108.093l.057.083.007.026.004.017c.022.13-.041.232-.12.33l-.097.118c-.031.04-.061.081-.084.125.063.016.128.022.193.024l.194.004c.097.006.191.023.278.079.183.117.298.29.493.355.203.066.587.004.507-.302-.047-.009-.095-.014-.145-.018l-.149-.01c-.197-.018-.383-.057-.464-.265-.089-.226.053-.423.308-.48.045-.01.047-.057.03-.09-.033-.067-.098-.12-.165-.168l-.1-.07c-.096-.068-.167-.135-.121-.231.175-.364.63-.525 1.03-.542l.007.015.016.068c.003.01.007.016.011.017.053.007.104.024.153.045l.218.099c.096.038.19.056.29.01.14-.064.284-.117.429-.158.163-.045.326.025.5.036l.106-.001c.182-.02.364.13.392.306l.04.267c.026.173.062.339.153.509.057.107.056.272-.016.402-.076.136-.198.192-.33.232l-.163.044c-.08.022-.16.047-.23.09-.142.087-.242.359-.105.355h.227l.685.021c.228.004.456-.002.684-.038.044-.007.089-.023.133-.043l.134-.064c.09-.04.181-.068.275-.03.07.025.074.19.143.217.13.052.273-.004.41-.08l.136-.079c.077-.047.204-.026.273.055.06.07.156.124.159.22l-.003.064-.018.13c-.011.086-.013.17.04.244.02.027.1.021.145.003.195-.078.201-.349.365-.42.136-.058.319.053.358.207.042.163.033.454-.061.476l-1.421.316-1.031.22-1.5.3-1.123.205-.814.134-.398.055-.455.054-.86.085-.752.064-.98.073-1.557.102-2.818.15c-.2-.072-.398-.141-.592-.207l-.573-.191c-.188-.06-.373-.119-.554-.174l-.534-.158c-.437-.125-.855-.235-1.252-.33l-.468-.107-.448-.095-.43-.083-.41-.07-.393-.061-.373-.05-.18-.022-.346-.037-.327-.028-.31-.02-.29-.014-.272-.008-.255-.002-.236.003-.32.012-.281.018-.312.032-.188.026-.149.025-.214.047V12.65c.095-.058.106-.206.172-.256.096-.072.127-.144.148-.223l.03-.123c.012-.044.029-.09.057-.138.235-.408.694-.212.965.123.095.12.228.04.352-.064l.176-.153c.027-.022.137.035.16.063.09.11.187.289.051.433.037.031.061.073.082.116l.058.13c.022.04.05.073.09.094.141.069.293.008.365-.123.133-.245.119-.496.03-.766-.071-.22.17-.35.364-.245.04.022.07.055.094.091l.066.115c.034.057.071.107.135.126l.08.02.172.028c.093.02.155.103.175.164.017.053.02.118.02.182l-.002.125c0 .078.008.14.048.152.152.053.216-.04.27-.169l.07-.176c.042-.099.097-.191.193-.237.073-.035.196-.036.236.03l.05.078c.026.035.056.06.094.061.079.003.14-.07.202-.137.03-.032.07-.028.112-.015l.089.029c.015.003.03.006.044.007-.017.042.013.06.04.07l.033.013c.119.072.262.002.29-.12.095-.411.055-.808-.007-1.211l-.057-.349c-.009-.057-.103-.131-.174-.15-.107-.024-.196.02-.282.076l-.129.086c-.043.027-.088.05-.135.061-.172.04-.366.082-.534-.02-.191-.12-.296-.33-.492-.427-.078-.04-.185-.027-.28-.006-.076.017-.151.044-.225.076l-.294.134c-.219.093-.434.142-.656-.039-.032-.026.009-.144-.02-.162-.218-.131-.485-.077-.68.041-.074.046-.15.068-.225.084l-.147.027c-.36.075-.654-.222-.817-.526-.09-.168-.057-.388.151-.436.084-.02.18.016.25-.018.224-.106.458-.084.669-.225.03-.02.08-.092.036-.144-.072-.084-.162-.143-.255-.196l-.184-.103c-.12-.07-.223-.152-.273-.288-.024-.064.015-.104.067-.137l.082-.047c.026-.016.05-.032.065-.05.031-.04.028-.09.016-.144l-.03-.107c-.018-.068-.022-.126.047-.15l.067-.02.146-.04c.124-.036.247-.086.32-.207.215-.36.611-.422 1.013-.427l.3.003.096-.002c.225-.014.524-.094.394-.35-.228-.452-.772-.616-1.302-.465-.118.033-.174-.084-.217-.215l-.053-.166c-.056-.156.017-.254.113-.345l.1-.09c.066-.06.128-.124.153-.206.034-.109-.023-.247.028-.34.106-.197.369-.282.446-.495l.015-.065.012-.142c.004-.047.013-.092.035-.13.145-.252.363-.402.615-.571.046-.03.078-.074.107-.122l.085-.146c.03-.047.065-.09.115-.119l.084-.055.156-.11c.078-.051.16-.092.266-.105.196-.023.371.043.539.112.114.047.157.196.267.266l.126.08c.107.063.218.11.346.08.16-.04.177-.147.175-.268l-.004-.106c-.001-.053 0-.106.014-.154.022-.076.089-.11.165-.137l.116-.043c.038-.016.074-.035.103-.061.039-.037.072-.079.102-.122l.088-.126c.06-.08.128-.15.24-.173zm1.085 7.08c-.067.002-.111.03-.15.063l-.072.07c-.05.044-.108.076-.214.05-.032-.007-.054-.012-.08-.022l-.013-.006-.01.01-.017-.003-.125-.063c-.006-.002-.01-.002-.009 0 .047.17.063.469.069.714l.002.256c.374-.212.564-.535.93-.731.039-.02.09-.156.057-.194-.029-.035-.053-.03-.075-.012l-.044.042c-.023.02-.047.034-.077.01l-.03-.03-.084-.118c-.019-.022-.038-.037-.058-.036z" transform="translate(-56 -65) translate(8 25) translate(48 40)"></path><path fill="#803538" d="M188.156 4.975h-.474v-.588h.48c.3 0 .38.158.38.292 0 .163-.114.296-.386.296zm.163.232v-.01c.327-.02.56-.251.56-.542 0-.244-.16-.535-.683-.535h-.832v1.958h.318v-.83h.188c.241 0 .335.084.583.523l.172.307h.387l-.238-.381c-.184-.291-.317-.45-.455-.49zm-.153 1.385c-.841 0-1.517-.682-1.517-1.523 0-.84.676-1.517 1.517-1.517.84 0 1.523.677 1.523 1.517 0 .84-.683 1.523-1.523 1.523zm0-3.342c-1.009 0-1.825.811-1.825 1.819 0 1.009.816 1.824 1.825 1.824 1.008 0 1.818-.815 1.818-1.824 0-1.008-.81-1.82-1.818-1.82zM183.1 5.903c.674 0 1.148.201 2.023.707V3.88c-.944-.437-1.617-.605-2.426-.605-2.695 0-4.583 2.123-4.583 5.155 0 4.616 4.852 9.673 4.852 13.143 0 1.213-.977 2.19-2.19 2.19-.842 0-1.718-.472-2.528-1.245v2.998c.978.606 1.854.876 2.865.876 2.763 0 4.65-2.123 4.65-5.19 0-4.717-4.853-9.57-4.853-13.143 0-1.45.776-2.156 2.19-2.156zm-8.896 11.56h-.067l-4.988-13.886h-2.358V26.09h2.661v-14.02h.068l4.987 14.02h2.36V3.577h-2.663v13.885zm-13.91 1.583h-.068L157.36 3.577h-2.088l-3.033 15.132h-.068l-2.662-15.132h-3.032l4.818 22.815h1.989l2.963-15.063h.07l3.033 15.063h1.988l4.819-22.815h-3.033l-2.831 15.469zm-20.043-.641l1.584-9.435h.067l1.582 9.435h-3.233zm.134-14.962l-4.246 22.646h2.796l.878-4.989h4.178l.81 4.989h2.796l-4.212-22.646h-3zM129.586.199h-3.334v25.89h9.728v-3.102h-6.394V.2zm-16.243 12.209h-.067l-1.954-8.83h-2.966l3.54 12.233v10.278h2.897V15.81L118.4 3.577H115.4l-2.057 8.83zm-10.44 5.997l1.586-9.435h.067l1.584 9.435h-3.236zm.136-14.962l-4.246 22.646h2.797l.877-4.989h4.178l.809 4.989h2.797l-4.212-22.646h-3zm-5.486.134l-2.831 15.469h-.067L91.791 3.577h-2.09L86.668 18.71h-.067L83.938 3.577h-3.032l4.82 22.815h1.988l2.964-15.063h.068l3.033 15.063h1.988l4.82-22.815h-3.034zm-21.905 9.739h-.135V6.273c1.752.034 2.562 1.18 2.562 3.64 0 2.225-.843 3.403-2.427 3.403zm3 1.314c1.55-1.078 2.325-2.662 2.325-4.82 0-2.828-1.28-6.233-5.93-6.233h-2.427V26.09h2.897V16.013c1.651-.169 2.326 1.786 3.337 6.2l.876 3.876h3.033l-1.045-4.617c-.775-3.37-1.719-5.864-3.067-6.842zM67.525 26.089h2.898V3.577h-2.898V26.09zm-7.777-7.684l1.584-9.435h.068l1.583 9.435h-3.235zm.135-14.962l-4.246 22.646h2.797l.876-4.989h4.18l.809 4.989h2.797L62.883 3.443h-3zm-3.588 7.57h-4.418V3.301h4.728V.199h-8.062v25.89h3.334V14.114h4.418v-3.101zM32.648 7.993c.287.37.818.642 1.288.642.204 0 .397-.051.554-.169.257-.193.552-.248.74-.262v9.515h.283V8.21l.02.002.005-2.058-.05-.03c-.404-.242-1.194.527-1.227.56-.298.295-.689.281-.768.275-1.094-.518-1.863.62-1.87.632l-.17.255.289-.103c.023-.008.56-.194.906.25zM.677 25.715h41.849V.876H.676v24.84zM0 26.392h43.203V.199H0v26.193z" transform="translate(-56 -65) translate(8 25) translate(48 40)"></path></g></g></g></g></svg> 