<svg xmlns="http://www.w3.org/2000/svg" width="198" height="137" viewBox="0 0 198 137" fill="none">
    <g filter="url(#filter0_d_149_1381)">
    <path d="M97.3655 23.0931C97.6375 23.4219 98.1797 23.2394 98.1952 22.8108L98.6152 10.4432C98.6221 10.2366 98.7925 10.0731 98.9973 10.0731C99.2022 10.0731 99.3726 10.2366 99.3795 10.4432L99.8012 22.8125C99.815 23.2394 100.359 23.4236 100.631 23.0948C108.886 13.1061 106.576 8.32426 98.9973 0C91.4184 8.32426 89.1101 13.1061 97.3638 23.0948L97.3655 23.0931Z" fill="#60AD45"/>
    <path d="M93.9317 31.4535C94.3104 31.4346 94.4687 30.9509 94.171 30.7133L85.5816 23.8419C85.4388 23.7265 85.4129 23.52 85.5214 23.3737C85.6315 23.2274 85.8364 23.1929 85.9878 23.2979L95.0247 29.5687C95.3363 29.7856 95.7563 29.4964 95.6668 29.128C92.9351 17.9395 88.3013 17.0444 78.3435 18.0221C80.2473 27.8456 82.4282 32.0301 93.93 31.4552L93.9317 31.4535Z" fill="#60AD45"/>
    <path d="M104.067 31.4535C103.688 31.4346 103.53 30.9509 103.827 30.7133L112.417 23.8419C112.56 23.7265 112.585 23.52 112.477 23.3737C112.367 23.2274 112.162 23.1929 112.011 23.2979L102.974 29.5687C102.662 29.7856 102.242 29.4964 102.332 29.128C105.063 17.9395 109.697 17.0444 119.655 18.0221C117.751 27.8456 115.57 32.0301 104.068 31.4552L104.067 31.4535Z" fill="#60AD45"/>
    <path d="M99.068 128.599C69.6714 128.599 40.4109 123.294 12.1005 112.83C7.255 111.04 4 106.374 4 101.217V54.4175C4 49.2622 7.255 44.594 12.1005 42.8039C36.0301 33.9598 60.7499 28.7803 85.5729 27.4067L85.7192 30.0438C61.1596 31.4019 36.698 36.528 13.0162 45.2808C9.20352 46.6906 6.64221 50.3621 6.64221 54.4175V101.217C6.64221 105.274 9.20352 108.945 13.0179 110.353C41.034 120.709 69.9864 125.959 99.0697 125.959C128.153 125.959 157.007 120.726 184.979 110.407C188.795 108.999 191.359 105.327 191.359 101.268V54.3676C191.359 50.3088 188.795 46.6372 184.979 45.2292C161.376 36.5211 136.999 31.4157 112.525 30.0507L112.672 27.4136C137.408 28.7924 162.044 33.9512 185.893 42.7505C190.742 44.5389 194 49.2071 194 54.3676V101.268C194 106.427 190.742 111.095 185.893 112.885C157.627 123.313 128.416 128.601 99.0697 128.601L99.068 128.599Z" fill="#60AD45"/>
    <path d="M11.7029 54.4158V101.215C11.7029 103.177 12.9302 104.924 14.7703 105.604C69.8918 125.976 128.098 125.993 183.225 105.656C185.066 104.976 186.295 103.229 186.295 101.266V54.3659C186.295 52.4036 185.066 50.6564 183.225 49.9765C128.098 29.6392 69.8918 29.6564 14.7703 50.0282C12.9302 50.7081 11.7029 52.4552 11.7029 54.4175V54.4158Z" fill="white"/>
    <path d="M67.2357 98.0321V99.8532H65.3285V106.449H63.1597V99.8532H61.2524V98.0321H67.2374H67.2357Z" fill="#005742"/>
    <path d="M72.2621 98.0321V104.516C72.2621 104.578 72.3241 104.628 72.374 104.628H73.9576C74.0316 104.628 74.0953 104.578 74.0953 104.516V98.0321H76.2642V105.489C76.2642 106.038 75.8407 106.449 75.3174 106.449H71.0538C70.5425 106.449 70.0933 106.038 70.0933 105.489V98.0321H72.2621Z" fill="#005742"/>
    <path d="M85.1907 98.0321C85.7019 98.0321 86.1374 98.4435 86.1374 98.9788V102.831C86.1374 103.342 85.7002 103.778 85.1907 103.778H85.1287L86.1632 106.446H84.0443L82.9977 103.778H82.0751V106.446H79.9062V98.0304H85.1924L85.1907 98.0321ZM83.9806 99.9651C83.9806 99.9032 83.9186 99.8412 83.8687 99.8412H82.0734V102.086H83.8687C83.9186 102.086 83.9806 102.024 83.9806 101.974V99.9669V99.9651Z" fill="#005742"/>
    <path d="M89.6162 98.0321H94.9523V99.8395H91.773V101.747H94.5168V103.542H91.773V106.448H89.6162V98.0321Z" fill="#005742"/>
    <path d="M108.47 103.306V105.489C108.47 106.038 108.02 106.449 107.485 106.449H103.259C102.724 106.449 102.299 106.038 102.299 105.489V98.9805C102.299 98.4693 102.722 98.0338 103.259 98.0338H107.485C108.022 98.0338 108.47 98.471 108.47 98.9805V101.149H106.301V99.9772C106.301 99.9032 106.239 99.8395 106.189 99.8395H104.605C104.531 99.8395 104.468 99.9014 104.468 99.9772V104.503C104.468 104.577 104.53 104.626 104.605 104.626H106.189C106.239 104.626 106.301 104.577 106.301 104.503V103.306H108.47Z" fill="#005742"/>
    <path d="M117.97 106.448H115.801V104.353H113.893V106.448H111.725V99.0167C111.725 98.4297 112.124 98.0321 112.709 98.0321H116.985C117.57 98.0321 117.97 98.4314 117.97 99.0167V106.448ZM115.801 102.533V100.003C115.801 99.8532 115.677 99.7534 115.501 99.7534H114.155C114.005 99.7534 113.893 99.8653 113.893 100.003V102.533H115.801Z" fill="#005742"/>
    <path d="M126.823 98.0321C127.334 98.0321 127.769 98.4435 127.769 98.9788V102.831C127.769 103.342 127.332 103.778 126.823 103.778H126.761L127.795 106.446H125.676L124.63 103.778H123.707V106.446H121.538V98.0304H126.824L126.823 98.0321ZM125.612 99.9651C125.612 99.9032 125.55 99.8412 125.501 99.8412H123.705V102.086H125.501C125.55 102.086 125.612 102.024 125.612 101.974V99.9669V99.9651Z" fill="#005742"/>
    <path d="M131.248 98.0321H136.746V99.8395H133.405V101.311H136.297V103.107H133.405V104.628H136.746V106.449H131.248V98.0338V98.0321Z" fill="#005742"/>
    <path d="M33.0591 74.1093C32.2639 76.6466 31.4686 79.1872 30.6751 81.7313C29.7043 82.3166 28.699 82.7951 27.649 83.0877C22.776 84.4493 18.9805 81.2442 21.9033 70.8044C24.2632 62.4165 30.2207 57.9841 33.949 57.0632C37.3899 56.1991 38.8978 58.5676 37.7996 62.0946C36.908 64.9709 34.3467 68.3034 29.7456 70.8079C29.8936 71.4224 30.0417 72.0369 30.188 72.6531C36.3675 69.7768 40.0735 65.909 41.1304 61.4904C42.1907 57.0942 39.8204 53.3056 34.0282 54.7515C27.0208 56.5003 20.0133 64.1963 17.6207 73.1626C14.9113 83.3511 18.922 88.4255 25.5146 86.5148C27.2445 86.0174 28.7748 85.1447 29.9057 84.2685C29.3617 85.9726 28.8195 87.6784 28.2773 89.386C27.384 89.6321 26.4906 89.8834 25.599 90.1399C14.6411 93.4397 15.4381 102.719 23.6315 100.177C27.124 99.1458 29.7077 96.4089 31.2431 91.4997C33.1796 85.3478 35.1213 79.2182 37.0646 73.111C35.7254 73.4329 34.3897 73.7651 33.054 74.1076L33.0591 74.1093ZM22.5918 97.8703C19.9135 98.6897 19.4728 95.4157 23.9362 94.0783C24.9552 93.7788 25.9759 93.4844 26.9967 93.197C25.8727 95.8564 24.3028 97.3557 22.5901 97.8703H22.5918Z" fill="#005742"/>
    <path d="M41.0066 82.184C41.8466 79.54 42.6883 76.8995 43.53 74.2642C45.7711 70.3465 47.3651 69.3378 48.0984 69.1932C48.7111 69.0727 49.0382 69.6236 48.7111 70.751C48.4254 71.6668 47.8935 72.6686 46.8332 74.0697C47.4184 73.9527 48.0037 73.8356 48.5889 73.722C50.102 72.3226 51.4928 70.3895 51.9834 68.787C52.5979 66.7541 52.0229 65.2153 50.1846 65.5596C48.3428 65.9055 46.6284 67.4341 44.8348 70.1417C45.1876 69.0314 45.5422 67.9212 45.8951 66.8109C44.6988 67.0554 43.5025 67.3101 42.3096 67.5718C40.6812 72.703 39.0546 77.8497 37.4314 83.0119C38.6225 82.7279 39.8137 82.4525 41.0066 82.184Z" fill="#005742"/>
    <path d="M96.2846 69.0143C95.8697 68.7061 95.4549 68.3997 95.0418 68.0933C93.5511 70.2829 90.1946 72.9991 88.2082 73.0903C87.6694 73.1144 87.2546 72.8063 87.5868 71.8079C88.5111 69.1192 89.4355 66.4357 90.3615 63.7556C91.6732 63.7092 92.9848 63.673 94.2964 63.6455C94.5581 62.8898 94.8214 62.1342 95.0831 61.3785C93.7714 61.4026 92.4598 61.4353 91.1482 61.4784C91.8109 59.5746 92.4736 57.6725 93.1363 55.7739C91.921 55.8049 90.7075 55.8428 89.4923 55.891C88.8296 57.7982 88.1669 59.7088 87.5042 61.6229C86.7726 61.6574 86.041 61.6935 85.3095 61.7331C85.0478 62.4974 84.7845 63.2634 84.5228 64.0276C85.2544 63.9863 85.9842 63.9467 86.7158 63.9106C86.1374 65.5992 85.5591 67.2895 84.9807 68.9815C83.2766 71.3587 80.8134 73.5069 79.3537 73.6205C78.8167 73.6618 78.4036 73.4088 78.7341 72.4001C79.9183 68.8955 81.1043 65.3995 82.2903 61.9121C81.0768 61.9913 79.865 62.0791 78.6515 62.1755C78.4587 62.7366 78.2659 63.2978 78.0731 63.8589C77.4534 62.4767 76.171 61.9689 74.6856 62.1101C71.2963 62.4233 67.7538 65.792 66.2701 70.1159C66.0669 70.708 65.9327 71.295 65.8483 71.8682C63.738 74.1145 60.9667 75.6551 59.032 75.9563C57.1833 76.242 56.1591 75.7188 55.7081 74.7686C59.9735 73.197 63.4316 70.2811 64.2957 67.7095C65.1185 65.2308 63.8843 63.3339 61.0872 63.7384C57.0989 64.3168 53.6184 67.8747 52.145 72.2761C50.7559 76.4675 52.5082 80.2406 57.2693 79.4643C60.2214 78.9892 63.361 76.8101 65.8432 74.2109C66.1995 76.452 67.6471 77.996 70.0225 77.7292C72.0846 77.4986 73.6115 76.1629 74.7682 74.5001C74.6442 76.2713 75.4274 77.1767 76.999 77.0424C79.2333 76.8514 81.693 75.0388 83.7482 72.8838C83.2801 75.2282 84.0099 76.5312 85.8483 76.4331C89.2427 76.2438 94.0486 72.2624 96.2863 69.0108L96.2846 69.0143ZM55.832 71.3535C56.4879 69.238 58.3761 66.4753 60.1835 66.2068C62.1992 65.9279 61.6587 70.6133 55.5033 72.9216C55.5446 72.4242 55.6685 71.9129 55.8303 71.3535H55.832ZM75.4705 71.6547C74.436 73.1402 73.157 74.1644 71.8368 74.3038C69.6903 74.531 68.9915 72.5326 69.9795 69.3895C70.7627 66.9693 72.5356 64.8091 74.8095 64.5974C76.0488 64.482 76.8733 64.9829 77.2469 66.3445C76.6547 68.1123 76.0626 69.8835 75.4705 71.6565V71.6547Z" fill="#005742"/>
    <path d="M126.872 62.6936C125.662 62.5714 124.45 62.4578 123.239 62.3528C123.046 62.8812 122.853 63.4114 122.66 63.9398C122.039 62.4543 120.758 61.7348 119.271 61.6281C115.878 61.3785 112.319 64.155 110.828 68.2311C109.422 72.1109 110.911 76.2782 114.596 76.4727C116.665 76.5863 118.195 75.5053 119.354 74.0336C119.23 75.7842 120.016 76.8204 121.586 76.9461C123.829 77.1268 126.297 75.7119 128.349 73.8907C128.041 76.0923 128.99 77.6432 130.997 77.8756C132.976 78.1028 135.57 77.0476 137.214 75.3573C137.543 77.7757 139.149 78.9428 141.078 79.2423C143.789 79.652 147.846 77.8704 149.358 73.3726C149.399 73.216 149.48 73.0266 149.521 72.8717C149.63 72.8924 149.74 72.913 149.848 72.9337C150.874 73.1282 151.943 73.0421 152.904 72.7168C151.966 75.2678 151.029 77.8256 150.089 80.387C151.289 80.6142 152.487 80.8517 153.683 81.0944C154.336 79.3043 154.988 77.5158 155.641 75.7308C158.737 71.2743 160.603 71.1039 161.173 71.2347C161.701 71.3587 162.025 71.8854 161.66 72.7822C160.997 74.4261 160.333 76.0734 159.67 77.7224C158.45 80.7226 159.181 82.6797 161.335 83.1824C163.454 83.6781 165.774 82.7348 167.736 81.3165C168.848 83.8313 170.447 85.4769 173.139 86.236C176.198 87.1018 178.4 86.1465 178.4 83.2409C178.4 81.8088 177.878 80.1752 177.236 78.5503C175.792 74.927 175.993 72.6548 177.157 71.61C176.262 71.3415 175.365 71.0781 174.467 70.8182C172.898 73.0662 171.169 75.2437 169.511 77.2146C169.315 77.4435 169.134 77.6483 168.962 77.8411C167.311 79.5762 165.025 80.8345 163.609 80.492C163.121 80.3732 162.634 79.9291 163.001 79.034C163.825 76.9822 164.65 74.9338 165.473 72.8906C166.08 71.3673 166.041 69.1812 163.812 68.6321C161.622 68.0968 159.226 69.0969 157.148 71.6341C157.624 70.3603 158.099 69.0866 158.572 67.8145C157.379 67.5477 156.185 67.2895 154.988 67.0399C154.611 68.0641 154.236 69.0883 153.859 70.1124C152.997 71.0506 151.399 71.4654 150.01 71.2038C149.969 71.1952 149.929 71.1883 149.888 71.1814C150.377 68.2087 149.644 65.563 147.392 65.1568C146.287 64.9571 145.221 65.3892 144.851 66.7197C144.237 68.8679 145.468 70.7476 147.229 71.8802C147.187 72.2004 147.106 72.2675 147.024 72.4982C146.123 74.7118 144.402 76.5381 142.309 76.2042C140.216 75.8737 140.502 73.9992 141.324 71.7924C142.159 69.5083 142.992 67.2275 143.827 64.952C142.624 64.7523 141.421 64.5612 140.216 64.3788C139.49 66.3703 138.765 68.3636 138.038 70.3603C136.765 73.8167 134.377 75.0526 133.057 74.8908C132.276 74.7944 131.821 74.3314 132.274 73.0352C133.4 69.9248 134.525 66.8213 135.651 63.7264C134.444 63.5646 133.236 63.4114 132.028 63.2651C131.177 65.6078 130.329 67.9539 129.478 70.3052C127.785 72.357 125.38 74.0422 123.943 73.9165C123.406 73.8683 122.991 73.5465 123.323 72.5929C124.507 69.2862 125.691 65.9865 126.874 62.6953L126.872 62.6936ZM120.056 71.3019C119.021 72.617 117.741 73.4277 116.415 73.3451C114.264 73.216 113.56 71.0988 114.553 68.1209C115.341 65.8316 117.119 63.9674 119.395 64.1326C120.636 64.2238 121.462 64.8625 121.834 66.286C121.242 67.9556 120.65 69.6288 120.058 71.3019H120.056ZM174.186 78.6347C174.587 79.7311 174.708 80.3801 174.708 80.8724C174.708 82.4284 173.623 83.1324 171.85 82.6401C170.495 82.2649 169.533 81.3251 169.161 80.1408C169.662 79.6778 170.12 79.1975 170.525 78.7173C170.535 78.707 170.542 78.6966 170.552 78.6863C170.609 78.6192 170.669 78.5503 170.724 78.4832C170.724 78.4832 170.724 78.4832 170.723 78.4815C172.053 76.9237 172.535 76.3247 173.3 75.3125C173.379 76.1938 173.663 77.175 174.186 78.6347Z" fill="#005742"/>
    <path d="M181.872 89.5563L181.86 89.5443C180.381 90.5891 178.825 91.5255 175.852 90.6459C151.802 83.5661 127.008 79.9204 102.192 79.7087C104.612 72.8579 107.032 66.038 109.451 59.2526C112.596 59.1562 116.035 58.3266 119.526 56.3057C122.178 54.7721 123.772 52.5034 124.507 50.4344C125.747 46.9177 124.22 43.5026 119.424 43.1394C113.51 42.7143 109.657 46.947 108.248 50.9903C107.544 52.9681 106.841 54.9476 106.137 56.9306C102.082 56.4813 98.3277 54.9941 96.6667 52.6308C96.2639 52.9612 95.8611 53.2917 95.4566 53.6222C96.5978 55.5449 100.369 58.1183 105.411 58.9738C102.98 65.847 100.55 72.7529 98.1195 79.6915C97.2003 79.6966 96.2828 79.7087 95.3637 79.7242C84.0426 80.0564 84.8568 89.5494 93.3359 89.231C96.7906 89.1484 99.3691 87.2601 100.965 83.1427C125.831 83.2425 150.685 86.7884 174.804 93.7838C177.981 94.7082 180.357 94.7822 181.927 93.0747C182.694 92.2398 182.631 90.4015 181.868 89.5615L181.872 89.5563ZM112.432 50.906C113.758 47.2035 115.827 45.1792 118.639 45.3737C121.202 45.5562 122.113 47.5649 121.202 50.0677C120.7 51.4517 119.593 52.858 118.047 54.2092C116.093 55.9167 113.255 56.7774 110.251 57.0046C110.978 54.9683 111.704 52.9354 112.43 50.906H112.432ZM92.2619 86.6352C89.494 86.7282 89.0396 83.3355 93.6509 83.2064C94.7027 83.1823 95.7544 83.1634 96.8061 83.1513C95.6494 85.5078 94.0314 86.5836 92.2636 86.6352H92.2619Z" fill="#005742"/>
    <path d="M32.3 91.7648C48.1964 87.6388 64.3767 84.9915 80.6379 83.8244C82.8343 83.666 84.7897 82.1771 85.504 80.0823C68.0035 81.0187 50.5718 83.6678 33.4654 88.0278C33.0764 89.2724 32.6891 90.5186 32.3 91.7648Z" fill="#005742"/>
    </g>
    <defs>
    <filter id="filter0_d_149_1381" x="0" y="0" width="198" height="136.601" filterUnits="userSpaceOnUse" color-interpolation-filters="sRGB">
    <feFlood flood-opacity="0" result="BackgroundImageFix"/>
    <feColorMatrix in="SourceAlpha" type="matrix" values="0 0 0 0 0 0 0 0 0 0 0 0 0 0 0 0 0 0 127 0" result="hardAlpha"/>
    <feOffset dy="4"/>
    <feGaussianBlur stdDeviation="2"/>
    <feComposite in2="hardAlpha" operator="out"/>
    <feColorMatrix type="matrix" values="0 0 0 0 0 0 0 0 0 0 0 0 0 0 0 0 0 0 0.25 0"/>
    <feBlend mode="normal" in2="BackgroundImageFix" result="effect1_dropShadow_149_1381"/>
    <feBlend mode="normal" in="SourceGraphic" in2="effect1_dropShadow_149_1381" result="shape"/>
    </filter>
    </defs>
    </svg>