<svg xmlns="http://www.w3.org/2000/svg" width="234" height="55" viewBox="0 0 234 55" fill="none"><path d="M45.2874 33.0389L44.5224 33.4426L43.7069 33.7252L42.8773 33.9593L42.0376 34.1572L41.2261 34.355L41.9669 34.4822L42.6492 34.8495L43.3718 35.118L44.2075 35.4571L43.602 36.2181L43.0267 36.8358L42.3081 37.298L41.7651 37.9541L41.0142 38.3517L40.4369 38.9956L39.6274 39.2883L38.8886 39.6819L38.1761 40.124L37.5059 40.6589L36.7066 40.9355L35.9315 41.2584L35.124 41.5027L34.4438 42.0537L33.5072 42.1688L32.728 42.6775L31.7793 42.7421L30.9436 43.1256L30.0333 43.2346L29.1512 43.5232L28.2166 43.5656L28.2469 42.6916L28.372 41.8236L28.2549 40.9556L28.1116 40.0877L28.2105 39.2197L28.2913 38.3517L28.1762 37.6674C28.2105 37.5948 28.2509 37.5039 28.3256 37.3545C28.4689 36.969 28.5537 36.7671 28.697 36.5814C28.8686 36.4099 29.5407 35.1644 29.8415 34.5488C30.0555 34.1047 30.0696 33.7615 30.2856 33.5617C30.5137 33.376 30.5581 33.0752 30.6711 32.8613C30.8144 32.617 31.0567 32.1749 31.2444 31.9307C31.3736 31.6723 31.4584 31.4018 31.7026 31.0728C31.9024 30.7579 32.3607 29.9424 32.3607 29.9424C32.3889 29.9707 32.4616 30.1281 32.4616 30.3441L32.3607 31.9186C32.3607 32.3041 32.3465 32.5625 32.3465 32.8774C32.3465 32.9339 32.3465 32.9925 32.3041 34.1511C32.3041 34.3227 32.4475 34.466 32.4757 34.6376C32.4757 34.6658 32.3324 34.8818 32.3324 34.9101C32.2315 35.6691 32.2315 35.6832 32.2315 35.7114C32.2315 36.0263 32.3041 36.4987 32.3041 37.2718C32.3041 37.4999 32.2476 37.6008 32.2173 37.8289H31.5452C31.4442 37.8289 31.3312 37.843 31.3312 37.9298C31.3312 38.0732 31.3453 38.388 31.531 38.388H31.632C31.7329 38.388 31.8035 38.4022 31.9045 38.4022C32.0478 38.4022 32.1326 38.3739 32.2194 38.3739C32.4919 38.3739 32.9783 38.4304 33.1923 38.4304C33.4365 38.4304 34.4943 38.388 34.7244 38.388C34.9242 38.388 35.0251 38.1741 35.0251 38.0025C35.0251 37.8309 34.9828 37.7885 34.8394 37.7885C34.7526 37.7885 34.1673 37.7744 33.9957 37.7603C34.0098 37.617 34.0239 37.516 34.0239 37.403C34.0239 37.1446 33.9392 36.9448 33.9392 36.7167C33.9392 36.43 33.9957 36.1434 33.9957 35.772C33.9957 35.443 33.9533 34.7567 33.9533 34.47C33.9533 34.1693 34.0381 33.9836 34.0381 33.7696C34.0381 33.5395 33.923 33.3397 33.923 33.0974C33.923 32.8108 33.9795 32.5686 33.9795 32.3243C33.9795 31.9953 33.7938 31.7813 33.7938 31.5088C33.7938 31.1939 33.9371 30.9638 33.9513 30.7216C33.9795 30.3784 34.0078 29.7345 34.0078 29.133C34.0078 28.7616 33.9937 28.4023 33.9654 28.1601C34.1228 28.1459 34.5528 28.1459 34.6376 28.1459C34.8657 28.1459 34.9807 27.932 34.9807 27.7442C34.9807 27.5727 34.9101 27.5141 34.7809 27.5141C34.5811 27.5141 33.707 27.5 33.4365 27.5C33.1923 27.5 32.9925 27.5848 32.8068 27.6009C32.5625 27.6009 32.3627 27.5282 32.1487 27.5282C31.7914 27.5282 31.4765 27.5565 31.1616 27.5565C30.9618 27.5565 30.762 27.5848 30.762 27.6716C30.762 27.829 30.7761 28.1439 30.9759 28.1439C31.1334 28.1439 31.4765 28.158 31.5775 28.158C31.4341 28.3882 31.3494 28.5012 31.2343 28.8585C31.1051 29.2743 30.9477 29.3449 30.762 29.7749C30.548 30.1907 30.4047 30.4915 30.1746 30.7781C29.9747 31.1071 29.8597 31.3938 29.8173 31.7934C29.7608 32.2093 29.4015 32.1366 29.3026 32.3808C29.2016 32.6251 29.1027 33.0813 28.8726 33.4547C28.7575 33.6828 28.3861 34.2702 28.372 34.4842C28.3579 34.6779 28.263 34.8192 28.156 34.9565L28.1479 34.8838L28.0975 34.0159L28.3781 33.1479L28.3902 32.2799L28.3155 31.4119L28.3034 30.544L28.15 29.676L28.0753 28.808L28.1459 27.94L28.0692 27.0721L28.1722 26.2041V25.3361L28.2489 24.4681L28.2529 23.6002L28.3175 22.7322L28.1964 21.8642L28.1015 20.9962L28.2085 20.1L29.131 20.1727L30.0272 20.0798L30.9234 20.2029L31.8197 19.9869L32.4777 20.1464C32.4818 20.213 32.4858 20.3018 32.4858 20.4472C32.4858 20.863 32.5565 20.6046 32.5565 21.1638C32.5565 21.5352 32.4858 22.1367 32.4858 22.5949C32.4858 22.8089 32.4999 22.9663 32.4999 23.1096C32.4999 23.2247 32.4999 23.3236 32.4575 23.4528C32.4152 23.6244 32.4152 23.7818 32.4152 23.911C31.8278 23.911 31.7006 23.911 31.5714 23.8969C31.3716 23.8969 31.3574 24.1835 31.3574 24.341C31.3574 24.4257 31.5431 24.456 31.7147 24.456C31.8439 24.456 31.9731 24.4419 32.0155 24.4419C32.4152 24.4419 32.6594 24.4843 32.9036 24.4843C33.0752 24.4843 33.2751 24.4278 33.4184 24.4278C33.6182 24.4278 33.7898 24.5125 34.0199 24.5125C34.25 24.5125 34.7506 24.4984 34.9222 24.4984C35.0796 24.4984 35.0938 24.3833 35.0938 24.2683C35.0938 24.0967 34.9928 23.8969 34.8071 23.8969H34.135C34.1208 23.7253 34.0926 23.6405 34.0926 23.3398C34.0926 21.9793 34.0643 21.9086 34.0643 21.7794C34.0643 21.2647 34.135 20.8206 34.135 20.3624C34.135 20.2473 34.1451 20.1585 34.1854 20.102L34.5124 20.0657L35.4087 20.2029L36.3049 20.1121L36.9307 20.211L37.4979 20.865C37.7421 21.1658 38.0267 21.295 38.1983 21.5372C38.2992 21.6805 38.3699 21.9954 38.4708 22.1226C38.715 22.4516 38.9431 22.7241 39.2722 23.1682C39.5305 23.5113 39.7021 23.6405 39.8737 23.8404C39.7889 23.8404 39.6597 23.8545 39.5305 23.8545C39.3166 23.8545 39.0865 23.8686 39.0865 23.9534C39.0865 24.0967 39.1006 24.4116 39.2863 24.4116C39.4155 24.4116 39.6012 24.4257 39.7586 24.4257C39.9302 24.4257 40.0311 24.4116 40.1159 24.4116C40.4026 24.4116 41.0323 24.454 41.3028 24.454C41.7328 24.454 42.0618 24.4116 42.405 24.4116C42.6048 24.4116 42.7057 24.1976 42.7057 24.0402C42.7057 23.8686 42.6633 23.8101 42.52 23.8101H41.9467C41.8176 23.582 41.5027 23.4811 41.0586 22.8654C40.9435 22.708 40.5015 22.1791 40.344 21.949C40.0291 21.4908 39.7869 21.3898 39.4559 20.8045C39.3125 20.532 38.9694 20.0879 38.7413 19.8456C38.9553 19.7891 39.2278 19.6882 39.4135 19.6176C39.7566 19.4884 40.9153 18.9151 41.3311 17.9422C41.5592 17.3992 41.5753 16.84 41.5753 16.3112C41.5753 15.4371 41.4179 15.2958 41.1757 14.8235C41.0606 14.5651 40.3602 14.1372 39.9867 14.0645C39.6436 14.008 39.5871 13.7214 39.1006 13.7214C38.9997 13.7214 38.5132 13.6063 38.4143 13.6063C37.9561 13.6063 37.1688 13.5781 36.8398 13.5498C36.3816 13.5498 35.1806 13.6225 34.9928 13.6225C34.8213 13.6225 34.4781 13.6225 34.1915 13.6648C33.9634 13.6648 33.7757 13.6225 33.59 13.6225C33.3316 13.6225 32.6594 13.6951 32.3586 13.6951C32.2294 13.6951 32.1305 13.6669 32.0155 13.6669C31.858 13.6669 31.6865 13.681 31.5573 13.681C31.3716 13.681 31.3574 13.9818 31.3574 14.1251C31.3574 14.2099 31.5431 14.2401 31.7147 14.2401C31.9004 14.2401 32.072 14.226 32.2294 14.226C32.401 14.226 32.4878 14.226 32.4878 14.3411C32.4878 14.5268 32.4737 14.656 32.4737 14.8558C32.4737 15.5986 32.5746 16.1578 32.5746 16.7169C32.5746 16.9167 32.5322 17.1024 32.5322 17.2902C32.5322 17.5627 32.4898 17.8332 32.4898 18.1057C32.4898 18.3196 32.5746 18.4932 32.5746 18.6789C32.5746 18.6971 32.5746 18.7173 32.5746 18.7354L31.8278 18.7859L30.9315 18.7718L30.0353 18.8344L29.139 18.5619L28.2186 18.6991L28.0955 17.8311V16.9894L28.4023 16.1477L28.1863 15.3059L28.37 14.4642L28.2569 13.6225L28.2529 12.7807L28.3781 11.9794L28.9755 11.4989L29.6053 10.9438L29.9969 10.199L30.2452 9.36938L30.0898 8.5337L29.5851 7.86758L29.0422 7.26807L28.3135 6.9128L27.5161 6.62213L26.7329 6.95923L25.865 7.09649L25.2533 7.72426L25.0353 8.56196L24.7104 9.36736L24.9485 10.2273L25.3623 10.9923L26.0264 11.5413L26.6219 11.9874L26.8641 12.7787L26.7329 13.6204L26.9267 14.4622L26.8763 15.3039L26.6663 16.1456L26.9045 16.9874L26.7047 17.8291L26.7693 18.6527L25.8892 18.5679L24.9929 18.6325L24.0967 18.574L23.2005 18.7092L22.3042 18.5962L21.408 18.7677L20.5118 18.6305L19.6155 18.5841L18.7193 18.5518L17.8231 18.7375L16.947 18.6931L16.9248 19.3975L16.9349 20.1161L17.8231 20.106L18.7193 20.098L19.6155 20.0374H20.5118L20.9114 20.0071C21.0043 20.0172 21.0709 20.0314 21.0709 20.0495C21.0709 20.3785 21.085 21.4807 21.085 21.9106C21.085 22.3123 20.4411 22.7261 20.0253 22.9138C19.5953 23.0995 19.2805 23.0128 18.909 23.2287C18.6648 23.3721 18.1642 23.4003 17.5061 23.4003C16.949 23.4003 16.3899 23.4003 15.7177 23.2287C15.5179 23.1722 15.0738 23.0289 14.8881 22.8715C14.6883 22.6999 14.2724 22.4274 13.8869 22.0701C13.5013 21.6987 13.1865 21.1698 13.0997 20.7399C13.0714 20.5824 13.0149 20.3099 13.0149 20.1242C13.0149 19.9244 12.9422 19.5368 12.9422 19.2663C12.9422 19.01 13.0714 18.6789 13.0714 18.3943C13.0714 18.2793 13.2147 17.6939 13.2995 17.6212C13.5437 17.3487 13.8566 16.6907 14.23 16.2466C14.6015 15.8166 15.3322 15.4028 15.5461 15.316C15.9478 15.1444 16.4767 15.0011 16.9914 15.0011C17.1347 15.0011 17.2922 15.0153 17.4779 15.0153C17.6919 15.0153 18.0653 14.9729 18.2934 14.9729C18.6951 14.9729 19.123 15.201 19.553 15.3443C19.7245 15.3867 20.0253 15.5017 20.4835 15.859C20.54 15.9014 20.5703 15.9438 20.5703 16.0165C20.5703 16.2304 20.2978 16.5897 20.2978 16.7754C20.2978 16.832 20.3261 16.8905 20.3987 16.9046C20.5279 16.947 20.6571 17.0621 20.756 17.0621C20.8711 17.0621 21.0003 16.947 21.1577 16.5615C21.4726 15.8166 21.4726 15.5744 21.8016 15.1162C22.1165 14.6721 22.0741 14.6156 22.274 14.2442C22.3163 14.1715 22.3305 14.1009 22.3305 14.0443C22.3305 13.8162 22.058 13.7153 21.9591 13.7153C21.844 13.7294 21.7734 13.8162 21.63 13.9454C21.5291 14.0443 21.4019 14.4036 21.2586 14.4036C20.9013 14.4036 20.6006 14.0887 20.2272 14.0746C20.0132 14.0605 19.884 13.9454 19.7124 13.903C19.3269 13.8021 18.9252 13.6891 18.4528 13.6447C18.3095 13.6305 18.0956 13.6305 17.8796 13.6305C17.3931 13.6305 16.6341 13.6729 16.3051 13.7315C15.8186 13.8304 14.8598 13.9454 14.5308 14.1614C14.2159 14.3754 13.5155 14.7771 13.3722 15.0193C13.2006 15.2635 13.0855 15.1767 12.8433 15.4069C12.5849 15.6632 11.8562 16.3939 11.8562 16.8239C11.828 16.9955 11.7129 17.0378 11.5837 17.2114C11.3698 17.5405 11.069 18.8424 11.069 19.559C11.069 20.6611 11.3132 21.3051 11.4121 21.5473C11.5272 21.7915 12.0702 22.7927 12.3568 23.1076C12.5425 23.3075 13.459 23.7092 13.5155 23.8081C13.6447 24.0523 14.331 24.2219 15.2615 24.452C15.964 24.567 16.6503 24.6962 17.4093 24.6962C17.9099 24.6962 19.2118 24.5105 19.5853 24.4096C20.8872 24.0523 21.7027 23.3801 22.2477 23.2651C22.5767 23.1944 22.8492 23.2509 22.8492 23.1359V22.8351C22.8492 22.7362 22.6353 22.7645 22.6353 22.607V21.4201C22.6353 21.2344 22.607 20.7621 22.607 20.5178C22.607 20.4411 22.6131 20.318 22.6232 20.211L23.2065 20.215L24.1028 20.0677L24.999 20.2473H25.8952L26.6805 20.2514L26.8359 21.0043L26.6623 21.8723L26.852 22.7402L26.848 23.6082L26.8157 24.4762L26.6704 25.3442L26.7612 26.2122L26.9489 27.0801L26.844 27.9481L26.6381 28.8161L26.953 29.6841L26.8278 30.552L26.9287 31.42V32.288L26.9489 33.156V34.0239L26.7753 34.579C26.6219 34.25 26.301 33.7333 26.2162 33.6364C26.0729 33.4931 25.873 32.9359 25.7862 32.7482C25.6571 32.504 25.3704 32.29 25.3563 32.0619C25.2998 31.7046 24.8274 31.1031 24.6559 30.7297C24.4278 30.2432 24.1552 29.6699 23.9251 29.2985C23.7677 29.0119 23.4669 28.8544 23.3377 28.3982C23.3236 28.3417 23.3095 28.2832 23.2671 28.2267C23.4104 28.2267 23.8242 28.2125 23.8969 28.2125C24.0685 28.2125 24.0826 28.0551 24.0967 27.8976C24.0967 27.6251 23.6244 27.5969 23.4669 27.5969C23.2671 27.5969 22.6514 27.611 22.28 27.611C21.8642 27.611 21.5352 27.6251 21.2344 27.6251C21.0204 27.6251 20.8186 27.611 20.6188 27.5969H19.9607C19.6599 27.5969 19.6317 27.7826 19.6317 28.0692C19.6317 28.154 19.8759 28.1681 20.0758 28.1681H20.5764C20.5764 28.2246 20.5622 28.2973 20.5622 28.3538C20.5622 28.6405 20.6329 28.8827 20.6329 29.1269C20.6329 29.456 20.532 29.8435 20.532 30.1423C20.532 31.0002 20.6167 31.6743 20.6167 32.3465C20.6167 32.8047 20.5885 33.4063 20.5885 33.7494C20.5885 34.0361 20.6309 34.579 20.645 34.9505C20.6309 35.2936 20.5743 35.7518 20.5743 36.1959C20.5743 36.4684 20.5885 36.5976 20.5885 36.7409C20.5885 36.9973 20.5743 37.185 20.5602 37.3424C20.532 37.4575 20.5037 37.514 20.5037 37.6715C20.5037 37.6997 20.5178 37.7441 20.5178 37.7865C20.433 37.7724 20.3462 37.7583 20.2594 37.7583C20.0737 37.7583 19.888 37.7724 19.7447 37.7724C19.5731 37.7724 19.559 38.0732 19.559 38.2165C19.559 38.3012 19.773 38.3174 19.9607 38.3174C20.104 38.3174 20.3039 38.3033 20.4754 38.3033C20.6894 38.3033 20.9478 38.3618 21.19 38.3618C21.3333 38.3618 21.4908 38.3477 21.62 38.3477C21.8198 38.3477 21.9207 38.3901 22.1488 38.3901C22.3769 38.3901 22.8795 38.3618 23.0511 38.3618C23.2085 38.3618 23.2227 38.3194 23.2227 38.1478C23.2227 37.9763 23.1218 37.7764 22.936 37.7764C22.821 37.7764 22.3789 37.7764 22.2215 37.7482C22.1932 37.6634 22.1206 37.7199 22.1064 37.4898C22.1064 37.3889 22.1488 37.1184 22.1488 36.8883C22.1488 36.4159 22.2195 35.6711 22.2195 35.2431C22.2195 34.7708 22.0903 34.5851 22.0903 33.8685C22.0903 33.5112 22.1609 33.2529 22.1609 32.9945C22.1609 32.5221 22.1468 32.1931 22.1468 31.8782C22.1468 31.2626 22.0459 30.7337 22.0459 30.2048C22.0459 30.0474 22.0883 29.8476 22.1306 29.8476C22.2013 29.8476 22.4597 30.1483 22.5465 30.3199C22.6615 30.5339 22.8755 30.9497 23.0329 31.3655C23.1904 31.8096 23.3761 31.5371 23.477 31.8237C23.6486 32.1245 23.7637 32.2819 23.8343 32.611C23.8908 32.94 24.2501 33.1984 24.3934 33.4991C24.5226 33.7716 24.4641 33.814 24.7083 34.0421C24.8658 34.2864 24.8799 34.4579 24.9526 34.7425C24.995 35.0433 25.324 35.4733 25.4673 35.7882C25.6389 36.1313 25.8973 36.1172 25.982 36.5047C26.0668 36.9044 26.2828 37.2637 26.3979 37.4918C26.4826 37.7502 26.7128 38.0651 26.7834 38.1781C26.7834 38.1781 26.7854 38.1822 26.7874 38.1842L26.8076 38.3719L26.9086 39.2399L26.737 40.1078L26.7329 40.9758L26.6441 41.8438V42.7118L26.8722 43.61L25.867 43.5979L24.9546 43.4627L24.1129 43.0287L23.1702 42.9944L22.3688 42.518L21.521 42.1829L20.6349 41.9427L19.8456 41.652L19.1149 41.2281L18.3237 40.9435L17.5647 40.5842L16.8138 40.2068L16.1497 39.6739L15.3079 39.4498L14.7145 38.82L13.9051 38.5152L13.3338 37.8773L12.7444 37.2819L12.1025 36.749L11.4364 36.2201L11.0407 35.5318L11.6261 35.0736L12.4174 34.9727L13.1663 34.7668L13.7981 34.3731L12.9624 34.244L12.1085 34.0441L11.3132 33.6505L10.4715 33.4204L9.64389 33.1358L8.72949 32.6695L8.73958 33.6364L9.17761 34.3954L9.42185 35.1886L9.69638 35.99L10.1526 36.7005L10.7319 37.3142L11.2285 38.0005L11.834 38.5879L12.5304 39.0663L13.3055 39.4256L13.9111 40.015L14.6721 40.3743L15.3362 40.891L16.071 41.2907L16.7189 41.862L17.5606 42.0537L18.2732 42.5099L19.0261 42.8813L19.7891 43.2305L20.6349 43.4586L21.3959 43.8805L22.2114 44.2055L22.9542 44.6617L23.7152 45.0957L24.3914 45.6508L24.9849 46.3028L25.7257 46.7751L26.2566 47.4796L27.0135 47.954L27.5182 48.832L28.0147 47.9459L28.6001 47.2939L29.4156 46.8902L29.9384 46.1655L30.6792 45.6972L31.3494 45.1361L32.1366 44.7485L32.8068 44.1752L33.6909 43.9794L34.359 43.3718L35.1705 43.0469L36.0324 42.9318L36.7591 42.4978L37.4958 42.0941L38.2124 41.6541L38.9371 41.2362L39.7647 41.0021L40.5075 40.6064L41.0727 39.9343L41.753 39.4559L42.5402 39.1107L43.0832 38.4547L43.7776 37.9702L44.3084 37.3182L44.9241 36.7308L45.2915 35.9638L45.5842 35.1786L45.9152 34.4155L46.2402 33.6303L46.3008 32.6735L45.2996 33.0591L45.2874 33.0389ZM34.0986 16.9611C34.0986 16.5595 34.1693 16.3031 34.1693 16.2304C34.1693 16.1578 34.1269 15.9862 34.1269 15.8005C34.1269 15.6713 34.1834 15.0698 34.1975 15.0698C34.684 14.9264 34.9706 14.9264 35.8568 14.9264C36.3856 14.9264 37.7744 14.9688 38.4042 14.9688C38.6767 14.9688 38.818 14.983 39.0057 15.0839C39.3347 15.2413 39.4074 15.0839 39.5931 15.3564C39.793 15.6006 39.9928 16.0427 40.0089 16.4868C40.0089 16.8885 39.795 17.5304 39.5507 17.8453C39.3065 18.1602 38.9633 18.247 38.5051 18.4751C38.4062 18.5255 38.2972 18.5659 38.1822 18.6002V18.5417L37.1931 18.7092L36.2968 18.5699L35.4006 18.5901L34.5044 18.6769L34.1673 18.6123C34.1592 18.033 34.0825 17.6232 34.0825 17.2155C34.0825 17.1307 34.0966 17.0439 34.0966 16.9571L34.0986 16.9611ZM26.5836 10.2797L26.4281 9.35928L26.6825 8.53773L27.504 8.19458L28.3276 8.53572L28.6808 9.35928L28.3962 10.2515L27.504 10.746L26.5836 10.2797Z" fill="white"/><path d="M24.5044 0.455472L26.9327 2.48411C27.399 2.7546 29.579 2.90599 30.4975 2.64156L28.5173 0.291969C27.0437 -0.127889 25.7357 -0.113759 24.5064 0.45749L24.5044 0.455472Z" fill="#EBCE83"/><path d="M30.4955 54.5445L28.0672 52.5159C27.6009 52.2454 25.4209 52.094 24.5024 52.3584L26.4826 54.708C27.9562 55.1279 29.2642 55.1137 30.4935 54.5425L30.4955 54.5445Z" fill="#EBCE83"/><path d="M19.8538 1.38806L22.597 2.96455C23.1037 3.14824 25.2756 2.92014 26.1335 2.50028L23.7738 0.530177C22.2498 0.37273 20.964 0.612937 19.8518 1.38806H19.8538Z" fill="#EBCE83"/><path d="M35.1462 53.614L32.403 52.0375C31.8963 51.8538 29.7243 52.0819 28.8665 52.5017L31.2261 54.4718C32.7501 54.6293 34.036 54.3891 35.1482 53.614H35.1462Z" fill="#EBCE83"/><path d="M15.4351 3.11187L18.4104 4.18776C18.9413 4.28061 21.0406 3.67908 21.8137 3.11591L19.1492 1.58585C17.6211 1.69485 16.3979 2.15508 15.4351 3.11187Z" fill="#EBCE83"/><path d="M39.5649 51.8881L36.5896 50.8122C36.0587 50.7194 33.9594 51.3209 33.1863 51.8841L35.8508 53.4141C37.3788 53.3051 38.602 52.8449 39.5649 51.8881Z" fill="#EBCE83"/><path d="M11.384 5.57654L14.5007 6.11953C15.0396 6.11953 17.0037 5.16072 17.6658 4.47441L14.7752 3.4288C13.2895 3.80223 12.1632 4.46836 11.384 5.57654Z" fill="#EBCE83"/><path d="M43.6182 49.4235L40.5015 48.8805C39.9626 48.8805 37.9985 49.8393 37.3364 50.5256L40.227 51.5712C41.7126 51.1978 42.839 50.5317 43.6182 49.4235Z" fill="#EBCE83"/><path d="M7.82104 8.70934L10.9841 8.70127C11.515 8.60841 13.2832 7.3226 13.8161 6.53133L10.7883 6.00449C9.38946 6.63024 8.39633 7.48005 7.82104 8.70934Z" fill="#EBCE83"/><path d="M47.1789 46.2927L44.0159 46.3008C43.485 46.3936 41.7167 47.6794 41.1838 48.4707L44.2117 48.9976C45.6105 48.3718 46.6036 47.522 47.1789 46.2927Z" fill="#EBCE83"/><path d="M4.85791 12.4114L7.97253 11.8542C8.47919 11.6705 9.99714 10.0981 10.3847 9.22406L7.31045 9.23012C6.0428 10.088 5.21116 11.0993 4.85791 12.4093V12.4114Z" fill="#EBCE83"/><path d="M50.144 42.5887L47.0294 43.1458C46.5227 43.3295 45.0047 44.9019 44.6172 45.7759L47.6914 45.7699C48.9591 44.912 49.7907 43.9007 50.144 42.5907V42.5887Z" fill="#EBCE83"/><path d="M2.58105 16.5736L5.55236 15.4856C6.01865 15.2151 7.23987 13.4045 7.46998 12.478L4.44418 13.0189C3.34407 14.0847 2.70217 15.2232 2.58105 16.5756V16.5736Z" fill="#EBCE83"/><path d="M52.419 38.4284L49.4477 39.5164C48.9814 39.7869 47.7601 41.5975 47.53 42.524L50.5558 41.9831C51.6559 40.9173 52.2978 39.7788 52.419 38.4264V38.4284Z" fill="#EBCE83"/><path d="M1.0631 21.0669L3.80026 19.4783C4.21406 19.1311 5.10222 17.1348 5.16682 16.182L2.28029 17.2397C1.38203 18.4811 0.948047 19.7145 1.0631 21.0649V21.0669Z" fill="#EBCE83"/><path d="M53.9389 33.9351L51.2018 35.5237C50.788 35.8709 49.8998 37.8673 49.8352 38.82L52.7217 37.7623C53.62 36.5209 54.054 35.2875 53.9389 33.9371V33.9351Z" fill="#EBCE83"/><path d="M0.34655 25.7539L2.76477 23.7152C3.11196 23.3014 3.6388 21.1819 3.53788 20.2332L0.879447 21.7754C0.211307 23.1541 -0.000640914 24.4439 0.34655 25.7539Z" fill="#EBCE83"/><path d="M54.6534 29.246L52.2352 31.2848C51.888 31.6986 51.3612 33.818 51.4621 34.7668L54.1205 33.2246C54.7887 31.8459 55.0026 30.5561 54.6554 29.246H54.6534Z" fill="#EBCE83"/><path d="M0.455472 30.4955L2.48411 28.0672C2.7546 27.6009 2.90599 25.4209 2.64156 24.5024L0.291969 26.4826C-0.127889 27.9562 -0.113759 29.2642 0.45749 30.4935L0.455472 30.4955Z" fill="#EBCE83"/><path d="M54.5446 24.5045L52.5159 26.9328C52.2455 27.3991 52.0941 29.5791 52.3585 30.4975L54.7081 28.5173C55.1279 27.0438 55.1138 25.7358 54.5426 24.5065L54.5446 24.5045Z" fill="#EBCE83"/><path d="M1.388 35.1463L2.96449 32.403C3.14817 31.8964 2.92008 29.7244 2.50022 28.8665L0.530116 31.2262C0.372669 32.7502 0.612876 34.0361 1.388 35.1483V35.1463Z" fill="#EBCE83"/><path d="M53.614 19.8537L52.0375 22.5969C51.8538 23.1036 52.0819 25.2756 52.5018 26.1334L54.4719 23.7738C54.6293 22.2498 54.3891 20.9639 53.614 19.8517V19.8537Z" fill="#EBCE83"/><path d="M3.11196 39.5649L4.18785 36.5895C4.2807 36.0586 3.67917 33.9594 3.116 33.1862L1.58594 35.8507C1.69494 37.3788 2.15517 38.602 3.11196 39.5649Z" fill="#EBCE83"/><path d="M51.8882 15.4351L50.8123 18.4105C50.7194 18.9413 51.321 21.0406 51.8841 21.8137L53.4142 19.1493C53.3052 17.6212 52.845 16.398 51.8882 15.4351Z" fill="#EBCE83"/><path d="M5.57645 43.6181L6.11944 40.5015C6.11944 39.9625 5.16063 37.9985 4.47432 37.3364L3.42871 40.227C3.80214 41.7126 4.46826 42.839 5.57645 43.6181Z" fill="#EBCE83"/><path d="M49.4234 11.3839L48.8804 14.5005C48.8804 15.0395 49.8392 17.0035 50.5255 17.6656L51.5711 14.775C51.1977 13.2894 50.5315 12.163 49.4234 11.3839Z" fill="#EBCE83"/><path d="M8.70925 47.1788L8.70118 44.0158C8.60832 43.4849 7.32251 41.7166 6.53124 41.1837L6.00439 44.2116C6.63014 45.6104 7.47995 46.6036 8.70925 47.1788Z" fill="#EBCE83"/><path d="M46.2927 7.82114L46.3008 10.9842C46.3937 11.5151 47.6795 13.2833 48.4707 13.8162L48.9976 10.7884C48.3718 9.38955 47.522 8.39642 46.2927 7.82114Z" fill="#EBCE83"/><path d="M12.4114 50.1441L11.8543 47.0295C11.6706 46.5228 10.0982 45.0049 9.22412 44.6173L9.23018 47.6916C10.0881 48.9592 11.0994 49.7909 12.4094 50.1441H12.4114Z" fill="#EBCE83"/><path d="M42.5886 4.85794L43.1457 7.97256C43.3294 8.47922 44.9019 9.99717 45.7759 10.3847L45.7699 7.31048C44.912 6.04283 43.9007 5.21119 42.5906 4.85794H42.5886Z" fill="#EBCE83"/><path d="M16.5737 52.419L15.4857 49.4477C15.2152 48.9814 13.4045 47.7602 12.478 47.5301L13.019 50.5559C14.0848 51.656 15.2233 52.2979 16.5757 52.419H16.5737Z" fill="#EBCE83"/><path d="M38.4283 2.58099L39.5163 5.5523C39.7868 6.01858 41.5974 7.23981 42.5239 7.46992L41.983 4.44412C40.9172 3.34401 39.7787 2.70211 38.4263 2.58099H38.4283Z" fill="#EBCE83"/><path d="M21.0668 53.9389L19.4782 51.2018C19.131 50.788 17.1346 49.8998 16.1819 49.8352L17.2396 52.7218C18.481 53.62 19.7143 54.054 21.0648 53.9389H21.0668Z" fill="#EBCE83"/><path d="M33.9351 1.06307L35.5237 3.80023C35.8708 4.21403 37.8672 5.10219 38.82 5.16679L37.7622 2.28026C36.5208 1.382 35.2875 0.948016 33.9371 1.06307H33.9351Z" fill="#EBCE83"/><path d="M25.7539 54.6535L23.7152 52.2353C23.3013 51.8881 21.1819 51.3613 20.2332 51.4622L21.7753 54.1206C23.154 54.7887 24.4438 55.0027 25.7539 54.6555V54.6535Z" fill="#EBCE83"/><path d="M29.2461 0.346464L31.2848 2.76469C31.6986 3.11188 33.8181 3.63872 34.7668 3.53779L33.2247 0.879361C31.846 0.211222 30.5561 -0.00274478 29.2461 0.344446V0.346464Z" fill="#EBCE83"/><path d="M93.1553 22.8856C93.1553 23.1339 93.0806 23.4791 92.9333 23.9252C92.0673 24.9909 90.8037 25.7338 89.2171 26.1536C88.7952 26.2768 87.459 26.5997 85.18 27.1447C84.9822 27.1447 84.6855 27.169 84.2636 27.2194C83.8417 27.393 83.6197 27.4677 83.545 27.4677C83.5208 27.4677 83.4219 27.4435 83.2483 27.393C83.0989 27.3183 83 27.2941 82.9515 27.2941C83.1009 27.2941 82.8526 27.3688 82.2087 27.5424C81.2418 27.8149 80.4001 27.9643 79.6573 27.9643C76.2641 27.9643 73.3897 27.2457 70.9876 25.7842C70.4184 25.3381 69.6009 24.7184 68.5108 23.9272C67.3461 22.169 66.7527 21.1274 66.7527 20.8065C66.7527 19.7407 66.9505 18.8001 67.2735 17.9341C67.4955 17.3649 68.0163 16.3738 68.8338 14.9608C69.6998 13.895 70.4184 13.1522 70.9896 12.7323C72.0554 11.9148 73.3917 11.0226 74.952 10.0577C75.3981 9.93459 76.0905 9.71053 76.9827 9.4138C77.3299 9.24021 77.8991 8.99193 78.6924 8.6952C81.5648 8.00082 83.1998 7.67987 83.547 7.67987C83.6217 7.67987 83.7206 7.70409 83.8942 7.77878C84.0678 7.85347 84.1667 7.87769 84.1909 7.87769C84.2152 7.87769 84.3141 7.85347 84.4392 7.82722C84.5623 7.803 84.6613 7.77676 84.6875 7.77676C85.7775 7.77676 86.3225 8.24708 86.3225 9.1635C86.3225 9.98102 86.0742 10.4029 85.6039 10.4029C85.5535 10.4029 85.2325 10.3544 84.6128 10.2798C83.9931 10.1809 83.6722 10.1304 83.5975 10.1304C83.1756 10.1304 82.4328 10.2798 81.3428 10.6007C80.9209 10.6512 80.277 10.7743 79.3868 10.9479C79.2132 11.071 78.9165 11.2446 78.4946 11.4687C76.9342 11.9653 75.3739 12.807 73.7389 13.9212C71.7567 15.308 70.4688 16.7452 69.8996 18.1824C69.4051 18.9252 69.1568 19.668 69.1568 20.3624C69.1568 20.9074 69.4535 21.5009 70.049 22.1953C70.6424 22.8896 71.3368 23.3842 72.0796 23.7314C72.3279 23.9292 72.7236 24.1775 73.2928 24.45C73.6158 24.5247 74.3081 24.6983 75.3739 24.9445C76.2156 25.1423 76.91 25.2413 77.4288 25.2413H79.1123C79.9298 25.2413 81.4154 25.0677 83.5208 24.6962C85.3778 24.3491 86.4436 24.127 86.6919 24.0523C86.9886 23.9534 87.683 23.6809 88.8215 23.2853C89.6874 22.9885 90.2587 22.6656 90.6059 22.3446C90.7553 22.171 90.8542 21.8481 90.8542 21.4282C90.8542 21.1557 90.731 20.8327 90.4828 20.4371C90.2345 20.0657 89.962 19.7932 89.6652 19.6438C89.2434 19.3471 88.5994 19.0241 87.7335 18.6285C87.1643 18.5054 86.1974 18.4064 84.8106 18.3802C84.7864 18.2571 84.6613 18.1077 84.4392 17.9583L81.9382 17.809C82.1865 17.809 81.591 17.8836 80.2043 18.0572C79.9823 18.0815 79.734 18.1804 79.4857 18.4044C79.2374 18.1824 79.1143 17.9341 79.1143 17.6374C79.1143 17.4396 79.2374 17.266 79.4857 17.0924C79.956 16.8199 80.3274 16.6463 80.6242 16.5978C82.6064 16.2264 84.2656 16.1033 85.5777 16.1759C85.6019 16.1759 85.7513 16.1255 86.0238 16.077C86.3205 16.0024 86.4699 15.9781 86.5183 15.9781C86.5183 15.9781 86.7404 16.0266 87.138 16.1759C87.5336 16.2991 87.7819 16.3495 87.8566 16.3495C89.096 16.3495 90.186 16.7452 91.1751 17.5627C92.6123 18.7516 93.3551 20.3866 93.3551 22.5162C93.3551 22.5909 93.2805 22.714 93.1573 22.8876L93.1553 22.8856Z" fill="white"/><path d="M109.403 21.4241L109.181 21.2263C109.031 21.3757 108.884 21.4241 108.735 21.4241C108.611 21.4241 107.695 21.3495 105.961 21.2021L103.188 20.9296C100.786 20.9296 99.1001 21.7229 98.1352 23.2832C97.8869 23.6546 97.6649 24.3228 97.4408 25.3139C97.3904 25.3623 97.2915 25.4633 97.1683 25.5864C97.1683 26.1314 97.0694 26.85 96.8716 27.7664C96.5244 27.8896 96.153 27.9642 95.7574 27.9642C94.8652 27.9642 94.4453 27.4192 94.4453 26.305C94.4695 26.1072 94.52 25.538 94.6189 24.6215C94.742 23.5315 94.8167 22.6898 94.8672 22.0701C95.3133 21.0547 95.7089 20.5602 96.0803 20.5602C96.0803 20.5602 96.2035 20.6087 96.4033 20.7096C96.6011 20.7843 96.7263 20.8327 96.7989 20.8327C96.8494 20.8327 97.021 20.7096 97.3197 20.4613C97.5922 20.2393 97.7416 20.1141 97.7416 20.1141C98.2119 19.8658 98.9063 19.4944 99.8469 19.0483C100.614 18.6769 101.482 18.5275 102.447 18.5275C102.744 18.5275 104.899 18.8505 108.888 19.5186C108.912 19.5671 108.987 19.6418 109.11 19.7407L110.349 19.89C110.349 20.4351 110.4 20.7318 110.499 20.8065C110.475 20.8307 110.103 21.0285 109.409 21.4262L109.403 21.4241Z" fill="white"/><path d="M121.415 22.8109C121.364 23.6042 121.193 24.0745 120.92 24.2219C120.474 24.2219 119.534 24.4197 118.072 24.4944L115.892 24.6175C115.967 24.6175 114.281 24.5428 113.464 24.7164C113.365 24.6417 113.141 24.5933 112.796 24.5933C112.697 24.7164 112.622 24.7669 112.622 24.7911C112.622 25.0132 113.637 25.9558 116.461 26.1779C116.758 26.2021 117.303 26.2283 118.072 26.3272C119.063 26.4504 119.584 26.6986 119.584 27.0701C119.584 27.169 119.261 27.393 118.643 27.6898L118.149 28.1843C117.481 28.259 117.208 28.2832 117.307 28.2832C117.283 28.2832 116.861 28.259 116.068 28.1843C115.301 28.1359 114.879 28.1096 114.804 28.1096C114.556 28.1096 114.11 27.9602 113.492 27.6877C113.294 27.5888 112.947 27.391 112.453 27.1427C111.758 26.8944 111.141 26.4241 110.569 25.756C110 25.1121 109.728 24.4924 109.728 23.9474C109.728 23.2792 109.826 22.7827 109.976 22.4617C111.189 20.0839 113.617 18.9192 117.307 18.9192C118.496 18.9192 119.388 19.1917 119.982 19.7367C120.452 20.1323 120.898 20.6531 121.369 21.297C121.467 21.5937 121.492 22.0903 121.419 22.8069L121.415 22.8109ZM118.615 21.3495C118.591 21.2748 118.367 21.1275 117.947 20.9276C116.98 21.0023 115.569 21.1497 114.554 21.3233C114.281 21.3737 113.934 21.5211 113.539 21.7936C113.117 22.0903 112.919 22.2881 112.919 22.4617C112.919 22.5848 112.943 22.6595 113.042 22.6595H117.303C118.195 22.6595 118.74 22.5364 118.888 22.2639C118.813 21.9914 118.714 21.6684 118.615 21.3475V21.3495Z" fill="white"/><path d="M134.838 22.8109C134.79 23.6042 134.616 24.0745 134.344 24.2219C133.898 24.2219 132.957 24.4197 131.496 24.4944L129.316 24.6175C129.39 24.6175 127.705 24.5428 126.887 24.7164C126.788 24.6417 126.564 24.5933 126.219 24.5933C126.12 24.7164 126.045 24.7669 126.045 24.7911C126.045 25.0132 127.061 25.9558 129.885 26.1779C130.181 26.2021 130.727 26.2283 131.496 26.3272C132.487 26.4504 133.007 26.6986 133.007 27.0701C133.007 27.169 132.684 27.393 132.067 27.6898L131.572 28.1843C130.904 28.259 130.632 28.2832 130.731 28.2832C130.706 28.2832 130.284 28.259 129.491 28.1843C128.724 28.1359 128.302 28.1096 128.228 28.1096C127.979 28.1096 127.533 27.9602 126.915 27.6877C126.718 27.5888 126.37 27.391 125.876 27.1427C125.182 26.8944 124.564 26.4241 123.993 25.756C123.423 25.1121 123.151 24.4924 123.151 23.9474C123.151 23.2792 123.25 22.7827 123.399 22.4617C124.612 20.0839 127.041 18.9192 130.731 18.9192C131.919 18.9192 132.812 19.1917 133.405 19.7367C133.875 20.1323 134.322 20.6531 134.792 21.297C134.891 21.5937 134.915 22.0903 134.84 22.8069L134.838 22.8109ZM132.039 21.3495C132.014 21.2748 131.79 21.1275 131.37 20.9276C130.404 21.0023 128.993 21.1497 127.977 21.3233C127.705 21.3737 127.358 21.5211 126.962 21.7936C126.54 22.0903 126.342 22.2881 126.342 22.4617C126.342 22.5848 126.366 22.6595 126.465 22.6595H130.727C131.619 22.6595 132.164 22.5364 132.311 22.2639C132.236 21.9914 132.137 21.6684 132.039 21.3475V21.3495Z" fill="white"/><path d="M148.114 27.9138C148.04 27.9138 147.842 27.8391 147.545 27.6918C147.198 27.5182 146.95 27.4193 146.802 27.395C146.332 26.6764 146.108 25.9578 146.108 25.2392C146.108 24.4459 145.835 23.2086 145.29 21.5493C145.216 21.4262 145.018 21.3757 144.721 21.3757C144.424 21.3757 144.077 21.4988 143.655 21.7229C143.433 21.846 143.086 22.0196 142.616 22.2679C142.319 22.49 141.724 23.1339 140.807 24.1754C139.792 25.3644 139.196 25.9598 138.974 25.9598C138.381 25.9598 137.884 25.5884 137.489 24.8698C137.166 24.2501 136.992 23.6567 136.992 23.0854C136.992 22.8634 137.166 22.391 137.513 21.6987C137.513 21.5493 137.563 21.303 137.612 21.0043C137.662 20.8307 137.884 20.3846 138.256 19.666C138.28 19.666 138.405 19.6418 138.627 19.5913C138.849 19.5429 138.974 19.5166 138.999 19.5166C139.023 19.6398 139.221 19.8396 139.544 20.1101C139.867 20.3584 140.089 20.5057 140.212 20.5057C140.262 20.5057 141.005 20.1828 142.44 19.5146C143.877 18.8707 144.62 18.5477 144.669 18.5477C145.486 18.5477 146.403 19.1432 147.343 20.3563C147.565 20.6531 147.864 21.1496 148.26 21.7936C148.706 22.9078 148.928 24.3692 148.928 26.1536C148.928 27.3183 148.655 27.9118 148.11 27.9118L148.114 27.9138Z" fill="white"/><path d="M171.62 10.748C170.629 10.7238 170.109 10.748 169.886 10.7985C169.515 10.9216 168.871 11.1699 167.955 11.5413C167.484 11.6645 166.915 11.8381 166.245 12.0359C165.625 12.2842 165.379 12.5304 165.329 12.704C164.858 14.2159 164.535 16.0225 164.362 18.1541C164.412 18.6749 164.412 19.4924 164.412 20.6551C164.337 20.8045 164.263 21.0023 164.14 21.2748C163.942 22.1912 163.867 23.0087 163.918 23.6769L163.992 24.4197C164.017 24.7669 164.043 25.213 164.043 25.758C164.043 26.9711 163.821 27.8391 163.151 27.8391C163.1 27.8391 162.902 27.7644 162.555 27.6413C162.208 27.5182 162.061 27.4677 161.887 27.4677C161.689 26.4019 161.614 24.892 161.614 22.8109C161.614 22.6878 161.663 22.0176 161.812 20.8045C161.962 19.1937 162.135 17.8311 162.307 16.7431C162.48 16.1739 162.654 15.53 162.828 14.7872V14.3168L162.729 14.2422L162.48 14.3653C162.258 14.4884 162.059 14.5631 161.935 14.5631C161.663 14.5631 161.489 14.3148 161.34 14.0423C161.265 13.8445 161.217 13.6467 161.217 13.4731C161.217 12.5809 161.465 11.8381 161.96 11.2688C162.283 10.8974 163.025 10.3019 164.188 9.51067C164.362 9.41176 165.452 9.16348 167.408 8.79207C169.414 8.42066 170.825 8.22284 171.57 8.22284C173.181 8.22284 174.741 8.29753 176.251 8.44488C176.374 8.54379 176.523 8.61847 176.745 8.66692C177.563 8.69114 178.479 9.13724 179.519 9.97898C180.585 10.8207 181.229 11.6382 181.402 12.4557C181.402 12.48 181.427 12.5042 181.453 12.5546C181.527 12.704 181.749 13.0997 181.749 13.249C181.749 13.2732 181.774 13.4226 181.824 13.7698C181.875 14.0928 181.923 14.2906 181.923 14.339C181.923 15.1061 181.402 16.1719 180.437 17.5102C180.215 17.8332 179.521 18.253 178.481 18.7496C178.185 19.0968 177.664 19.4682 176.921 19.9385C176.352 20.1121 175.559 20.3846 174.543 20.7318C174.196 20.9538 173.677 21.2021 173.007 21.5493C172.884 21.5735 172.067 21.6987 170.506 21.9449C169.194 22.1428 168.823 22.391 168.823 22.5142C168.823 22.6878 169.245 23.1581 170.333 23.9251C171.199 24.5448 171.77 24.892 172.067 25.0394C172.612 25.2877 174.049 25.9316 176.376 26.9711C177.739 27.4172 178.431 27.6655 178.457 27.6655C179.398 28.0874 179.967 28.6324 179.993 29.3752C179.796 29.7466 179.523 29.896 179.152 29.896C179.127 29.896 178.93 29.8718 178.631 29.7971C178.334 29.7486 178.161 29.7224 178.11 29.7224C177.119 29.7224 176.029 29.5488 174.965 29.0543C174.816 29.0038 173.899 28.5839 172.216 27.7907C171.647 27.4435 171.102 27.0963 170.557 26.7511C169.961 26.3555 169.541 25.9841 169.269 25.6611C169.17 25.6369 169.047 25.6106 168.823 25.5622C168.55 25.1161 167.832 24.5711 166.618 23.8282C165.627 23.2085 165.008 22.6635 165.008 22.1448C165.058 21.9954 165.205 21.5998 165.504 20.8569C167.436 20.4613 169.493 19.9647 171.697 19.446C171.846 19.3955 172.44 19.2724 173.554 18.9999C174.123 18.8505 175.213 18.2813 176.798 17.2155C178.754 15.8772 179.646 14.8134 179.646 14.0443C179.646 13.3257 179.323 12.6576 178.679 12.0137C178.011 11.394 177.194 11.0226 176.227 10.8752C175.732 10.6532 175.484 10.5785 175.433 10.5785C174.963 10.5785 174.245 10.5785 173.253 10.5543H171.768C171.744 10.6027 171.693 10.6774 171.618 10.7521L171.62 10.748Z" fill="white"/><path d="M186.582 26.3535C186.606 26.4524 186.507 26.8985 186.309 27.6918L186.012 27.7664C185.863 27.7907 185.518 27.6918 184.922 27.4697C184.947 27.2961 184.848 27.0478 184.65 26.7269C184.377 26.305 184.228 26.0325 184.18 25.9094C184.155 25.8105 184.18 25.2655 184.279 24.2744C184.402 22.7382 184.575 21.3515 184.824 20.1384C185.046 19.8658 185.318 19.7165 185.641 19.7165C186.012 19.7165 186.261 19.989 186.408 20.534C186.432 20.6087 186.507 22.5646 186.582 26.3555V26.3535ZM186.483 16.1477C185.689 15.9256 185.294 15.5784 185.294 15.1323C185.294 14.7105 185.443 14.2159 185.788 13.6709C185.938 13.6467 186.283 13.5962 186.828 13.5215C187.076 14.0423 187.199 14.5611 187.199 15.0314C187.199 15.2292 186.951 15.6007 186.481 16.1457L186.483 16.1477Z" fill="white"/><path d="M202.581 21.0043C202.383 21.1779 201.739 21.6725 200.625 22.5162C200.601 22.6151 200.601 22.7383 200.574 22.8876C196.388 26.0325 194.159 27.5929 193.887 27.5929C193.738 27.5929 193.441 27.4435 192.97 27.1226C192.5 26.8258 192.228 26.6018 192.153 26.4786C191.039 24.5711 190.171 22.8876 189.602 21.4C189.527 21.3011 189.428 21.2264 189.379 21.1275C189.256 20.9539 189.182 20.8045 189.182 20.6814C189.577 19.6903 189.924 19.1957 190.272 19.1957C190.395 19.1957 190.99 20.0132 192.03 21.6482C193.045 23.259 193.665 24.0766 193.838 24.0766C193.937 24.0766 194.335 23.903 194.979 23.5073C195.623 23.1117 196.045 22.8392 196.218 22.6656C196.763 22.3931 197.458 21.9975 198.374 21.4262C198.548 21.2526 198.895 20.9801 199.389 20.6087C200.156 20.2857 201.148 19.9648 202.363 19.5934C202.71 19.8416 202.884 20.1141 202.884 20.3867C202.884 20.5845 202.785 20.8085 202.587 21.0063L202.581 21.0043Z" fill="white"/><path d="M214.892 22.8109C214.844 23.6042 214.67 24.0745 214.397 24.2219C213.951 24.2219 213.011 24.4197 211.549 24.4944L209.369 24.6175C209.444 24.6175 207.758 24.5428 206.941 24.7164C206.842 24.6417 206.618 24.5933 206.273 24.5933C206.174 24.7164 206.099 24.7669 206.099 24.7911C206.099 25.0132 207.115 25.9558 209.938 26.1779C210.235 26.2021 210.78 26.2283 211.549 26.3272C212.54 26.4504 213.061 26.6986 213.061 27.0701C213.061 27.169 212.738 27.393 212.121 27.6898C212.096 27.714 211.923 27.8876 211.626 28.1843C210.958 28.259 210.685 28.2832 210.784 28.2832C210.76 28.2832 210.338 28.259 209.545 28.1843C208.778 28.1359 208.356 28.1096 208.281 28.1096C208.033 28.1096 207.587 27.9602 206.969 27.6877C206.771 27.5888 206.424 27.391 205.93 27.1427C205.235 26.8944 204.618 26.4241 204.046 25.756C203.477 25.1121 203.205 24.4924 203.205 23.9474C203.205 23.2792 203.303 22.7827 203.453 22.4617C204.666 20.0839 207.094 18.9192 210.784 18.9192C211.973 18.9192 212.865 19.1917 213.459 19.7367C213.929 20.1323 214.375 20.6531 214.846 21.297C214.944 21.5937 214.969 22.0903 214.894 22.8069L214.892 22.8109ZM212.092 21.3495C212.068 21.2748 211.844 21.1275 211.424 20.9276C210.457 21.0023 209.046 21.1497 208.031 21.3233C207.758 21.3737 207.411 21.5211 207.016 21.7936C206.594 22.0903 206.396 22.2881 206.396 22.4617C206.396 22.5848 206.42 22.6595 206.519 22.6595H210.78C211.672 22.6595 212.217 22.5364 212.365 22.2639C212.29 21.9914 212.191 21.6684 212.092 21.3475V21.3495Z" fill="white"/><path d="M232.056 21.4241L231.834 21.2263C231.684 21.3757 231.537 21.4241 231.387 21.4241C231.264 21.4241 230.348 21.3495 228.614 21.2021L225.84 20.9296C223.438 20.9296 221.753 21.7229 220.788 23.2832C220.54 23.6546 220.318 24.3228 220.094 25.3139C220.043 25.3623 219.944 25.4633 219.821 25.5864C219.821 26.1314 219.722 26.85 219.524 27.7664C219.177 27.8896 218.806 27.9642 218.41 27.9642C217.518 27.9642 217.098 27.4192 217.098 26.305C217.122 26.1072 217.173 25.538 217.272 24.6215C217.395 23.5315 217.47 22.6898 217.52 22.0701C217.966 21.0547 218.362 20.5602 218.733 20.5602C218.733 20.5602 218.856 20.6087 219.056 20.7096C219.254 20.7843 219.379 20.8327 219.452 20.8327C219.502 20.8327 219.674 20.7096 219.973 20.4613C220.245 20.2393 220.394 20.1141 220.394 20.1141C220.865 19.8658 221.559 19.4944 222.5 19.0483C223.267 18.6769 224.135 18.5275 225.1 18.5275C225.396 18.5275 227.552 18.8505 231.539 19.5186C231.563 19.5671 231.638 19.6418 231.761 19.7407L233 19.89C233 20.4351 233.051 20.7318 233.15 20.8065C233.125 20.8307 232.754 21.0285 232.06 21.4262L232.056 21.4241Z" fill="white"/><path d="M84.197 33.7454C83.9871 34.0522 83.7913 34.3772 83.6298 34.7163C83.5006 35.2674 83.3391 35.8507 83.1272 36.4967C83.0303 36.7874 82.8365 37.3546 82.5438 38.2125C82.4469 38.8927 82.3339 39.4438 82.237 39.8636C81.9302 41.1757 81.7828 42.0174 81.7828 42.3565C81.7828 42.3727 81.8312 42.6634 81.9281 43.2467C82.025 43.8301 82.0735 44.1369 82.0735 44.153C82.0735 44.1692 82.0412 44.2822 81.9927 44.5103C81.8797 44.5749 81.7828 44.6072 81.6536 44.6072C81.5729 44.6072 81.4275 44.5265 81.1994 44.365C80.9713 44.2035 80.828 44.0743 80.7614 43.9431C80.4707 43.4728 80.3577 42.6472 80.39 41.5148C80.3416 41.3049 80.3093 41.2564 80.3093 41.321C80.3093 41.321 80.3416 41.208 80.39 40.9799C80.4384 40.7538 80.4546 40.5923 80.4707 40.4773C80.6322 39.2459 81.0057 37.8552 81.5709 36.2847C81.5386 36.1394 81.5063 36.0748 81.4901 36.0748L81.8615 34.9081C81.5709 35.1019 81.1005 35.6368 80.4526 36.5108C80.388 36.64 80.2588 36.9145 80.0489 37.3203C79.4978 38.2912 78.3977 39.8293 76.8111 41.9185C76.7142 42.0315 76.472 42.2758 76.0501 42.6472C75.5475 43.1014 75.2245 43.3275 75.0469 43.3275C74.2213 43.3275 73.7994 42.1284 73.7994 39.7163V36.5108C73.638 36.5916 73.2645 37.0457 72.6993 37.8875C72.6186 38.0489 72.0675 39.1349 71.032 41.1414C70.7575 41.6763 70.2387 42.6634 69.4777 44.1369C69.3808 44.3307 69.2355 44.4276 69.0236 44.4276C68.4079 44.4276 68.1011 44.038 68.1011 43.2931C68.1011 43.0509 68.5875 42.1123 69.5262 40.4268C70.4325 38.8402 71.2419 37.512 71.9383 36.4604C71.9383 36.3635 71.9706 36.2343 72.0514 36.0566C72.5378 35.3925 73.2665 34.3732 74.2536 33.0127C74.5766 32.9804 74.8854 33.0934 75.1922 33.3195C75.4829 33.5456 75.6303 33.8221 75.6303 34.0966V35.6509C75.6141 35.6671 75.5818 35.6994 75.5172 35.7801C75.5011 35.8447 75.4526 36.6057 75.3719 38.0631C75.3557 38.2084 75.3396 38.4345 75.3073 38.7433C75.2911 39.0663 75.275 39.2459 75.275 39.3105C75.3234 40.0069 75.3557 40.4268 75.3557 40.5419C75.3719 40.5742 75.4365 40.5903 75.5011 40.5903C75.6141 40.5903 75.7756 40.4611 75.9875 40.2027C76.1006 40.0413 76.2136 39.8959 76.3267 39.7486C76.4881 39.5063 76.9746 38.8099 77.8002 37.6755C78.1393 37.2052 78.8034 36.3473 79.7441 35.0696C80.6988 33.7414 81.589 32.6897 82.4469 31.9126C82.6084 31.7188 82.8365 31.4422 83.1433 31.1031C83.3532 31.1354 83.6621 31.2323 84.0335 31.3776C84.0496 31.4099 84.1304 31.5553 84.2757 31.8136C84.4372 32.072 84.5018 32.2032 84.5018 32.2355C84.5018 32.3809 84.4049 32.8835 84.195 33.7414L84.197 33.7454Z" fill="#EBCE83"/><path d="M91.7586 44.9827C91.6455 45.1441 91.5164 45.2249 91.369 45.2249C91.1591 45.1764 90.5757 44.9019 89.5886 44.3832C88.9891 44.0602 88.6823 43.8967 88.6662 43.8967C88.4562 43.8967 88.1474 43.9936 87.7437 44.1712C87.2249 44.3973 86.9181 44.5426 86.8051 44.5769C86.466 44.69 86.1248 44.7384 85.7534 44.7384C85.3154 44.7384 84.7825 44.4477 84.1345 43.8644C83.9084 43.5414 83.7954 43.2649 83.7954 43.0065C83.7954 42.6835 83.9085 42.2294 84.1184 41.6783C84.1668 41.5491 84.3283 41.4199 84.5887 41.3069C84.6694 41.2584 84.8309 41.1938 85.0752 41.0808C86.2076 40.3844 87.2613 40.0453 88.1999 40.0453C88.4583 40.0453 88.8155 40.1099 89.2515 40.2714C89.3807 40.3198 89.5261 40.4974 89.7219 40.8224C89.9156 41.1454 90.0125 41.3735 90.0125 41.5188C90.0125 41.7934 89.8511 42.0214 89.5422 42.2152C88.8943 41.8438 88.3755 41.6642 88.0202 41.6642C87.6307 41.6642 87.2269 41.7611 86.8051 41.9548C86.2863 42.1971 85.8664 42.4736 85.5738 42.7481C85.606 42.9096 85.7837 42.9904 86.1248 42.9904C86.0279 42.9904 86.3509 42.8612 87.1442 42.6008C87.9213 42.3424 88.537 42.2132 89.0053 42.2132C89.1183 42.2132 89.5079 42.4877 90.172 43.0549C90.9169 43.6706 91.4356 44.0582 91.7424 44.2055C91.8555 44.3186 91.9201 44.3993 91.9201 44.4477C91.9201 44.6415 91.8716 44.8192 91.7586 44.9827Z" fill="#EBCE83"/><path d="M101.603 40.4974L101.458 40.3682C101.361 40.4651 101.264 40.4974 101.167 40.4974C101.086 40.4974 100.487 40.449 99.3543 40.3521L97.5417 40.1745C95.9712 40.1745 94.8711 40.6932 94.2393 41.7126C94.0778 41.9548 93.9325 42.3928 93.7851 43.0408C93.7528 43.0731 93.6882 43.1377 93.6075 43.2184C93.6075 43.5757 93.5429 44.044 93.4137 44.6435C93.1876 44.7243 92.9434 44.7727 92.685 44.7727C92.1017 44.7727 91.8271 44.4154 91.8271 43.6888C91.8433 43.5596 91.8756 43.1861 91.9402 42.5886C92.0209 41.8761 92.0694 41.325 92.1017 40.9213C92.3923 40.2572 92.6527 39.9342 92.895 39.9342C92.895 39.9342 92.9757 39.9665 93.1049 40.0311C93.2341 40.0796 93.3148 40.1119 93.3633 40.1119C93.3956 40.1119 93.5086 40.0311 93.7024 39.8697C93.88 39.7243 93.9769 39.6436 93.9769 39.6436C94.2837 39.4821 94.7379 39.2378 95.3536 38.9472C95.8562 38.705 96.4214 38.6081 97.0532 38.6081C97.247 38.6081 98.6559 38.818 101.262 39.256C101.278 39.2883 101.326 39.3368 101.407 39.4014L102.217 39.4982C102.217 39.8555 102.249 40.0493 102.314 40.0978C102.297 40.1139 102.055 40.2431 101.601 40.5035L101.603 40.4974Z" fill="#EBCE83"/><path d="M104.259 43.719C104.275 43.7836 104.211 44.0763 104.082 44.5931L103.888 44.6415C103.791 44.6577 103.565 44.5931 103.175 44.4477C103.191 44.3347 103.127 44.1732 102.998 43.9613C102.82 43.6867 102.723 43.5071 102.691 43.4264C102.675 43.3618 102.691 43.0045 102.755 42.3585C102.836 41.3553 102.949 40.447 103.111 39.6537C103.256 39.4761 103.434 39.3792 103.646 39.3792C103.888 39.3792 104.051 39.5568 104.148 39.9141C104.164 39.9625 104.213 41.2423 104.261 43.719H104.259ZM104.195 37.0477C103.676 36.9024 103.418 36.6763 103.418 36.3836C103.418 36.1091 103.514 35.7841 103.741 35.4289C103.837 35.4127 104.063 35.3804 104.421 35.332C104.582 35.6711 104.663 36.0122 104.663 36.319C104.663 36.4482 104.502 36.6905 104.193 37.0477H104.195Z" fill="#EBCE83"/><path d="M113.276 44.7384C113.228 44.7384 113.099 44.69 112.905 44.5931C112.679 44.48 112.515 44.4154 112.418 44.3993C112.111 43.929 111.964 43.4607 111.964 42.9903C111.964 42.4716 111.787 41.6621 111.429 40.5782C111.381 40.4974 111.252 40.4651 111.058 40.4651C110.864 40.4651 110.636 40.5459 110.361 40.6912C110.216 40.772 109.99 40.885 109.681 41.0485C109.487 41.1938 109.098 41.6157 108.498 42.296C107.834 43.0731 107.447 43.4627 107.299 43.4627C106.91 43.4627 106.587 43.2205 106.328 42.7501C106.118 42.3444 106.005 41.9568 106.005 41.5834C106.005 41.4381 106.118 41.1292 106.344 40.6771C106.344 40.5802 106.377 40.4187 106.409 40.2229C106.441 40.1099 106.587 39.8172 106.831 39.3489C106.847 39.3489 106.928 39.3327 107.073 39.3004C107.219 39.2681 107.299 39.252 107.315 39.252C107.332 39.3327 107.461 39.4619 107.673 39.6395C107.883 39.801 108.028 39.8979 108.111 39.8979C108.143 39.8979 108.629 39.688 109.568 39.25C110.507 38.8281 110.993 38.6182 111.026 38.6182C111.56 38.6182 112.158 39.0077 112.774 39.801C112.919 39.9948 113.113 40.3198 113.373 40.7397C113.664 41.4684 113.811 42.4231 113.811 43.5898C113.811 44.3508 113.633 44.7404 113.276 44.7404V44.7384Z" fill="#EBCE83"/><path d="M123.413 44.9827C123.3 45.1441 123.171 45.2249 123.024 45.2249C122.814 45.1764 122.231 44.9019 121.243 44.3832C120.644 44.0602 120.337 43.8967 120.321 43.8967C120.111 43.8967 119.802 43.9936 119.398 44.1712C118.88 44.3973 118.573 44.5426 118.46 44.5769C118.121 44.69 117.78 44.7384 117.408 44.7384C116.97 44.7384 116.437 44.4477 115.789 43.8644C115.563 43.5414 115.45 43.2649 115.45 43.0065C115.45 42.6835 115.563 42.2294 115.773 41.6783C115.822 41.5491 115.983 41.4199 116.243 41.3069C116.324 41.2584 116.486 41.1938 116.73 41.0808C117.862 40.3844 118.916 40.0453 119.855 40.0453C120.113 40.0453 120.47 40.1099 120.906 40.2714C121.036 40.3198 121.181 40.4974 121.377 40.8224C121.57 41.1454 121.667 41.3735 121.667 41.5188C121.667 41.7934 121.506 42.0214 121.197 42.2152C120.549 41.8438 120.03 41.6642 119.675 41.6642C119.285 41.6642 118.882 41.7611 118.46 41.9548C117.941 42.1971 117.521 42.4736 117.229 42.7481C117.261 42.9096 117.438 42.9904 117.78 42.9904C117.683 42.9904 118.006 42.8612 118.799 42.6008C119.576 42.3424 120.192 42.2132 120.66 42.2132C120.773 42.2132 121.163 42.4877 121.827 43.0549C122.572 43.6706 123.09 44.0582 123.397 44.2055C123.51 44.3186 123.575 44.3993 123.575 44.4477C123.575 44.6415 123.526 44.8192 123.413 44.9827Z" fill="#EBCE83"/></svg>