<?xml version="1.0" encoding="UTF-8"?> <svg xmlns="http://www.w3.org/2000/svg" width="288" height="73" viewBox="0 0 288 73" fill="none"><g clip-path="url(#clip0_225_2227)"><path d="M1.49512 0.620773V28.9505C1.49512 36.0601 7.31691 41.8227 14.4997 41.8227H43.1171C43.1171 19.0667 24.4815 0.620773 1.49146 0.620773H1.49512Z" fill="#F93549"></path><path d="M15.3691 50.1923V71.5431C30.6958 71.5431 43.1171 59.2446 43.1171 44.0776H21.5467C18.1351 44.0776 15.3654 46.8154 15.3654 50.1959L15.3691 50.1923Z" fill="#FF647D"></path><path d="M87.0355 0.620773V28.9505C87.0355 36.0601 81.2137 41.8227 74.0309 41.8227H45.4135C45.4135 19.0667 64.0491 0.620773 87.0391 0.620773H87.0355Z" fill="#0075C9"></path><path d="M73.1578 50.1923V71.5431C57.8311 71.5431 45.4098 59.2446 45.4098 44.0776H66.9801C70.3918 44.0776 73.1614 46.8154 73.1614 50.1959L73.1578 50.1923Z" fill="#00A0DF"></path><path d="M121.599 7.6106V22.2475H119.035V7.6106H114.156V5.17052H126.478V7.6106H121.599Z" fill="white"></path><path d="M141.46 22.2475V14.6367H133.599V22.2475H131.035V5.17052H133.599V12.2439H141.46V5.17052H144.024V22.2439H141.46V22.2475Z" fill="white"></path><path d="M149.692 22.2475V5.17052H160.386V7.55977H152.253V12.2439H157.502V14.6331H152.253V19.8546H160.929V22.2439H149.692V22.2475Z" fill="white"></path><path d="M118.837 44.6331V27.5598H121.401V44.6331H118.837Z" fill="white"></path><path d="M142.568 44.6331H140.004V35.2903C140.004 34.0558 140.044 33.1371 140.129 32.5344C139.751 33.6418 139.399 34.5823 139.068 35.363L134.905 44.9236L130.715 35.2867C130.272 34.2954 129.908 33.3768 129.63 32.5307C129.71 33.1335 129.754 34.0521 129.754 35.2867V44.6295H127.19V27.5561H129.776L134.409 38.2134C134.575 38.6055 134.729 39.0521 134.879 39.5569C134.993 39.201 135.158 38.7508 135.371 38.2134L139.978 27.5561H142.564V44.6295L142.568 44.6331Z" fill="white"></path><path d="M163.614 44.6331H161.05V35.2903C161.05 34.0558 161.09 33.1371 161.174 32.5344C160.796 33.6418 160.444 34.5823 160.114 35.363L155.95 44.9236L151.761 35.2867C151.317 34.2954 150.954 33.3768 150.675 32.5307C150.756 33.1335 150.8 34.0521 150.8 35.2867V44.6295H148.236V27.5561H150.822L155.455 38.2134C155.62 38.6055 155.774 39.0521 155.925 39.5569C156.039 39.201 156.204 38.7508 156.416 38.2134L161.024 27.5561H163.61V44.6295L163.614 44.6331Z" fill="white"></path><path d="M169.406 44.6331V27.5598H171.97V44.6331H169.406Z" fill="white"></path><path d="M184.66 44.9272C183.379 44.9272 182.242 44.6803 181.248 44.1829C180.254 43.6854 179.469 43.0173 178.893 42.1712C178.317 41.3252 177.884 40.392 177.587 39.3644C177.29 38.3405 177.143 37.2511 177.143 36.0964C177.143 35.0216 177.297 33.9759 177.613 32.9483C177.928 31.9207 178.376 30.9803 178.97 30.1197C179.56 29.2591 180.349 28.5656 181.336 28.0463C182.323 27.5271 183.431 27.2657 184.663 27.2657C186.175 27.2657 187.378 27.5561 188.273 28.1299C189.168 28.7072 189.927 29.4988 190.551 30.5082L188.236 31.8263C187.268 30.4429 186.076 29.7529 184.663 29.7529C183.941 29.7529 183.295 29.8837 182.73 30.1451C182.165 30.4065 181.699 30.7479 181.336 31.1691C180.976 31.5903 180.676 32.0841 180.437 32.6433C180.199 33.2025 180.034 33.7689 179.946 34.339C179.854 34.9091 179.81 35.4937 179.81 36.0964C179.81 37.8866 180.217 39.3898 181.028 40.6099C181.839 41.8299 183.053 42.4399 184.663 42.4399C185.731 42.4399 186.608 42.095 187.29 41.4051C187.972 40.7152 188.313 39.8546 188.313 38.8307V38.4893H185.21V36.1001H190.951V38.3187C190.951 40.3993 190.364 42.0224 189.19 43.1843C188.016 44.3463 186.508 44.9272 184.667 44.9272H184.66Z" fill="white"></path><path d="M195.995 44.6331V27.5598H203.266C205.221 27.5598 206.637 28.0391 207.518 28.9977C208.394 29.9563 208.835 31.1618 208.835 32.607C208.835 33.6963 208.519 34.6912 207.884 35.5954C207.25 36.4995 206.318 37.1131 205.089 37.4363L208.636 44.6331H205.705L202.305 37.6578H198.559V44.6331H195.995ZM198.559 35.2177H203.314C204.3 35.2177 205.023 34.9708 205.482 34.4734C205.94 33.9759 206.171 33.355 206.171 32.607C206.171 31.859 205.955 31.278 205.518 30.766C205.082 30.254 204.348 29.9962 203.314 29.9962H198.559V35.2177Z" fill="white"></path><path d="M224.506 44.6331L223.127 40.7043H216.153L214.748 44.6331H212.085L218.321 27.5598H220.959L227.169 44.6331H224.506ZM222.338 38.4603L220.243 32.6542C219.946 31.859 219.752 31.2163 219.653 30.7261C219.506 31.3107 219.308 31.9534 219.062 32.6542L216.942 38.4603H222.338Z" fill="white"></path><path d="M235.768 29.9999V44.6367H233.204V29.9999H228.325V27.5598H240.647V29.9999H235.768Z" fill="white"></path><path d="M245.328 44.6331V27.5598H247.892V44.6331H245.328Z" fill="white"></path><path d="M263.49 44.4153C262.621 44.7566 261.649 44.9272 260.581 44.9272C259.514 44.9272 258.545 44.7566 257.672 44.4153C256.799 44.0739 256.087 43.6201 255.53 43.05C254.972 42.4799 254.503 41.8045 254.125 41.0238C253.747 40.2431 253.476 39.4479 253.31 38.6346C253.145 37.8212 253.065 36.9752 253.065 36.0964C253.065 35.2177 253.149 34.3717 253.31 33.5583C253.476 32.745 253.747 31.9498 254.125 31.1691C254.503 30.3884 254.972 29.713 255.53 29.1429C256.087 28.5728 256.803 28.119 257.672 27.7776C258.542 27.4363 259.51 27.2657 260.581 27.2657C261.652 27.2657 262.617 27.4363 263.49 27.7776C264.36 28.119 265.075 28.5765 265.633 29.1429C266.19 29.713 266.66 30.3884 267.038 31.1691C267.416 31.9498 267.687 32.745 267.852 33.5583C268.017 34.3717 268.098 35.2177 268.098 36.0964C268.098 36.9752 268.017 37.8212 267.852 38.6346C267.687 39.4479 267.416 40.2431 267.038 41.0238C266.66 41.8045 266.19 42.4799 265.633 43.05C265.075 43.6201 264.36 44.0739 263.49 44.4153ZM258.314 41.9134C258.971 42.2947 259.727 42.4872 260.581 42.4872C261.436 42.4872 262.192 42.2874 262.848 41.8917C263.505 41.4922 264.015 40.9694 264.374 40.3194C264.734 39.6694 265.002 38.9904 265.174 38.2824C265.347 37.5743 265.431 36.8481 265.431 36.1001C265.431 35.3521 265.343 34.5678 265.174 33.8452C265.002 33.1226 264.734 32.4436 264.374 31.8081C264.015 31.1727 263.505 30.6643 262.848 30.2831C262.192 29.9018 261.436 29.7094 260.581 29.7094C259.727 29.7094 258.971 29.9091 258.314 30.3085C257.658 30.7079 257.148 31.2308 256.788 31.8808C256.425 32.5307 256.161 33.2097 255.988 33.9178C255.816 34.6259 255.728 35.3521 255.728 36.1001C255.728 36.8481 255.816 37.6324 255.988 38.355C256.161 39.0776 256.429 39.7566 256.788 40.392C257.148 41.0275 257.658 41.5358 258.314 41.9171V41.9134Z" fill="white"></path><path d="M286.213 44.6331H283.799L276.334 33.0463C276.102 32.6905 275.871 32.2656 275.644 31.7791C275.692 32.5598 275.717 32.981 275.717 33.0463V44.6331H273.153V27.5598H275.739L283.01 38.9505C283.19 39.2446 283.428 39.684 283.725 40.2686C283.674 39.782 283.652 39.3499 283.652 38.9759V27.5598H286.216V44.6331H286.213Z" fill="white"></path><path d="M123.643 67.3165C122.362 67.3165 121.225 67.0696 120.231 66.5721C119.237 66.0747 118.452 65.4065 117.876 64.5605C117.3 63.7145 116.867 62.7776 116.57 61.7537C116.273 60.7297 116.126 59.6404 116.126 58.4857C116.126 57.4109 116.28 56.3615 116.596 55.3375C116.907 54.3136 117.359 53.3695 117.953 52.5089C118.544 51.6484 119.332 50.9548 120.319 50.4356C121.306 49.9163 122.414 49.6549 123.646 49.6549C125.158 49.6549 126.361 49.9454 127.256 50.5227C128.151 51.1001 128.911 51.8917 129.534 52.9011L127.219 54.2192C126.251 52.8357 125.059 52.1458 123.646 52.1458C122.924 52.1458 122.278 52.2765 121.713 52.5344C121.148 52.7958 120.682 53.1371 120.319 53.5583C119.956 53.9795 119.659 54.4734 119.42 55.0325C119.182 55.5917 119.017 56.1582 118.929 56.7283C118.837 57.2983 118.793 57.8829 118.793 58.4857C118.793 60.2758 119.2 61.7791 120.011 62.9991C120.822 64.2192 122.036 64.8292 123.646 64.8292C124.714 64.8292 125.591 64.4842 126.273 63.7943C126.955 63.1044 127.296 62.2439 127.296 61.2199V60.8786H124.193V58.4893H129.934V60.7079C129.934 62.7885 129.347 64.4116 128.173 65.5736C126.999 66.7355 125.492 67.3165 123.65 67.3165H123.643Z" fill="white"></path><path d="M134.978 67.0224V49.949H142.249C144.204 49.949 145.62 50.4283 146.501 51.3869C147.377 52.3455 147.818 53.5511 147.818 54.9962C147.818 56.0856 147.502 57.0805 146.867 57.9846C146.233 58.8888 145.301 59.5024 144.072 59.8256L147.619 67.0224H144.688L141.288 60.0471H137.542V67.0224H134.978ZM137.542 57.607H142.297C143.283 57.607 144.006 57.3601 144.465 56.8626C144.923 56.3652 145.154 55.7442 145.154 54.9962C145.154 54.2482 144.938 53.6673 144.501 53.1553C144.065 52.6433 143.331 52.3891 142.297 52.3891H137.542V57.607Z" fill="white"></path><path d="M162.678 66.8045C161.809 67.1458 160.84 67.3165 159.769 67.3165C158.698 67.3165 157.733 67.1458 156.86 66.8045C155.991 66.4632 155.275 66.0093 154.718 65.4392C154.16 64.8691 153.691 64.1938 153.313 63.4131C152.935 62.6324 152.664 61.8372 152.498 61.0238C152.333 60.2105 152.253 59.3644 152.253 58.4857C152.253 57.607 152.333 56.7609 152.498 55.9476C152.664 55.1342 152.935 54.339 153.313 53.5583C153.691 52.7776 154.16 52.1023 154.718 51.5322C155.275 50.9621 155.991 50.5082 156.86 50.1669C157.73 49.8256 158.702 49.6549 159.769 49.6549C160.837 49.6549 161.805 49.8256 162.678 50.1669C163.551 50.5082 164.263 50.9621 164.824 51.5322C165.382 52.1023 165.852 52.7776 166.229 53.5583C166.607 54.339 166.879 55.1342 167.044 55.9476C167.209 56.7609 167.29 57.607 167.29 58.4857C167.29 59.3644 167.205 60.2105 167.044 61.0238C166.879 61.8372 166.607 62.6324 166.229 63.4131C165.852 64.1938 165.382 64.8691 164.824 65.4392C164.267 66.0093 163.551 66.4632 162.678 66.8045ZM157.502 64.3063C158.159 64.6876 158.915 64.88 159.769 64.88C160.624 64.88 161.38 64.6803 162.036 64.2809C162.693 63.8815 163.203 63.3586 163.566 62.7086C163.926 62.0587 164.193 61.3797 164.366 60.6716C164.538 59.9635 164.626 59.2373 164.626 58.4893C164.626 57.7413 164.538 56.957 164.366 56.2344C164.193 55.5118 163.926 54.8328 163.566 54.1974C163.203 53.5619 162.693 53.0536 162.036 52.6723C161.38 52.2911 160.624 52.0986 159.769 52.0986C158.915 52.0986 158.159 52.2983 157.502 52.6978C156.846 53.0972 156.336 53.62 155.972 54.27C155.613 54.92 155.345 55.599 155.173 56.307C155 57.0151 154.912 57.7413 154.912 58.4893C154.912 59.2373 155 60.0216 155.173 60.7442C155.345 61.4668 155.613 62.1458 155.972 62.7813C156.332 63.4167 156.842 63.9251 157.502 64.3063Z" fill="white"></path><path d="M178.695 67.3165C176.739 67.3165 175.169 66.7827 173.988 65.7188C172.807 64.6549 172.213 62.9338 172.213 60.5591V49.949H174.777V60.5591C174.777 62.1531 175.122 63.2715 175.811 63.9142C176.501 64.5569 177.462 64.8764 178.695 64.8764C179.927 64.8764 180.892 64.5569 181.589 63.9142C182.286 63.2715 182.635 62.1531 182.635 60.5591V49.949H185.199V60.5591C185.199 62.9338 184.616 64.6549 183.449 65.7188C182.282 66.7827 180.698 67.3165 178.691 67.3165H178.695Z" fill="white"></path><path d="M190.745 67.0224V49.949H197.671C199.627 49.949 201.065 50.4538 201.986 51.4596C202.906 52.469 203.365 53.7036 203.365 55.1669C203.365 56.5322 202.888 57.745 201.934 58.8016C200.98 59.8583 199.561 60.3884 197.671 60.3884H193.31V67.0224H190.745ZM197.818 57.9483C198.805 57.9483 199.531 57.676 200.001 57.1313C200.47 56.5867 200.705 55.9331 200.705 55.1669C200.705 54.4007 200.478 53.7871 200.027 53.2279C199.575 52.6651 198.838 52.3855 197.822 52.3855H193.313V57.9483H197.822H197.818Z" fill="white"></path></g><defs><clipPath id="clip0_225_2227"><rect width="287" height="72" fill="white" transform="translate(0.266602 0.577042)"></rect></clipPath></defs></svg> 