<?xml version="1.0" encoding="UTF-8"?> <svg xmlns="http://www.w3.org/2000/svg" width="219" height="96" viewBox="0 0 219 96" fill="none"><g id="Layer_1-2"><path id="Vector" d="M71.08 38.92H64.13C63.11 38.92 62.37 38.09 62.37 37.16V31.0401C62.37 30.0201 63.11 29.2801 64.13 29.2801H71.08V19.18C71.08 7.13005 78.59 0.550049 88.97 0.550049C94.25 0.550049 97.68 2.87005 99.26 4.17005C99.82 4.73005 100.09 5.75005 99.63 6.39005L96.2 12.14C95.64 12.88 94.72 13.07 93.97 12.6C93.51 12.23 90.91 11.03 89.06 11.03C85.72 11.03 82.67 13.5301 82.67 19.2801V29.2901H91.94C92.96 29.2901 93.7 30.03 93.7 31.05V37.17C93.7 38.1 92.96 38.93 91.94 38.93H82.67V76.46C82.67 88.51 74.98 95.09 64.69 95.09C59.41 95.09 55.98 92.7701 54.4 91.47C53.84 90.92 53.66 89.9 54.03 89.25L57.55 83.5C58.01 82.76 58.94 82.57 59.78 83.04C60.15 83.41 62.74 84.62 64.6 84.62C67.94 84.62 71.09 82.12 71.09 76.37V38.93L71.08 38.92Z" fill="#BABD55"></path><path id="Vector_2" d="M71.08 38.92H64.13C63.11 38.92 62.37 38.09 62.37 37.16V31.0401C62.37 30.0201 63.11 29.2801 64.13 29.2801H71.08V19.18C71.08 7.13005 78.59 0.550049 88.97 0.550049C94.25 0.550049 97.68 2.87005 99.26 4.17005C99.82 4.73005 100.09 5.75005 99.63 6.39005L96.2 12.14C95.64 12.88 94.72 13.07 93.97 12.6C93.51 12.23 90.91 11.03 89.06 11.03C85.72 11.03 82.67 13.5301 82.67 19.2801V29.2901H91.94C92.96 29.2901 93.7 30.03 93.7 31.05V37.17C93.7 38.1 92.96 38.93 91.94 38.93H82.67V76.46C82.67 88.51 74.98 95.09 64.69 95.09C59.41 95.09 55.98 92.77 54.4 91.47C53.84 90.92 53.66 89.9 54.03 89.25L57.55 83.5C58.01 82.76 58.94 82.57 59.78 83.04C60.15 83.41 62.74 84.62 64.6 84.62C67.94 84.62 71.09 82.12 71.09 76.37V38.93L71.08 38.92Z" stroke="white" stroke-width="1.1"></path><path id="Vector_3" d="M0 43.3201C0 42.7301 0.51 42.2201 1.19 42.2201H2.04C2.64 42.2201 2.98 42.5601 3.06 43.0701L3.4 46.7201C4.5 45.5301 9.17 41.3701 15.96 41.3701C25.47 41.3701 29.63 47.4001 29.63 56.9101V75.0701C29.63 75.6601 29.12 76.1701 28.53 76.1701H27C26.41 76.1701 25.9 75.6601 25.9 75.0701V56.9101C25.9 49.1001 22.25 45.0201 15.8 45.0201C8.84 45.0201 4 50.4501 3.66 50.8801V75.0701C3.66 75.7501 3.32 76.1701 2.56 76.1701H0.93C0.34 76.1701 0 75.6601 0 75.0701V43.3201Z" fill="white"></path><path id="Vector_4" d="M51.4 41.3701C58.02 41.3701 62.44 44.7701 63.96 46.7201C64.38 47.2301 64.3 47.8201 63.79 48.2501L62.94 49.1001C62.35 49.6901 61.67 49.4401 61.16 48.9301C60.31 48.0001 56.75 45.0301 51.4 45.0301C43.68 45.0301 37.4 51.0601 37.4 59.1201C37.4 67.1801 43.77 73.4701 51.32 73.4701C57.69 73.4701 61 69.4801 61.93 68.4601C62.52 67.7801 63.03 67.7801 63.54 68.2901L64.47 69.1401C64.89 69.5601 65.06 69.9901 64.72 70.5001C63.45 72.5401 58.44 77.0401 51.39 77.0401C41.8 77.0401 33.57 69.4901 33.57 59.2201C33.57 48.9501 41.8 41.3901 51.39 41.3901" fill="white"></path><path id="Vector_5" d="M97.86 17.85C97.86 17.26 98.37 16.75 98.96 16.75H100.49C101.09 16.75 101.59 17.26 101.59 17.85V75.06C101.59 75.74 101.25 76.16 100.49 76.16H98.79C98.2 76.16 97.86 75.65 97.86 75.06V17.85Z" fill="white"></path><path id="Vector_6" d="M108.05 50.8301H109.03L114.89 58.2901V50.8301H115.91V60.1401H115.08L109.07 52.5101V60.1401H108.05V50.8301Z" fill="white"></path><path id="Vector_7" d="M117.06 58.1401V58.1101C117.06 56.6401 118.26 55.8601 120 55.8601C120.88 55.8601 121.49 55.9801 122.1 56.1501V55.9401C122.1 54.7201 121.36 54.0801 120.07 54.0801C119.26 54.0801 118.62 54.2801 117.98 54.5701L117.67 53.7301C118.43 53.3801 119.16 53.1501 120.17 53.1501C121.18 53.1501 121.9 53.4101 122.39 53.9101C122.87 54.3901 123.11 55.0501 123.11 55.9301V60.1301H122.1V59.1101C121.62 59.7201 120.84 60.2801 119.63 60.2801C118.34 60.2801 117.07 59.5501 117.07 58.1401M122.12 57.6101V56.9701C121.62 56.8201 120.95 56.6801 120.11 56.6801C118.83 56.6801 118.1 57.2401 118.1 58.0601V58.0901C118.1 58.9501 118.9 59.4601 119.83 59.4601C121.09 59.4601 122.12 58.7001 122.12 57.6101Z" fill="white"></path><path id="Vector_8" d="M125.04 58.32V54.1699H124.08V53.27H125.04V51.2H126.06V53.27H128.24V54.1699H126.06V58.18C126.06 59.02 126.53 59.32 127.22 59.32C127.56 59.32 127.86 59.25 128.22 59.08V59.9599C127.86 60.1499 127.48 60.25 126.98 60.25C125.88 60.25 125.04 59.71 125.04 58.31" fill="white"></path><path id="Vector_9" d="M129.55 50.6401H130.72V51.7701H129.55V50.6401ZM129.62 53.2701H130.64V60.1401H129.62V53.2701Z" fill="white"></path><path id="Vector_10" d="M132.06 56.7401V56.7101C132.06 54.7701 133.58 53.1201 135.65 53.1201C137.72 53.1201 139.23 54.7401 139.23 56.6801V56.7001C139.23 58.6401 137.7 60.2901 135.63 60.2901C133.56 60.2901 132.07 58.6701 132.07 56.7301M138.18 56.7301V56.7001C138.18 55.2301 137.08 54.0201 135.63 54.0201C134.18 54.0201 133.12 55.2301 133.12 56.6801V56.7001C133.12 58.1801 134.21 59.3701 135.66 59.3701C137.11 59.3701 138.19 58.1701 138.19 56.7301" fill="white"></path><path id="Vector_11" d="M140.01 53.2701H141.03V54.4701C141.48 53.7201 142.2 53.1301 143.38 53.1301C145.04 53.1301 146.01 54.2501 146.01 55.8801V60.1501H144.99V56.1401C144.99 54.8601 144.3 54.0601 143.09 54.0601C141.88 54.0601 141.03 54.9301 141.03 56.2101V60.1501H140.01V53.2801V53.2701Z" fill="white"></path><path id="Vector_12" d="M147.15 58.1401V58.1101C147.15 56.6401 148.35 55.8601 150.09 55.8601C150.97 55.8601 151.58 55.9801 152.19 56.1501V55.9401C152.19 54.7201 151.45 54.0801 150.15 54.0801C149.34 54.0801 148.7 54.2801 148.06 54.5701L147.75 53.7301C148.51 53.3801 149.24 53.1501 150.25 53.1501C151.26 53.1501 151.98 53.4101 152.47 53.9101C152.95 54.3901 153.19 55.0501 153.19 55.9301V60.1301H152.18V59.1101C151.7 59.7201 150.92 60.2801 149.71 60.2801C148.42 60.2801 147.15 59.5501 147.15 58.1401ZM152.2 57.6101V56.9701C151.7 56.8201 151.03 56.6801 150.19 56.6801C148.91 56.6801 148.18 57.2401 148.18 58.0601V58.0901C148.18 58.9501 148.98 59.4601 149.91 59.4601C151.17 59.4601 152.2 58.7001 152.2 57.6101Z" fill="white"></path><path id="Vector_13" d="M155.68 50.4299H154.66V60.1299H155.68V50.4299Z" fill="white"></path><path id="Vector_14" d="M159.16 55.5102V55.4802C159.16 52.8502 161.13 50.6702 163.86 50.6702C165.55 50.6702 166.56 51.2702 167.49 52.1502L166.77 52.9202C165.99 52.1702 165.11 51.6402 163.85 51.6402C161.79 51.6402 160.25 53.3102 160.25 55.4502V55.4802C160.25 57.6302 161.8 59.3202 163.85 59.3202C165.12 59.3202 165.96 58.8302 166.85 57.9802L167.54 58.6602C166.57 59.6402 165.51 60.2902 163.82 60.2902C161.14 60.2902 159.15 58.1802 159.15 55.5002" fill="white"></path><path id="Vector_15" d="M171.57 59.4101C172.51 59.4101 173.18 59.0201 173.74 58.4401L174.38 59.0101C173.69 59.7801 172.85 60.3001 171.55 60.3001C169.66 60.3001 168.12 58.8501 168.12 56.7101C168.12 54.7201 169.52 53.1201 171.42 53.1201C173.45 53.1201 174.62 54.7401 174.62 56.7601C174.62 56.8501 174.62 56.9601 174.61 57.1201H169.16C169.3 58.5701 170.37 59.4101 171.58 59.4101M173.59 56.3001C173.47 55.0501 172.75 53.9901 171.4 53.9901C170.22 53.9901 169.31 54.9701 169.17 56.3001H173.59Z" fill="white"></path><path id="Vector_16" d="M175.62 53.2701H176.64V54.4701C177.09 53.7201 177.81 53.1301 178.99 53.1301C180.65 53.1301 181.62 54.2501 181.62 55.8801V60.1501H180.6V56.1401C180.6 54.8601 179.91 54.0601 178.7 54.0601C177.49 54.0601 176.64 54.9301 176.64 56.2101V60.1501H175.62V53.2801V53.2701Z" fill="white"></path><path id="Vector_17" d="M183.64 58.32V54.1699H182.68V53.27H183.64V51.2H184.66V53.27H186.84V54.1699H184.66V58.18C184.66 59.02 185.13 59.32 185.82 59.32C186.17 59.32 186.46 59.25 186.82 59.08V59.9599C186.46 60.1499 186.07 60.25 185.58 60.25C184.48 60.25 183.64 59.71 183.64 58.31" fill="white"></path><path id="Vector_18" d="M190.68 59.4101C191.62 59.4101 192.29 59.0201 192.85 58.4401L193.49 59.0101C192.8 59.7801 191.96 60.3001 190.66 60.3001C188.77 60.3001 187.23 58.8501 187.23 56.7101C187.23 54.7201 188.63 53.1201 190.53 53.1201C192.56 53.1201 193.73 54.7401 193.73 56.7601C193.73 56.8501 193.73 56.9601 193.72 57.1201H188.27C188.42 58.5701 189.48 59.4101 190.69 59.4101M192.7 56.3001C192.58 55.0501 191.86 53.9901 190.51 53.9901C189.33 53.9901 188.42 54.9701 188.28 56.3001H192.71H192.7Z" fill="white"></path><path id="Vector_19" d="M194.99 53.27H196.01V55.06C196.52 53.92 197.51 53.09 198.81 53.15V54.25H198.73C197.23 54.25 196.01 55.33 196.01 57.4V60.14H194.99V53.27Z" fill="white"></path><path id="Vector_20" d="M203.15 54.1701H202.21V53.2801H203.15V52.6801C203.15 51.8901 203.36 51.3001 203.75 50.9101C204.1 50.5601 204.6 50.3801 205.23 50.3801C205.71 50.3801 206.03 50.4301 206.36 50.5501V51.4401C205.99 51.3301 205.71 51.2701 205.36 51.2701C204.56 51.2701 204.16 51.7501 204.16 52.7301V53.2901H206.34V54.1701H204.17V60.1401H203.15V54.1701Z" fill="white"></path><path id="Vector_21" d="M206.29 56.7401V56.7101C206.29 54.7701 207.8 53.1201 209.88 53.1201C211.96 53.1201 213.45 54.7401 213.45 56.6801V56.7001C213.45 58.6401 211.92 60.2901 209.85 60.2901C207.78 60.2901 206.29 58.6701 206.29 56.7301M212.4 56.7301V56.7001C212.4 55.2301 211.3 54.0201 209.85 54.0201C208.4 54.0201 207.34 55.2301 207.34 56.6801V56.7001C207.34 58.1801 208.43 59.3701 209.88 59.3701C211.33 59.3701 212.41 58.1701 212.41 56.7301" fill="white"></path><path id="Vector_22" d="M214.24 53.27H215.26V55.06C215.77 53.92 216.76 53.09 218.06 53.15V54.25H217.98C216.48 54.25 215.26 55.33 215.26 57.4V60.14H214.24V53.27Z" fill="white"></path><path id="Vector_23" d="M108.05 66.79H114.73V67.76H109.1V71.08H114.13V72.04H109.1V76.09H108.05V66.79Z" fill="white"></path><path id="Vector_24" d="M115.48 74.1001V74.0701C115.48 72.6001 116.68 71.8201 118.42 71.8201C119.3 71.8201 119.91 71.9401 120.52 72.1101V71.9001C120.52 70.6801 119.78 70.0401 118.48 70.0401C117.67 70.0401 117.03 70.2401 116.4 70.5301L116.09 69.6901C116.85 69.3501 117.58 69.1101 118.59 69.1101C119.6 69.1101 120.32 69.3701 120.81 69.8701C121.29 70.3501 121.53 71.0101 121.53 71.8901V76.0901H120.52V75.0701C120.04 75.6801 119.26 76.2401 118.05 76.2401C116.76 76.2401 115.48 75.5101 115.48 74.1001ZM120.53 73.5701V72.9301C120.03 72.7801 119.36 72.6401 118.52 72.6401C117.24 72.6401 116.51 73.2001 116.51 74.0201V74.0501C116.51 74.9101 117.31 75.4201 118.24 75.4201C119.5 75.4201 120.53 74.6601 120.53 73.5701Z" fill="white"></path><path id="Vector_25" d="M123.43 69.2201H124.45V70.3701C124.9 69.6901 125.51 69.0701 126.67 69.0701C127.83 69.0701 128.5 69.6701 128.88 70.4401C129.37 69.6801 130.1 69.0701 131.3 69.0701C132.88 69.0701 133.85 70.1301 133.85 71.8401V76.0901H132.83V72.0801C132.83 70.7501 132.16 70.0101 131.05 70.0101C130.01 70.0101 129.15 70.7801 129.15 72.1301V76.0901H128.14V72.0501C128.14 70.7601 127.46 70.0001 126.37 70.0001C125.28 70.0001 124.46 70.9001 124.46 72.1701V76.0901H123.44V69.2201H123.43Z" fill="white"></path><path id="Vector_26" d="M136.1 66.5901H137.27V67.7201H136.1V66.5901ZM136.17 69.2201H137.19V76.0901H136.17V69.2201Z" fill="white"></path><path id="Vector_27" d="M140.42 66.3901H139.4V76.0901H140.42V66.3901Z" fill="white"></path><path id="Vector_28" d="M142.56 66.5901H143.73V67.7201H142.56V66.5901ZM142.63 69.2201H143.65V76.0901H142.63V69.2201Z" fill="white"></path><path id="Vector_29" d="M148.53 75.3601C149.47 75.3601 150.14 74.9701 150.7 74.3901L151.34 74.9601C150.65 75.7301 149.81 76.2501 148.51 76.2501C146.62 76.2501 145.08 74.8001 145.08 72.6601C145.08 70.6601 146.48 69.0701 148.38 69.0701C150.41 69.0701 151.58 70.6901 151.58 72.7101C151.58 72.8001 151.58 72.9101 151.57 73.0701H146.12C146.27 74.5201 147.33 75.3601 148.54 75.3601M150.55 72.2501C150.43 71.0001 149.71 69.9401 148.36 69.9401C147.18 69.9401 146.27 70.9201 146.13 72.2501H150.56H150.55Z" fill="white"></path><path id="Vector_30" d="M152.27 75.2201L152.79 74.4901C153.53 75.0501 154.36 75.3701 155.17 75.3701C155.98 75.3701 156.59 74.9401 156.59 74.2801V74.2501C156.59 73.5601 155.78 73.2901 154.87 73.0401C153.79 72.7301 152.6 72.3601 152.6 71.1001V71.0701C152.6 69.8901 153.58 69.1001 154.94 69.1001C155.78 69.1001 156.71 69.3901 157.41 69.8601L156.95 70.6301C156.31 70.2201 155.58 69.9701 154.92 69.9701C154.11 69.9701 153.59 70.3901 153.59 70.9701V71.0001C153.59 71.6501 154.44 71.9101 155.36 72.1801C156.42 72.5001 157.57 72.9101 157.57 74.1501V74.1801C157.57 75.4801 156.49 76.2401 155.12 76.2401C154.14 76.2401 153.05 75.8501 152.28 75.2301" fill="white"></path><path id="Vector_31" d="M164.16 66.79H165.21V75.12H170.44V76.09H164.16V66.79Z" fill="white"></path><path id="Vector_32" d="M174.31 75.3601C175.25 75.3601 175.92 74.9701 176.48 74.3901L177.12 74.9601C176.43 75.7301 175.59 76.2501 174.29 76.2501C172.4 76.2501 170.86 74.8001 170.86 72.6601C170.86 70.6601 172.26 69.0701 174.16 69.0701C176.19 69.0701 177.36 70.6901 177.36 72.7101C177.36 72.8001 177.36 72.9101 177.35 73.0701H171.9C172.05 74.5201 173.11 75.3601 174.32 75.3601M176.33 72.2501C176.21 71.0001 175.49 69.9401 174.14 69.9401C172.96 69.9401 172.06 70.9201 171.91 72.2501H176.34H176.33Z" fill="white"></path><path id="Vector_33" d="M178.1 74.1001V74.0701C178.1 72.6001 179.29 71.8201 181.04 71.8201C181.92 71.8201 182.53 71.9401 183.14 72.1101V71.9001C183.14 70.6801 182.4 70.0401 181.11 70.0401C180.3 70.0401 179.66 70.2401 179.03 70.5301L178.72 69.6901C179.48 69.3501 180.21 69.1101 181.22 69.1101C182.23 69.1101 182.95 69.3701 183.44 69.8701C183.92 70.3501 184.16 71.0101 184.16 71.8901V76.0901H183.15V75.0701C182.67 75.6801 181.89 76.2401 180.68 76.2401C179.39 76.2401 178.12 75.5101 178.12 74.1001M183.17 73.5701V72.9301C182.66 72.7801 182 72.6401 181.16 72.6401C179.88 72.6401 179.15 73.2001 179.15 74.0201V74.0501C179.15 74.9101 179.95 75.4201 180.88 75.4201C182.14 75.4201 183.17 74.6601 183.17 73.5701Z" fill="white"></path><path id="Vector_34" d="M185.79 69.22H186.81V71.01C187.31 69.87 188.31 69.04 189.61 69.09V70.19H189.53C188.03 70.19 186.81 71.27 186.81 73.34V76.08H185.79V69.21V69.22Z" fill="white"></path><path id="Vector_35" d="M190.64 69.2201H191.66V70.4201C192.11 69.6701 192.83 69.0801 194.01 69.0801C195.67 69.0801 196.64 70.2001 196.64 71.8301V76.1001H195.62V72.0901C195.62 70.8101 194.93 70.0201 193.72 70.0201C192.51 70.0201 191.66 70.8801 191.66 72.1701V76.1001H190.64V69.2301V69.2201Z" fill="white"></path><path id="Vector_36" d="M198.33 66.5901H199.5V67.7201H198.33V66.5901ZM198.4 69.2201H199.42V76.0901H198.4V69.2201Z" fill="white"></path><path id="Vector_37" d="M201 69.2201H202.02V70.4201C202.47 69.6701 203.19 69.0801 204.37 69.0801C206.03 69.0801 207 70.2001 207 71.8301V76.1001H205.98V72.0901C205.98 70.8101 205.29 70.0201 204.08 70.0201C202.87 70.0201 202.02 70.8801 202.02 72.1701V76.1001H201V69.2301V69.2201Z" fill="white"></path><path id="Vector_38" d="M208.31 77.2901L208.77 76.4901C209.55 77.0601 210.43 77.3701 211.41 77.3701C212.93 77.3701 213.91 76.5301 213.91 74.9201V74.1101C213.31 74.9101 212.47 75.5601 211.21 75.5601C209.56 75.5601 207.98 74.3201 207.98 72.3401V72.3101C207.98 70.3001 209.57 69.0701 211.21 69.0701C212.5 69.0701 213.34 69.7101 213.89 70.4501V69.2101H214.91V74.8801C214.91 75.9401 214.59 76.7501 214.03 77.3101C213.42 77.9201 212.5 78.2301 211.41 78.2301C210.27 78.2301 209.2 77.9101 208.29 77.2701M213.92 72.3101V72.2801C213.92 70.8701 212.7 69.9501 211.39 69.9501C210.08 69.9501 209.01 70.8501 209.01 72.2601V72.2901C209.01 73.6701 210.11 74.6301 211.39 74.6301C212.67 74.6301 213.92 73.6901 213.92 72.3001" fill="white"></path><path id="Vector_39" d="M104.17 22.02H105.14C105.41 22.02 105.63 22.1 105.77 22.24C105.89 22.36 105.95 22.52 105.95 22.71C105.95 23.07 105.74 23.29 105.43 23.38L106.02 24.21H105.57L105.03 23.45H104.55V24.21H104.17V22.03V22.02ZM105.11 23.1C105.38 23.1 105.56 22.96 105.56 22.74C105.56 22.5 105.39 22.37 105.11 22.37H104.55V23.1H105.11Z" fill="white"></path><path id="Vector_40" d="M105.03 25.23C103.86 25.23 102.91 24.28 102.91 23.11C102.91 21.94 103.86 20.99 105.03 20.99C106.2 20.99 107.15 21.94 107.15 23.11C107.15 24.28 106.2 25.23 105.03 25.23ZM105.03 21.39C104.08 21.39 103.31 22.16 103.31 23.11C103.31 24.06 104.08 24.83 105.03 24.83C105.98 24.83 106.75 24.06 106.75 23.11C106.75 22.16 105.98 21.39 105.03 21.39Z" fill="white"></path></g></svg> 