<?xml version="1.0" encoding="UTF-8"?> <svg xmlns="http://www.w3.org/2000/svg" width="208" height="208" viewBox="0 0 208 208" fill="none"><g id="logo" clip-path="url(#clip0_4039_3318)"><path id="Vector" d="M27.4905 91.8005L30.2285 80.0536L28.4878 79.6487L26.2172 89.4047L14.0029 86.56L13.5392 88.5509L27.4905 91.8005Z" fill="#F58A6F"></path><path id="Vector_2" d="M38.3394 62.6761L36.7532 61.8628L31.6195 71.9021L27.5088 69.8008L31.5532 61.8959L30.118 61.1599L26.0772 69.0684L22.0438 67.0076L27.0782 57.1633L25.4884 56.3499L19.5229 68.0159L32.2782 74.5371L38.3394 62.6761Z" fill="#F58A6F"></path><path id="Vector_3" d="M32.1252 47.2337L30.8737 48.8524L42.2048 57.6133L43.4564 55.9946L32.1252 47.2337Z" fill="#F58A6F"></path><path id="Vector_4" d="M44.073 44.235C45.35 43.8523 47.3446 42.3324 48.802 41.1879C50.1783 40.1169 52.0662 38.5419 53.1224 38.034C54.0498 37.5777 54.7858 37.6623 55.3415 38.3063C56.2947 39.4104 56.4088 41.0075 52.4526 44.419C48.5149 47.8157 46.7742 46.9656 45.7916 45.8285L44.3417 47.0797C45.5635 48.4966 48.2463 50.4065 53.6192 45.7733C58.9075 41.2099 58.1826 38.4719 56.8062 36.8748C55.8972 35.8186 54.5797 35.4616 53.277 35.9842C51.9889 36.492 50.1857 37.931 48.6474 39.1454C47.3704 40.1611 45.3353 41.8024 44.3343 42.1741C43.5578 42.4722 42.9101 42.4244 42.3581 41.7804C41.2908 40.5438 41.9937 38.5603 45.0078 35.9584C48.4523 32.9886 50.1673 33.1762 51.4038 34.6078L52.8538 33.3566C51.1756 31.4135 48.6879 30.4272 43.8448 34.6078C39.793 38.1039 39.2741 41.3387 40.9118 43.234C41.7656 44.2239 42.9579 44.5736 44.0767 44.2387" fill="#F58A6F"></path><path id="Vector_5" d="M72.3879 33.7687C77.0727 31.6563 78.9054 28.4619 77.0322 24.3144L73.79 17.1309L72.042 17.9184L75.1848 24.8849C76.6274 28.0792 75.2842 30.5007 71.6519 32.142C68.0601 33.765 65.392 33.1504 63.9494 29.9561L60.8066 22.9896L58.9408 23.8323L62.183 31.0159C64.0562 35.1634 67.7399 35.8663 72.3842 33.7723" fill="#F58A6F"></path><path id="Vector_6" d="M88.0137 28.1934L87.2298 22.4119L95.0206 21.3594C97.2876 21.0539 98.4027 21.8452 98.6492 23.6595L99.0614 26.7029L101.089 26.4269L100.677 23.3835C100.405 21.3778 99.4294 20.167 97.5489 20.0714L97.5415 20.0272C99.2123 19.3832 100.029 17.9553 99.8085 16.314C99.4699 13.8115 97.2913 12.4793 92.9966 13.0607L84.0649 14.2715L85.986 28.4694L88.0137 28.1934ZM92.9561 14.8677C96.2572 14.4187 97.7292 15.232 97.9427 16.8071C98.1487 18.3159 97.0263 19.4568 94.4392 19.8064L87.0164 20.8111L86.3319 15.7619L92.9561 14.864V14.8677Z" fill="#F58A6F"></path><path id="Vector_7" d="M121.256 26.5225L110.069 25.0689L110.665 20.4908L119.475 21.639L119.685 20.0382L110.874 18.8936L111.456 14.4039L122.426 15.8281L122.655 14.058L109.656 12.3688L107.809 26.574L121.024 28.2927L121.256 26.5225Z" fill="#F58A6F"></path><path id="Vector_8" d="M138.777 32.6942L129.444 29.0546L134 17.3739L132.094 16.6268L126.89 29.9746L138.129 34.3576L138.777 32.6942Z" fill="#F58A6F"></path><path id="Vector_9" d="M155.201 43.3813L145.99 36.8859L148.651 33.1174L155.904 38.2328L156.832 36.9153L149.578 31.7999L152.184 28.1014L161.218 34.4717L162.249 33.0144L151.54 25.4665L143.293 37.1655L154.175 44.8386L155.201 43.3813Z" fill="#F58A6F"></path><path id="Vector_10" d="M168.937 39.4076L158.67 49.3992L160.097 50.8656L170.364 40.874L168.937 39.4076Z" fill="#F58A6F"></path><path id="Vector_11" d="M169.175 62.9887C170.853 65.6347 172.962 67.2098 175.225 66.5989L175.236 66.6173C174.294 67.162 173.146 67.7876 172.678 68.0305L173.705 69.6461L179.586 65.9181L174.912 58.5468L173.551 59.408L177.128 65.0496L177.054 65.0974C175.733 65.9365 173.102 65.8519 170.676 62.0282C168.218 58.1494 169.168 54.9735 171.648 53.3984C174.331 51.6982 177.786 52.1876 180.197 55.9928C182.552 59.7061 181.79 62.0429 180.263 63.0108C180.153 63.0807 180.079 63.1286 179.884 63.2243L180.911 64.8398C181.124 64.7294 181.271 64.6374 181.345 64.5896C183.531 63.2022 184.79 59.9048 181.706 55.036C178.57 50.0899 173.937 49.5269 170.573 51.6577C167.486 53.6155 165.852 57.7446 169.171 62.9814" fill="#F58A6F"></path><path id="Vector_12" d="M176.87 77.4849L183.281 75.7442L186.652 88.1388L180.241 89.8832L180.778 91.8557L194.605 88.0983L194.067 86.1221L188.245 87.7045L184.878 75.3099L190.696 73.7275L190.159 71.7513L176.336 75.5123L176.87 77.4849Z" fill="#F58A6F"></path><path id="Vector_13" d="M50.6899 160.806L49.6006 162.223L54.8631 166.271L47.2122 176.207L48.8351 177.459L56.486 167.522L61.7449 171.571L62.8342 170.157L50.6899 160.806Z" fill="#F58A6F"></path><path id="Vector_14" d="M75.7441 176.233L67.4123 172.8L61.9547 186.041L63.8463 186.821L66.0691 181.429L73.3336 184.425C75.446 185.297 76.0164 186.545 75.3209 188.234L74.1506 191.071L76.0422 191.852L77.2125 189.014C77.9853 187.145 77.7461 185.606 76.1673 184.58L76.1857 184.539C77.9522 184.819 79.3764 183.995 80.0057 182.464C80.9662 180.13 79.7517 177.886 75.7441 176.233ZM78.1398 181.952C77.5584 183.362 76.0201 183.785 73.6023 182.791L66.68 179.939L68.6231 175.232L74.802 177.779C77.8822 179.048 78.7471 180.487 78.1398 181.956" fill="#F58A6F"></path><path id="Vector_15" d="M95.1457 181.043L85.0806 194.443L87.3107 194.663L89.677 191.484L100.592 192.558L102.296 196.135L104.699 196.371L97.4384 181.268L95.142 181.043H95.1457ZM90.7921 189.971L96.0068 182.964H96.051L99.801 190.858L90.7921 189.971Z" fill="#F58A6F"></path><path id="Vector_16" d="M118.787 192.838L118.743 192.845L109.355 181.702L106.992 182.088L117.811 194.829L120.152 194.446L126.342 178.92L124.086 179.288L118.787 192.838Z" fill="#F58A6F"></path><path id="Vector_17" d="M138.339 187.399L136.378 183.222L144.419 179.45L143.734 177.989L135.697 181.764L133.772 177.665L143.782 172.965L143.024 171.35L131.159 176.918L137.246 189.883L149.306 184.223L148.548 182.607L138.339 187.399Z" fill="#F58A6F"></path><path id="Vector_18" d="M157.457 176.575L149.622 166.786L148.025 168.067L156.975 179.247L166.389 171.71L165.274 170.316L157.457 176.575Z" fill="#F58A6F"></path><path id="Vector_19" d="M104 0C46.6528 0 0 46.6528 0 104C0 161.347 46.6528 207.996 104 207.996C161.347 207.996 208 161.344 208 104C208 46.6565 161.344 0 104 0ZM104 4.00028C159.227 4.00028 203.996 48.7725 203.996 104C203.996 112.431 202.951 120.616 200.986 128.436C198.251 126.857 195.462 126.084 192.514 126.084C188.345 126.084 185.581 127.707 183.358 129.01C181.65 130.011 180.303 130.802 178.64 130.802C175.604 130.802 172.774 129.058 170.01 125.473C172.215 118.709 173.407 111.496 173.407 104.004C173.407 65.7268 142.266 34.5857 103.989 34.5857C65.7121 34.5857 34.571 65.7268 34.571 104.004C34.571 111.496 35.7633 118.72 37.9714 125.488C35.2076 129.062 32.3813 130.799 29.3526 130.799C27.6892 130.799 26.3386 130.007 24.6347 129.006C22.4119 127.704 19.6481 126.081 15.4786 126.081C12.5308 126.081 9.74126 126.854 7.00694 128.432C5.04176 120.612 3.9966 112.424 3.9966 103.996C4.00028 48.7725 48.7725 4.00028 104 4.00028ZM38.5749 104.007C38.5749 67.8797 67.865 38.5897 103.993 38.5897C140.12 38.5897 169.41 67.876 169.41 104.007C169.41 140.139 140.124 169.425 103.993 169.425C67.8613 169.425 38.5749 140.139 38.5749 104.007ZM104 203.996C58.661 203.996 20.3657 173.819 8.11097 132.455C10.5472 130.843 12.9135 130.081 15.4859 130.081C18.5699 130.081 20.535 131.233 22.618 132.455C24.5795 133.607 26.6109 134.799 29.3599 134.799C33.0732 134.799 36.4294 133.161 39.5539 129.812C49.8177 155.345 74.8351 173.422 103.996 173.422C133.158 173.422 158.182 155.341 168.442 129.801C171.567 133.158 174.927 134.799 178.647 134.799C181.396 134.799 183.428 133.607 185.389 132.455C187.472 131.233 189.438 130.081 192.521 130.081C195.094 130.081 197.456 130.839 199.896 132.455C187.638 173.819 149.346 203.992 104.007 203.992" fill="#F58A6F"></path><path id="Vector_20" d="M72.9068 126.048L73.0061 125.853L73.0245 125.801L73.0319 125.79C74.0991 124.362 79.5714 118.4 86.2435 118.4C88.5288 118.4 90.5051 118.949 92.3414 119.747L82.4088 149.464H90.2806L90.3799 149.269L90.3983 149.218L90.4057 149.206C91.4766 147.779 96.9453 141.817 103.617 141.817C112.159 141.817 116.428 149.464 124.833 149.464C136.753 149.464 142.759 140.621 146.527 134.869L141.537 132.318C138.604 136.208 133.665 141.522 126.46 141.522C119.655 141.522 116.314 135.042 106.841 135.042C101.372 135.042 97.0998 137.114 93.6332 139.579L98.9988 123.453C101.523 124.877 104.177 126.044 107.463 126.044C119.383 126.044 125.389 117.201 129.157 111.449L124.167 108.898C121.234 112.788 116.295 118.102 109.09 118.102C106.219 118.102 103.967 116.95 101.612 115.618L113.962 78.6219H106.09L94.8034 112.387C93.2431 111.92 91.4987 111.622 89.4709 111.622C84.0023 111.622 79.7297 113.693 76.263 116.159L96.592 55.2017H88.7202L65.0424 126.04H72.9141L72.9068 126.048Z" fill="#F58A6F"></path></g><defs><clipPath id="clip0_4039_3318"><rect width="207.996" height="207.996" fill="white"></rect></clipPath></defs></svg> 