<?xml version="1.0" encoding="UTF-8"?><svg xmlns="http://www.w3.org/2000/svg" viewBox="0 0 547.59 543.69"><defs><style>.c,.d{fill:#fff;}.d{fill-rule:evenodd;}</style></defs><g id="a"><path class="c" d="M144.42,363.4l48.38-247.11,78.9,178.64,81.73-178.64,43.47,247.11h-35.58l-22.18-138.74-68.03,149.31-66.09-149.46-24.71,138.89h-35.88Z"/></g><g id="b"><path class="d" d="M61.19,361.16c.78-.29,1.17,1.41,2.06,.56l.74,1.75c-.43,.54-1.91-1.9-1.42-.12-.61,.03-.94-1.34-1.38-2.2Zm-5.72-6.79c.49,0,.71,1.11,1.24,.94,.88,1.08-.37,1.11-.35,1.49,.05,1.09,1.95,3.32,.31,3.33-1.13-2.47-1.28-4.21-1.2-5.75Zm6.51,6.49c-.39-.98-.86-1.94-1.2-2.94,1.15-.42,3.04,2.81,1.2,2.94Zm-16.88-32.54c.96,1.37,1.16,.99,1.21,3.07,.36,1.15,1.49,.07,1.96,.88l1.61,6.26c.2,2.07-.83-.97-.89-1.78-.91,.44-.2,2.38-1.55,2.42,.37,1.15,1.48,.02,1.99,.82,1.45,3.5-.1,4.48-.68,6.3,1.13,1.68,1.67,3.73,1.18,5.13-1.79-2.55-1.5-7.43-1.92-10.37-.29,.52,.03,1.55-.83,1.59-.62-2.32-1.38-5,.19-5.47,.03-3.79-2.87-5.53-3.5-8.58,.03,.17,1.23-.72,.56-1.46-1.19,.13-.36,2.34-2.2,1.81,.44-2.27-.98-2.78-1.34-4.45-.26-1.18,.41-2.15-.39-3.96,.41-.05,.49,.74,.68,1.22,1.54,1.95,4.27,.84,5.18,4.32-.81-1.48-2.5-.74-3.41-1.98-.46,.2-.1,1.24-.01,2.01,1.08,.26,1.37,.53,3.14,.69,.47,1.32-.34,1.34-.97,1.53Zm12.02,20.78c1.23-.86,2.19,1.61,1.89,2.72-.9,.21-1.4-1.22-1.89-2.72Zm-4.06-13.39l.31,1.23c.86,1.87-.08,2.06,.09,3.27,1.38,5.46-.43-.86-1.38-1.61,.39-.88-.19-2.7,.98-2.9Zm3.52,8.9c.56,1.21,.22,1.69,.35,2.55-.95-.47-1.27-3.14-2.76-1.82-.25-1.41,1.99-1.11,2.41-.73Zm-1.55,8.55c.44,1.74-1.24,.46-1.24-.95-.79,.85,1.66,4.2,.98,5.15-1.35-1.11-.61-2.23-1.96-4.14,.87-.5-.03-2.37,1.33-2.49,.79,1-.45,2.43,.89,2.42Zm5.7,12.32c-1.37,1.38-3.72-4.21-1.75-4.15,.3,1.84,.63,2.64,1.75,4.15Zm349.9,105.66c.2,1.57,2.11-.64,3.28-1.21,0,.95-1.94,2.86-2.81,1.91-1.01,.76,.44,1.42-.2,2.17-1.75,.29-3.18,2.21-4.75,2.72-.26,.09-.41-1.07-.67-1.07-.5,.03-3.9,2.77-2.74,.72,2.12-1.77,2.88-1.05,4.09-1.13,1.41-1.02,2.55-2.03,2.91-3-1.7-.98-1.84,1.25-3.36,2.29-1.44-.18-4.07,1.4-6.9,3.23-1.41,.92-2.88,1.89-4.27,2.72-1.38,.86-2.78,1.41-3.92,1.71,1.03-.66,2.14-1.26,3.21-1.99,1.09-.71,2.2-1.43,3.33-2.16,2.26-1.47,4.67-2.86,6.98-4.38,4.56-3.12,9.27-5.96,13.04-8.74-.28,.99-1.9,2.1-3.53,3.2-1.68,1.02-3.36,2.04-3.68,3.01Zm13.88-17.34c-.52-1.96,2.4-2.75,3.26-4.37,.51-1,.32-.62,2-1.72,2.97,1.55-4.84,5.67-5.26,6.09Zm-5.37,2.78c-.16,.54-.12,1.53,.76,1,1.23-.64,.77-1.58,.02-1.06,.18-1.76,2.71-1.62,4.06-3.38l.53,.65c-3.59,3.59-6.68,7.48-9.98,9.95-1.79,1.31-2.75,.52-4.57,2.77-.97,0-.58-.4-.7-1.05-1.16-.59-3.29,1.08-5.06,1.92-1.42-1.03,4.73-2.65,2.8-2.92,.31-1.81,2.3-.07,3.12-.09,.99-1.45,1.78-.33,2.1-.46,.67-.29,1.46-1.41,2.12-1.6,.32-.09,.8,.96,1.55-.12,.5-.5-.05-.57-.49-.68-1.28-.32-1.15,.81-3.13,1.32-.12,.03,.32-1.18,.04-1.09-.57,.19-1.22,.92-1.8,1.39-.6,.44-1.11,.65-1.33-.14,4.36-3.03,6.75-4.34,9.97-6.41Zm-.3,1.8c-1.12,.62-1.67-.24-3.14,1.32,.1,1.49,3.3-.23,3.14-1.32ZM55.21,358.59c.94,2.5-.66,3.03,1,5.89-1.96-1.18-2.62-2.86-1.96-4.85-1.42-.86-3.23-3.37-2.41-5.4,.37-1.75,.26,1.73,1.12,3.08,.57,1.23,1.51,.85,2.25,1.28Zm377.57,84.58c1.66-1.95,5.63-2.6,2.86,.21,.69-2.59-2.15,1.12-2.86-.21Zm-1.93,5.81l2.43-2.26c1.61,.27-2.34,3.94-2.43,2.26ZM63.8,366.29l-.74-1.76,1.56-.63,.73,1.75c-1.18-.65-.47,.26-1.55,.65Zm338.09,101.14c-.22-1.19,1.98-2.42,1.56-3.6,1.9-1.22,3.98-2.67,5.9-4.11,1.91-1.47,3.76-2.78,5.41-3.52-1.23,1.61-2.97,2.88-4.73,4.09-1.76,1.21-3.65,2.19-5.04,3.51-1.49,1.38-1.48,2.45-3.09,3.63Zm-198.26,18.29c1.28-.74,2.67-.64,4.28-.15,1.62,.45,3.48,1.18,5.64,1.87-.89,1.19-3.02-.59-4.91-.95-1.92-.42-3.36-.13-5-.77ZM45.71,320.92c.61,2.71,1.54-1.38,2.04,1.58,.34-.49,.13-1.52,.98-1.49,.6,1.1,.15,2.06,.23,3.21,.08,1.09,1.26,3.54-.18,3.31-.43-1.43-.43-2.43-.23-3.22-.25-1.36-1.42,.19-1.24,.25-.9-.28-.63-2.83-2.04-1.58,.39-3.14-1.63-3.38-1.18-5.72,.39,.29,.81,.55,1.37,.43-.04,.96,1.16,3.17,.24,3.23Zm344.79,151.6c.26-1.53,2.01-2.11,3.33-2.03,.53-.34,.17-.71,.13-1.06,1.73-.05,2.42-1.93,3.65-2.71,.64-.37,2.16-2,2.62-.7-1.28,.56-2.04,1.34-2.62,2.14-.59,.8-1.01,1.59-1.69,2.04-1.72,1.15-3.16,.72-5.42,2.32Zm117.72-263.58c1.4-1.36,4.31,5.39,1.79,5.23-.34-1.32,.9-1.09,.13-2.85-.53-1.56-.92,.99-.89,1.61,.61,2.9,2.69,1.15,3.12,4.27-1.52-.18-3.46-2.27-4.11-4.75-.39-1.62,.42-1.78-.04-3.51Zm6.51,56.25c.21,1.64,1.12,4.32-.79,4.08,.16-1.29,1.19-1.22,.8-3.39-1.44-.51-.5,2.76-2.08,2.03,.19-1.8,1.55-6.56-.06-5.41-1.09-.96-.03-3.7,1.1-3.41,.21,.78-.08,1.97,.15,2.71,.12,.39,.82,.53,.85,.67,.17,.81-.08,1.88,.04,2.73Zm5.01-10.45c1.09,2.07,.64,7.17,.87,10.44-.72-.93-1.43-1.84-2.96-1.37-.46-2.31,1.29-1.09,2.08-1.41,.36-1.87-.86-.81-1.29-1.37-.29-.36-.56-1.6-.08-1.38-.65-.31-1.16-.17-1.64,.73-.23,.42,.42,.83,.46,.68-.18,.69-1.85,2.81-1.19,4.13-1.03-.77-1.11-3.48-.07-4.11-.13-3.67-1.49-3.35-.84-6.82,1.08,.02,.98,2.26,1.09,4.07l1.26-.04c-.23-2.7-1.6-2.69-.75-5.49-.12-.8-.8-.54-1.3-.62-.42-1.85,.76-1.43,.66-2.79-.14-1.95-1.56-1.23-1.28-4.03,1.38-.09,1.81,1.82,2.12,3.98,1.05,2.4,1.72,1.99,3.11,2.59,.78,2.62-1.87,.24-1.09,2.84,.15,.87,.88,.67,.84-.04Zm-13.96-36.22c-.86-.79,.09-1.35-.13-2.73-.26-1.25-1-1.82-1.08-2.52-.21-1.81,.48-3.11,.05-4.87,2.67,1.18,.17,4.85,2.27,7.12-.6,.75-.97,1.75-1.1,2.99Zm3.13,9.04c-.71,.44-1.93-2.81-1.07-3.25-.85-1.49-2.01-2.15-2.33-5.04,1.33,3.21,2.01,.8,1.78-1.74,2.79,2.44,.44,5.77,2.34,9.23-.5-.03-.71,.27-.72,.81Zm5.27,60.09c.06-.68,.11-1.36,.17-2.04,.98,.47,2.1,.76,1.86,2.91-1.23,.45-1-1.06-2.03-.87Zm5.5-.2c.26-1.31,1.35-1.16,1.07-3.41-.25-.73-.94-.79-.76-2.15,.59,.1,1.18,.2,1.28-.62,.21,.88,.39,2.41,.24,3.73-.19,1.32-.73,2.42-1.83,2.45Zm1.19-6.9c-1.67-.85,.25-3.31-.2-6.3-.96,.64-.78-.53-.66-2.15,.14-1.62,.36-3.7-.22-4.83,1.82-.53,1.14,3.63,1.33,5.6,.18,2.85,.71,6.04-.25,7.68Zm-2.14,1.26c-.41-.04-.3-.87-.37-1.41-.72-.07-1.11,.45-1.31,1.3-.57,.08-.4-4-1.21-1.45-1.51-.39,.44-2.39,.51-2.72,.19-.8-.13-1.97,.1-2.74,.1-.33,.78-.39,.87-.66,.36-1.02-.25-2.42,.86-2.04,.08-1.23-.47-3.46,.81-2.75-.56,1.78-.3,4.22-.87,6.21-.33,1.23-2.65,2.32-.98,4.09,.83-1.18,.47-4.52,2.24-4.04,.21,3.49-1.58,3.31-.64,6.21Zm-14.19-71.98c-.26,.49-.53,.96-.82,.19-.55-1.31-1.02-3.6-1.66-6.1-.69-2.49-1.44-5.22-2.28-7.49-1.01-2.24-.03-2.55,.4-.12,.89,2.22,1.85,4.46,2.69,6.72,.44,1.12,.76,2.27,1.03,3.4,.27,1.14,.49,2.27,.63,3.4Zm8.88,67.57c-.57-1.29-2.27-.9-1.98-3.45,.53,2.03,2.25-1.7,2.05,1.42,.89-.4,.22-3.42,1.75-2.66-1.28,2.54-.17,5.78-1.15,9.49-1.04-1.84-.37,1.07-1.7,.56-.41-3.1,1.24-2.58,1.03-5.36Zm-4.15-1.52c-.54,1.07-.44-.11-.34-1.56,.14-1.45,.09-3.16-.43-3.12,.64-1.87-.52-2.82,.36-4.65,.32,2.45,1.78,5.88,1.32,7.35-.8-2.25-.87-.56-.91,1.97Zm3.17-47.49c0-1.44-1.04-1.4-1.15-1.9-.44-1.69,.92-1.02,.69-2.9,1.66,1.33,2.12-.62,3.04,2.29-1.17,.7-1.45-.97-2.62-.27,.14,1.77,2.09,3.63,2.43,1.71,.49,.05,.34,.65,.11,.69l.22,1.37c-1.2,.7-1.09-1.76-2.29-1.05,.87,2.94,1.74,3.42,1.38,6.06-1.23,.11-1.79-1.35-2.51-2.43-.37-2.2,.71-1.96,.71-3.56Zm-30.79-74.79c-.06,.76-.76-.4-1.59-1.96-.4-.79-.87-1.65-1.33-2.42-.45-.77-.86-1.45-1.16-1.86,1.12,.02,1.73,1,2.28,2.25,.54,1.26,.94,2.84,1.8,3.99Zm19.31,20.62c.23-1.31-.17-3.09-1.4-5.48,1.33-.28,3.13,3.96,2.3,4.37,1-.11,1.61,2.39,2.54,2.79,.37-2.53-2.9-6.21-3.41-7,.07,.12,.69-.44,.77-.32-.87-1.25-1.79-1.57-2.68-1.93-.54-1.08-.5-1.77-.14-2.24-.95-1.52-2.29-3.22-2.52-4.28-1.72-2.15,1.64-.92-.09-3.08-.56-.83-.69,.27-.45,1-.54-.04-1.01-.91-1.46-1.95-.5-1.02-.99-2.2-1.51-2.88,.95,.49,1.87,2.08,2.8,2.55,.26-.27,.05-.82,.43-1-.92-1.32-1.89-1.59-2.82-2.56,1.58-.07-1.65-5.27-2.27-6.82,1.05,.96,2.11,1.7,3.15,3.17,.4-.46-.55-1.73-1-2.71,2.16,1.38,6.69,8.47,8.47,12.62,.52,1.1,.41,1.31-.14,1.64,.5,.6,.89,.17,1.39,.95,.82,1.29-.27,1.38-.15,1.64,.4,.8,1.2,.79,1.71,1.61,.82,1.34,.7,3.75,1.49,5.61,.62,1.48,1.34,2.83,2.05,4.19,.71,1.36,1.42,2.73,1.88,4.29,.86,2.72,.92,5.54,1.76,8.48,.33,1.16,1.04,1.61,1.13,1.89,.74,2.27,1.1,4.63,1.59,6.86,.25,1.11,.53,2.2,.91,3.22,.39,1.03,.87,2,1.47,2.92-.25,.6-.29,1.41-.28,2.28-1.04-.32-1.02-4.29-2.52-3.02,1.12,1.8,2.19,3.7,3.47,4.99-.28,1.81,.26,4.12,.95,6.57,.57,2.48,1.27,5.11,1.44,7.48,.13,1.72-.51,1.69-.67,3-.18,1.82,.61,4.25-.38,5.06-1.01-.12-1.27-1.1-1.32-2.25-.04-1.15,.04-2.45-.1-3.22-.42-2.13-1.11-4.59-1.29-6.19-.08-.75-.7-1.29-.7-1.29-.05-.52,.44-2.04,.38-2.23-.18-.83-1.07-2.32-1.29-3.32-.54-2.42-.36-3.25-1.81-5.34,1.15-.49,2.22,2.36,2.03-.51-.44-.97-.45,.4-1.22,.31-.42-.69-.78-1.6-1.19-2.34-.44-.73-.93-1.29-1.56-1.29-.47-2.72-1.1-4.91-1.63-6.96-.27-1.02-.51-2.01-.71-3.02-.21-1-.42-2-.53-3.08-1.26-2.42-2.68-4.01-4.31-4.45-.27-1.74-.72-3.72-1.87-6l1.57-.6c-.6-1.74-1.32-2.73-2.26-2.13Zm9.73,23.32c.41-.27,.4-.92,.39-1.58-1.88,.57-.18,2.13,.44,4.26,.52-.81,1.95-.78,2.01-2.01-1.36-1.19-1.51,1.37-2.85-.67Zm-.66-4.94c.47,2.17,1.64,1.46,2.26,3.02-.4,.13-.14,1.33,.42,1.35-1.21-2.4,1.18-1.51,.16-3.74-1.28,1.17-1.67-1.34-2.84-.63Zm-.76-4.94c-.51,.35-.57,1.07-.49,1.9,.08,.83,.23,1.81,.24,2.61,1.31,.21,.74-1.27,1.8-1.29-.34-1.69-1.19-1.24-1.55-3.22Zm-9.43-29.13c-.16-.54-.04-.9,.45-1-.97-1.47-1.93-3.17-3.07-2.5,.81,1.88,1.67,3.22,2.62,3.5Zm7.45,20.06c1.22,1.97,1.45,6.92,1.95,5.34,.06-.93-1.75-7.19-1.95-5.34Zm-3.53-.95c-2.05,1.28,2.33,6.76,3.89,6.83-.99-3.97-2.91-2.52-3.89-6.83Zm-67.04,263.02c1.86-1.3-.53-1.79,1.48-3.21,.72,1.08-1.16,2.7,.64,3.54-.93,.72-1.6,.5-2.12-.33Zm9.22-341.97c1.91-.57,2.31,2.55,4.55,4.27,.56,1.75-3.31-3.15-4.55-4.27Zm62.34,108.83c-1.24-2.37,.79-1.56-.05-3.55,1.52,.61,.29,3.44,1.44,3.91,.15,2.38-.61-1.83-1.4-.37Zm2.44-5.63c.81-.61,.93,1.14,1.58,1.04,.07,2.03,.31,2.93,1.23,4.76-2.19-.56-1.47-2.86-2.81-5.8Zm-13.1-11.84c-.31-.84-.62-1.69-.92-2.53,.44,.23,.89,.44,1.42,.23l-.47-1.27c-.39-.77-1.02-.36-.79,.28-1.48-.35-.6-2.52-.76-3.32-.73,.18-.55,1.08-1.35,1.21,.83-2.05-.28-3.7-1.74-6.54,1-.17,1.47,2.86,2.62,1.88,.12,.17,.12,.72,.09,1.22-.03,.5-.09,.95-.09,.95,.2,.39,1.02,.35,1.02,.35,.54,1.38,.63,2.9,2.09,5.75-.79,.28,.13,1.91-1.13,1.8ZM44.99,309.3c1.22-.29,1.82,2.05,1.33,3.05-.92,.04-1.14-1.47-1.33-3.05Zm457.82-115.94c-.86-2.68-.05-5.26-2.45-5.67-1.3-2.25,.32-2.17-.62-4.14-.31-1.31-.97-2.02-1.52-2.66-.58-.63-1.02-1.21-.87-2.3,1,.29,2.17,2.22,3.18,4.68,1.35,3.17,4.05,8.86,2.28,10.1Zm.81,1.18c3.35-.46,1.99,5.57,4.27,8.08-2.07-.26-.59-.26-.86,1.65-1.28-.9-1.56-2.54-1.74-4.39-.2-1.84-.39-3.86-1.67-5.35Zm1.83-6.38c-.41-1.18-.97-1.23-1.35-2.48,1.18-1.58,1.17,2.78,2.15,2.22,.19,.81,.37,1.6,.55,2.4,.17,.8,.29,1.62,.47,2.44,.33,1.66,.75,3.39,1.42,5.35-.39,.71-1.03-1.31-1.64-3.75-.29-1.22-.6-2.54-.87-3.67-.31-1.12-.57-2.05-.73-2.51Zm-79.56-65.43c2.36-.09,4.6-1.35,7.38-.07,.43,.2,1.53,1.5,2.43,1.99,.87,.5,3.39,1.55,4.24,3.74,1.02,.84,1.98,.99,2.99,1.6,.7,.88,1.37,1.72,2.01,2.52,.62,.82,1.22,1.6,1.81,2.34,1.18,1.48,2.3,2.81,3.36,4.07,.52,.64,1.03,1.25,1.53,1.86,.48,.62,.9,1.26,1.33,1.88,.84,1.26,1.59,2.53,2.24,3.89-.58-.16-1.17-.59-1.75-1.09-.85,1.08,.47,1.67,1.39,2.8-.85,1.11,.23,4.21,1.29,5.03,.17-2.2,.11-4.34-.93-5.99,1.12,.72,1.7,1.72,2.28,2.78,.57,1.07,1.05,2.24,2.13,3.28-1.78-.18-.28,2.3-2.08-.19-.04,1.04,.8,3.07,1.57,3.39,1.07-.77-.29-2.68,1.56-3.09,.54,.89,1.08,1.78,1.63,2.67-2.57-3.16-1.99,2.01-.16,2.96,.6-.25-.57-1.24-.61-1.8-.05-.82,.43-.1,1.1,.94,.33,.52,.72,1.12,1.1,1.66,.35,.55,.72,1.03,1.05,1.29-.18,.56,.3,1.47-.52,1.7,1.8,1.17,1.65,4.5,2.13,6.56-2.09-2.5-4.08-5.73-6.48-4.91-.22-.63,.53-.76,.16-1.47-1.11-1.47-.51,.95-1.47,.81-.82-2.16-1.93-2.23-2.85-3.95,.77-1.16,1.35,.78,1.99,1.65,1.99-.48-1.43-4.15-2.53-4.15-1.17-1.53,.39-1.84-1.17-3.56-.66-.33-1.36-.61-2.06-.87-.39,.26-.12,.67,.24,.99,.35,.33,.77,.6,.75,.53,.32,.73-.2,1.24,.22,1.99,.47,.84,2.04,1.97,2.51,4.13-1.62-2.11-3.15-4.35-4.8-6.54-1.69-2.15-3.4-4.31-5.09-6.45,1.86-.39,2.81-1.12,3.47-2.37-.8-1.73-1.59-1.09-2.48-2.75-1.32-1.1,.35,1.74-1.35,1.7-.61-.81-1.22-1.61-1.83-2.42-1.4,1.33-.14,2.46,1.52,4.1-2.23-.23-4.55-4.32-6.78-6.2,.46,.05,.92,.09,1.37-.28-.86-1.23-1.62-1.11-2.5-1.87-.13,.44-.25,.85,.08,1.45-2.61-1.16-5.46-4.69-8.16-7.18,.89,.12,1.19-.17,.58-1.27-.66-1.18-2.84-.78-2.08,.22-.75,.55-1.85-1.72-2.73-2.32-.11-1.99,1.36-3.66,.97-5.75Zm30.21,31.31c-1.17,.65,.8,4.88,2.19,4.41-.35-1.8-1.43-2.07-2.19-4.41Zm-6.47-8.98c.12,2.17,.53,2.74-1.76,3.4,1.37,2.84,2.58-.65,3.12,.12-.36,1.35,2.17,5.38,3.8,4.11-.66-1.86-1.39-.88-2.08-1.58-1-2.27-.6-5.2-3.08-6.04Zm-9.69-8.82c.88,2.38,1.91,2.31,2.89,3.15,.66,.57,1.97,3.4,2.51,1.94,.62-.63-1.53-2.21-1.16-2.94-2.13,.57-2.46-1.66-4.24-2.15Zm2.73-.55c.98-.51,.12-1.71-.53-2.7-1.52,.4-.5,1.47,.53,2.7Zm-5.34-1.25c.92,1.2,1.73,1.05,2.56,1.08-.43-.71-.28-1.26-1.24-2.13l-1.32,1.05Zm-2.15-.6c.55,.18,3.32-.57,1.57-2.05-.61-.72-3.26,.95-1.57,2.05Zm-6.76-5.29c-.44-.45-.73,0,.09,.71,1.14-.79,1.04-1.85-.06-3.15-1.36,.51,.93,1.84-.03,2.44Zm40.14,274.33c-1.35,1.05-2.84,4.3-4.09,3.55,.72-1.25,1.4-1.9,2.08-2.55,.68-.65,1.39-1.29,2.02-2.59,.29,.4-.47,1.27-.02,1.59Zm-2.52,.64c-2.02,1.27,.24-3.48,1.51-3.74,.18,.56-.39,1.14-.9,1.76-.53,.61-1.02,1.24-.61,1.98Zm10.68-18.79c.63,.69-.23,6.48-3.18,7.25-.35,1.22-.7,2.4-1.41,3.78-.37-.09-.19-.43,0-.78-.23-.3-.47,0-.7,.32-.13-.67,.2-1.4,.72-2.14,.26-.37,.57-.74,.89-1.11l.92-1.13c1.21-1.48,2.15-2.83,.78-3.57,.62-1.77,1.35-1.16,1.98-2.61Zm-13.05,23.56c-1.07,1.19-1.32,2.06-1.58,2.93-.13,.44-.25,.87-.49,1.35-.25,.46-.61,.96-1.18,1.53-.69-.58-.24-1.53,.34-2.56,.55-1.05,1.24-2.16,1.14-2.95,.88-.62,3.6-2.2,3.16-.09,1.08,.72,.45-2.87,1.54-2.15,1.28,1.04-.74,3.15-2.02,4.27-1.4-.35-.43-1.63-.91-2.34Zm12.01-13.4c-2.63,3.34-3.27,5.14-6.08,8.72-1.26-1.55-.33-4.07,1.47-6.98,1.95,.03-1.41,2.47-.37,2.92,2.3-.92,2.56-4.91,4.98-4.66Zm33.79-136.36c-.71,.16-1.16-1.1-1.26,.04-1.32-.94,.13-2.98,1.1-2.71l.16,2.67Zm-51.26,159.72c.85-1.59,2.59-2.1,4.12-5.19,.65,.77-1.76,2.62-.34,3.13-1.3,.97-2.74,3.22-3.78,2.06Zm-20.38,15.96c-.28-1.07,3.68-5.74,5.88-6.05,1.55,.67-.77,.89-1.35,1.4-1.37,1.25-3.03,3.84-4.52,4.65Zm41.17-45.86c2.02-3.7-2.09-1.76,.12-5.28,.82,.9,.24,2.54,1.56,3.18-1.37,2.36-1.96,5.64-4.02,5.33,1.27-1.58,1.65-5.51,2.34-3.24Zm-33.77,36.8c.3-1.81,3.72-4.45,5.23-6.59-1.28,2.76-3.12,5.08-5.23,6.59Zm7.55-2.86c1.72-.77,1.13-1.64,2.82-2.78,.55,.7-1.22,2.18-.68,2.89-.8,.49-1.49,.34-2.14-.11Zm-10.64,13.51c-.64-.93-1.6-.33-2.72,.99-.28-2.45,3.81-3.61,4.89-6.24,.85-.09,1.59,.67,2.56-.28,1.1-1.67-1.07-.14-1.22-1.16,.62-.21,1.3-.8,2.03-1.68,.99,.06-.27,2.44,1.23,1.14,.28,.57-1.16,3.54-2.33,3.25-.92,.95,.24,1.4-1.25,2.49-.85-.4,.09-1.24,.79-2.01-.36-.6-.95-.06-1.37-.4-1.2,2.22-.43,3.99-2.83,6.52-.19-2.56-1.2,.11-2.14,1.6-.58-.48-.05-1.22-.7-1.69,1.19-1.66,1.86-.87,3.05-2.54Zm11.68-22.83c.81-.31,1.45-1.08,2.06-2.02,.62-.94,1.22-2.03,1.88-3.07,.64-.95,1.13-.86,1.83-1.84,.67-.94,.42-1.38,1.16-2.35,.75-1,1.56-2.08,2.42-3.22,.87-1.14,1.63-2.43,2.49-3.72,.83-1.3,1.68-2.65,2.54-4,.84-1.36,1.72-2.71,2.43-4.14,.93,.68,.61,1.75-.15,2.74-.75,1-1.83,1.99-2.2,2.64-.94,1.62-.66,3.15-2.09,4.04-.35,.75,.34,1.02,.7,.47,.52,1.15-1.83,2.23-2.43,1.46-1.38,2.41-2.82,4.32-4.07,6.13-1.28,1.79-2.31,3.52-3.22,5.38-1.13,.67-2.31,1.96-3.32,1.48Zm54.44-160.39c-.49,.91-.92-.06-1.16-1.42-.23-1.36-.41-3.11-.14-3.82,.62,.1,.66,1.35,.71,2.61,.02,1.25-.03,2.51,.6,2.63Zm9.71-8.89c.01,1.34-.81,2.84-.39,4.2-1.63,.52-.06-4.69-.03-4.17-.03-.56-.77-3.3-1.02-5.47-.28-2.04-.08-3.81-.83-5.48,.71-.26,.76-1.31,.4-2.86,1.52,1.98,.42,5,.85,8.29,.21,2.1,1,3.64,1.02,5.48Zm-7.31,6.73c1.26-.59,.65,2.29,2.18,1.22,.09,1.16-.21,1.77-.72,2.07-.45-1.18-1.75-.76-1.46-3.3Zm1.46,3.3c.04,1.93,2.7-.96,2.22,1.93-.99,.92-1.86-1.91-2.1,.09-.99-.16-1.09-1.77-.12-2.02Zm6.54-3.11c-.23-2.1,1.09-2.79,.03-4.18,.09-1.14,.75,.24,1.06,1.74,.34,1.5,.16,3.13-1.09,2.44Zm-34.74,103.21c.85-2.5,1.42-2.1,1.62-4.14,2.23,.8-1.83,3.38,.78,3.75-.38,2.17-1.57,.43-2.41,.4Zm14.43-68.19c-.48-1.74-.45-3.71-.17-5.69,.26-1.98,.67-3.99,.65-5.76-.07-2.81-1.6-4.51-.87-6.37,1.18-.18,.66,2.43,.89,3.82,.22,1.19,.75,2.24,.8,3.22,.05,.94-.44,.93-.47,1.26-.06,.72,.9,2.56-.53,3.17,.29,1.65,.44,2.44,.42,3.22-.03,.78-.21,1.54-.72,3.14Zm16.73-45.13c.68,.52,.84,2.15,1.21,3.35-1.4,.6-1.76-2.26-1.21-3.35Zm-6.78-6.05c.44-1.11,.47-2.71,.62-4.17,3.42,1.59,2.96,7.97,3.45,12.54,.16,.79,.82,.5,1.33,.56-1.36,2.04,.45,3.65,1.08,6.08,.35,2.13-1.01,1.87-1.04,3.48-.62-1.08-.53-2.28-.5-3.54,.01-1.26,.03-2.59-.58-3.88-.78-1.14-2.18-1.01-2.45-3.17,.65-.26,.79,.57,1.32,.55-.28-.97-.39-2.01-.46-3.02-.03-.5-.06-1-.08-1.48-.05-.47-.1-.93-.17-1.35-.28-1.68-.82-2.83-2.52-2.61Zm-7.7,12.76c-1.87-.47-2.09-2.9-1.87-5.64-.83-.65-2.43-5.2-.32-5.14,.75,3.62,2.28,8.45,2.19,10.78ZM186.46,56.35c-.66,.45-1.47,.87-2.35,1.27-.87,.43-1.81,.87-2.78,1.3-1.92,.86-3.9,1.7-5.41,2.63,1.26-1.12,3.01-2.17,4.88-3.08,.94-.46,1.9-.88,2.85-1.26,.96-.34,1.92-.62,2.81-.86Zm234.04,432.45c-.4-1.4,1.95-2.06,3.4-2.83,.42,1.39-1.96,2.06-3.4,2.83Zm3.07-4.64l-5.41,3.69c-.77-.81,4.87-5.14,5.41-3.69Zm1.74,3.9c.31,1.38-1.33,1.57-2.83,2.44-.52-.94,1.73-2.38,2.83-2.44Zm-40.84,18.4c.09,.98-3.14,1.74-4.43,2.55,0-1.69,2.51-1.52,4.43-2.55Zm44.18-16.1c1.02-.86,1.91-1.61,2.74-2.27,.84-.65,1.62-1.19,2.38-1.7,1.52-1.02,2.94-1.9,4.5-3.23,.08,1.95,2.73-1.97,2.81-.02-2.29,1.09-3.9,2.83-5.66,3.77-.14,.07-.34-.7-.49-.68-.71,.1-2.21,2.01-2.99,2.27-.7,.98,.53,.39,.36,1.84-2.24,0-3.27,2.28-6.05,3.19-.66,.55-.11,.59,.23,.35,.09,1.5-1.93,.74-2.72,1.35-.77-.6,3.16-3.43,.95-2.68,.61-1.64,3.51-1.59,2.79,.13,.33-.77,2.22-1.68,1.16-2.32Zm6.65-16.02c.52,1.53-3.87,3.67-5.87,5.51,.14-2.38,4.2-2.95,5.87-5.51Zm-59.29,42.3c-.27-1.03-1.53-.78-2.65-.71-.53,.56-.76,1.15-.92,1.75-1.64,.57-2.81,.39-4.98,1.46,1.31-1.6-.14-1.36,1.37-2.74,2.93-.41,.04,.51,.57,1.58,1.18-.53,1.59-1.24,2.21-1.91,.62-.67,1.46-1.3,3.48-1.79,.64,2.26,1.73,.53,4.55-.55,.66,1.68-1.73,3-4.69,4.26-.51-.56,.25-.96,1.06-1.36Zm61.34-35.94c.07-.59,.95-1.08,2.02-1.71,1.05-.66,2.3-1.43,3.18-2.5,.67,1.16-3.53,3.37-5.19,4.21Zm-2.53,9.3c.62,.66-2.03,1.79-2.8,2.62-.66-1.52,1.43-2.48,2.8-2.62Zm-71.69,32.52c-1.05,.94-1.39,2.04-3.82,2.71-.39-1.17,2.14-1.88,3.82-2.71Zm-19.97,5.79c.63,.07,1.27,.12,2.26-.15-1.11,.84-1.54,1.87-4.02,2.35,.01-.89,1.76-1.31,1.77-2.19Zm94.36-55.83c3.84-3.13,6.3-5.11,8.66-7.19,2.33-2.12,4.67-4.22,8.44-7.46,2.09-1.12-1.66,2.08-2.91,3.29-.96,.93-2.07,1.98-3.27,3.09-1.21,1.1-2.45,2.32-3.83,3.42-2.7,2.25-5.46,4.54-7.68,6.45-.64-.39-.05-.99,.6-1.6Zm-123.94,63.28c-3.15,.65-2.96-.59-2.45-1.74,2.2-.5,1.68,1.12,2.45,1.74Zm-33.32,7.89c-1.98,.15-3.25-.11-3.01-1.22,1.97-.15,3.24,.11,3.01,1.22Zm29.41-2.63c-2.15,.63-4.67,1-7.27,1.18-2.61,.18-5.29,.21-7.81-.08-2.38-.05-1.65,1.4-4.49,1.12,.13-.35,.74-.46,.72-.88-2.05-.1-3.44,.12-4.66,.42-.61,.15-1.18,.32-1.76,.48-.59,.14-1.19,.27-1.87,.36,.94-2.09-1.92-1.99-3.77-2.47,.91-1.01,2.61-1.04,4.27-.71,1.66,.36,3.28,.9,4,1.31,.46-1.61,3.77-3.42,5.89-2.89,.37,1.14-2.76,.56-2.93,1.44,.78,1.24,2.52-.34,2.97-.61,.75,.36,3.5-.74,4.48-.3,.09,.04-.03,.85,.05,.84,.96-.07,1.66-.86,2.92-1.16,1.14-.26,1.09,.28,1.53,.26,1.02-.06,1.83-1.18,3.73-.41,.33,.14,1.21,.11,1.53,.25,.98,.44-1.39,2.34,2.47,1.84Zm-3.13-.92c-3.35,.72-6.12-1.58-5.93,1.49,2.25-.37,5.89-.17,5.93-1.49Zm57.33-24.56c-.11-1.49,3.06-1.8,4.63-2.14,.03,.99-3.3,1.39-4.63,2.14Zm-.69,2.49c.55-.71,1.96-1.27,3.54-1.8,1.58-.53,3.35-1.01,4.53-1.69-.26,.37-.74,.71-1.34,1.04-.62,.3-1.37,.57-2.16,.83-1.59,.53-3.34,1.03-4.57,1.62Zm-97.38,13.37c-1.44,1.36-2.94,.16-5.81,.22-1.87-.81,4.25-.16,5.81-.22Zm24.58-.37c-2.53,.88-6.23,.88-10.12,.87-1.64,.03-5.38,.04-7.93,0-2.55-.08-3.89-.28-.75-.3,2.39-.13,5.77-.13,9.22-.14,3.45,.07,6.95-.22,9.57-.42Zm-199.92-97.52c.14-1.3,.97-.31,2.04,1.16,1.13,1.41,2.51,3.27,3.58,3.82-1.68-.39-3.97-1.76-3.99-3.69-.59-.76-1.18-1.51-1.63-1.29Zm-5.53-8.54c1.35,2.06,2.69,4.12,4.87,6.45-1.89-.71-6.09-5.11-4.87-6.45Zm-.14-5.75c-.94-1.35,1.03-1,1.35-1,1.04,1.27,.7,2.02,1.32,3.13-1.2,.25-1.12-3.04-2.67-2.14Zm374.22,34.78c.46-1.03,1.88-2.71,3.43-4.27,.77-.78,1.58-1.54,2.31-2.17,.7-.66,1.33-1.19,1.79-1.49-.38,.82-.9,1.67-1.57,2.43-.67,.76-1.42,1.48-2.17,2.16-1.5,1.35-2.99,2.51-3.79,3.34Zm-180.98,85.91c-.33,3.64-6.66,3.83-11.3,2.03-1.06,.11-.1,.74,.71,.86-2.22,1.24-4.9-.76-6.73-1.07-.92-.03-.36,.5-.03,.42-1.78,.53-6.73,0-8.22-.99-1.19,.54-4.29-.23-3.94,1.36-2.84-1.4-6.26-1.27-10.45-1.64-1.73-.76-1.37-2.31-4.13-2.66-1.95,.61,3.99,1.41,1.06,2.69-1.53-.06-2.33-.4-2.1-1.13-2.54-.32-5.46-.97-8.23-1.51-1.39-.27-2.74-.51-4-.67-1.26-.16-2.41-.34-3.41-.32-1.62-.29-2.26-.87-1.91-1.72-1.41,1.21-5.62,.35-9-1.26-1.06,.85-4.18-.34-6.17-.42-.07-.95,1.27-.47,2.43-.19-1.51-1.71-4.73-.72-6.4-2.24-.85-.15-.53,.29-.13,.4-1.24,1.3-1.08-.6-2.03-1.05,0,0-3.15-1.02-3.57-1.19-1.15-.45-2.45-.7-3.57-1.19-.84-.37-1.84-1.5-1.84-1.5-.81-.28-2.17,.44-3.29,.19-1.17-.25-1.07-.9-1.96-1.21-.59-.21-.86,.16-1.56-.16-2.69-1.22-4.16-2.69-6.15-2.85-.25-.02,.85,.87,1.58,1.13-3.39-.61-6.3-2.99-9.18-4.42-1.06-.52-2.41-.58-3.62-1.16-.39-.18-1.3-1.16-2.56-1.61-.97-.4-.41,.5-1.05,.41-1.43-.19-3.28-2.07-4.71-2.38,.51-.57,1.6-.26,3.08,.62-2.39-1.92,1.61-.91,.49-2.58-.57-.2-.86,.04-1.52-.3-2.12-.77,.22,1.12-.78,1.49-.85,.35-1.39-.88-2.68-1.36-.27-.1-2.29-.23-2.42-.29-.33-.15-2.41-2.71-2.88-1.02-1.57-.63-.53-1.22-1.54-1.84-1.03-.77-1.4-.42-1.73-.02-2.41-2.35-4.28-3.81-7.86-4.49-1.37-1.42-2.28-2.82-4.39-4.29-.63,.44,.06,.97,.8,1.51-1.45-.16-2.23-1.6-4.68-2.49-1.21-.7-1.2,.92-2.23,.57-1.66-1.77-3.31-.97-4.5-1.53-.65-.31-1.95-1.61-3.1-2.2-4.95-2.43-12.96-9.39-19.21-14.94-1.22-1.1-3.96-1.99-3.72-3.81-1.1-1.28-1.36-.13-2.28-.89-.8-.74-1.58-1.46-2.33-2.16-.74-.71-1.45-1.4-2.14-2.07-1.39-1.33-2.69-2.59-3.93-3.79-1.23-1.21-2.38-2.38-3.44-3.58-1.02-1.23-1.93-2.51-2.75-3.83,1.37,.61,2.28,1.8,3.22,3.03,.99,1.19,1.99,2.43,3.44,3.16,1.82-.33-1.3-2.48-2.64-3.74-.64-.64-1.32-2.01-1.24-1.93-1.33-1.23-2.52-1.2-3.19-2.2-2.04-3.57-5.28-7.31-7.92-8.13-1.95-2.75-4.04-4.95-5.86-7.04-1.81-2.09-3.19-4.16-3.93-6.38-1.92-1.28-3.98-3.72-5.76-6.51-1.75-2.82-3.37-5.88-4.74-8.22-2.52-.39-4.38-6.14-7.16-10.65-.53-.86-1.1-1.69-1.68-2.49l-1.66-2.4c-1.1-1.57-2.15-3.08-2.97-4.58-.57-1.06-1.14-2.12-1.71-3.17l-.84-1.57-.76-1.58c-1.01-2.07-1.97-4.05-2.85-5.84-.89-1.84-1.62-3.81-2.29-5.64-.69-1.83-1.48-3.46-2.73-4.55,.48-2.34-1.37-3.34-2.35-5.58-.51-1.14-.09-1.33-.42-2.26-.68-1.98-1.66-4.12-2.7-6.35-1.04-2.23-2.16-4.55-2.92-6.93-.86-2.55-1.05-5.04-1.85-7.34-.52-1.48-1.6-2.61-2.08-4.15-.54-1.63-.41-3.52-.93-5.23-.37-1.22-.97-2.39-1.46-3.58-.5-1.19-.89-2.39-.77-3.68-.16-.72-.62-.47-.98-.58-.12-1.83-.12-3.51-.83-6.03,.48-2.47,1.58-3.97,.55-8.51,1.01-1.67,2.47,2.73,4.51,1.58,.98-1.03-.61-3.81-.81-5.12-.54-1.06-.59,.29-1.78-.51-.75-2.72,1.34-1.81,1.09-3.88,0-2.78-1.34-1.97-1.41-4.32,.76,.02,.78-.99,1.59-.9,.05-2.57-.93-2.76-.98-5.1,.65-.26,.8,.64,1.33,.63-.56-2.66-1.36-4.96-.22-6.61-.07-.88-.52-.32-.42,.02-.64-2.1-.85-6.97-.12-8.82-.4-1.38-1.29-.48-.55-2.19-.29-1.99-.89-3.43-1.75-4.41,.4-1,1.4-.95,1.65-2.2-.23-.59-.46-1.2-.45-2.21-.99-.03-1.22,1.25-2.51,.7-.04-1.9,.3-.9,.83-.73,.42-2.07-.71-1.96-.46-3.72,.34-1.85,3.58-3.59,1.01-5.14-.54,.14-.62,2.18-.07,2.22-.47,1.21-1.81,.73-2.57,1.38-.19-1.8-.49-3.43-.22-5.99,.93,.36-.2,4.09,1.13,3.79,1.1-2.72,.27-8.41-.89-9.76,.64-2.39,.21-7.14,2.22-6.52,.67-2.71-.87-2.23-.47-4.54,.44-1.31,.41,.5,.3,1.53,.67-.08,1.2-1.21,1.73-1.98,.55-.77,1.12-1.16,1.79,.18,.69-.9,1.12-4.04,.65-5.1-.7,.52-.91,2.26-1.31,3.53-.47-1.26-2.54,.85-2.21-2.55,.5-3.44,.5,.89,1.66,.24,.25-2.48-.98-3.4,.57-4.39,.02-2.24-.98,.56-1.66-.26,.93-1.27,.88-4.82,1.5-7.27,.87-1.29,1.51,1.59,2.32-1.06,.24-1.24,.03-1.94-.44-2.34-.62,.04-.53,2.14-1.21,2.02-1.52,.48-.23-2.4-.17-3.82-1.68,.34-.83,2.88-1.33,5.04-1.94-1.63,.38-5.1,.76-8.97,.49,.38,.41,1.44,.97,1.74,.03-1.23,.16-2.13,.39-2.8,.25-.67,.56-1.11,.9-1.45,.68-.69,1.48-.97,2.12-1.8,.06-.6-.25-.82-.08-1.54-1.54,.76-2.76,2.61-4.5,2.74,.69-1.53,1.48-2.71,2.71-2.42,.71-2.23,.17-3.09-.39-3.94,.49-.91,1.18-1.12,1.96-1.02,.15-1.18-.03-1.46-.09-1.86-.05-.4,0-.93,.75-2.57,.48-1.07,1.03-2.81,1.61-2.62,.44-2.72-1.3-.05-1.61-2.03l-.6,2.16c-.57-.96,1.19-5.31,2.42-3.93,.58-3.28,1.7-4.12,2.54-6.97-1.45,1.38-3.12,7.3-4.14,4.9,.53-2.05,1.64-1.3,2.25-3.19,.11-.6-.17-.84,.07-1.55-.68-.33-1.13,.58-1.83,.17-.68,1.43-.34,1.98-.48,3-.69,.49-.6-.7-.12-2.12,.5-1.41,1.34-3.07,1.94-3.59,.74,.16,.55,1.16,1.35,1.26,.21-2.96,1.88-7.71,3.62-8.17-.24-1.63-1.54,.08-2.44,.66,.05-2.18,1.38-3.76,2.6-5.46,1.25-1.7,2.49-3.49,2.7-6.09,.57-2.26,1.61-.28,2.19-3.09,1.3-2.02-.36-1.86,.07-3.24,2.25-2.91,2.46-5.31,4.48-6.93,.08-.8-.52-1.13,.25-2.38,.09-1.09-.82-1.51-.48-2.77-.83,.5-1.06,.18-.4-1.06,1.2,.41,1.32,3.05,2.93,.71,.78-1.76-1.1,.57-1.48-.79,1.53-2.46,1.37-4.57,2.32-6.42,1.36-2.45,3.59-3.41,5.15-6.53,1.03-1.47-1.84-.64,.04-2.61,1.01-2.12,.62-.04,1.09-.21,.57-.2,1.34-2,2.18-1.27,1.17-2.81-.72-1.56-.92-3.25,1.69-1.61,3.69-4.73,4.45-6.96,1.59-.87,1.07,.85,1.33,1.82,.71-.27,1.32-1.24,1.9-2.47,.59-1.23,1.26-2.66,1.92-3.95,.81,1.38,1.8,.69,.75,3.29,.59,.15,1.35-1.31,2.05-2.16,.9-1.36-1.25-1.31-1.6-2.1,1.34-1.84-.18-2.36,1.59-4.4,.45-.75-.24-.98-.57-1.38,1.62-1.84,3.08-3.67,4.47-5.45,1.38-1.78,2.69-3.5,4.13-4.97,.44-.58-.03-.79-.17-1.13,.53-.58,.99-1.16,1.42-1.7,.45-.53,.85-1.04,1.23-1.52,.76-.96,1.45-1.82,2.22-2.5,.11-.09,.49,.61,.62,.56,.68-.24,1.75-2.4,2.47-2.82,.46-.68-.28-.95,.37-1.7-.38-1.63-1.84,1.61-2.22-.02,.69-1.68,1.45-1.61,2.22-1.65,.79-.03,1.54-.21,2.42-2.26,.63,.32,.02,1.01,.38,1.42,2.01-1.28,2.01-3.87,3.65-3.77,.56-.68-.1-1-.36-1.44,1.81-1.36,3.08-2.64,4.22-3.99l3.51-4.27c.28,.56-1.54,1.64-1.08,2.16,1.61,.37,4.9-6.89,1.35-2.99-.39-.92,2.61-2.66,3.59-3.92,.34,.88,1.11,.49,1.65,.76,.57-.64,.03-.6-.28-.32,.3-2.42,6.37-3.75,5.71-6.09,1.69-1.69,2.11-.09,3.99-2.25-.28-.93-1.32,.06-2.25,.79,0-1.19,3.37-2.76,4.3-3.06,.46-.47,.05-.6-.15-.86-.2-.26-.19-.64,1.17-1.54,1.17-1.14,1.51-.39,1.96,.09,2.18-1.27,3.16-3.67,5.28-5.59,.33-.3,.95-.23,1.45-.57,.82-.55,.77-1.12,.97-1.26,1.55-1.03,4.37-2.76,6.88-4.7,1.11-.85,3.19-2.2,4.39-2.97,1.68-1,2.57-2.89,4.52-2.77,.42,.02,1.99-.38,2.79-1.21,.08-.09,.23-1.13,.23-1.13,.24-.16,5.46-1.07,5.02-3.45,2.58-1.52,3.98-2.5,7.81-4.73,.75-.46,2.7-1.91,2.5-1.8,.94-.38,1.43,.23,2.42-.23,2.18-1.03,1.28-2.17,3.42-1.65,.53-.71,1.04-1.42,1.54-2.14l3.75-1.91,3.79-1.74c2.51-1.16,4.99-2.32,7.42-3.48,2.44-1.13,4.9-2.13,7.26-3.22,2.38-1.04,4.66-2.2,6.94-3.18,.77,.08,1.33,.38,1.82,.75,3.17-2.09,6.59-3.69,10.09-5.01,3.53-1.22,7.12-2.25,10.63-3.49,1.98-.37,.24-1.78,2.74-1.93-.09,1.37,1.28,1.48,2.67,1.59,.31-1.39-2.22-.36-1.91-1.75,1.86-.45,3.65-.84,3.93,.04,.96-.48,1.24-1.17,1.21-1.97,2.6-.69,4.35-1.11,6.21-1.36,1.86-.26,3.8-.48,6.73-.95-1.81,2.24-1.64,2.51-1.65,4.94,1.63-.06,1.35-.82,1.33-1.49,2.13-.1,2.32,1.28,3.33,2.02,3.55-1.46,7.04-.14,8.93-1.99,1.65-.41,1.14,.68,2.33,.59,.81-.19,.44-.89,1.44-1,2.6-.61,2.94,.27,5.31-.07,.5,.83,1.25,1.51,3.83,1.02,1.67-1.5-6.2-.1-1.57-1.17,1.23-.28,2.77-.14,3.02-.19,1.84-.35,2.25-.93,3-1.02,1.33-.15,1.63,.33,3.04,.25,5.88-.13,13.25-1.15,16.69-.47,.89-.04,.68-.74,.82-1.23,1.83,.44,4.35,.58,6.88,.44,1.27-.09,2.53-.16,3.72-.31,1.19-.15,2.29-.37,3.23-.66,1.58-.07,2.45,.62,3.77,.73,1.41,.12,1.92-.66,2.39-.64,.93,.04,.96,.85,1.42,.96,.37,.11,3.57,.05,3.85,.07,1.4,.08,2.43-.27,4.62,.18-.15-.6-1.85-.59-2.98-.81-1.74-1.01,5.07,.37,6.92,.48-1.94,.81,2,1.6-1.12,1.97,.49,1.22,1.6-.95,3.84,.18,1.21-.76-1.66-1.9,.31-1.65,3,.46-.36,.59,1.28,1.51,1.37,.43,1.11-.84,1.75-.97,.66-.13,3.91,1.23,3.2-.28,2.11,.29,3.9,.62,5.56,1.1,1.66,.49,3.21,1.01,4.9,1.49-.69,1.2,1.23,1.96-.61,2.44,1.36,.65,3.89,1.4,6.48,2,2.58,.67,5.2,1.27,6.82,1.37,.67,.05,.75-.22,.98-.6,3.13,.58,6.29,1.73,9.05,2.87,2.78,1.09,5.25,1.95,7.13,1.78l2.45,1.14c.84,.42,1.7,.82,2.48,1.12,1.57,.6,2.87,.79,3.28-.1,1.78,1.16,3.85,1.09,5.89,1.85,1.4,.48,2.93,1.81,4.06,2.21,.8,.29,1.94,.04,2.46,.18,1.51,.39,3.1,1.03,4.69,1.72,.79,.35,1.58,.7,2.36,1.04,.76,.37,1.51,.73,2.23,1.05,2.43,1.08,6.62,3.43,10.51,4.88,2.47,1.02,4.5,1.22,6.69,2.36,1.27,.66,2.46,1.41,3.7,2.11,.61,.35,1.25,.67,1.89,.99,.63,.33,1.29,.63,1.98,.87-1.17,.78-.16,1.71-.72,2.53-2.27-1.8-2.26,.42-4.16-.61,.01,1.29,2.35,.76,3.89,2.43-2.33,.09-4.12,1.81-1.9,4.27,.29,.32,1.83,.24,2.37,.51,.72,.37,1.79,1.12,3.01,1.96,1.22,.85,2.63,1.75,3.92,2.56,2.35,1.4,4.09,1.31,5.78,3.59,1.12-.09,3.24,1.03,5.55,2.59,2.28,1.59,4.8,3.52,6.92,4.8,1.32,.8,2.38,.64,3.79,1.4,3.84,2.23,6.51,6.02,9.46,8.8-1.43,.91,.26,2.51-.36,3.64,2.56,3.33,.89,5.52,2.92,8.67-2.16,.04-1.15,1.21,.07,3-3.41-.43-.75,3.36-1.79,4.71-.75-.89-1.18-.59-1.85-1.22-.25,.55,1.04,1.49,1.76,2.29-2-.47-1.19,.7-3.06-.05-.7,.31-.18,.93,.41,1.57-.86-.47-1.2,.43-2.23,.17-.23-.06-.81-.97-1.01-.98-.99-.04-1.11,1.59-2.01,.98-.39-.27-.16-.97-.7-1.27-1.25-.68-1.99-.77-3.49-.46-1.5-1.91-2.33-1.44-3.8-3.06-.66-.49-.97,.17-1.39,.46-1.44-3.36-6.57-7.52-7.19-10.71l-4.39-3.48c-1.8,1.8-.48,4.01-1.31,5.93-3.77-2.55-1.29,2.26-3.48,2.06l-2.11-1.68c-.63,.76,.13,1.68-1.06,2.38-2.68-2.5-3.15-2.84-5.58-4.78,.21-.92-.18-1.89-1.17-2.9-1.98-1.26-.63,.95-1.84,.23l-2.18-1.56,.98-1.36c-2.41-1.19-3.16-3.67-4.71-2.67-.32,.57,3.84,1.51,2.1,2.87-2.89-1.91-5.83-3.74-8.74-5.62-1.44-.97-2.95-1.81-4.46-2.67l-4.51-2.58c-.84-.31-1.29,.12-2.16-.27-.5,.85,.38,1.64-.67,2.52-1.49-.61-2.29-.63-3.11-.76-.81-.15-1.62-.44-3.14-1.58-1.19,.81,.95,1.32,1.95,1.93,1.69,1.25-1.3-.04-1.96-.52-1.92-1.22-4.76-2.4-7.2-3.53-2.47-1.06-4.48-2.18-4.68-3.58-1.48,.13-2.65,.69-5.32-1,.38-.5,1.85,.67,2.14,.03,.03-.36-.43-.65-.26-1.03-1.53-.44-3.08-.64-3.72,.29-2.21-.65-4-1.64-5.73-2.51-.86-.44-1.71-.84-2.58-1.16-.87-.3-1.79-.47-2.74-.51,3.63-.11-2.29-1.81-3.11-1.05-1.96-.63-4.04-1.46-6.11-2.1-2.07-.62-4.09-1.19-5.83-1.55-1.18-.25-2.38-.54-3.61-.87-1.22-.34-2.5-.59-3.76-.92-2.54-.66-5.12-1.33-7.62-1.97-2.52-.55-4.99-.99-7.27-1.29-2.28-.28-4.37-.45-6.18-.14-1.11-.45,.03-.77,.2-1.24-.77-.03-1.15-.25-1.24-.59-1.87-.21-1.69,.58-3.4,.4-1.16-.12-2.64-1.24-3.81-1.35-1.4-.16-1.85,.83-3.38,.52-1.44-.04-2.05-.51-1.84-1.41-1.47,.37-1.76,1.65-4.73,.87,.2-.44,1.33-.17,1.39-.73-.73-.77-2.77-.25-4.59-.76-.22-.07-1.17-.87-1.27-.89-2.41-.28-4.98-.18-7.32-.07l-1.71,.08-1.59,.13c-1.01,.07-1.92,.09-2.69,.02-.62,.32-1.01,.78-1.33,1.28-1.28-.74-3.1-.82-5-.65-1.91,.17-3.89,.74-5.57,1.01l-.05-1.26c-1.46,.42-3.59,.46-3.91,1.5-2.05-.29,.69-1.16,.57-1.72-2.3,.1-3.09,.97-4.56,1.6-2.91-.1-6.9,.55-9.13,1.83-1-.13-1.72-.38-2.72-.46-4.51,1.68-9.41,2.99-14.45,4.44-1.26,.34-2.54,.66-3.84,.95l-1.95,.44-1.94,.5c-2.6,.64-5.24,1.19-7.91,1.64-1.45,.74-2.85,1.66-4.08,2.53-2.57,.5-4.75,.51-7.77,1.53l-.51-1.6c-2.04,1.48-5.2,4.58-7.82,3.74,.36-1.33,3.25-1.18,4.35-1.58,1.41-.9,.81-2.28,3.22-2.96-.58-.4-1.58-.26-2.76,.11,1.81-1.39,.14-2.82,.86-3.89,1.77-2.49,5.55-2.42,8.6-4.45,1.29-.21,2.84-.72,2.92,.41,.92-.46,1.5-1.03,2.42-1.49-.34-.68-1.37-.64-2.85-.13,1.29-1.31,6.16-1.94,7.93-2.05-.44,1.48-.06,1.16,1.13,1.88,1.61-.51,1.84-2.16,3.86-1.37-.21-.45,0-.76,.49-.96-.21-.6-1.56-.21-2.77,.21-1.22,.4-2.33,.7-2.13-.34,2.86-.82,5.97-1.49,8.08-1.38,2.45-.84-.23-1.45,.95-2.34-2.1,.37-3.61,1.76-5.39,1.12-.07-.78,.16-1.46,1.02-1.93-.5-.51-1.26-.78-2.3-.81-2.3,1.27,1.44,.87,1.11,1.91-1.49,.11-1.17,.85-1.09,1.52-1.97,.82-2.52,.2-4.09,.62,.08-.61,1.59-.77,2.58-1.1-1.44-1.56-3.53,1.16-4.48,2.02-2.48,.67-3.49-.17-5.08-.42-1.3,.61,.34,2.08-2.21,2.4-1.23-.04-1.79-.83-2.54-1.41-.78,.67-.47,1.63-1.52,2.23-1.53,.55-3.19,1.09-4.96,1.64-1.76,.58-3.58,1.26-5.48,1.91l-5.8,2.04c-1.95,.73-3.86,1.6-5.77,2.43-1.51,.5-.26,1.42-1.43,1.97,.63,.35,1.64,.16,2.84-.28-1.21,1.98,1.69,2.15,2.63,2.99l-1.24,.52-1.24,.52c.41-1.55-.38-2.47-2.82-1.54,.03,1.39,2.35-.44,2.04,1.42-2.88-.05-4.41,1.21-6.01,3.09,.71,.14,1.28-.16,1.84-.56,.57-.38,1.15-.85,1.84-1.09,2.47-.87,4.15-.41,6.2-.79-.67,.88-1.39,2.99,.92,2.35-1.77,1.39-3.47,2.78-4.67,4.24-1.53,.98-1.56-.29-2.74,.28-1.79,.43-2.88,1.76-4.57,2.66-.95,.51-1.21,.08-1.96,.47-1,.51-1.82,1.07-2.63,1.59-.81,.52-1.56,1.07-2.47,1.45-1.83,.79-4.5,2.24-7.19,3.74-2.66,1.54-5.23,3.31-7.08,4.41-1.03,.63-3.39,.73-3.15,2.41-1.35,1.23-1.54,.03-2.63,.75-1.01,.5-.85,.98-.64,1.45-1.54,1.5-1.5-.66-2.86,.43-2.18,1.1-2.46,2.92-4.37,2.97-.6,.49-.01,.96,.18,1.42-2.06,.53-4.57,2.2-7.32,4.49-.31,.62-.34,1.21-.3,1.8-1.5,1.03-3.36,2.68-5.61,4.51-2.21,1.87-4.83,3.9-7.31,6.33-1.26,1.19-2.55,2.41-3.84,3.63-1.28,1.24-2.61,2.43-3.78,3.75-2.4,2.58-4.7,5.11-6.72,7.41-1.18,1.44-1.65,2.91-2.86,4.5-1.28,1.71-2.74,3.21-4.09,4.67-1.33,1.47-2.43,3-3.19,4.6,2.35-2.4,2.33-1.08,.17,1.82,.65-.83-1.53,1.71-4.14,5.11-1.24,1.75-2.63,3.69-3.9,5.47-1.26,1.79-2.43,3.42-3.09,4.63-.54,.92-.95,.69-1.4,1.41-.63,1-1.15,2.72-2.11,4.07-.82,1.15-1.74,1.89-2.11,2.51-.74,1.35-.26,2.91-2.2,5.52-.4,.53-1.76,1.39-1.69,1.27-.46,.89-.1,2.39-.53,3.45-.14,.32-.95,.81-1.27,1.52-.7,1.53-.81,3.39-1.61,5.03-.36,.75-1.44,2.63-2.46,4.64-.96,2.04-1.92,4.17-2.26,5.31-.21,.69,.74,1.03-.03,2.12-.7-.11-.41-.85-.88-1.11-.52,1.04-.09,1.46-.68,2.54,.4,.3,.74,.17,1.03-.25,.95,.73-.81,1.86-1.3,.84-.07,1.63-.38,2.37-1.05,3.78-.21,.46-.51,3.62-.87,4.53-.44,1.15-1.36,2.11-1.78,3.47-.55,1.86-1.12,4-1.7,6.08-.57,2.08-1.24,4.07-1.73,5.72-.52,1.57-.19,3.65-.59,5.21-.26,1.01-.61,.98-.93,1.74-.37,.9-.53,1.82-.59,2.7-.05,.88-.08,1.71-.28,2.4-.35,1.21-1.24,2.13-1.54,2.94-.42,1.13-1.13,2.86-1.29,3.69-.11,.56,.43,1.83,.42,2.08-.13,1.06-.57,.99-.75,1.82-.25,1.12,.18,1.44-.05,2.63-.25,1.33-.94,2.47-1.1,3.74-.06,.46-.06,1.14-.05,1.94,.04,.8,.1,1.73,.1,2.7,.01,1.94-.18,4.03-1.09,5.67,.38,.32,.46,1.67,.5,3.4,.07,1.74,0,3.86-.13,5.72-.07,.92-.64,2.2-.69,3.17-.12,1.72,.01,3.47,.07,5.21,.08,1.73,.16,3.46,.24,5.16l.09,2.51c.06,.83,.1,1.64,.12,2.45,.05,1.61,.03,3.16-.11,4.64-.11,1.25-1.25,2.41-.37,3.86,.47-.11,.33-1.18,.39-1.94,.19,.35,.34,.98,.45,1.72,.14,.75,.23,1.61,.24,2.42,.02,1.63-.3,3.06-1.18,2.95,1.1,.39,.57,1.56,1.07,3.81,.13,.54,.5,1.19,.85,2.08,.36,.89,.65,2.04,.53,3.61-.86,.37-.9-.84-1.04-1.85-.35,.42-1.38,1.62-1.33-.55-1.21,.52,.55,1.34,.28,2.57-.43-.47-1.02-.61-1.74-.51-.15,1.86,.77,1.63,.77,3.2-1.77-.57-1.85,2.2-.9,3.37,1.33-.98,1.19-3.76,2.92-4.21,.73,.9,1.04,2.62,2.01,3.03-.41,.97-1.49,1.14-1.88,2.15,.38,1.84,2.2,1.29,1.6-.83,1.76,2.09-.27,4.2-1.41,4.71,1.08,1.06,1.47,3.64,3.41,2.77,.1,.9,.21,1.8,.71,1.83-.66,1.43,.17,4.24-1.26,4.75-.47-1.62-.78-3.13,.72-2.73l-.49-3.16c-1.67-.28-.01,3.13-1.68,2.87-.77-1.93-.46-1.66-.08-3.25-1.37,.4-.76,3.02-1.99,3.59,.26,1.99,2.03,2.62,1.3,4.4-1.91,.31-4.05-4.07-4.93-3.15-1.04-1.4-.19-3.58-1.34-5.83,1,.97,.52-.14,1.67-.23-.32-3.09-3.01-.87-3.22-4.26-.24-1.69,.21-.84,.74-.76,.07-1.49-.9-.85-1.05-1.89-.83-2.97,.87-2.71,.26-5.36-.87-2.13-.87,1.46-2.02,.84,.68-.46-.38-3.15,.48-3.38-.3-1.57-1.05,.82-1.11,1.42-.43-.8-.5-1.99-.53-3.21-.04-1.23-.15-2.49-.83-3.42-1.35,1.35,.86,2.32,.66,4-.96,.35-.81,3.04-1.96,1.48-.18,3.11,1.44,2.55,1.42,5.31,.13,2.35-.97,.64-.05,3.4,.22,.64,.45,1.14,.67,1.64,.24,.49,.46,.98,.61,1.61-.39,1.34-.51,3.02-.51,4.84,.8,2.21-.16-1.88,1.14-.84,.88,1.17,1.02,3.27,1.16,5.19,.18,1.9,.44,3.6,1.3,3.96-.32,1.2-.64,2.41,.13,4.77-2.44-.7,.13-3.86-1.51-5.21-1.13,2.57-1.54,5.95-2.47,8.8,1.86,2.1,1.81-2.22,1.78-3.85,1.54-.03,1.16,5.13,3.3,3.47,.3,1.11,.13,1.76-.32,2.14,1.36,.9,1.95,4.14,2.67,6.99-.89,.04-.84-2.87-1.9-2.31-.11,1.53-.07,3.23-.03,4.91,.55,1.65,1.75,.92,2.83,.64,.23,1.61,1.96,4.52,1.19,5.26-1.83,.73-.36-2.97-2.01-3.64-1.27,2.35,1.61,3.62,1.4,5.94,.75-.13,.6-1.05,1.41-1.13l.89,2.9c.29,.97,.68,1.9,1.01,2.86-.08,1.13-.44-.03-.92-1.31-.5-1.28-.97-2.74-1.59-2.13-.52,1.88,2.18,4.43,2.87,6.89,.06-3.86,1.89,3.29,2.88,5.43,.06,1.01-.4,.27-.82-.93-.44-1.19-.94-2.78-1.2-3.36-1.35,1.53,1.36,5.08,2.41,6.31-.36,2.03,.97,6.94,3.02,8.26,.52-1.24-1.68-4.4-2.23-6.39,.8-.44,1.1,2.14,1.7,2.96,.48,1.13,.94,2.38,1.45,3.38,.51,1,1.12,1.72,1.76,1.84,.28,1.96,.89,3.51,1.65,5.12,.39,.8,.79,1.63,1.23,2.53,.42,.91,.88,1.89,1.39,2.99,.45,.6,.97,.03,1.4,.81,.96,1.5,.54,2.21-.53,2.54,1.69,1.69,2.38,3.41,3,5.12,.6,1.72,1.28,3.34,2.7,4.89-.03,1.59-.87,.16-1.81,.26,.68,.88,.27,1.2,.7,1.96,.53,.69,1.55,.13,1.09-.64,1.2,.37,1.98,1.3,2.69,2.4,.72,1.08,1.33,2.36,2.32,3.29,.54-.27,1.07-.54,.69-1.23,1.57,.86,1.74,3.2,3.76,4.78-1.56-.71-2.06,1.04-1.34,2.51-1.3,.32-.48-1.43-1.53-2.25-.84,.39-.81,1.19,.09,2.38,1.98,2.27,1.62-1.51,3.21-.51,.51,1.47,.81,2.25,1.27,3.1,.5,.83,1.17,1.71,2.39,3.41l-1.03,.73c2.06,2.71,3.85,2.59,5.93,5.75-1.47-.09-.08,1.46-.12,1.81-.11,.68-1.67,.74-.45,2.08,2.24,1.1-.62-2.67,1.44-2.85,1.94,1.89,0,2.48,2.07,4.43,.73,.64,.61-.42,.22-1.05,1.8,.41,1.58,2.5,2.73,3.91,.53,.63,1.25,1.25,2.05,1.8,.79,.56,1.6,1.11,2.21,1.71,1.23,1.2,1.8,2.87,3.23,3.48-.37,.6-.97,.02-1.4,.35,1.33,1.6,2.79,1.03,3.09,2.71-.56,.81-1.68-1.12-2.32-.64,1.43,2.16,2.06,.75,3.44,2.4,.49-1.05-1.21-2.77-.05-3.68,.18,.52,1.78,1.51,1.87,1.94,.04,.24-1.18-.29-1.1,.1,.42,1.81,1.02,3.39,3.37,6.21,1.6,1.03-.82-2.11,1.19-1.19,1.2,1.48,2.1,2.9,3.31,4.39l-.87,.91c.71,1.38,1.25,.9,2.06,1.81,1.61,1.8,.92,2.78,3.37,2.4-.8-1.24-2.37-4.01,.62-1.69-.11-.74-1.06-1.62-2.17-2.53-1.11-.91-2.4-1.83-3.11-2.75,.41-.61,1.08-.21,1.84,.45,.77,.64,1.61,1.58,2.26,2.12,1.65,1.36,3.41,3.06,4.57,4.01l-1.39,1.57c2.1,1.93,3.34,1.8,3.42,.21,1.06,.84,2.12,1.68,3.17,2.52-.54,.28-1.36-.23-1.87,.12,2.58,1.74,2.85,3.2,5.6,4.97-.32,.19-.8-.1-1.06,.23,.97,.9,1.82,1.71,2.7,2.36,.87,.65,1.7,1.23,2.51,1.8,1.63,1.14,3.2,2.24,5.03,3.85,.66-.44,1.48-.47,2.48-.11,1.01,.34,2.22,1.04,3.59,2.13,.37-.74-.5-1.16-1.54-1.64-.52-.24-1.09-.49-1.56-.81-.46-.33-.82-.73-.95-1.23,.37-.03,.83,.14,1.33,.42,.52,.26,1.09,.63,1.68,1.03,1.18,.81,2.43,1.77,3.46,2.28-.18,.73-.89,.37-1.61-.03,1.79,1.65-.96,1.24-.02,2.48,2.48,2.03-.19-1.41,1.85-.31,2.86,1.24,.27,2.39,3.35,3.64,1.16,.61-.08-1.85,1.71-1.44,.86,1.7,5.45,2.18,3.1,2.74,1.63,.49,3.15,1.12,4.57,1.87,.71,.37,1.38,.78,2.04,1.18,.67,.39,1.32,.79,1.94,1.22,1.85-1.33-2.05-2.16-3.57-3.35,.65-.57,1.32-.26,2.03,.29,.71,.54,1.51,1.26,2.35,1.59,1.5,.58,2.58,.11,4,1.09-.05,1.55-1.48,.79-3.01-.11-.35,.85,1.1,1.57,2.63,2.28-.82,.79-1.49,.89-.37,2.17,.9,.24,.11-1.98,2.18-1.24,1.14-.63-1.92-2.63,.36-2.17,1.54,.76,.59,.65,.22,1.05,3.29,1.24,4.03,1.75,7.35,3.44-.82,1.95-2.86-1.96-3.64-.25,.8,1.64,1.68,1.07,3.37,2.43,1.37,.62,.64-1.24,.54-1.14,1.17-1.07,2.09,1.27,2.56-.7,1.1,.63,2.18,.82,3.14,1.07,.97,.23,1.82,.47,2.45,1.3,.98-.35,2.81,.21,5.02,1.07,1.1,.44,2.3,.93,3.52,1.43,1.23,.47,2.52,.87,3.75,1.21,2.77,.76,3.15,.43,4.97,2.11,.73,.14,.7-.65,1.54-.37,1,.41,1.98,.7,2.93,.96,.94,.26,1.85,.5,2.72,.71,1.75,.42,3.38,.77,4.96,1.12,1.57,.38,3.12,.66,4.68,1.03,1.56,.38,3.15,.86,4.83,1.52,.74,.06,.64-.71,1.5-.52,1.61,.17,1.24,1.13,3.18,1.11,.37,1.66-1.69,1.09-2.44,1.64-1.01-1.02-3.33-2.81-5.73-2.18,.07,1.29,2.37,.7,3.75,1.73,.33,.25,.11,1.22,.37,1.38,1.06,.65,2.57,.78,3.91,1.25,1.12-1.18-2.1-.71-.98-1.89,1.15-.39,5.34-.48,2.44-1.7,.45-.51,6.14,.07,5.21,1.37,3.55-.77,8.41,.84,14.04,1.6,6.14,.62,13.85,.71,18.82,.48,1.84-.24,1.31,.88,2.65,.93,1.47-.37,3.16,.15,3.36,.09,1.09-.19,1.05-1.47,3.38-.88,1.26,1.38-1.15,.83-2.04,1.28-.43,.22-.92,1.15-1.38,1.28-.88,.25-3.75-1.33-3.41,.33,.2,.73,.97-.26,2.03,.07,.29,.08,.42,2.14,2.69,1.26,.3-1-3.11,.26-2.01-1.24,3.2-.54,7.24,.88,10.19,.72-.07-1.51-4.45-.28-5.44-1.19-.91-1.69,1.48-1.35,1.37-2.54,1.67-.21,3.27-.31,4.82-.33,1.54-.04,3.02-.11,4.46-.07,2.88,.04,5.59,.3,8.2,.43,1.92-.86,4-1.48,6.14-1.84,1.07-.18,2.15-.31,3.24-.37,.54-.03,1.09-.04,1.63-.05,.54-.03,1.07-.04,1.61-.03,.3-1.66-.98-1.87-2.89-1.72,.11-.96,2.82-.81,3.14-1.72-.25-1.57-1.85,.27-2.62,.4-2.17,.31-4.57,0-7.28,.36-.7,.18-.38,.88-1.25,.98-1.17,.25-1.98,.23-2.67,.09-.7-.16-1.27-.39-2-.53-1.48,.32,.84,.61-.59,1.3-2.3-.28-4.67,.03-7.03,.31-1.18,.16-2.36,.24-3.51,.22-1.16-.01-2.29-.11-3.39-.36,1.8-1.47-3.69-1.03-3.93-2.47-1.73-.11,.57,2.35-2.01,1.7,.09,.49,1.19,.34,1.97,.4,2.1,.32-1.19,.57-2,.45-1.5-.49-2.3-1.39-4.57-1.42-.73,1.24,1.44,.8,2.61,.94-.13,1.41-1.96,.27-3.33,.3-1.38,.03-3.12,.15-4.98,.22-1.86,.08-3.82-.1-5.64-.38-.22-.92,1.02-.72,2.06-.67-1.03-2.09-3.71-.2-4.7,.45-5.32-.51-5.55-2.58-10.28-2.84-.76,1.51,3.02,.94,4.46,1.44-2.63,.69-5.54,.28-8.29-.3-1.38-.26-2.71-.7-3.96-1.02-1.25-.33-2.43-.58-3.49-.63-.49-.03-1.38,.6-1.48,.59-.99-.14,.27-.8,.17-.82-1.28-.24-2.91,.33-4.08,.11-2.51-.57-2.81-2.09-4.87-2.42-.77-.11-.73,.62-.94,1.07-1.48-.47-2.95-.79-4.39-1.06-1.43-.26-2.8-.59-4.12-.86-2.62-.58-4.97-1.22-6.74-2.55-.78-.22-.44,.41-.13,.4-2.36,.07-8.16-2.08-9.28-3.52-.72-.05-1.48-.11-2.2-.16-.72-.05-1.39-.1-1.98,0-2.45-1.05-5.3-2.46-8.15-3.98-2.83-1.59-5.61-3.44-8.08-5.07,.01-2.12-1.43-3.42-.53-4.84-2.6-1.01-4.41-1.96-6.18-2.92l-2.71-1.51c-.48-.26-.98-.53-1.5-.82-.52-.3-1.06-.63-1.64-.97-.67-.03-1.23,.18-1.75,.45-1.37-.63-2.13-1.3-2.6-1.97-1.4-.66,.04,1.33,.48,1.73,2.34,1.91,3.99,.31,5.3,2.52-1.55,.17-3.47-.53-5.73-1.8,.06,.46,.11,.93,.71,1.38-.72,.46-.94-.39-1.14-.65-.32-.41-1.25-1.26-.27-2.09-.7-.48-1.56-.8-2.26-1.29-.33-.24-.64-.65-.86-1.02-.23-.36-.38-.67-.38-.67-1.02-.59-1.77,.48-3.2-1.03,.69-1.41-2.49-2.81-1.88-4.2-1.94-.63-.09,1.84-1.71,1.4-1.82-.93-2.35-2.13-.93-2.09-2.11,.26-3.34-3.55-4.47-1.51-.44,1.51,3.21,.74,2.67,1.85-.11,.76-.82,.55-1.58,.02-.76-.53-1.61-1.32-2.11-1.57-.51-.25-1.83-.32-2.09-.46-1.51-.85-3.37-2.04-4.92-3.26-1.53-1.24-2.69-2.62-2.96-3.62-1.76-.6-3.44-3.1-5.61-4.45-1.33-.82-2.83-1.31-3.79-1.61,.71,1.39,1.73,2.19,2.88,2.79,1.14,.62,2.3,1.16,3.17,2.21-.93,.2-1.89-.17-2.82-.75-.93-.57-1.83-1.34-2.58-2.01-1.59-1.35-3-3.77-5.65-5.52,.49-1.37,1.87,.48,2.62,.06-1.76-1.04-3.31-1.13-5.07-2.25-.14-1.89-1.8-2.21-3.64-4.72-.94,.64,2.91,2.28,.99,2.72-1.52-1.3-3.33-3.89-4.38-3.08-.36-.79-.9-1.62-1.31-2.42-.41-.8-.62-1.62-.41-2.29-.92-.45-1.97-1.63-2.57-.3-1.54-.94-.97-2.94-2.11-1.65-1.65-1.78-.62-2.83-1.11-4.28-1.5-1.05,.6,1.79-1.14,1.86-.51-1.08-1.18-1.95-1.81-2.81-.64-.85-1.34-1.6-2.05-2.33-1.42-1.46-2.88-2.83-3.96-4.63-.65-.34-1.2,.08-1.93-1,1.28,.12,1.18-.29,.86-.86-.29-.6-.79-1.38-.39-1.98-1.09-.14-4.27-3.47-4.06-1.89-1.52,.31-.41-1.32-.85-1.82-1.45-1.24-.33,1.42-1.77,.45-1.88-2.61-3.57-5.12-5.29-7.42-.86-1.15-1.71-2.26-2.52-3.34l-1.22-1.6c-.37-.55-.73-1.09-1.09-1.62-.59-.9-.21-1.22-.68-1.92-.96-1.43-2.49-2.14-3.49-4.11-.3-.6-.97-1.73-.65-2.68-1.32-1.98-2.78-4.63-4.16-6.8-2.03-3.05-3.41-5.99-4.26-8.65-.42-1.33-.68-2.61-.76-3.83-.08-1.22,.05-2.39,.45-3.54,1.64-.45,2.82-1.22,2.34-3.1,.74-.14,1.31,.65,1.77,2.05,.24-1.61,3.52,.1,2.35-3.08,1.12,1.91,2.74,1.03,3.96,1.72,.53,.31,.83,2.39,1.58,1.34,.44,1.54,.99,3.09,1.6,4.65,.61,1.56,1.25,3.14,2.06,4.64,1.55,3.03,3.07,6.08,4.42,9.02,.46,.93,.35,2.06,.91,3.1,.77,1.43,2.17,2.48,2.97,4.09,.5,.97,.31,1.4,.97,2.36,1.27,1.81,3.1,2.11,2.84,4.16,.47,.51,.93-.11,1.4,.58,.82,1.5,2.07,2.7,2.84,4.14,.18,.32,.29,.81,.36,1.23l.07,.53c.02,.14,.02,.22,.03,.23,.4,.56,1.27,.52,1.82,1.02,1.12,1.02,1.47,2.79,2.31,3.76,.78,.89,1.4,.76,2.18,1.5,1.55,1.34,2.66,3.03,3.71,5.08,.57,.92,1.01,.7,1.45,.43,1.77,3.41,5.8,6.71,9.66,10.72,.37,1.33-2.04,.4-.67,2.36,1.75,.99,.5-1.74,1.98-1.01,3.43,3.5,4.49,4.79,8.12,7.87-.57,.2-1.19,.08-1.95-.69,.11,.66,.35,1.08,.66,1.34,.32,.24,.7,.32,1.07,.31,.73-.02,1.41-.37,1.45-.44,2.45,1.66-1.4,.23,.08,1.75,.88,1.03,1.31,.35,1.8-.09l3.29,2.9c.23,1.31-.4,.36-1.11,1.26l1.42,1.25c1.17,.67-.6-2.85,2.05-.46,2.09,1.49-.46,.38-.6,1.67,1.38,1.04,.55,1.33,1.98,1.57,1.13,.83,1.35-1.2,2.11-1.55l3.42,2.72c-.61-.01-1.12,.32-1.54,.92,.99,.03,2.61,2.05,3,.25,3.01,1.79,4.03,3.37,4.06,5.01,.89,.81,3.58-.02,2.56,1.83,1.62,.7-.19-2.23,2.26,.07-.01-.47-.01-.94-.53-1.41,.18,.04,1.49,.65,2.54,1.24,1.05,.61,1.76,1.35,.6,1.9,1.59,1.05,2.11-.45,3.85,.98-.23,.35-.46,.7-.69,1.05,.72-.39,1.97,.44,2.79,.29,1.52,1,1.42,2.09,1.74,3.08,1.09-1.56,4.58,1.42,5.54,1.72,.13,.04-.78-1.26-1.41-1.29,1.81,.29,3.41,1.33,5.05,2.52,1.64,1.18,3.41,2.36,5.33,3.14,.28,1.79,.39,3.06,2.18,5.36,1.6,1.17,1.6-.47,3.23,.61-1.01-2.15,2.61-.86,.53-2.52,1.09-.48,3.97,1.98,3.75-.62,1.76,.48,3.6,1.16,5.46,1.95,1.87,.76,3.82,1.5,5.73,2.32,1.92,.79,3.78,1.67,5.62,2.32,1.84,.64,3.61,1.2,5.22,1.59-.86,1.35-3.78-.49-6.16-1.18-2.15-.74-4.35-1.83-5.94-1.87,.89,.98,2.68,1.77,2.86,2.92,2.25,1.17,2.05-1.04,4.11-.26l-.29,.79c2.88,.77,4.25,1.95,5.51,3.18,.68,.12,.67-.65,1.46-.39l2.08,.69,2.11,.59c1.29,.95,.12,.91,.83,1.55,2.37,.74,0-.67,1.58-.87,1.59,.44,3.66,1.45,3.36-.36,.85,.46,1.84,.89,2.9,1.21,1.07,.3,2.2,.55,3.3,.77,2.22,.46,4.36,.84,5.8,1.37-2.26,.46-6.72-1.39-9.84-1.86-.87,.41-2.01,.49-2.37,1.51,1.55,.57,2.65,.59,2.76-.54,2.11,1.36,4.14,.6,7.34,1.69-.86,.37-.39,.59-.29,1.23,2.68,.44,5.34,.7,8.17,1.09,1.42,.2,2.88,.41,4.43,.63,1.54,.27,3.19,.35,4.93,.57,1.45,.76-1.33,1.11,.37,1.74,2.7,.35-.58-2.28,3.37-1.25,1.17,1.17-1.18,2.07-2.87,2.16,.22,1.59,4.08,1.19,3.32-.83,1.19,.34,2.31,.02,1.31-.25,1.53,.21,3.17,.25,4.86,.4,1.69,.15,3.45,.3,5.26,.45,1.8,.21,3.65,.26,5.52,.35,1.87,.09,3.76,.17,5.65,.26,1.89,.13,3.78,.04,5.64,.04,1.86-.04,3.7-.07,5.48-.11,1.79,0,3.52-.25,5.18-.39,1.66-.17,3.24-.36,4.73-.58,.71-.12,.33-.44-.02-.42,.71-.2,1.73-.25,2.91-.41,1.18-.16,2.55-.34,3.96-.64,.51,1.3-2.21,.82-.48,1.74,1.8,.75,2.66-.02,3.2,.08,1.7,.3-2.27,.29-3.1,1.18,2.47,.23,4.54,.8,7.18,.92,.43-2.03,2.61-3.25,4.56-4.54,1.55,0,3.27-.15,3.38,1.17,.67-.46,1.41-.76,2.24-.96,.83-.22,1.73-.4,2.75-.54,2.03-.3,4.48-.55,7.44-1.36,.56,.27,.87,.79,.98,1.51,1.37-.12,1.06-.88,.97-1.54,2.92-.34,6.13-1.56,9.89-2.55,5.39-1.72,11.05-2.27,15.58-3.77,2.22-.67,4.03-2.36,5.58-1.58,.74-.45,.68-1.08,1.49-1.53,1.52-.59,2.35-.15,3.42-.07,3.97-3.33,10.79-4.68,17.92-8.84,1.83,.13-.49,1.16,.37,2.19,2.7-1.57,.97-3.5,4.73-4.96-.15,.93-1.09,1.8,.04,2.84,2.22-.87,1.38-2.73,3.81-2.54,.05,.94-2.54,1.69-2.27,2.66,1.82,.11,2.29-2.84,5.25-3.99,.72,.86-.09,1.67-1.61,2.46,1.76,.6,1.61-1.83,3.15-2.41,.58,.66,2.52-1.4,3.23-.99,1.14-1.55,2.11-4.42,3.87-4.93-.25,.84,.3,1.67,.04,2.52-.94,.72-1.45,.3-2.45,1.04,.37,.94,1.31,.7,2.31,.09,.97-.66,1.98-1.69,2.53-2.25,.81,.94-.54,1.93,.26,2.87,.6-.98,.7-1.94,1.29-2.91,1.79-1.46,2.49-.42,3.66-.46-1.26,.95-3.21,2.8-5.28,4.39-2.08,1.57-4.38,2.7-6.08,2.51-1.16,.98,1.02,.14,.07,1.43-1.26,.67-2.67,1.65-4.02,2.49-1.33,.87-2.69,1.44-3.66,1.53-.57,.32-.21,.7-.19,1.06-1.7,.99-3.29,1.48-4.66,2.08-1.38,.59-2.5,1.36-3.41,2.71-2.2-.34-7.99,3.44-10.1,5.27-1.31-.61-3.89,.6-6.02,1.17,.5,1.54,3.02,.21,4.49,.39-.15,1.89-1.33,.43-3.1,1.3-1.37,.5,.27,1.5,.15,2.21,4-1.31,4.74-3.1,6.03-4.85,3.89-1.67,6.87-3.16,9.61-4.5,2.7-1.42,5.1-2.76,7.98-3.94-1.21,1.24-.09,2.63-1.81,3.85,.68,.7,3.18-1.71,3.99-1.21-.19-.85-.74-1.09-1.79-.46-.49-1.25,2.66-2.19,4.35-3.37,.37,.55,.5,1.57,1.4,1.11,2.32-.94-.74-1.94,2.28-2.87-.31,1.82-.52,1.52,1.64,1.46,.86-.84-.12-1.06-1-.37-.17-.6,1.66-1.19,1.32-1.79,1.75-.25,3.33-.71,3.04,1.1,1.25-.66,1.66-1.31,2.16-1.97,.48-.68,1.04-1.37,2.59-2.1,2.17-1.62,2.71,.33,4.9-1.3,1.28-1.58,2.75-3.16,.86-3.64,1.61-1.02,2.58-2.09,3.12-2.91,.52-.84,.54-1.53,.06-2.04,1.32-1.44,1.75-.58,2.95-1.71,.79,.53-.3,1.23-1.13,1.91,.76,.97,2.16,.32,3.42,.04,1.73-2.21,1.26-1.81,3.82-2.93,.74,.26,.37,.7-.02,1.1-.4,.4-.79,.8-.04,1.08,.3,.39,.65,.08,.83-.37,.16-.45,.15-1.04-.26-1.15,1.73-1.48,2.19-2.76,4.49-4.32-.44-.9-1.1-1.18-1.85-1.19-.31,1.01-2.02,2.23-3.4,3.4-.48-.97-1.38-.64-2.32-.33-.95,.3-1.9,.62-2.4-.24,1.63-1.06,3.36-2.57,5.25-4.16,1.87-1.61,3.88-3.34,5.86-5.05,1.9-1.81,3.8-3.58,5.58-5.16,1.77-1.6,3.5-2.93,4.85-4.05,1.27,1.44-.78,1.47-1.64,2.2-2.11,1.92-4.73,4.41-7.37,6.91-.65,.64-1.34,1.23-2.03,1.81-.69,.58-1.37,1.15-2.03,1.71-1.33,1.11-2.6,2.16-3.75,3.07,1.93-.56,4.48-2.96,6.01-2.3,1.99-1.27-.41-1.85,1.79-3.17,.95-1.2,1.23-.05,2.04-.75,1.63-.58,.81-1.85,.95-2.02,.2-.25,.91-.31,1.27-.61,.69-.56,.56-1.1,.72-1.24,2.25-2.03,4.67-2.99,6.35-6.15,.7-.94,1.13-.68,1.54-.38,1.23-1.66-1.08-.17-1.18-1.2,1.13-1.27,1.81-.51,2.78-1.06,1.08-1.01-.84-1.27-1.02-1.97,.87-1.01,1.72-2.01,2.55-2.99,.78-1.03,1.55-2.04,2.3-3.03,1.5-1.98,2.97-3.85,4.48-5.57,.49-.56,1.28-.23,1.53-.46,.53-.52,1.54-2.53,2.2-3.45,.79-1.11,2.41-2.44,2.19-3.44,.62-.2,1.34-1.29,1.91-1.06,.6-1.67,2.22-3.91,4.02-6.29,.9-1.19,1.84-2.43,2.68-3.67,.42-.62,.82-1.24,1.18-1.85,.34-.63,.62-1.26,.86-1.87,1.43,.27-.22,1.98,.28,2.67-1.91,1.97-2.7,3.07-3.94,5.53-.62,1.17,.99,1.42-.58,2.98,2.38-.88,1.67-3.8,2.89-5.49,1.19,0,2.64-3.71,3.72-2.37,.12-1.36-1.86-.46-1.34-2.59,.75-1.81,1.44-1.15,2.18-2.62-.68-1.27-1.43,.86-2.16,1.81-.33-1.4,1.52-4.5,2.59-6.38,.46-.83,.97-1.65,1.44-2.43,.45-.8,.91-1.54,1.35-2.17,.24-.35,.67-.67,1.04-.92,.37-.24,.68-.41,.68-.41,.39-.71-.2-1.2-.05-1.6,.52-1.43,2.15-1.83,1.65-3.72,.44-1.07,.91-.94,1.4-.75,1.02-1.69,.12-2.3,1.11-4.01,.58,.5,.31,1.5-.48,2.81,.93,0,1.77-1.37,2.7-1.61,.59-1.47,1.2-2.96-.25-3.21,.49-.26,2.8-3.09,1.16-3.2-1.22,.1-.66,2.57-2.14,4.21-.29-.81,.44-2.22,.78-3.39-1.33-.21-2.36,2.84-3.68,2.6-.83,2.92-1.46,3.22-3.18,4.31-.65-.7,2.74-1.75,1.17-3.14-.54-.11-.97,.96-.6,1.18-1.84,1.41-1-4.02-3.13,.51-1.51-1.19,3.21-4.22,1.6-5.83-.73,.98-1.48,1.68-2.21,2.5-.37,.41-.73,.85-1.09,1.38-.37,.52-.76,1.1-1.13,1.83-.64,1.83,1.33-.21,1.82,1.05-1.12,1.26-2.33,.58-3.48,.99-.64,1.37-.62,2.74-1.93,3.37-.33-1.59,.41-3.09,1.41-4.72,.5-.81,1.07-1.66,1.6-2.55,.54-.89,.94-1.89,1.24-2.93,.45,.56-.6,1.98,.89,1.96,1.46-2.06-1.13-1.82,.65-4.05-.38-.32-.72-.22-1.04,.18,.22-2.3,.94-4.86-.66-6.1,.61-1.95,1.45-1.46,2.12-2.48,1.45-2.44,1.05-3.72,2.22-5.97,.88,.27,1,1.03,.36,2.27,1.32-.44,1.97-2.02,2.62-3.36,.66-1.34,1.17-2.51,2.48-2.08,.49-2.73-2.26-.83-3.17,.03-.88-.26,.64-2.18,.77-3.13,.51,2.28,2.04-.2,3.18-.07,.24-1.62,.03-2.91-.02-4.31-.03-.7,0-1.42,.11-2.23,.09-.82,.3-1.73,.69-2.78,.27-1.72,1.2-.87,1.8-1.39,.09-.52-.2-.75,0-1.36-.05-1.4-1.62,1.39-1.38-1.16,.25-1.35,.95-.95,1.6-.8,.05-1,0-1.93,.07-2.95,.03-1.03,.15-2.15,.59-3.53,.6-1.55,1.77-1.32,2.02-4.05-.5-.04-.66,1.02-.93,1.73-.36-1.09,.34-3.21,1.02-5.58,.63-2.39,1.34-5.01,1.27-6.97,.68-1.18,2.23-.03,2.63-2.01,.04-.97-.58,.12-1.23-.28,.75-3.59,1.41-7.23,1.43-10.11,1.18,.13,2.17-.43,2.14-2.87-.48,.34-.62,1.39-1.41,1.06-.34-1.32,.9-.86,.99-1.13,.44-1.32-.8-3.08,.58-4.44,.59,1.16,.53,2.24,.34,3.45-.21,1.21-.48,2.57-.58,4.3-.14,1.51,1.22,1.44,.66,3.4-1.21-2.25-1.19,4.55-2.26,5.45,.3,.74,.54,1.45,.82,2.16-.7,1.52-2.06,1.21-3.03,1.93,.74,2.16-1.47,1.93-1.55,4.87,2.21,1.51,2.55-3.4,4.09-.92-1.08,1.47-2.2,2.8-3.97,2.27-1.02,2.57,.32,3.13,1.31,1.68,.58,.59-.15,1.5-.75,1.13-.39,2.28-1.31,2.85-2.03,4.07-.5,1.14,1.57,1.46,1.38-.25,1.01,1.2-1.52,2.51-.64,3.83,.6,.38,.85-.37,1.38-.24-.24-1.2,1.27-3.92-.16-4.1,.3-2.58,1.74-1.52,2.04-4.12,1-.09,.24,1.35,.86,1.59,.96,.04-.09-1.23-.05-1.37,.25-.79,1.14-.78,1.28-1.67,.15-1.06-.5-1.91-.08-3.38,.07-.89-.9-.78-1.49-1.04,.43-2.58,1.79-2.62,2.66-4.02,.66-1.94-.65-2.02-1.11-2.9,.83-1.33,2.06-1.68,3.04-2.67-.72-.79-.9-2.15-.88-3.72,.02-1.57,.28-3.34,.24-4.98,1.42,.86,.91-2.43,1.33-3.72,.03-2.03-2.06-1.59-1.07-4.72,.33,.52,.48,1.24,.58,2.03,.98-.03,.63-2.79,.41-3.21-.41,.47-.97,.65-1.4,1.13-1.49,1.6-.84,2.96-1.92,1.68l-.75,5.69c-1.29-1.33,.36-3.97,.5-7.01,.08-1.13,.12-2.68,.25-4.45,.13-1.76,.34-3.74,.67-5.7,1.24,.57,1.58-.52,2.56-.43,.45-1.66,.41-2.89,.41-4.04,0-1.16,0-2.25,.36-3.67,.93,.33,1.45,1.23,1.59,2.69,1.37-1.79-1.38-2.95-1.52-4.62-.16-2.29,1.58-1.53,1.36-3.84-.08-1.23-1.74,.12-1.29,1.91-2.02-1.36,.65-2.26,.85-3.86-.54-2.62-1.45-.82-2.55-1.96,.16-2.54,1.82,.79,2.08-1.92-1.03-.36-.42-3.29-2.13-2.57,.79-1.98-.74-5.49,.7-3.87-.37-1.73,.22-5.13-.77-5.77,.24-1.16,.76-.13,1.26-.07,.25-2.11-1.42-.83-1.79-1.83,1.53-1.16-.85-1.69-.49-5.11,.91,.3,1.5,1.23,2.3,1.75,.13,1.52,.19,2.94,.27,4.26,.08,1.32,.19,2.55,.32,3.72,.13,1.17,.27,2.27,.43,3.34,.08,.53,.17,1.06,.25,1.58,.06,.52,.12,1.03,.18,1.55,.25,2.05,.52,4.05,.76,6.22,.12,1.09,.23,2.21,.32,3.41,.03,1.2,.04,2.46,.02,3.81,.12,.92,.74,.09,.86-.62,.22,2.31,.78,4.78,.61,6.59-.06,.54-.84,1.09-.93,1.9-.05,.45,.23,1.59,.31,1.34-.29,1.01-1.12-.96-1.05,2.53-2.53-1.34-.19-4.55-.82-6.6-.41,.68-.76,1.43-1.09,2.26-.36,.83-.68,1.72-.96,2.68-.57,1.91-.99,4.08-1.32,6.42-.31-.38-.62-.74-1.2-.78,.19,2.61,1.9,1.7,3.29,1.03,.67-2.79-1.24-2.28-.88-4.64,1.88,.52,3.61,3.24,4.29-.9-.08,1.33-.07,2.79-.03,4.34,.03,1.55,.13,3.2,.02,4.86-.16,3.32-.51,6.76-1.71,9.76,.86,2.19-.45,6.74-1.05,10.52-.08,1.28,1.48,.86,.66,2.86-1.42,1.29-2.24,1.08-3.31,1.24-.33,3.14-.45,2.44-1.06,6.48,.79,.5,1.17-.15,1.77-.2-.62-1.24,.11-3.76-.6-4.9,3.5-3.27,2.95,3.48,1.51,6.52,.03-.04-.63-.95-.66-.86-.06,.32-1.02,3.79-.07,3.41-.6,1.82-1.35,4.73-2.09,7.91-.84,3.15-1.76,6.56-2.41,9.46-.41,2.01-1.28,3.95-2.1,5.82-.82,1.87-1.63,3.67-2.14,5.36-.45,1.65-.49,3.97-1.22,6.01-.9,2.49-2.1,4.75-1.6,6.65,1.45,.28,2.43-3.13,3.92-2.59,.48-3.09,2.81-7.49,4.68-7.58-1.16-1.25-1.01-3.46-.35-6.03-.9-.96-1.36,.47-2.19-.16,1.02-3.98,2.95-1.15,3.61,0,.24-.25,.54-1.05,.93-2,.4-.95,.85-2.06,1.37-2.93,.37-1.25-1.8,.45-1.76-1.38-.41,0-.33,.88-.37,1.88-.07,1-.31,2.1-1.24,2.55-.28-.83-.11-2-.83-2.49,1.08-2.21,1.83-4.76,2.69-7.61,.41-1.43,.9-2.92,1.33-4.53,.42-1.61,.89-3.3,1.46-5.08,1.38-1.82-1.26,3.97,.3,3.6,1.04,.25,1.41-1.93,1.9-3.65,.6-1.68-1.42-.97-.48-2.95,.76,1.9,1.79-.42,1.76-1.61-.08-1.62-1.83-.49-.09-1.42,1.38-.74,2.3-2.59,1.87-4.4-.96,.46-1.31,2.75-2.64,2.11,.28-2.1,1.49-1.45,1.98-2.97,.05-.55-.26-.75-.1-1.41-.99-.72-1.1,1.16-1.68,1.66-1.05,.4,.04-1.99,.04-2.06,.05-1.56-.37-1.69-.21-2.8,.36-2.94,1.45-6.84,1.94-10.49,.83,1.85-.12,2.59-.54,5.34,1.06,.15,1.21-2.04,1.54-3.79,1.22,.18,1.81-1.23,2.54-2.27-.34-2.28-1.38,1.53-2.6,.22,.29-3.89,2.86-2.25,3.98-4.11,.3-2.51,.98-4.2,1.63-5.95,.1-1.26-1.36-.6-1.49-1.56,.01-3.49,2.12-2.59,1.84-6.62,1.87,.58,1.98-2.39,3.93-1.69-1.32,2.25,.06,4.89,.74,6.35,.58-.15,.49-1.69,.65-2.72,.33,.58,.88,.85,1.61,.87-.05,1.53-.52,2.18-1.42,1.95-.31,.97,1.49,1.9,.23,2.13-.89,.9-.98,.52-.71-1.49-.85,1.2-2.26,.44-2.45-.99-.65,.41-.51,1.02-.27,1.74,.23,.72,.52,1.56,.25,2.42-1.01,.09-1.7,.86-3,.29-.28,2.04,2.01,.95,1.72,3.01,1.07,.37,.67-2.6,1.93-1.81-.36,.96,.02,3.62-.86,3.37,.43,1.19,1.24,1.92,.7,4.32-.61-.7-1.22-1.02-1.68-.71-.23,.16-.42,.47-.55,.97-.15,.5-.26,1.19-.3,2.1-1.28,1.62-.78-1.99-2.07-.38,.32,.9,.96,1.44,.22,3.52-.66-.38-.87,.37-1.07,1.18-.86-.62-2.25-1.82-3.29-.67,.16,1.24,1.52,1.19,.64,3.57-1.78,.51-.45-2.36-2.23-1.85-.99,2.48,.82,1.95,1.17,3-.43,1.23-1.88-.36-1.82,2.34,.35,.48,1.49,.55,1.59,2.46,1.09-.33-.75-1.89,.5-4.05,.43,.63,.71,.31,.95-.23,.21-.54,.38-1.29,.66-1.5,.31-.22,.9,.36,1.23,.27,.5-.13,.7-1.61,1.48-1.08,.19,.85,.24,1.93-.22,3.46-.47-.36-.41-1.33-.96-1.62-.36,1.66-.4,2.81,.09,3.53,1.02,.08,1.62-.69,1.98-1.82,.35-1.13,.4-2.63,.46-3.97,1.36-.43,.45,1.67,.33,2.89,1.28-1.03,2.29-1.56,2.87,.64,.48-.07,.53-1.31,1.07-1.2,.2-1.75-1.13-2.62,.34-4.23,1.71,.87,0,6.49-.84,10.61-.41,2.34-.21,4.29-1.01,6.28-.32,0-.18-2.27,.22-2.85-1.36,1.94-.18,2.44-.54,4.23-.25,1.04-1.36,1.73-1.37,1.81-.24,1.21,.45,2.39,.26,3.74-.17,1.14-.84,1.4-1.17,2.6-.31,1.13-.42,2.5-.63,3.75-.27,1.24-.65,2.36-1.43,2.99-.92-.6-1.36-1.63-1.32-2.9,.06-1.27,.45-2.83,1.37-4.47-.7-.1-1.2,.57-1.61,1.55-.21,.49-.39,1.06-.57,1.65-.19,.59-.41,1.18-.61,1.75-.3,2.04,.35,.95,1.37,1.2-.58,1.28-.61,2.1,.13,2.27-.31,1.22-1.51,3.19-.1,2.95,.78,.2,.22-2.71,1.51-3.2,0,1.75-.59,3.49-1.28,5.27-.35,.89-.7,1.8-1.06,2.72-.38,.91-.73,1.85-.99,2.82-.23,.87,.08,1.93-.25,2.96-.47,1.49-1.08,3.25-1.7,5.02-.6,1.78-1.39,3.49-1.97,4.99-1.01,2.48-2.07,5.1-3.11,7.49-1.15,2.34-2.28,4.45-3.27,5.97-.06,.1-.64-.46-.74-.4-.67,.43-.19,2.09-.91,2.72-.88-1.32-.88-.9-.94,.19-.03,.55-.08,1.26-.26,2.01-.18,.75-.55,1.5-1.14,2.16-.35,.76,.36,.9,.74,1.25-1.53,2.48-3.06,6.17-4.6,6.35-1.28,1.83,.3,2.09-1.51,4.09-1.52-.33-1.45-1.41,.09-3.31-1.04-.73-2.18,1.14-3.32,2.9,.8,1.13,1.67,.23,2.49,.78-8.19,14.85-18.53,28.57-30.14,40.84-11.61,12.29-24.45,23.15-37.81,32.67-2.28,1.58-4.34,3.02-6.4,4.45-1.03,.72-2.07,1.43-3.14,2.15-1.11,.66-2.25,1.33-3.46,2.01-1,.56-.82,1.04-1.6,1.47-1.07,.58-2.62,1.43-4.37,2.38-.87,.5-1.81,.98-2.77,1.45-.96,.49-1.93,.99-2.87,1.49-2.08,1.12-3.73,2.74-6.04,3.76-3.17,1.23-12.28,5.58-17.37,8.04-1.46,.76-3.04,1.85-4.86,2.8-1.83,.9-3.94,1.56-6.35,1.61-3.25,1.75-5.7,3.12-8.7,3.03,.57,.27,1.69-.07,1.73,.78-2.62,.49-4.81,1.23-7.13,2.07-1.16,.41-2.34,.87-3.63,1.27-1.3,.38-2.7,.75-4.26,1.09,.11-.6,1.06-.96,1.07-1.58-2.91,.28-1.41,1.86-3.04,2.52-1.64,.31-.81-1.7-.48-2.05-1.88,.71-2.68,1.74-4.53,2.47-2.33-.16-3.59,.72-6.25,1.32-1.25,.28-2.45,.02-3.55,.31-.86,.2-1.93,.82-3.3,1.29-1.37,.48-3.01,.93-4.96,1-1.02,.03-1.93-.52-2.21-.5-1.22,.09-1.65,1.73-3.49,.55-2.34,.59-7.91,2.38-11.13,2.94-1.31,.25-2.55-.19-2.86-.17-1.28,.05-1.47,.56-2.82,.59-1.46,.04-1.5-.66-2.17-.71-.36-.03-1.28,.52-2.11,.55-3.07,.17-7.85-.46-10.65-.1-1.24,.16-2.06,.76-3.56,.89-.51-.39-1.28-.6-2.11-.83-1.47,.77-4.32,.31-6.4,.2-1.51-.08-3.4,.65-5.03,.66-1.28-.02-1.46-.58-2.8-.64-2.39-.11-5.18-.17-8.03-.25-1.43,0-2.86-.12-4.27-.24-1.41-.12-2.78-.24-4.09-.35-1.15-.11-1.15-.61-2.05-.69-1.21-.12-2.38-.18-3.52-.23-1.13-.09-2.21-.17-3.24-.25-2.05-.15-3.88-.31-5.35-.67-1.48-.36-.92-.73-1.92-1.2-.48-.05-.95-.1-1.41-.14-.46-.06-.92-.12-1.37-.18-.91-.11-1.81-.22-2.72-.33-1.83-.23-3.71-.52-5.81-1.01-.34-.52-1.48-.79-1.06-1.54-.83-.12-.79,.61-1.03,1.06-4.39-1.45-8.22-.31-10.99-3.08-2.53-.4-2.48-.74-5.56-1.36-.6-.73-1.67-1.36-.65-2.43-3.01-.98-1.18,.62-2.59,.9-3.23-.69-2.91-2.02-5.73-2.92-1.25-.42-.93,1.16-1.95,1.05-3.04-2.01-8.12-2.67-12.56-5.16-1.34-.71-2.66-2.06-4.2-2.8-2-.89-4.89-1.97-7.52-3.11-2.63-1.15-4.96-2.42-5.65-3.91-.73-.05-1.31,.13-1.86,.39-1.79-1.64-3.55-2.33-5.38-3.07-.92-.37-1.85-.75-2.81-1.26-.96-.5-1.95-1.15-2.92-2.12-1.94,.92-2.8-.81-5.51-2.03-.47,.24,.3,1.66,.51,1.82,.6,.48,1.52,.04,2.28,.46,.96,.53,.86,1.18,1.59,1.51,.96,.44,2.05,.37,2.9,.79,1.4,.72,2.07,1.61,3.52,2.5,1.46,.9,3.75,1.61,6.24,3.56,.73,.52,1.37,1.63,1.51,1.71,.68,.4,3.06,.98,4.7,1.91,2.08,1.18,2.49,1.18,5.15,2.59,2.28,1.1,5.51,2.64,9.21,4.12-.09,.7-.92,.38-1.18,.85,1.01,.44,2.12,.88,2.86,1.33,.75,.43,1.12,.92,.63,1.54,.82,.25,.88-.48,1.18-.9,.48-.79-2.32-1.08-3.17-1.77,1.28-.23,3.05,.16,4.89,.88,1.84,.72,3.75,1.76,5.34,2.74,1.48,1.17,2.71-.73,2.84,.65,1.09,1.33-.58,.66-1.81,.65-.78,0-.12,.93-1.66,.26-.54-.24-.5-.69-1.2-.92,.29-.41,1.36,.15,2.18,.4-1.75-1.89-4.56-1.45-6.58-3.02-1.92,1.73,5.24,2.13,3.08,3.91,2,.44,3.47,.31,4.96,.4,1.5,.09,3.05,.28,5.22,1.51,1.52-1.4-3.09-1.58-2.01-2.89,3.21,.94,5.9,1.98,7.24,3.3-1.35,.17-5.29-1.11-3.44,1.07,1.39,.28,1.09-1.35,3.17-.27-.68,1.04,.34,1.79,1.7,2.18,1.36,.37,3.08,.31,3.72-.08-.42-.91-1.91-1.44-3.91-2.04,1.15-1.3,3.6,.7,5.68,1.23-2.09,1.12,.79,1.95,2.06,3.2,1.24-1.34-2.04-2.13,.03-2.61,1.81,.78,1.24,2.17,3.72,2.79,2.06,.35-.96-.91-1.17-1.2,.88,.13,1.81,.29,2.77,.47,.97,.16,1.98,.32,3.02,.49,2.08,.36,4.29,.8,6.56,1.28,1.14,.22,2.28,.52,3.45,.71,1.17,.2,2.35,.41,3.53,.61,2.36,.41,4.73,.82,7.04,1.22,.83,.19,3.76,1.63,5.08,.29,1.95,.59,4.9,1.12,7.76,1.54,2.87,.33,5.66,.46,7.27,.52-1.24,1.31-4.99,.42-8.04,.12-4.38-.47-8.41-1.25-11.58-1.1-.02,1.53,1.81,1.29,.29,2.6,2.71-.02,3.75,1.24,5.09,.67-.9-.33-1.43-.64-3.49-1.3,2-1.9,4.33,.85,7.25,.95,.43-.96-3.33-.2-1.99-1.53,2.08,.27,4.26,.63,6.53,.85,2.28,.2,4.64,.41,7.06,.63,1.21,.1,2.43,.21,3.67,.32,1.24,.11,2.49,.12,3.75,.18,2.52,.09,5.07,.19,7.63,.28l1.92,.06,1.92-.02c1.28-.02,2.56-.03,3.84-.05,2.55-.06,5.1-.04,7.59-.17,2.49-.17,4.95-.33,7.33-.49,1.19-.09,2.37-.17,3.53-.25,1.16-.08,2.29-.26,3.4-.38,1.2-.15,2.47,.19,3.66,.03,1.63-.23,2.8-.81,4.31-.9,.61-.04,1.27,.04,1.94,.12,.67,.07,1.34,.16,2,.2,1.31,.09,2.52-.03,3.34-.96,.4,.91,2.97,.1,3.79,.67,.9-.25,.61-.94-.12-.83,3.11-.98,6.28-1.95,9.49-2.7,3.21-.75,6.47-1.31,9.59-2.09,3.14-.72,6.21-1.39,9.08-2.2,2.83-.91,5.47-1.9,7.78-3.09,1.07-.14,.03,.38,.24,.81,1.14-.62,2.33-1.23,3.64-1.81,1.3-.64,2.74-1.25,4.41-1.82,.28,1.05-2.49,1.55-2.23,2.6,2.2-.76,4.7-3.38,6.77-2.92,.59,1.74-3.07,.62-3.05,2.46-2.12,.99-2.68,.18-4.98,1.37-.53,.29-.57,.63-1.28,.86,.08,.97,.64,1.47,1.91,1.15-2.1,1.21-1.98,3.08-1.98,3.71,.82,.59,1.88,.25,2.94-.2,1.05-.49,2.12-1.09,3.01-.94,.8,1.12-2.16,1.17-2.71,1.43-.72,.33-.15,.88-.47,1.04-2.02,.93-4.77,1.61-7.83,2.88-1.44-.35-1.93-2.66-.19-3.46,.27-1.06-3.08-.85-3.08,.08-2.4,.03,1.12-1.74,.87-2.47-1.56,.4-2.16,1.03-1.8,1.88-2.18,.9-1.94-.79-4.5,.37,.41-.98,1.59-1.16,2.76-1.34,1.16-.23,2.3-.48,2.61-1.49,2.39-.76,5.85,.1,7.87-2.01,.41-2-5.6,1.72-3.29-.73-2.6,1.89-4.85,1.58-6.69,3.4-1.39,.24-3.1,.67-3.15-.45-1.33,.98-3.55,1.67-6.11,2.23-1.28,.28-2.63,.53-4.01,.75-1.39,.16-2.79,.33-4.14,.49-2.5,1.52-6.25,2.83-8.48,2.59-1.92,.83-3.51,1.8-6.37,2.29-.19-.74,.78-1.02,.5-1.78-1.82,.22-1.64,1.21-2.75,1.71-1.23,.24-2.71,.44-4.06,.57-1.35,.15-2.55,.36-3.2,.8,.53,.51,1.64,.61,3.02,.51-1.32,.89-4.68,.91-5.78,1.9-1.67,.15-2.78-.1-3.85-.37-1.07-.27-2.1-.56-3.65-.59-1.09,.25,.32,.52,.07,1.26-3.14,.3-4.04-.85-7.43-.38-.74,.32-.74,1.01-2.2,.97-.26,.73,.6,.76,1.5,.75-2.39,.99-4.25,.43-5.95-.21-1.68,.26,.9,.64-.75,1.27-2.45-.26-1.04-2.75-5.19-2.03,.47,.42,1.7,.41,1.46,1.24-2.52-.74-2.76,1.05-4.47,.48,.21,.07,.83-1.12,.04-1.26-.69-.1-2.03,.9-.77,.84,.29,1.18-4.04-.46-3.76,.72,.44,.59,2.18,.52,3.67,.56,1.5,0,2.76,.1,2.25,1.22,1.02-.14,.65-1.06,.79-1.69l3.73-.05Zm77.95-10.1c-.51-1.24-1.21-2.25-3.57-1.53l.68,2.43,2.89-.9Zm-2.25-5.02l-2.13,.66c1.05,.99,1.54,2.58,4.97,1.09,.64-2.26-3.5,.52-2.84-1.75Zm-55.09,10.27c2.16-.07,.81,2.36,4.54,1.19,.72-1.41-1.24-.89-1.61-1.51,.47-.73-3.5-.3-2.93,.32Zm216.47-228.66c-.38-1.64,.21-4.45-1.54-4.4-.65,2.12,.9,1.57,.89,2.9-1.02-.26-2-.44-2.25,1.02,.96,.16,1.93,.32,2.9,.48Zm-7.61,31.33c-.19,.66-.37,1.32-.56,1.98,1.36-.09,1.27,1.13,2.21,1.42,.83-2.41-.89-2.47-1.66-3.4Zm3.99-.24c.8,1.8,1.72,1.28,1.86,4.23,.61-2.43-.16-7.07-1.86-4.23Zm1.02-12.64c1.23,.31,1.69,3.45,2.6-.08-1.69,.35-.99-1.74-1.58-2.51-.2,1.29-.8,1.38-1.03,2.59Zm-2.6,.07c-.55-.3-.44-1.26-.92-1.62-.33,.87-.87,1.12-1.02,2.54,.88,.42,1.57,.23,1.94-.92Zm3.71,4.5c.5,.36,.55,1.17,1.46,1.11,.24-1.2,.58-2.1,1.04-2.63-1.14-.43-2.2-.65-2.5,1.52Zm-8.65,11.09c1.62-1.71,.74-4.28,2.03-7.2,.62,0,.98-.89,1.58-.97,.53,.16,.04,1.26,.44,1.55,.79-1.53,2.27-.96,2.66-3.55,.19-1.4-.4-2.01-.6-3.01-2.09-.28-3.76,.63-4.74,3.68,.7,.67,.77-.73,1.13-1.1,.58-.58,2.22-1.54,2.18-.12-.71,1.56-1.67,2.62-3.09,1.98-.95,3.29-1.61,6.31-1.59,8.74Zm-7.97-1.15c.59-1.79,.81-3.25,.27-4.05,.08,2.5-.6,1.84-1.47,3.66l1.2,.39Zm-9.13,11.25c.59-.34,2.75-4.35,1.1-4.39-.46,.09-.98,1.16-1.26,2.22-.28,1.06-.39,2.09,.15,2.17Zm1.92,7.78c.94-3.17,3.68-4.66,3.48-7.79-1.85-1.44-2.7,2.08-2.2,3.36-.76,2.48-2.05,2.83-1.28,4.43Zm-3.61,8.44c1.06-.71,1.27-2,1.48-3.29,.2-1.29,.42-2.55,1.42-3.31-.62,.05-1.08,.36-1.44,.82-.38,.46-.64,1.08-.84,1.75-.39,1.36-.5,2.97-.62,4.03Zm-5.23,.38c1.18-2.66,4.35-4.91,3.42-7.62-.81,3.27-3.64,5.29-3.42,7.62Zm26.44-16.43c.23,.13,.43,.27,.17,.81,.97,.58,1.6-.45,2.07-2.22-.98-.55-1.79-.36-2.25,1.42Zm-7.33-1.92c1.43,.95,1.64-3.35,2.51-4.85,.95,1.5,1.6,.38,2.43-2.05-2.36-1.4-4.57,4.82-4.94,6.9Zm2.76,1c.35-2.2,1.29-1.81,2.06-2.17,.35-1.23,.47-2.26,.07-2.87-1,2.51-1.63,2.58-2.02,.75-.61,1.63-.6,5.11-.11,4.29Zm5.7,2.82c-.54,.85-1.25,.93-1.91,1.23-.67,.3-1.23,.86-1.67,2.62,.58,1.02,1.26-.88,2.07-.69,.18,.04-.15,1.71,.67,1.76,.38,.02,1.12,.15,1.75-2.34-2.42-.15-.44-1.34-.91-2.58Zm-8.02,14.01c-2.57-.33,2.72-5.07-.66-4.04,1.17-2.09,.62-2.88,.72-4.15,1.59-1.82,3.3-3.58,4.58-6.33l-1.58-.58c-.78,2.97-1.78,4.48-2.69,2.63-1.18,3.42-1.3,6.07-2.3,9.38,.99-.01,.78,1.66,.57,2.85-.19,1.19-.24,1.97,1.35,.25Zm2.19,9.51c.91-2.72,1.04-4.87,1.36-7.16,.88-1.01,1.6-2.34,2.33-3.85,.72-1.51,1.42-3.2,2.09-5-.82-.57-1.54-.49-2.21-.13,.02,1.36-1.41,3.83-1.01,4.9,1.32-1.39,.45-2.48,1.67-3.11,.25,2.22-1.72,4.28-2.82,4.91,.72-3.7-1.14-1.68-1.05-4.24,.39-1.26,.99-1.25,1.4-2.43-1.06-.55-1.66,1.57-2.7,1.14-.1-.33,.64-3.35-.28-1.61-.44,2.29,1.36,2.91-.07,5.97,2.39-.98,1.5,1.75,1.11,2.77,.58-1.2,1.32,1.06,.96,1.97-1.82-1.12-2.9,4.09-4.57,4.05l1.89,.91c.77-1.7,1.48-3.87,2.48-3.5-.67,1.8-2.66,4.51-.59,4.41Zm-8.22-.15c-.52,1.91-1.32,1.33-1.91,2.88,1.11,1.94,3.02-2.56,1.91-2.88Zm1.88,5.62c1.54-2.59-.6-1.31-.18-2.44,.87-1.63,1.94-3.61,1.02-4.14-1.38,2.26-1.29,4.31-2.4,5,1.31,.03,.52,1.37,1.55,1.59Zm-.05,4.74c.46-1.15,2.64-2.59,1.91-3.77-.33,.45-.68,.57-1.06,.24-.84,1.52-1.61,3-.85,3.53Zm-2.99,3.97c-.68,2.23-1.44-.21-2.12,2.02-.39,1.05,.84,1.19-.67,2.86,.73,1.45,1.41-1.81,2.14-.37-.95,1.88-3.15,2.16-2.1,3.68,.93-1.85,1.89-1.39,2.83-3.25,.69-2.64,.49-4.64,1.91-7.85-.38-.34-1.1-.47-.79-1.23,1.06-3.33-1.24,1.49-.59,2.08-.18,.43-.8,.69-1.26,1-.48,.3-.82,.64-.43,1.26,.46-.61,1.44-1.12,1.08-.19Zm-6.69,5.78c.82-.46,1.63-1.88,2.43-3.4-.75-1.43-1.39,1.79-2.13,.35,.79-1.99,1.62-1.97,2.42-3.39-.15-1.41-.49-.21-1.46-.83-.64,1.99-2.72,4.76-1.99,6.02,1.65-2.78,.42,.82,.73,1.26Zm.76,3.75c-1.07,.08-4.02-.89-3.98,1.59,.74-.97,1.46-.94,2.16-.26-.59,1.1-2.24,2.71-.8,2.81,1.12-2.14,2.3-3.19,3.32-4.53,.51-.77,2.57-4.38,1.03-2.66l-1.74,3.04Zm-3.61-4.69c-.37,.29-1.39,1.6-2.22,2.62-.83,1.02-1.38,1.83-.6,1.26,.37,.16,1.21-.49,1.9-1.34,.65-.87,1.15-1.94,.92-2.55Zm-4.25,3.77c1.63-1.57-.86-1.17,.76-2.74,.56-.91,1.17,.11,1.72-1.33l-1.43-.88c-.96,2.4-2.1,2.49-3.18,4.38,.93,1,2.2-1.37,2.13,.57Zm.54,6.95c.69,1.46,4.51-4.18,2.94-3.04-1.03,2.62-1.92,.43-2.94,3.04Zm-4.6,.17c1.33-1.41,2.63-1.59,3.99-3.89-1.07-1.1-4.03,2.11-3.99,3.89Zm-3.29,6.88c1.19-1.23,4.52-3.48,3.58-5.02-1.2,1.23-4.55,4.08-3.58,5.02Zm1.75,4.77c.87-1.52,3.42-1.49,3.1-2.9-1.08,.32-4.02,1.21-3.1,2.9Zm3.01,2.3c1.64-.9,3.51-4.47,5.27-6.67-.96-1.53-2.44,3.12-3.41,1.89,.54-.82-.44-1.23-1.08,.08,.27,.68,2.23,.62,1.28,1.83-1.19,0-2.31,1.54-2.05,2.88Zm-16.81,19.96c-1.1,1.25-1.86,1.09-3.16,2.83,.13,.83,1.06,.25,1.9-.58,.8-.87,1.49-2.02,1.26-2.24Zm8.6-23.64c-.23,.49-.77,1.1-.47,1.36,1.92-1.94,.28-2.47-.07-3.5l-1.58,2.2c.61,1.11,1.46-.57,2.12-.07Zm5.04,6.58c.74,.74,1.73-.02,2.6-.65-.32-.53-.05-1.31-.92-1.61-.54,.77-1.09,1.53-1.69,2.26Zm-12.19,2.55c2.61-2.47,2.17-3.84,3.58-5.87,.87,.7-.34,2.16-.39,3.2,2.16-.97,1.62-3.42,1.66-4.8-2.67,2.46-3.37,4.8-6.03,5.58,1.26,.33,.24,1.45,1.18,1.89Zm6.1,2.45c-4.07,5.83,2.67-1.46,1.41-2.46-.81,1.02-.7,1.45-1.41,2.46Zm-6.16,6.67l1.56,1.41c.39,.44-3.15,3.99-1.24,2.69,1.74-2.11,3.42-3.92,4.97-5.03-.82-2.2-2.88,2.32-3.74,.45,.94-.93,.67-1.48,1.53-2.38,1.46,1.84,7.03-2.76,5.8-5.2-1.81,2.18-3.58,4.07-4.24,4.68-2.4-.3,.59-2.56-.62-3.28-1.97,2.56-1.25,4-4.01,6.66Zm-11.21,3.64c1.08-1.55,1.55-.4,2.51-1.37,.57-1.55-1.3-.06-.46-1.38,.7,.29,.52-.72,1.35-1.53,1.25,.61,.1,1.86,1.53,1.43,.62-.82,1.78-1.8,1.5-2.35-.25,.29-.76,.35-.31-.28,1.85-3.02,2.88-1.33,4.42-2.49-1.41-.94-.94-2.46-2.7-3.29-1.5,2.44-2.24,2.49-4.33,4.3,.33,.41,.6,.83-.28,1.59-.68,.8-1.24,.94-1.81,1.18-.58,.24-1.16,.59-1.97,1.75,.38,.76-.8,1.92,.56,2.44Zm2.28,1.27c2.56-1.17,2.01,.16,2.66-2.22,.65,1.64,2-.47,2.75,.69,1.22-.83,.72-2.92,0-1.9,.31,.29-.42,1.28-.91,1.04l-.61-.57c.76-1.24,3.38-3.06,2.88-3.92-1.48,.42-2.3,2.31-3.19,3.63-1.19,.15-1.99,.8-2.82,1.58-.84,.78-1.66,1.73-2.79,2.56,.46,1.13,1.18-.5,2.04-.89Zm-2.94,7.85c1.03-.72,2.17-1.92,3.02-1.91l-3.42,3.51c-.07,.77,.13,1.48,.96,2.03,3.31-2.63,2.11-4.08,4.51-6.46-.3-.92-1.44,.34-1.87,.11,.05,.03,.56-1.41,.38-1.59,.13,.14-1.2,.71-1.27,.7-.49-.07,.32-1.7-1.08-.1,2.46,.49-1.77,2.7-1.25,3.7Zm-6.77,1.9c.73-.17,1.62-.89,2.54-1.76,.9-.89,1.81-1.97,2.67-2.76-1.05-.71-2.14-.08-3.06,1-.92,1.07-1.77,2.5-2.15,3.52Zm-.35,2.96c-.22,.14-.53,.33-1.05,.63-.72,.41-.92-.28-2.08,.78-.38,.35-2.04,1.64-1.47,2.52,1.05-.65,2.64-3.15,3.32-2.51-2.65,1.97-.73,2.08-1.21,2.84-.92,.19-2.09,1.33-3.39,2.46,.75,.55,1.99-.13,3.19-1.17,1.23-1.02,2.53-2.28,3.59-2.72,.28,.31-.09,.76,.04,1.1,1.78-1.25,1.19-.7,2.58-2.39-.32-1.89-2.35,2.08-2.67,.19l2.56-2.38c-.66-1.78-2.4,2.01-3.4,1.44-.41-.23-.24-.56-.02-.78,.62-.41,.29-.29,0,0Zm-9.08,6.12c3.09-2.04,.8-1.61,1.57-2.41,1.95-2.1,5.04-3.33,6.34-5.26-.79,.64-1.14-.33-1.62-.78-.75,1.52-1.72,2.53-2.92,3.56-1.18,1.06-2.67,2.05-4.44,3.61l1.07,1.29Zm-15.03,10.88c.31,.49,.79,.56,1.28,.61,1.42-.99,1.34-1.83,1.46-2.68-1.04,.11-2.33,1.09-2.74,2.07Zm-4.08,7.5c.87-.89,3.67-1.88,3.22-2.7-1.06,.03-3.84,1.73-3.22,2.7Zm-11.41,10.83c1.54-.12,.74-.5,2.4-1.46-.35-1.68-3.68,.35-2.4,1.46Zm-2.69-3.28c1.5-.54,5.16-1.19,6.13-3.24-1.59,.67-5.57,2-6.13,3.24Zm-13.92,1.55c1.01-.34,1.11,.9,2.77-.54l-.58-1.12c-.85,.55-2.26,1.06-2.18,1.66Zm-4.09,3.98c2.41-.3,4.77-1.99,3.5-3.66-.42,.09-2.74,.31-2.39,1.27,.39-.15,.75-.3,.79,.08-2.11,.62-1.63,1.5-1.9,2.31Zm-9.26,2.57c.55,1.97,2.49-1.11,3.66-1.75,1.44-.79,4.71-.99,4.69-2.72-2.71,1.5-6.86,2.84-8.35,4.47Zm-3.26,6.39c1.03,.19,4.08-.93,3.65-1.99-1.03,.69-3.91,1.1-3.65,1.99Zm28.7-25.69c.93-.55,1.63-.63,2.37-.78,.73-.16,1.53-.37,2.57-1.32-.54-.92-1.42-.75-2.36-.22-.95,.53-1.92,1.49-2.58,2.32Zm-6.43,3.43c1.63-1.62,3.81-.39,4.16-2.05-2.51,1.01-1.8-.01-.84-1.45-1.6,1.15-3.3,2.3-3.32,3.5Zm-8.69,.44c1.01,.58,1.41,2.27,3.47,.99-.49-1.53-2.11-1.03-3.47-.99Zm-.77,2.81c3.38-1.23-1.02,3.42,2.88,1.3,.26-1.68-1.84-2.79-2.88-1.3Zm-15.36,9.14c-.74,.23-.91-.34-1.08-.91-1.06,.41-1.85,.88-2.27,1.41-.05,1.15,3.26,.56,3.35-.5Zm-6.83-3.05c.33,.54,.34,1.54,1.2,1.32-.49-.72,1.76-.65,1.95-.37,.19,.64-1.41,.95-.74,1.68,1.36-.51,2.87-1.36,4.38-2.18,.76-.41,1.52-.81,2.28-1.16,.75-.35,1.47-.71,2.18-.94,1.55-.51,2.75,.41,4.24-.17-1.85,.98-4.7,3.72-3.31,3.92,.67-1.85,4.74-3.72,4.92-5.16-.02,.16-2.01,.67-1.54-.19,1.16-.28,1.92-2.28,2.95-1.41-.66,.39-1.71,.73-1.59,1.22,1.1,.02,2.65-.69,3.51-.28-.4,.86-.19,1.24,1.15,.83-1.01-.92,1.77-1.55,.23-2.52-1.42,.85-1.47,1.69-2.52,.83,.02-1.41,.09-2.83,.07-4.28-.74,.43-1.53,.79-2.3,1.16-.32,1.32,2.89,.08,1.32,1.23-.56,.28-2.57,1.27-2.52,.74-.01,.1,1.51-1.03,.99-.94-1.89,.33-3.41,1.59-5.26,2.52-1.21,.59-3.73,.58-3.35,2.04,2.79-1.32,4.09-.42,6.56-1.26-1.16,2.03-3.79,.82-5.21,1.11-1.1,.73-4.05,2.85-5.38,2.3-.56-1.06,4.11-1.18,2.5-2.42-2.53,1.85-3.74,1.29-6.7,2.36Zm-8.49,13.5c.68,1.04,3.39,2.48,5.1,.38-.74,.17-1.14-.08-1.54-.34,.63-.84,2.62-1.4,4.3-2.01-.29,1.51,1.34,.6,1.84,1.12,1.17-.23,1.72-.63,2.23-1.04,.52-.41,1-.81,2.02-1.13-.9-1.02-.73-.57-.76-1.96l-3.25,1.37-3.32,1.21-6.63,2.42Zm-17.63,6.96c2.42-.49,4.25-1.16,5.78-1.92,.45,.88-1.78,.94-1.65,1.73,.53-.04,1.3-.33,1.42,.07,.44-.11,.88-.22,1.31-.36-.05-.64-.63-1.43,.21-1.83,1.38,1.49,3.35-1,5.15-1.6l.36,1.21c1.13-1.05,2.94-1.23,4.45-1.38,1.5-.18,2.66-.4,2.52-1.34-2.56,1.37-5.04,.63-3.83-.89-2.49,.82-4.6,1.73-5.43,3-.82,.35-1.84,.55-2.92,.71-.54,.07-1.09,.14-1.64,.21-.55,.04-1.1,.09-1.63,.15-2.11,.23-3.85,.7-4.11,2.25Zm-15.97-8.87c1.73-.99,2.42-.02,2.98-1.47-1.57-.23-1.16,.3-3.2,.23l.22,1.24Zm-2.51,8.62c.85,.39,2.39,.04,3.98-.34,.68-1.51-4.05-.22-3.98,.34Zm-.07,3.84c4.41-.86-.38,1.5,1.67,1.86,3.03-.36,4.96-1.23,7.25-1.9,1.52-.89-1.43-1,.34-1.79,.86,.25,1.67,.54,2.58,.74,.91,.21,1.92,.33,3.14,.15,1.01-.82,1.48-1.81,1.42-2.97-1.18,.29-2.49,.6-3.16,.86-.67,.23-.69,.5,.73,.63-2.33,.32-3.74-.35-6.19,.03-.58,1.1-2.08,1.31-3.65,1.45-.79,.07-1.59,.12-2.31,.25-.72,.11-1.37,.29-1.82,.67Zm-.35,2.18c-.83,.04-.48-.4-.13-.83-1.79,.28-1.65-1.09-3.52-.73-1.24,.8,2.34,3.01,3.65,1.55ZM74.47,381.56c-.42-.63-.79-1.6-1.28-1.47,.86,2.14-2.71-.54-.89,1.87,.68,.45,.79-.18,2.17-.4Zm8.16,32.69c-.42-.59-.77-1.14-1.09-1.64-.31-.51-.56-.99-.85-1.42-.56-.86-1.19-1.55-2.21-2.1,.2,.73,2.74,4.49,4.15,5.16Zm27.93,16.37c-1.53-1.21-1.25-1.98-2.26-3.06-.97,.76,1.24,3.88,2.26,3.06Zm7,6.39c-1.93-.49-2.05-3.04-3.92-3.22,.18,.69,3.1,4.64,3.92,3.22Zm48.61,35.73c-.83,.16-1.3,1.04-2.14,1.19,.74,.42,1.46,.87,2.23,1.24,.59-.88,1.08-1.71-.09-2.43Zm23.07,20.3c-2.41-.72-.5-2.29-3.79-2.83-.82,1.09,1.68,1.84-.21,2.17,1.73,.77,3.16,1.12,4,.66Zm13.38-6.34c-2.04-.18-1.23-1.11-2.1-1.59-.57,1.1,.63,1.74,1.08,2.58-.29,.79-1.81-.04-1.77,1.18,3.55,1.39,1.75-.54,2.78-2.17Zm34.51,9.89c-1.77-.41-3.18-.47-3.9,.15,2.38,.14,3.46,1.81,3.9-.15Zm15.43,10.42l-3.27-.27c-.85,1.62,3.74,2,3.27,.27Zm5.78-5.84c-1.69-.14-3.73-.55-3.91,.51,1.34-.14,4.38,1.05,3.91-.51Zm10.17,1.73c-2.17-.36-5.41,.76-3.95,1.54,.28-.5,4.98,1,3.95-1.54Zm14.95,6.23c-.51-1.18-2.08-1.72-4.63-1.59-1.12,2.26,2.29,1.63,4.63,1.59Zm11.9-9.23c-2.04-.91-4.18,.39-6.42-.78-.35,1.13,1.08,.44,1.95,.73,.75,.24,1.74,.72,2.6,.9,.86,.15,1.61,.03,1.87-.85Zm11.61,10.95c-2.87,.68-4.48,1.82-5.78,3.21,1.84-.36,4.89,.73,6.07-.7-1.51,.06-.78-2.13-.3-2.5Zm-16.64,3.34c-.33,1.65,3.76,.32,5.46,.46,.91-.23,1.25-.74,2.67-.72-.32,1.14,.4,1.48,2.14,1.04,.39-1.34-1.93-.6-1.53-1.95,2.64,.08,2.84-1.01,3.91-1.69-4,.9-8.94,3.35-12.64,2.86Zm-35.77-.69c.52,.14,.75,.42,.6,.89,2.1-.12,1.32-.18,3.37,.28,.72-1.21-4.35-1.46-3.97-1.17Zm-12.86-.54c1.51,.32,2.53,.23,2.8-.48-.89-.25-1.19-.76-2.61-.77l-.19,1.24Zm-4.63-1.03c.6,1.27,.64,2.78,3.63,3.02,.94-1.42-.69-.92-1.09-1.84,.05,.1,1.09-.47,.13-.83l-2.68-.35Zm-44.63-8.71c1.83,.7,3.32,1,4.16,.51-1.93-.53-1.65-1.55-3.57-2.08l-.59,1.58ZM39.66,315.98c.81-.38,1.31,1.27,2.22,2.97-.26-1.27,.95-1,.37-2.71-.6-.27-3.16-2.9-2.59-.26Zm-2.83-14.3c-.04,.52-.27,.8-.77,.74-.05,2.25,1.09,2.08,1.61,3.16-.37-1.13,.09-3.91-.84-3.9ZM198.86,42.84c-1.52,.79-3.18-.95-4,.8,.78,.07,3.43,.65,4-.8Zm10.44,.14c-1.15,.35-1.61-.01-1.59-.89-2.1,.33-2.11,1.32-4.44,1.58,.02,.75,3.62,.98,4.3,.63,.27-.14-.35-.98,.44-.98,.16,.62,2.08,.89,1.29-.33Zm10.58-5.04c.1-1.11-3.78-.93-4.13,0,1.31,.07,2.56,.19,4.13,0Zm190.45,36.58c1.92,1.78,3.35-.08,1-1.35l-1,1.35Zm-15.69-9.45c-.75,1.06,1.04,2.16,2.73,3.24,1.16-1.04-.98-2.15-2.73-3.24Zm9.22-31.53c.52,1.11-1.61,2.16,.68,3.29,.81-.1,1.46-.46,1.76-1.41-1.31-.64-1.22-1.24-2.44-1.88Zm-17.3-9.98c-.58,.64,.57,1.17,.82,1.79-.91,.69-2.35,1.23,.41,2.56,.29-.5,.1-.98-.1-1.46,1.45,.82,2.32,.79,2.63-.09-2.53-.89-2.67-1.9-3.75-2.8Zm-19.17,34.22c.91,.2,2.24,1.02,3.39,1.6,1.12,.63,2.09,.99,2.36,.18,.05-1.36-1.32,.4-2.55-.81,.16-.49,.26-.97-.84-1.29,.28,1.76-2.16-.69-2.36,.33Zm11.42-34c1.76,.65,4.77,1.15,4.39-.34-2.72-1.05-5.14,.59-7.52-1.97-1.13,.82,1.87,1.84,3.13,2.31Zm-9.23-1.63c1.41-.42,3.92,.46,4.54-.92-3.07-1.74-7.33-.92-4.54,.92Zm-50.98,19.41c-1.49-.46-.87-1.75-2.97-1.92-.31,.52,.25,1.16,.97,1.58,.72,.46,1.61,.7,1.99,.34Zm-49.07-16.62l.04-1.68-2.1,.03c-.21,1.1,.23,1.8,2.06,1.65Zm-85.27,17.02c1.96-.61,6.16-2.66,4.94-2.7-1.14,.78-6.39,2.62-4.94,2.7Zm-9.45,.46c.83-.22,1.32,.01,1.89,.13,.57,.12,1.23,.11,2.44-.52-.2-.44-1.12-.73-2.07-.7-.94,.05-1.93,.38-2.26,1.09Zm-3.56,7.88c-.47-1.69-3.79,1.28-4.37,1.94,1.47-.52,3.5-.68,4.37-1.94Zm-24.64,7.61c1.51-1.15,1.59,.12,2.43,.11,2.49-1.2,4.5-2.42,5.1-3.73,.42,.45,1.55-.3,2.2-.24,2.74-2.87,7.92-4.72,11.71-6.05-.91-.46,3.56-1.78,.95-1.31-1.24,.43-1.24,1.01-2.39,1.48-.63-.83-3.04-.18-4.45,.27-1.21,.39-1.42,1.16-2.97,1.9-1.51,.74-3.98,.93-5.38,1.73-.8,.43-.6,.93-1.66,1.38-1.71,.72-6.38,2.88-5.55,4.45Zm-63.8,54.3c1.21-1.12,3-1.65,4.12-2.78,1.28-1.31,.88-2.11,1.73-3.13,.43-.54,.65-.1,.78-.2,.48-.39,.15-.75,.18-.79,2.35-2.63,3.5-4.22,3.17-5.68-1.04,.78-2.07,2.08-3.16,3.55-.54,.73-1.11,1.5-1.69,2.28l-1.79,2.3c-1.25,1.55-4.21,2.7-3.36,4.46Zm-31.78,89.05c.61-1.4,1.62-2.26,1.23-3.69-1.24-1.11-2.27,3.74-1.23,3.69Zm1.3-12.09c-1.69,2.01,.83,3.14,1.47,2.02-1.38-.03,.34-2.29-1.47-2.02Zm-3.14,2.28c.69-1.41,1.8-.6,2.37-2.6,.25-3.66-3.85,.71-2.37,2.6Zm33.96-77.07c-.8-.96-1.99,.31-2.8-.64,.29-.47,.9-1.04,.61-1.33-2.39,2.94-.67,5.11,2.19,1.97Zm-39.84,20.95c1.44-.81,2.59-3.81,2.87-5.27-1.46,2.58-3.28,3.31-2.87,5.27Zm-9.2,17.94c.49-2.92,1.67-2.2,3.13-4.21-.86-.59-.44-1.86-1.82-1.04-.04,1.41-2.73,4.73-1.31,5.25Zm-15.24,39.54c.84-.71,1.76-3.22,.78-3.67-.84,.7-1.77,3.24-.78,3.67Zm22.1,4.13c1.54-1.98,.72-2.96,1.39-5.29,1.32,1.2,1.31-2.24,1.38-2.38,.61-1.3,1.75-1.18,2.4-2.68-1.89-.25,.61-3.75-.45-4.62,.54-1.08,1-3.29,1.86-2.15-.34,1.02-.85,1.55-1.14,1.97-.27,.43-.34,.75,.2,1.32,.76-.88,1.4-1.75,1.71-2.94,.31-1.19-.4-6.42,1.73-5.92-.15,.34,0,.85,.38,.18-.73-1.31,3.24-2.81,1.62-4.49-.35,.06-.67,.63-.97,1.16-.29,.54-.58,1.04-.95,.92,.57-1.54,1.52-2.66,2.15-3.73,.65-1.06,1.06-2.03,.81-3.18,.25-.47,1.56-.43,1.73-.62,.41-.44,1.8-3.97,2.16-4.23,.09-.07,.67,.49,.73,.42,.74-1.09,.64-2.79,1.65-3.73,.48,.16,.97,.7,1.42,.05-.03-1.71-1.21-.62-2.14-.48,1.04-2.66-1.08-1.49,.23-4.63,.68-1.18,1.41-.15,2.08-1.93-.39-.8,.33-1.97,.73-2.77,.91-1.85,2.01-3.83,3.26-5.8,.62-.98,1.29-1.97,1.97-2.93,.73-.93,1.51-1.84,2.3-2.71-.15-.85-.48-1.62,.58-2.98,1.97-3.12,3.38-5.45,5.04-7.67,1.61-2.24,3.27-4.52,5.62-7.61-1.96-2.39-3.83,3.5-5.37,5.41-1.31,1.67-2.77,3.11-4.05,4.59-1.29,1.48-2.55,2.89-3.66,4.34,.6,.4,.55,1.08,.21,1.87-1.02,1.1-1.84,2.13-2.55,3.13-.67,1.01-1.2,2.02-1.69,3.01-.99,2-1.81,4.02-3.06,6.43-1.01-.12-.06-2.38-1.43-.1,.19,1.08-.61,2.75-.35,3.86-1.39,2.11-2.47,4.35-3.48,6.26-.5,.96-.99,1.82-1.48,2.57-.46,.76-.94,1.37-1.46,1.79-.5,2.78-1.89,5.36-3.44,6.77,1.1,.09,.92,.98,.47,2.03-.44,1.05-1.07,2.32-1.02,3.07-.69-.56,.02-2.06-.67-2.62-.28,2.49-1.4,3-2.54,5.67,1.05,1.71,1.35-2.66,2.27-1.98,1.19,1.05-1.45,2.95-2.15,5.81,.44,.28,.82,.59,.21,1.59-.69-1.76-.41,.09-1.14,1.74-1.22,2.62-2.13,4.64-1.46,6.06-.7-.22-1.16-.63-1.31-1.27-1.34,2.22,.02,2.4-.08,3.66-1.8,4.03-2.93,7.97-4.29,8.65-.44-.25-.51-1.48-1.19-.41,.14,1.13,1.16,1.53,1.33,2.63-.62,1.75-2.6,2.54-1.18,3.94,1.3-2.68,1.22-5.16,2.63-5.62,.05,1.21-.51,3.11-.66,4.81-.32,2.93-.45,.91-1.32,3.16,.87,2.02,2.18-.85,3.15-4.21,1.12-3.31,1.89-7.15,1.32-7.22Zm-6.32,31.27c-1.33-.78-1.9,2.02-1.42,3.15,1.34,.75,1.9-2.02,1.42-3.15Zm5.61,21.15c.29-1.85,.33-4.26,1.1-5.1-.77,.33-2.9,2-2.09,2.99,.08-.39,.16-.76,.5-.59-.1,1.21,0,2.2,.49,2.7Zm-4.63,4.07c.8-.99,.64-3.35-.04-4.01-.9,.97-.69,3.37,.04,4.01Zm-2.26,1.76c1.67,.27,1.25-1.58,1.11-3.23-1.35-.85-.82,2-1.11,3.23Zm-23.99-.35c1.27-2.01-.48-3.6-.83-5.28-.31,2.61-.08,4.44,.83,5.28Zm-2.62,1.22c-1.28-.47-1.47,1.46-1.56,3.6,1.28,.45,1.46-1.47,1.56-3.6Zm1.95,10.52c.12-1.82,.2-3.56-.71-3.74-.7,1.05-.76,4.17,.71,3.74Zm20.39,8.57c.58-2.55-1.2-1.33-.81-3.42,.41-1.35,2.17-6.7,.26-7.48-.43,2.44,.49,5.21-.63,6.11,.21-.17-.26-2.17-.4-.7,.47,.6,.31,2.12,.3,3.42,.05,1.3,.24,2.38,1.28,2.08Zm-20.57,.99c-.36-2.09,.54-1.89,.41-3.66-.73-.08-1.31,.12-1.7,.68-.05,1.85,.67,2.33,1.3,2.98Zm22.64,19.96c-1.21-3.34,.76-5.48-.83-6.73-.27,2.08-1.91,2.21-1.81,4.85,.67,.76,1.1,.72,1.68-.1,.05,1.17,.43,1.72,.96,1.98Zm-2.21,6.99c-.07-1.8-.82-2.18-1.9-1.9,.23,1.84,1.31,3.2,1.9,1.9Zm6.6,37.06c-.04-.54,.14-.86,.64-.86-.06-1.97-1.85-4.39-1.2-4.64,.89-.02,.85,2.91,1.91,2.35,.18-2.55-.78-2.37-1.6-4.52-.99,1.26-1.65,.13-2.29,1.2,1.28,2.34,1.93,4.78,2.53,6.46Zm17.15,37.33c-.64-1.12-.22-1.53-.78-2.61-.87,.98-1.37-.46-2.19,.19,.81,1.83,1.96,1.91,2.97,2.42Zm4.12,8.56c-.38-1.51,.16-2.99-1.01-4.02-.53,.22-.7,.68-.85,1.15-2.19-1.56-.94-4.14-2.36-4.9-.82,1.15,1.29,4.21,1.51,6.05,.62-.16,1.29-.88,1.81-.11-.65,.43,.75,2.19,.46,2.8,3.15,3.31,1.08,1.24,.43-.97Zm36.61,89.92c-1.21-1.01-1.86-1.82-2.49-2.44-.61-.63-1.18-1.08-2.26-1.33,.59,.7,0,.66-.59,.6,2.3,1.34,2.79,4.41,5.34,3.17Zm1.71,.38c.28-.32-.63-1.26-1.13-.99,.89,1.31,.04,2.24,1.7,3.72,1.41-.56-.89-1.93-.56-2.73Zm7.45,7.5c-.21-.55-1.06-1.3-1.89-1.88-.84-.57-1.74-.87-2.14-.4,1.01,.41,1.57,1.12,2.1,1.66,.55,.52,1.06,.88,1.94,.62Zm20.3-2.87c-.84-.4-1.73-.91-2.57-1.3-.83-.41-1.59-.73-2.23-.7,1.03,1.17,1.76,1.73,2.47,1.95,.71,.23,1.38,.16,2.33,.05Zm-5.62,13.53c-2.19-1.83-2.48-2.42-4.2-1.97,.77,1.65,3.27,2.52,4.2,1.97Zm49.74,14.71c-1.6-.78-3.15-1.48-4.15-1.4-.26,.74-.2,1.45,.57,2.1-.07-2.01,2.47-.35,3.57-.7Zm3.6,2.53c-.32-.4-1.27-2.44-2.47-1.56,.89,2.47-1.79-.53-3.01-.43-.86,2.35,4.4,2.53,5.48,1.99Zm26.51,16.9c-.81-.76-4.68-2.35-5.1-1.19,2.19-.28,3.39,1.83,5.1,1.19Zm27.58,6.26c-.41,.46-1.13,.67-2.38,.42-.64,1.23,.55,1.84,1.77,2.45,.06-.76,.93-.83,2.39-.43,.62-1.23-.57-1.85-1.78-2.45Zm6.21,3.25c-.18-1.1-1.07-1.95-1.74-2.87,0,1.16-1.63,2.87,1.74,2.87Zm1.52-8.26c-2.83,.16-7.81-1.53-8.94,.1,1.11,.82,.9-.1,2.25-.02,2.25,.13,6.61,1.76,6.7-.08Zm24.26,6.13c.71-.18,1.57-.25,2.29-.43,.73-.2,1.32-.48,1.51-1.02-2.1,.28-1.85-.68-3.62-.64l-.18,2.09Zm-3.93,2.21c-1.7-.28-2.85-.17-3.75,.11-.71,.9,.5,2.86,1.3,1.79-1.67-.61,1.64-1.53,2.46-1.9Zm11.8,1.95c-1.9,.28-6.37-1.04-6.04,.62,1.9-.27,6.4,1.04,6.04-.62Zm.02-.42c-.19-1.83-6.22-.53-8.86-1.29-.16,.78-2.48,.09-2.35,1.07,2.53,.13,4.06,0,5.59-.09,1.54-.12,3.07-.14,5.62,.3ZM56.58,160.05c-.79-.92-.5-2.44,.58-4.39,.3,.52,.31,1.19-.29,2.2,.25,.29,.48-.03,.7-.38,.39,.47-.54,1.65-.99,2.57Zm447.1,169.51c1.28,.75-.1,2.6-.66,3.98-.95-.97,.24-2.74,.66-3.98ZM63.8,395.37c1.55,1.05,4.92,5.46,5.26,7.85-1.46,1.01-.53-.89-1.05-1.73-1.78-1.06-3.26-4.39-4.21-6.12Zm62.36,71.25c.97,.44,1.91,1.18,3.11,1.99,1.19,.82,2.56,1.8,4.22,2.91-2.33-.97-5.92-2.99-7.33-4.89Zm376.65-70.84c1.45,2.06-2.36,6.25-4.01,8.72-1.07,1.71-2.17,5.08-3.77,4.55,.87-.98,1.74-2.05,2.49-3.21,.74-1.17,1.44-2.38,2.08-3.58,1.29-2.4,2.37-4.73,3.2-6.48Zm14.57-84.78c-.27,1.22,.24,1.54-.08,2.82-1.09,.49-2.24,.8-3.54,.71,.88-2,1.94-3.58,3.62-3.53Zm-6.8,72.27c.14,2.02-2.83,5.98-3.93,8.76,0-2.46,2.8-6.22,3.93-8.76Zm-36.36,54c2.58-3.27,5.64-7.13,7.7-9.74-1.36,3.29-3.45,5.82-5.86,8.5-.61,.67-1.22,1.35-1.86,2.06-.67,.68-1.36,1.38-2.06,2.12-1.4,1.48-2.85,3.12-4.32,5.05-1.49,.62,4.45-5.64,6.4-7.99Zm45.87-130.05c-.25,2.33-.76,4.62-1.15,6.92-.02-.68-.18-2.4-.1-3.95,.11-1.54,.29-2.94,1.24-2.97Zm.85-19.67c.96,1.07,.54,2.48,.07,4.22-.95-1.08-.54-2.47-.07-4.22Zm-.16,11.25c.51,2.81-.44,4.34-1.33,6.89-.57-1.23-.49-3.26-.11-5.67,.71,.13,1.15-.37,1.44-1.22Zm-24.68,60.78c-1.46,2.41-.13,2.8-.96,4.72-2.99,.46-1.56,4.09-2.87,5.37-.16-.47-.33-.93-.86-1.15,.8-1.16,1.33-4.23,2.31-4.12,.28-1.51,.34-5.78,2.38-4.83ZM139.99,82.29c-1.61,1.41-3.33,2.67-5.2,3.9-1.81,1.3-3.74,2.63-5.87,4.05,1.19-1.33,2.62-2.68,4.2-4.04,1.58-1.36,3.45-2.58,5.33-3.88,.83-.75,1.19-.42,1.54-.03ZM5,327.34c-.17-.87-.37-1.74-.52-2.61l-.42-2.63c.36,.03,1,1.36,1.33,2.67,.38,1.3,.48,2.59-.39,2.57ZM244.99,1.58c.07-.73,3.09-1.48,4.51-1.56,1.17-.06,4.28,.06,3.87,1.02-3.34-.37-4.24,.38-8.38,.54ZM.09,290.4c.31-.83,.32-2.15,.23-3.64-.07-1.5-.14-3.18-.13-4.71,.03-3.06-.8-7.21,.74-7.57-.27,2.47,.11,6.12,.25,9.3,.03,.8,.05,1.56,.04,2.28,.01,.71,0,1.37-.06,1.96-.12,1.17-.44,2.03-1.07,2.39ZM54.55,112.93c-2.73,1.12,3.16-4.75,3.24-6.14,.45,.22,1.13-.86,1.73-1.51,.69,1.98-4.86,6.35-4.97,7.65ZM5.81,243.95c.29-1.89,.57-3.81,1.73-3.51-.19,2.13-.47,4.04-1.73,3.51Zm-1.61,51.57c-1.15,.39,.08-4.1-1.07-3.71,1.01-.66-.84-5.86,.94-5.28,.16,3.18-.39,5.25,.13,9Zm2.83,23.85c-.78-3.36,.37-4.25,.2-6.82,.07,.13,1.82,7.4-.2,6.82Zm-1.29-26.17c-.14-2.45-.49-5.26,.94-5.24-.63,1.25,.6,5.4-.94,5.24Zm.78-9.69c-1.44-.55-.49,3.03-2.07,2.26-.04-2.5,1.33-2.56,1.19-5.23,.74,.18,.97,1.28,.88,2.97ZM166.92,65.28c-.22,.91-1.25,1.62-2.47,2.23-1.23,.59-2.57,1.22-3.54,1.75-2.63,1.49-5.02,2.8-7.33,4.05-2.26,1.35-4.44,2.66-6.73,4.03-1.15,.7-2.29,1.8-3.31,2.67-1.02,.87-1.99,1.42-2.92,.84,1.2-.53,2.32-1.22,3.45-1.93,1.14-.69,2.26-1.46,3.36-2.26l3.33-2.45c1.13-.8,2.24-1.65,3.48-2.27,1.86-1.01,3.89-2.01,6.02-3.12,1.06-.56,2.14-1.14,3.25-1.74,1.13-.56,2.27-1.15,3.42-1.79Zm-46.61,31.85c-.85,.9-3.38,3.46-4.96,4.21,.37-2.03,3-3.28,4.96-4.21Zm-27.14,26.2c-.17,1.17-1.42,2.56-2.34,4-.76-.31-.42-1.03,.29-1.77,.7-.75,1.68-1.58,2.05-2.24Zm20.96-21.42c1.2,1.13-4.65,5.41-5.92,6.07,.48-1.75,4.19-4.09,5.92-6.07Zm98.25-54.51c-1.72,1.56-3.41,1.41-6.22,2.03,.64-1.15,4.36-1.28,6.22-2.03Zm51.62-8.94c-.69,1.39-2.35,.35-3.94,.47-2.81,.32-6.18,.7-9.53,1.08-1.68,.14-3.33,.46-4.92,.68-1.58,.23-3.09,.44-4.45,.61,.7-2.43,4.13-1.24,5.79-1.47,2.34-.39,4.73-.53,7.46-.81,2.73-.24,5.81-.58,9.58-.55Zm-89.43,23.21c-.1,.78-1.76,1.86-3.37,2.6-1.61,.73-3.19,1.09-3.11,.46,1.95-.32,3.37-1.99,6.47-3.05Zm30.21-12.3c.28,1.12-2.67,1.88-3.63,1.57-.18-.92,2.6-.99,3.63-1.57ZM27.78,392.53c-1.55-1.01-2.92-5.61-4.19-8.12,.76,.53,1.37,1.98,2.06,3.57,.7,1.58,1.4,3.34,2.13,4.55Zm350.23,125.1c-.66,1.04-2.82,1.9-3.68,2.92,.44,.22,.88,.44,1.68,.2-.54,1.9-1.38-.47-2.92,.77,.97-1.33,3.22-3.83,4.92-3.89Zm16.64-6.75c.36,2.21-2.96,2.23-5.23,2.99,.11-1.1,3.72-1.97,5.23-2.99Zm-20.81,14.87c-2.14,.78-4.35,1.64-4.71,.39,.84,.71,4.8-2.18,4.71-.39Zm15.59-8.16c-.6,1.56-4.09,2.04-4.98,1.86-1.72,.78-1.87,1.65-3.49,1.48,.93-1.05,2.52-1.71,4.16-2.17,1.62-.51,3.26-.86,4.32-1.17Zm-16.05,4.71c-.26,1.16-2.25,.96-3.39,1.73-.41,.27-.28,.97-.43,1.05-1.06,.61-1.43-.03-2.27,.38-.63,.31-1.41,2.38-3.87,2.76-1.11-.94,1.36-1.29,2.59-1.84-.77-1.12,1.11-2.24-1.38-1.73,.39-1.72,1.59-.16,2.26-.38,.98-.32-.03-.73,.43-1.05,.97-.67,3.22-.13,5.07-1.42,.06,.5,.41,.64,.99,.5Zm-40.17,12.8c-3.7,.63-4.15,2.31-8.71,2.67,.19-.97-1.18-.54-2.36-.41,1.54-2.12,5.83-3.04,8.77-2.22-.28-1.01-1.62-.99-.39-2.06-1.56,.49-4.46,1.17-7.11,1.45-2.65,.26-5.08-.04-5.65-1.15,1.53-.21,2.66-.1,3.78,.02,1.12,.12,2.22,.16,3.71-.08,.91-.06,2.3-1.71,.51-1.39,2.19-1.15,5.37-1.69,8.5-2.16,3.09-.6,6.13-1.15,7.98-2.1-.87,1.84-4.72,2.52-6.09,3.31-.34,1.05,3.04,1.01,3.07,.08,2.93,.33-2.56,1.58-4.17,1.94-1.51-.44,.07-1.26,.29-2.24-2.85,.96-4.23,.49-6.62,.99-.3,1.73,2.52,.44,3.15,.63,.23,.07-.97,.88-.57,.98,.58,.14,2.72-.67,2.45,.78-.71,.16-.47,.62-.57,.98Zm42.36-6.88c-2.82,1.34-4.86,3.48-7.29,4.94-1.79,1.07-1.23-.31-2.92,1.06-1.65,1.4-4.14,2.58-7.21,3.86-3.08,1.24-6.7,2.69-10.83,3.89-.87-.36-2.67,.14-3.31-.44-.69-1.79,4.03-2.21,1.56-3.44,1.24-.66,2.08-.82,2.93-.98,.85-.15,1.69-.33,2.9-1.06-.25-.88-1.41-.76-2.91-.45-1.49,.32-3.31,.93-4.8,1.24-.27-.71,.7-1.1,.35-1.82,1.02,.14,2.08,.09,3.18-.1,1.1-.17,2.22-.49,3.37-.93,2.31-.84,4.76-1.9,7.44-2.64,.6,.75-.81,1.09-1.95,1.49-1.57,.81-1.84,1.9-2.36,2.94,3,.36,2.24-1.04,3.44-1.95,1.46-.43,2.9-.78,4.3-1.1,1.41-.31,2.73-.71,4.03-1.08,2.58-.77,4.94-1.66,6.92-3.13,.66,.35,1.82,.19,3.17-.29Zm-13.51,5.83c-.37-.5-1.76,.05-2.45-.11-.01,1.73,3.18,.34,5.5-.51,4.9-1.93-1.03-.3-3.05,.62Zm-22.07,.29c.08-.49,1.39-.65,1.27-1.2-.3-.88-3.13,.63-4.47,.72,.11,.39,.96,.09,1.55,.04,.66,1.19-1.61,2.35,1.83,1.26-1.37,1.5-2.02,1.24-4.32,1.54-.58,.08,1.45-.93,1.39-.78,.09-.25-.94,.11-2.14,.42-1.2,.32-2.55,.71-3.04,.73-.51-.81,.9-1.01,2.06-1.29,.43-.51,.95-.98,1.55-1.45,.6-.48,1.28-.94,2.07-1.37,1.58-.86,3.56-1.6,6.05-2.2-.3,.43-.6,.86-.43,1.41,1.36-.91,.84-2.32,3.95-2.76,.07,1.12,.73,1.69,2.58,.97-.04,1.29-1.05,2.06-2.41,2.54-1.36,.5-3.03,.84-4.35,1.49-.33-1.1,1.02-1.14-.39-1.63-1.1,.47-.32,1.45-2.73,1.58Zm55.38-27.12c.13,.65-1.91,1.14-1.62,1.76-1.77,.81-3.86,1.92-5.36,2.58-2.39,1.05-5.15,2.54-5.86,1.41,1.55-.91,1.76,.01,3.51-1.21l-.51-1.15c-1.24-.18-2.21,.24-3.33,.89-1.13,.6-2.42,1.41-4.24,2.03-1.36-1.15,1.85-1.49,3.06-2.21,.99-.55,2.01-1.76,2.99-2.32,3.18-1.89,6.94-3.23,9.04-4.84,2.02,.04-.62,1.22,.26,2.22-1.36-1.24-6.21,1.4-8.3,3.07,1.03,.82,2.62,.86,4.85,0-.06-1.18-.9-1.24-2.52-.18,2.02-2.27,5.37-.92,8.02-2.05Zm-73.09,30.98c-2.68,2.3-3.91-.22-8.26,.89,3.33,.02,1.69,1.21-1.28,1.9,.18-2.05-2.98-.12-4.73-1.48,.48-.38,3-1.67-.13-1.25,.27-.86,1.2-1.03,2.32-1.08,1.13-.07,2.47,.03,3.55-.17-.38,1.05-3.84,.92-2.71,2.55,.72-.13,.52-.6,.65-.95,1.73-.27,3.46-.55,5.19-.82,1.18-.26-1.48-1.79,1.98-2.02,1.67,1.03-2.5,3.52,3.41,2.43Zm94.33-38.8c2.33-1.29,2.21,.06,4.04-2.05,1.26,1.19-3.89,3.18-4.04,2.05Zm47.07-380.48c-.44-.18-.9-.57-1.37-1.09-.5-.5-1.02-1.12-1.54-1.78-1.05-1.32-2.12-2.81-3.11-3.79,.9,.32,1.93,1.48,2.97,2.81,1.05,1.33,2.14,2.8,3.05,3.85Zm-46.87,379.36c-.97,1.27-2.55,2.55-2.14,3.78-2.28,1.3-4.89,3.16-5.77,2.05,1.74-.09,4.43-2.32,5.78-3.53-.23-.34-.96,.2-1.5,.42,.14-1.03,2.23-2.7,3.63-2.72Zm56.03-401.23c.69-.33,1.57,.38,2.59,1.76,.94-.66-.15-1.49,1.31-1.05,1.19,.84,2.25,1.89,3.3,3,.52,.56,1.05,1.13,1.56,1.72,.5,.6,1.01,1.2,1.54,1.79,1.67,1.8,3.36,3.63,5.09,5.49,.86,.94,1.74,1.88,2.57,2.88,.81,1.01,1.61,2.05,2.38,3.13,.69,.95,.83,1.95,.93,2.12,1.07,1.58,2.22,3.11,3.4,4.62l.89,1.13,.85,1.15,1.73,2.3c1.16,1.53,2.31,3.06,3.47,4.59,1.15,1.54,2.28,3.08,3.23,4.73,.7,1.16,1.08,3.02,1.83,4.22,.45,.73,1.75,1.5,2.21,2.31,.59,1.06,.86,2.51,1.44,3.55,1.22,2.34,2.68,4.93,4.11,7.61,.71,1.34,1.42,2.69,2.08,4.05,.6,1.38,1.16,2.76,1.63,4.1-1.34-.13-.59,1.4-1.65,1.49,1.69,2.6,.72-.51,1.95-.79,2.56,5.04,3.22,7.67,5.24,9.48,1.52,1.29,.36,2.16,.66,3.02,.54,1.57,2.38,2.57,1.84,5.04,2.24-1.68,1.52,1.84,2.85,3.13-.08-1.63,.64-2.44,1.02-3.56-1.08-.99-1.38,.8-2.93-.68-1.03-2.21-.21-2.79-1.45-5.2l1.59-.55c-.75-2.49-2.25,.31-3.71-2.79,.67-.35,1.16,.59,1.85,.16-.18-.74-.45-1.31-.75-1.78-.32-.47-.66-.85-.97-1.21-.62-.73-1.1-1.39-.99-2.59-1.71-1.66-3.41-3.14-4.86-7.18,1.04,.73,2.03,2.02,2.97,3.77,.23-.91-.03-2.21-.04-3.32-.7-1.55-.53,1.02-.47,1.03-.76-.12-.61-1.23-1.3-1.97-.84-.94-2.48-.25-2.41-3.16,.69-1.17,1.17,1.31,1.77,1.75,.59,.45,1.37-.82,2.19,.76,.32-3.35-1.52-4.41-2.57-7.37-1.81,.81,1.08,2.94,.54,4.02-1.22,1.58-2.15-1.87-3.26-1.93-.78-2.49,.54-.67,1.58-1.57,.08-1.6,.83-2.72-.85-5.61,1.34-.65,3.7,1.43,2.85,2.98,1.28,1.76-.2-2.21,1.57-1.59,1.65,1.05,1.59,3.31,2.4,4.98,.33,.68,1.16,1.37,1.75,2.68,1.39,3.37,2.31,7.55,3.87,11.21,.62,1.49,1.26,1.8,1.59,2.77,.93,2.67,1.87,5.7,2.83,8.68,.47,1.5,.99,2.97,1.44,4.41,.44,1.45,.88,2.84,1.35,4.13,.81,2.23,.93,3.97,1.46,6.12,.2,.8,.4,1.61,.61,2.41,.17,.81,.35,1.63,.52,2.45,.35,1.63,.71,3.27,1.06,4.92,.36,1.64,.71,3.29,1.07,4.93,.35,1.64,.59,3.32,.88,4.97,.54,3.32,1.11,6.61,1.52,9.89,.33,3.29,.61,6.55,.8,9.75,.07,1.27-.33,2.07-.36,3.17-.14,2.71,.58,5.28,.94,8.48,.13,1.23,.05,2.11,.05,3.02,.01,.91,.11,1.83,.55,3.16,.35,2.42-1,2.1-1.01,3.92,1.05,3.79,.03,8.12,.97,12.33,.15,1.38-1.63,.04-1.28-1.54-1.43,2.81,.69,6.89,1.35,6.18-.2,1.41-.26,3.02-.53,4.33-.3,1.31-.75,2.32-1.61,2.52,.91,1.84,.48,4.31,.09,6.7-.2,1.2-.38,2.38-.39,3.46-.04,1.09,.08,2.08,.57,2.92,.27,1.46-.94,1.76-1.02,2.22-.09,.53,.41,1.32,.23,2.33-.3,1.65-.78,3.91-1.31,6.31-.59,2.39-1.15,4.94-1.44,7.22-.14,1.1-.35,3.76,.33,3.93-.18,.88-.84,.51-1.34,.54-.24,4.19-.83,7.49-1.85,10.5-.12,.73,.4,.69,.69,.93-1.21,2.65-.55,4.33-2.07,5.78-.6,1.59,.54,1.25,.31,2.43-.89,1.56-1.87,4.83-2.75,7.95-.55,1.89-1.23,5.57-1.45,6.73-.29,1.57-.13,3.23-.44,4.67-.68,2.72-1.57,5.4-2.45,7.98-.9,2.57-1.76,5.04-2.72,7.23-.86,2.08-1.34,4.36-1.92,6.41-.59,2.05-1.22,3.89-2.58,4.96-.4,1.23,.02,1.89-.48,3.15-.45,1.14-.99,1.04-1.32,1.92-.6,1.64-.99,4.2-1.75,5.96-1.86,3.93-4.42,7.24-6.24,11.45-.46,1.08-.3,1.38-.74,2.22-.62,1.17-1.64,2-2.26,3.12-.47,.86-.42,2.29-.8,3.1-.17,.36-1.05,1.03-1.5,1.78-.71,1.17-.43,1.64-1.18,2.88-1.61,2.51-3.38,5.06-5.05,7.57-.84,1.25-1.64,2.5-2.41,3.71-.81,1.18-1.56,2.35-2.23,3.49-.64,1.09-1.15,.79-1.67,1.63-.73,1.18-1.31,2.73-2.15,4.33-.43,.8-.9,1.63-1.54,2.4-.64,.76-1.41,1.5-2.35,2.16-.43,1.57-1.58,3.05-3.02,4.71-1.45,1.65-3.12,3.52-4.86,5.7-.54-.59,1.45-2.1,.56-2.56-1.31,1.39-1.09,2.23-1.07,3.14-1.51,.59-3.56,3.6-5.36,5.48-1.26,1.23,.32,1.47-.6,2.59-5.14,5.88-10.61,10.42-15.2,15.21-1.21,1.3-1.67,2.59-2.83,3.78-1.65,1.77-3.63,3.24-5.58,4.72-1.96,1.47-3.93,2.92-5.79,4.47-1.11,.96-2.19,2.4-3.37,3.2-1.17,.81-2.22,.83-3.56,1.65-1.19,.74-1.63,1.78-2.82,2.66-1.15,.83-2.32,1.75-3.61,2.55-1.29,.8-2.61,1.62-3.95,2.45-2.69,1.62-5.39,3.31-8.07,4.77-.53-.43,.09-.83,1.05-1.36,.95-.54,2.27-1.18,3.19-1.96,1.12-.94,3-4.43,4.43-3.02,2.36-1.35,.74-2.28,3.07-3.65,.38,.61,1.07,.56,1.94,.12-.83-.54,1.01-3.09,3.42-3.11-.27-1.76-2.67,1.19-3.04-.33,1.96-1.66,3.39-2.79,4.71-3.84,1.32-1.06,2.57-2,4.04-3.45-.49-1.7-2.96,1.56-3.28-.55,4.61-2.63,5.72-6.88,10.04-7.88,1.05-1.18,.78-1.54-.24-1.45,.89-1.58,2.77-1.09,2.2-2.02,1.37-1.12,.11,1.43,.55,1.78,1.61-2.17,2.93-3.91,4.42-5.54,1.47-1.64,3.2-3.08,5.38-4.91-.3-.28-.86,.42-1.33,.77,1.87-1.93,5.99-7.55,9.37-9.7,1.92-1.84,.14-2.41,2.05-4.24,1.05-.28,2.28-1.39,3.58-2.81,.96-.86,.69-1.28,.36-1.68,.61-.57,1.47-1.16,2.06-1.79,.57-.64,.9-1.3,.5-1.92-.54-.1-1.19,.71-1.94,1.65-.75,.93-1.54,2.04-2.23,2.62-.68-.89-1.52-1-2.71,.55-.34,.5-.18,.84-.67,1.4,.63-.07,1.44-.99,1.91-.27-1.61,1.66-3.08,3.21-4.45,4.69-1.38,1.47-2.76,2.77-4.01,4.07-2.55,2.56-4.73,5.01-7.04,7.28-2.33,2.25-4.64,4.49-7.19,6.86-.64,.59-1.29,1.2-1.97,1.8-.71,.58-1.43,1.17-2.17,1.77-1.5,1.2-3.09,2.46-4.82,3.78-1.03,.14-.63-.33-.78-.99-3.51,3.14-6.57,5.75-9.87,7.76-.58,.57,.08,.98-.69,1.58-1.77,1.03-3.56,2.14-4.14,.5-1.32,1.51-1.69,1.59-.27,2.22-.78,.2-1.17-.37-2.3,.55-.6-1.44,1.71-3.04,2.2-4.6,2.6-1,2.41-1.15,5.49-3.63,1.79,.52-1.83,1.71-1.01,2.35,1.76-.08,4.68-3.43,2.18-3.23,2.53-1.41,2.85-3.28,4.62-3.6,.8,.48-.29,1.33-1.19,2.05,1.53,.26,3.77-2.85,2.87-3.46,1.55-1.03,3.14-2.21,4.74-3.55,.8-.67,1.6-1.38,2.4-2.12,.8-.75,1.53-1.59,2.28-2.44,1.66-1.24,2.95-1.36,4.6-2.55,.52-.62-.19-.96,.51-1.63,.65-.56,1.31-1.15,1.98-1.76,.68-.61,1.34-1.25,1.97-1.95,1.28-1.37,2.6-2.77,3.88-4.14,1.29-1.37,2.57-2.69,3.81-3.88,1.26-1.18,2.36-2.35,3.48-3.22,1.53,.4-1.03,2.17-1.82,3.34,2.8-.96,3.15-4.43,3.45-5.84,1.7-1.57,3.25-3.09,4.7-4.59,1.39-1.55,2.67-3.09,3.91-4.65,1.25-1.56,2.45-3.13,3.68-4.77,.63-.81,1.21-1.66,1.79-2.55,.59-.89,1.19-1.79,1.81-2.72,.95,.03,1.51-1.62,1.43,.16,1.74-1.61,.51-1.86,1.04-2.91,.97-1.1,1.94-2.27,2.9-3.46,.9-1.23,1.78-2.49,2.63-3.75,1.7-2.53,3.27-5.05,4.54-7.38,1.23-2.48,2.75-5.61,4.04-7.92,1.1-2,2.36-3.1,3.21-4.98,.5-1.05,.77-2.46,1.31-3.5,.53-1.02,1.48-1.16,2.08-2.25,.25-.45,.94-2.08,1.63-3.82,.64-1.77,1.23-3.66,1.44-4.58,.17-.77-.5-.83-.16-1.71,1.27-1.38,1.5-2.04,2.49-4.54,.93-2.28,2.08-2.53,1.3-4.26,.78-2.2,1.92-1.87,2.65-4.49-.5-.07-.82,1.12-1.19,1.91-1.25-1.36,.61-2.73,1.22-4.28,.4-1.08,.84-2.13,1.18-3.21,.34-1.08,.68-2.15,1.02-3.22,.67-2.15,1.34-4.3,2.03-6.5,.75-2.19,1.28-4.51,2.01-6.91,.69-2.4,1.51-4.91,2.36-7.6,.48-1.67,1.05-4.06,1.63-6.64,.57-2.58,1.21-5.33,1.55-7.77,.21-1.31,.74-1.43,.94-2.82,.4-2.95-.03-6.72,1.81-7.95-.89-.81-.46-7.58,.32-8.94,.18-.31,.4,1.77,.13,2.26,.7,.34,1.27-4.02-.04-2.99,.43-.54,.8-1.28,1.05-2.23,.23-.96,.35-2.13,.37-3.55-.41-.03-.4,.86-.54,1.42-.36-1.54-.21-3.81,.04-6.22,.13-1.21,.26-2.46,.39-3.66,.11-1.21,.12-2.38,.1-3.43,1.16-2.68,2.26-5.75,1.99-11.04-.8,.44-.18,3.75-1.72,2.91,.31-2.12-.07-3.36-.36-4.65-.32-1.29-.65-2.62-.53-4.97,.07-1.38,.27-2.8,.44-4.28,.14-1.48,.19-3.01,.09-4.6,.5,.1,.44,1.34,.56,2.21,1.03-1.64-.3-4.94-1.44-2.92-.22-1.67-.07-2.77,.66-2.98-1.37-4.29-1.3-11.47-2.47-16.86,.77,1.18,1.12,.34,1.11-.94-.04-1.27-.42-2.98-.94-3.55-1.45,.65,1.71,3.56-.38,3.02-.62-3.5-1.18-7.39-1.71-11.01-.65-3.6-1.34-6.93-1.94-9.34,.71,.07,.57-.83,1.08-.97-.56-.66-1.12-1.3-1.69-1.92-.72-3.1-1.44-6.36-2.37-9.32-.41-1.28-.76-2.6-1.1-3.94-.39-1.33-.75-2.69-1.1-4.08-.72-2.76-1.4-5.61-2.28-8.41-.47-1.3-1.43-2.75-1.92-4.05-.55-1.45-1.18-3.2-1.85-5.12-.35-.96-.67-1.97-1.07-2.98-.41-1.01-.83-2.05-1.25-3.1-1.73-4.19-3.47-8.62-5.43-12.07-1.15-2.13-2.56-3.69-3.66-5.65-1.13-2.12-2.29-4.15-3.34-6.22-1.06-2.07-2.11-4.13-3.29-6.16-1.5-2.53-3.24-4.87-4.85-7.21-1.64-2.32-3.18-4.64-4.79-6.81-.76-1.08-.49-1.53-1.31-2.67-.85-1.19-1.51-1.44-2.01-2.21-.53-.81-.9-1.79-1.41-2.65-.26-.43-.55-.84-.91-1.18-.38-.33-.84-.59-1.41-.76-5.33-7.23-6.14-8.11-11.85-15.04,.52-.54,1.27,.14,1.78-.49l3.81,4.54c.96,1.29,1.4-.64,2.14-.7-.88-1.41-1.3-.35-2.1-1.21-1.29-1.37,.09-.93-.3-1.66-.6-1.13-1.62-1.26-1.77-1.45-1.15-1.45-.12-2.71-1.75-3.39Zm-6.34,354.05c-.97,1.14-3.41,.82-3.38,2.88,.96-1.12,3.41-.83,3.38-2.88Zm-18.45,26.25c-1.39,.56-3.06,1.88-4.57,2.74,.6,1.49,4.62-.62,4.78-1.27-1.82,1.23,.48-1.26-.21-1.47Zm8.72-1.42c-.39-.45-1.55,.15-2.74,.92-1.18,.78-2.3,1.82-2.43,2.46,.79-.36,1.56-.65,2.4-1.13,.85-.47,1.76-1.12,2.76-2.25Zm17.71-19.18c-1.41,1.06-5.22,3.83-4.49,5.25,1.33-2.39,3.68-2.85,4.49-5.25Zm5.36-20.49c-1.32,.22-3.78,5.48-2.59,4.61-.28-1.07,3.07-3.6,2.59-4.61Zm33.86-38.64c-.65,.8-1.16,1.62-1.56,2.43-.4,.81-.63,1.63-.61,2.48,.5-.67,1.35-1.61,1.9-2.53,.53-.94,.81-1.84,.27-2.37Zm9.05-21.02c-1-.2-.41,2.07-.16,2.44l1.4-3.14,1.26-3.19c-1.16-1.28-1.57,2.58-2.49,3.89Zm17.19-89.62c-.39,2.34,.28,3.11,.95,3.87,.11-1.92,.23-3.88-.95-3.87Zm-3.6-4.02c.09,.69,0,1.58-.14,2.53-.15,.96-.42,1.98-.6,2.94-.38,1.93-.53,3.64,.51,4.19,.74-2.79,.29-1.12-.23-2.26-.57-1.23,.27-2.93,.9-4.42,.57-1.49,.94-2.74-.43-2.98Zm-.59-16.32c-.74,1.41-.06,4.55,1.32,4.47,.33-2.87-.75-3.23-1.32-4.47Zm.82-1.48c-.14-2.17,.92-2.29,.78-4.46-1.43-.92-1.68,3.78-.78,4.46Zm7.1-32.94c.17,1.02,.3,2.03,.41,3.05,1.04,.51,1.29-.52,1.11-1.55-.2-1.02-.87-2.03-1.52-1.51Zm-2.23-11.34c1.19,3.95-1.65,2.66-.69,6.3,1.34-.25,.93-2.79,1.47-4.09,1.19-1.14,.71,2.42,1.91,1.28-.39-2.61-1.68-2.67-2.69-3.5Zm-1.46-25.02c-.28-1.01-.5-2.03-.83-3.02-1.7-.18-.57,4,.83,3.02Zm-5.35-3.42c.6,2.12,1.21,3.72,2.09,4.24-.13-.86,.15-1.28,.42-1.71-.58-1.89-1.46-2.72-2.51-2.53Zm-11.03-38.84c.09-1.75,.96-2.92,.26-5.27-1.9-.52-.21,2.55-.17,3.52,0,.28-.72,.1-.77,.34,.02-.11,.32,1.75,.29,1.57,.13,1.05,.78,1.92,.93,3,.74,.11,.74-.36,.5-1.02-.26-.66-.79-1.49-1.04-2.14Zm3.4,4.51c.51,1.2,1.02,2.41,1.53,3.61,1.67,.64-.81-5.22-1.53-3.61Zm0,7.55c1.72-1.38-1.31-3.82-.56-5.64-.8,.59-1.31-1.9-2.08-1.67,.63,2.93,1.86,3.9,2.64,7.31Zm5.85,4.51c-.2-2.03-1.36-1.9-2.19-3.39-.4-.71-.3-4.4-1.91-3.46,0,.8,.68,2.68,1.55,4.27,.83,1.6,1.8,2.94,2.56,2.58Zm3.44,12.09c-.77-1.76-1.66-3.7-2.87-3.2,.91,1.7,1.64,3.69,2.87,3.2Zm-46.61-64.17c-.49,.71-1.35,1.22-.14,2.78,1.48,.6,1.99,.72,2.53-.76-.9-1.86-1.55-.79-2.4-2.02Zm-8.22-7c.43,.72,.32,1.19,.21,1.67-.46-.64-1.3-1.38-.79-.34,1.73,.72,1.24,2.21,3.12,4.12,1.64-.82-.69-2.81-1.99-4.02,.69-.22,.32-1.46-.55-1.43Zm-75.88,390.08c-3.12,1.79-3.18,2.82-5.74,5.04-2.11,.39-3.91,.31-5.69,.22,.67-2.09,3.54-4.09,5.96-6.11-.66,1.33-1.38,2.66-3.75,3.95,.3,1.1,1.52,.75,3.16-.28-.25-1.06,1.23-3.17,3.07-4.71,1.87-1.5,3.99-2.66,5.32-1.48-1.59,.91-2.32,.51-3.15,1.9,3.59,.11,7.1-5.31,9.86-5.02l-.87-1.44c-2.52,1.17-2.73,2.27-4.8,3.43-2.46-1.32,4.79-5.44,5.83-4.55,1.49-1.51,2.9-2.53,4.87-3.27-.15,1-1.86,2.1-1.53,3.08-1.17,.74-1.16-.89-2.49,.16-.85,.63,.43,1.2-.6,1.84,.49,.37,1.77-.66,2.71-1.24,.28,2.04-2.41,3.91-4.57,5.34-2.08,1.34-5.29,1.7-7.61,3.14Zm3.28,4.42c-.65,.38-1.32,.73-1.98,1.1,1.15-1.76-1.36-.15-1.66-1.49,2.04-1.19,2.78-.28,3.64,.39Zm9.65-8.85c2.56-1.37,2.21-1.49,3.95-2.17,.33,.55-4.12,3.92-3.95,2.17Z"/></g></svg>