<?xml version="1.0" encoding="utf-8"?>
<!-- Generator: Adobe Illustrator 26.2.1, SVG Export Plug-In . SVG Version: 6.00 Build 0)  -->
<svg version="1.1" id="a" xmlns="http://www.w3.org/2000/svg" xmlns:xlink="http://www.w3.org/1999/xlink" x="0px" y="0px"
	 viewBox="0 0 563.1 552.2" style="enable-background:new 0 0 563.1 552.2;" xml:space="preserve">
<style type="text/css">
	.st0{font-family:'Futura-Medium';}
	.st1{font-size:304.87px;}
	.st2{fill-rule:evenodd;clip-rule:evenodd;}
</style>
<text transform="matrix(1 0 0 1 124.92 371.9197)" class="st0 st1">M</text>
<path class="st2" d="M61.2,369.7c0.8-0.3,1.2,1.4,2.1,0.6L64,372c-0.4,0.5-1.9-1.9-1.4-0.1C62,371.9,61.6,370.5,61.2,369.7
	L61.2,369.7z M55.5,362.9c0.5,0,0.7,1.1,1.2,0.9c0.9,1.1-0.4,1.1-0.3,1.5c0,1.1,2,3.3,0.3,3.3C55.5,366.2,55.4,364.4,55.5,362.9
	L55.5,362.9z M62,369.4c-0.4-1-0.9-1.9-1.2-2.9C61.9,366,63.8,369.2,62,369.4z M45.1,336.8c1,1.4,1.2,1,1.2,3.1
	c0.4,1.1,1.5,0.1,2,0.9l1.6,6.3c0.2,2.1-0.8-1-0.9-1.8c-0.9,0.4-0.2,2.4-1.5,2.4c0.4,1.1,1.5,0,2,0.8c1.5,3.5-0.1,4.5-0.7,6.3
	c1.1,1.7,1.7,3.7,1.2,5.1c-1.8-2.5-1.5-7.4-1.9-10.4c-0.3,0.5,0,1.5-0.8,1.6c-0.6-2.3-1.4-5,0.2-5.5c0-3.8-2.9-5.5-3.5-8.6
	c0,0.2,1.2-0.7,0.6-1.5c-1.2,0.1-0.4,2.3-2.2,1.8c0.4-2.3-1-2.8-1.3-4.5c-0.3-1.2,0.4-2.1-0.4-4c0.4,0,0.5,0.7,0.7,1.2
	c1.5,2,4.3,0.8,5.2,4.3c-0.8-1.5-2.5-0.7-3.4-2c-0.5,0.2-0.1,1.2,0,2c1.1,0.3,1.4,0.5,3.1,0.7C46.6,336.6,45.7,336.6,45.1,336.8
	L45.1,336.8z M57.1,357.6c1.2-0.9,2.2,1.6,1.9,2.7C58.1,360.5,57.6,359.1,57.1,357.6z M53.1,344.2l0.3,1.2c0.9,1.9-0.1,2.1,0.1,3.3
	c1.4,5.5-0.4-0.9-1.4-1.6C52.5,346.2,51.9,344.4,53.1,344.2L53.1,344.2z M56.6,353.1c0.6,1.2,0.2,1.7,0.3,2.5
	c-1-0.5-1.3-3.1-2.8-1.8C53.9,352.4,56.2,352.7,56.6,353.1L56.6,353.1z M55,361.7c0.4,1.7-1.2,0.5-1.2-1c-0.8,0.9,1.7,4.2,1,5.1
	c-1.3-1.1-0.6-2.2-2-4.1c0.9-0.5,0-2.4,1.3-2.5C54.9,360.2,53.7,361.7,55,361.7L55,361.7z M60.7,374c-1.4,1.4-3.7-4.2-1.8-4.1
	C59.3,371.7,59.6,372.5,60.7,374z M410.6,479.7c0.2,1.6,2.1-0.6,3.3-1.2c0,1-1.9,2.9-2.8,1.9c-1,0.8,0.4,1.4-0.2,2.2
	c-1.8,0.3-3.2,2.2-4.8,2.7c-0.3,0.1-0.4-1.1-0.7-1.1c-0.5,0-3.9,2.8-2.7,0.7c2.1-1.8,2.9-1,4.1-1.1c1.4-1,2.5-2,2.9-3
	c-1.7-1-1.8,1.2-3.4,2.3c-1.4-0.2-4.1,1.4-6.9,3.2c-1.4,0.9-2.9,1.9-4.3,2.7c-1.4,0.9-2.8,1.4-3.9,1.7c1-0.7,2.1-1.3,3.2-2
	c1.1-0.7,2.2-1.4,3.3-2.2c2.3-1.5,4.7-2.9,7-4.4c4.6-3.1,9.3-6,13-8.7c-0.3,1-1.9,2.1-3.5,3.2C412.6,477.7,411,478.7,410.6,479.7
	L410.6,479.7z M424.5,462.3c-0.5-2,2.4-2.8,3.3-4.4c0.5-1,0.3-0.6,2-1.7C432.7,457.8,424.9,461.9,424.5,462.3L424.5,462.3z
	 M419.1,465.1c-0.2,0.5-0.1,1.5,0.8,1c1.2-0.6,0.8-1.6,0-1.1c0.2-1.8,2.7-1.6,4.1-3.4l0.5,0.7c-3.6,3.6-6.7,7.5-10,10
	c-1.8,1.3-2.8,0.5-4.6,2.8c-1,0-0.6-0.4-0.7-1c-1.2-0.6-3.3,1.1-5.1,1.9c-1.4-1,4.7-2.7,2.8-2.9c0.3-1.8,2.3-0.1,3.1-0.1
	c1-1.5,1.8-0.3,2.1-0.5c0.7-0.3,1.5-1.4,2.1-1.6c0.3-0.1,0.8,1,1.5-0.1c0.5-0.5,0-0.6-0.5-0.7c-1.3-0.3-1.1,0.8-3.1,1.3
	c-0.1,0,0.3-1.2,0-1.1c-0.6,0.2-1.2,0.9-1.8,1.4c-0.6,0.4-1.1,0.7-1.3-0.1C413.5,468.5,415.9,467.2,419.1,465.1L419.1,465.1z
	 M418.8,466.9c-1.1,0.6-1.7-0.2-3.1,1.3C415.8,469.7,419,468,418.8,466.9z M55.2,367.1c0.9,2.5-0.7,3,1,5.9c-2-1.2-2.6-2.9-2-4.9
	c-1.4-0.9-3.2-3.4-2.4-5.4c0.4-1.8,0.3,1.7,1.1,3.1C53.5,367,54.5,366.7,55.2,367.1z M432.8,451.7c1.7-2,5.6-2.6,2.9,0.2
	C436.3,449.3,433.5,453,432.8,451.7z M430.9,457.5l2.4-2.3C434.9,455.5,430.9,459.2,430.9,457.5z M63.8,374.8l-0.7-1.8l1.6-0.6
	l0.7,1.8C64.2,373.5,64.9,374.4,63.8,374.8L63.8,374.8z M401.9,475.9c-0.2-1.2,2-2.4,1.6-3.6c1.9-1.2,4-2.7,5.9-4.1
	c1.9-1.5,3.8-2.8,5.4-3.5c-1.2,1.6-3,2.9-4.7,4.1s-3.6,2.2-5,3.5C403.5,473.7,403.5,474.8,401.9,475.9L401.9,475.9z M203.6,494.2
	c1.3-0.7,2.7-0.6,4.3-0.2c1.6,0.5,3.5,1.2,5.6,1.9c-0.9,1.2-3-0.6-4.9-1C206.7,494.6,205.3,494.9,203.6,494.2L203.6,494.2z
	 M45.7,329.4c0.6,2.7,1.5-1.4,2,1.6c0.3-0.5,0.1-1.5,1-1.5c0.6,1.1,0.2,2.1,0.2,3.2c0.1,1.1,1.3,3.5-0.2,3.3
	c-0.4-1.4-0.4-2.4-0.2-3.2c-0.2-1.4-1.4,0.2-1.2,0.2c-0.9-0.3-0.6-2.8-2-1.6c0.4-3.1-1.6-3.4-1.2-5.7c0.4,0.3,0.8,0.5,1.4,0.4
	C45.4,327.2,46.6,329.4,45.7,329.4L45.7,329.4z M390.5,481c0.3-1.5,2-2.1,3.3-2c0.5-0.3,0.2-0.7,0.1-1.1c1.7,0,2.4-1.9,3.6-2.7
	c0.6-0.4,2.2-2,2.6-0.7c-1.3,0.6-2,1.3-2.6,2.1c-0.6,0.8-1,1.6-1.7,2C394.2,479.9,392.8,479.4,390.5,481L390.5,481z M508.2,217.5
	c1.4-1.4,4.3,5.4,1.8,5.2c-0.3-1.3,0.9-1.1,0.1-2.9c-0.5-1.6-0.9,1-0.9,1.6c0.6,2.9,2.7,1.1,3.1,4.3c-1.5-0.2-3.5-2.3-4.1-4.8
	C507.9,219.3,508.7,219.2,508.2,217.5L508.2,217.5z M514.7,273.7c0.2,1.6,1.1,4.3-0.8,4.1c0.2-1.3,1.2-1.2,0.8-3.4
	c-1.4-0.5-0.5,2.8-2.1,2c0.2-1.8,1.5-6.6-0.1-5.4c-1.1-1,0-3.7,1.1-3.4c0.2,0.8-0.1,2,0.2,2.7c0.1,0.4,0.8,0.5,0.8,0.7
	C514.9,271.8,514.6,272.9,514.7,273.7L514.7,273.7z M519.7,263.3c1.1,2.1,0.6,7.2,0.9,10.4c-0.7-0.9-1.4-1.8-3-1.4
	c-0.5-2.3,1.3-1.1,2.1-1.4c0.4-1.9-0.9-0.8-1.3-1.4c-0.3-0.4-0.6-1.6-0.1-1.4c-0.7-0.3-1.2-0.2-1.6,0.7c-0.2,0.4,0.4,0.8,0.5,0.7
	c-0.2,0.7-1.8,2.8-1.2,4.1c-1-0.8-1.1-3.5-0.1-4.1c-0.1-3.7-1.5-3.4-0.8-6.8c1.1,0,1,2.3,1.1,4.1l1.3,0c-0.2-2.7-1.6-2.7-0.8-5.5
	c-0.1-0.8-0.8-0.5-1.3-0.6c-0.4-1.9,0.8-1.4,0.7-2.8c-0.1-1.9-1.6-1.2-1.3-4c1.4-0.1,1.8,1.8,2.1,4c1,2.4,1.7,2,3.1,2.6
	c0.8,2.6-1.9,0.2-1.1,2.8C519,264.2,519.8,264,519.7,263.3L519.7,263.3z M505.8,227c-0.9-0.8,0.1-1.4-0.1-2.7
	c-0.3-1.2-1-1.8-1.1-2.5c-0.2-1.8,0.5-3.1,0-4.9c2.7,1.2,0.2,4.9,2.3,7.1C506.3,224.8,505.9,225.8,505.8,227L505.8,227z
	 M508.9,236.1c-0.7,0.4-1.9-2.8-1.1-3.2c-0.9-1.5-2-2.1-2.3-5c1.3,3.2,2,0.8,1.8-1.7c2.8,2.4,0.4,5.8,2.3,9.2
	C509.1,235.2,508.9,235.5,508.9,236.1L508.9,236.1z M514.2,296.2c0.1-0.7,0.1-1.4,0.2-2c1,0.5,2.1,0.8,1.9,2.9
	C515,297.5,515.2,296,514.2,296.2L514.2,296.2z M519.7,296c0.3-1.3,1.3-1.2,1.1-3.4c-0.2-0.7-0.9-0.8-0.8-2.1
	c0.6,0.1,1.2,0.2,1.3-0.6c0.2,0.9,0.4,2.4,0.2,3.7C521.3,294.8,520.8,295.9,519.7,296L519.7,296z M520.9,289.1
	c-1.7-0.9,0.2-3.3-0.2-6.3c-1,0.6-0.8-0.5-0.7-2.1c0.1-1.6,0.4-3.7-0.2-4.8c1.8-0.5,1.1,3.6,1.3,5.6
	C521.3,284.2,521.8,287.4,520.9,289.1L520.9,289.1z M518.7,290.3c-0.4,0-0.3-0.9-0.4-1.4c-0.7-0.1-1.1,0.5-1.3,1.3
	c-0.6,0.1-0.4-4-1.2-1.5c-1.5-0.4,0.4-2.4,0.5-2.7c0.2-0.8-0.1-2,0.1-2.7c0.1-0.3,0.8-0.4,0.9-0.7c0.4-1-0.2-2.4,0.9-2
	c0.1-1.2-0.5-3.5,0.8-2.8c-0.6,1.8-0.3,4.2-0.9,6.2c-0.3,1.2-2.7,2.3-1,4.1c0.8-1.2,0.5-4.5,2.2-4
	C519.6,287.6,517.8,287.4,518.7,290.3L518.7,290.3z M504.5,218.3c-0.3,0.5-0.5,1-0.8,0.2c-0.5-1.3-1-3.6-1.7-6.1
	c-0.7-2.5-1.4-5.2-2.3-7.5c-1-2.2,0-2.5,0.4-0.1c0.9,2.2,1.9,4.5,2.7,6.7c0.4,1.1,0.8,2.3,1,3.4
	C504.2,216.1,504.4,217.2,504.5,218.3L504.5,218.3z M513.4,285.9c-0.6-1.3-2.3-0.9-2-3.5c0.5,2,2.2-1.7,2.1,1.4
	c0.9-0.4,0.2-3.4,1.8-2.7c-1.3,2.5-0.2,5.8-1.2,9.5c-1-1.8-0.4,1.1-1.7,0.6C512,288.2,513.6,288.7,513.4,285.9z M509.3,284.4
	c-0.5,1.1-0.4-0.1-0.3-1.6c0.1-1.5,0.1-3.2-0.4-3.1c0.6-1.9-0.5-2.8,0.4-4.6c0.3,2.5,1.8,5.9,1.3,7.4
	C509.4,280.2,509.3,281.9,509.3,284.4L509.3,284.4z M512.4,236.9c0-1.4-1-1.4-1.1-1.9c-0.4-1.7,0.9-1,0.7-2.9c1.7,1.3,2.1-0.6,3,2.3
	c-1.2,0.7-1.5-1-2.6-0.3c0.1,1.8,2.1,3.6,2.4,1.7c0.5,0,0.3,0.6,0.1,0.7l0.2,1.4c-1.2,0.7-1.1-1.8-2.3-1c0.9,2.9,1.7,3.4,1.4,6.1
	c-1.2,0.1-1.8-1.4-2.5-2.4C511.4,238.3,512.5,238.5,512.4,236.9L512.4,236.9z M481.6,162.1c-0.1,0.8-0.8-0.4-1.6-2
	c-0.4-0.8-0.9-1.6-1.3-2.4c-0.5-0.8-0.9-1.5-1.2-1.9c1.1,0,1.7,1,2.3,2.2C480.4,159.4,480.8,161,481.6,162.1z M501,182.7
	c0.2-1.3-0.2-3.1-1.4-5.5c1.3-0.3,3.1,4,2.3,4.4c1-0.1,1.6,2.4,2.5,2.8c0.4-2.5-2.9-6.2-3.4-7c0.1,0.1,0.7-0.4,0.8-0.3
	c-0.9-1.2-1.8-1.6-2.7-1.9c-0.5-1.1-0.5-1.8-0.1-2.2c-1-1.5-2.3-3.2-2.5-4.3c-1.7-2.1,1.6-0.9-0.1-3.1c-0.6-0.8-0.7,0.3-0.5,1
	c-0.5,0-1-0.9-1.5-2c-0.5-1-1-2.2-1.5-2.9c1,0.5,1.9,2.1,2.8,2.5c0.3-0.3,0-0.8,0.4-1c-0.9-1.3-1.9-1.6-2.8-2.6
	c1.6-0.1-1.6-5.3-2.3-6.8c1,1,2.1,1.7,3.1,3.2c0.4-0.5-0.5-1.7-1-2.7c2.2,1.4,6.7,8.5,8.5,12.6c0.5,1.1,0.4,1.3-0.1,1.6
	c0.5,0.6,0.9,0.2,1.4,1c0.8,1.3-0.3,1.4-0.1,1.6c0.4,0.8,1.2,0.8,1.7,1.6c0.8,1.3,0.7,3.8,1.5,5.6c0.6,1.5,1.3,2.8,2,4.2
	c0.7,1.4,1.4,2.7,1.9,4.3c0.9,2.7,0.9,5.5,1.8,8.5c0.3,1.2,1,1.6,1.1,1.9c0.7,2.3,1.1,4.6,1.6,6.9c0.2,1.1,0.5,2.2,0.9,3.2
	c0.4,1,0.9,2,1.5,2.9c-0.2,0.6-0.3,1.4-0.3,2.3c-1-0.3-1-4.3-2.5-3c1.1,1.8,2.2,3.7,3.5,5c-0.3,1.8,0.3,4.1,1,6.6
	c0.6,2.5,1.3,5.1,1.4,7.5c0.1,1.7-0.5,1.7-0.7,3c-0.2,1.8,0.6,4.2-0.4,5.1c-1-0.1-1.3-1.1-1.3-2.2c0-1.1,0-2.5-0.1-3.2
	c-0.4-2.1-1.1-4.6-1.3-6.2c-0.1-0.8-0.7-1.3-0.7-1.3c0-0.5,0.4-2,0.4-2.2c-0.2-0.8-1.1-2.3-1.3-3.3c-0.5-2.4-0.4-3.2-1.8-5.3
	c1.2-0.5,2.2,2.4,2-0.5c-0.4-1-0.5,0.4-1.2,0.3c-0.4-0.7-0.8-1.6-1.2-2.3c-0.4-0.7-0.9-1.3-1.6-1.3c-0.5-2.7-1.1-4.9-1.6-7
	c-0.3-1-0.5-2-0.7-3c-0.2-1-0.4-2-0.5-3.1c-1.3-2.4-2.7-4-4.3-4.5c-0.3-1.7-0.7-3.7-1.9-6l1.6-0.6
	C502.6,183.1,501.9,182.1,501,182.7L501,182.7z M510.7,206.1c0.4-0.3,0.4-0.9,0.4-1.6c-1.9,0.6-0.2,2.1,0.4,4.3c0.5-0.8,2-0.8,2-2
	C512.2,205.5,512,208.1,510.7,206.1L510.7,206.1z M510,201.1c0.5,2.2,1.6,1.5,2.3,3c-0.4,0.1-0.1,1.3,0.4,1.4
	c-1.2-2.4,1.2-1.5,0.2-3.7C511.6,202.9,511.2,200.4,510,201.1L510,201.1z M509.3,196.2c-0.5,0.4-0.6,1.1-0.5,1.9
	c0.1,0.8,0.2,1.8,0.2,2.6c1.3,0.2,0.7-1.3,1.8-1.3C510.5,197.7,509.6,198.2,509.3,196.2L509.3,196.2z M499.8,167
	c-0.2-0.5,0-0.9,0.5-1c-1-1.5-1.9-3.2-3.1-2.5C498,165.4,498.9,166.8,499.8,167z M507.3,187.1c1.2,2,1.5,6.9,2,5.3
	C509.3,191.5,507.5,185.3,507.3,187.1z M503.8,186.2c-2,1.3,2.3,6.8,3.9,6.8C506.7,189,504.7,190.5,503.8,186.2z M436.7,449.2
	c1.9-1.3-0.5-1.8,1.5-3.2c0.7,1.1-1.2,2.7,0.6,3.5C437.9,450.2,437.2,450,436.7,449.2L436.7,449.2z M445.9,107.2
	c1.9-0.6,2.3,2.6,4.5,4.3C451,113.2,447.2,108.3,445.9,107.2z M508.3,216c-1.2-2.4,0.8-1.6,0-3.5c1.5,0.6,0.3,3.4,1.4,3.9
	C509.8,218.8,509.1,214.6,508.3,216L508.3,216z M510.7,210.4c0.8-0.6,0.9,1.1,1.6,1c0.1,2,0.3,2.9,1.2,4.8
	C511.3,215.6,512.1,213.3,510.7,210.4L510.7,210.4z M497.6,198.6c-0.3-0.8-0.6-1.7-0.9-2.5c0.4,0.2,0.9,0.4,1.4,0.2l-0.5-1.3
	c-0.4-0.8-1-0.4-0.8,0.3c-1.5-0.4-0.6-2.5-0.8-3.3c-0.7,0.2-0.5,1.1-1.4,1.2c0.8-2-0.3-3.7-1.7-6.5c1-0.2,1.5,2.9,2.6,1.9
	c0.1,0.2,0.1,0.7,0.1,1.2s-0.1,1-0.1,1c0.2,0.4,1,0.4,1,0.4c0.5,1.4,0.6,2.9,2.1,5.8C497.9,197.1,498.9,198.7,497.6,198.6
	L497.6,198.6z M45,317.8c1.2-0.3,1.8,2,1.3,3C45.4,320.9,45.2,319.4,45,317.8z M502.8,201.9c-0.9-2.7,0-5.3-2.5-5.7
	c-1.3-2.2,0.3-2.2-0.6-4.1c-0.3-1.3-1-2-1.5-2.7c-0.6-0.6-1-1.2-0.9-2.3c1,0.3,2.2,2.2,3.2,4.7C501.9,195,504.6,200.6,502.8,201.9
	L502.8,201.9z M503.6,203.1c3.4-0.5,2,5.6,4.3,8.1c-2.1-0.3-0.6-0.3-0.9,1.6c-1.3-0.9-1.6-2.5-1.7-4.4
	C505.1,206.6,504.9,204.5,503.6,203.1L503.6,203.1z M505.4,196.7c-0.4-1.2-1-1.2-1.4-2.5c1.2-1.6,1.2,2.8,2.1,2.2
	c0.2,0.8,0.4,1.6,0.5,2.4c0.2,0.8,0.3,1.6,0.5,2.4c0.3,1.7,0.8,3.4,1.4,5.4c-0.4,0.7-1-1.3-1.6-3.8c-0.3-1.2-0.6-2.5-0.9-3.7
	C505.9,198.1,505.6,197.1,505.4,196.7L505.4,196.7z M425.9,131.2c2.4-0.1,4.6-1.4,7.4-0.1c0.4,0.2,1.5,1.5,2.4,2
	c0.9,0.5,3.4,1.6,4.2,3.7c1,0.8,2,1,3,1.6c0.7,0.9,1.4,1.7,2,2.5c0.6,0.8,1.2,1.6,1.8,2.3c1.2,1.5,2.3,2.8,3.4,4.1
	c0.5,0.6,1,1.2,1.5,1.9c0.5,0.6,0.9,1.3,1.3,1.9c0.8,1.3,1.6,2.5,2.2,3.9c-0.6-0.2-1.2-0.6-1.8-1.1c-0.9,1.1,0.5,1.7,1.4,2.8
	c-0.9,1.1,0.2,4.2,1.3,5c0.2-2.2,0.1-4.3-0.9-6c1.1,0.7,1.7,1.7,2.3,2.8c0.6,1.1,1,2.2,2.1,3.3c-1.8-0.2-0.3,2.3-2.1-0.2
	c0,1,0.8,3.1,1.6,3.4c1.1-0.8-0.3-2.7,1.6-3.1c0.5,0.9,1.1,1.8,1.6,2.7c-2.6-3.2-2,2-0.2,3c0.6-0.2-0.6-1.2-0.6-1.8
	c0-0.8,0.4-0.1,1.1,0.9c0.3,0.5,0.7,1.1,1.1,1.7c0.4,0.5,0.7,1,1,1.3c-0.2,0.6,0.3,1.5-0.5,1.7c1.8,1.2,1.6,4.5,2.1,6.6
	c-2.1-2.5-4.1-5.7-6.5-4.9c-0.2-0.6,0.5-0.8,0.2-1.5c-1.1-1.5-0.5,1-1.5,0.8c-0.8-2.2-1.9-2.2-2.9-4c0.8-1.2,1.4,0.8,2,1.6
	c2-0.5-1.4-4.1-2.5-4.1c-1.2-1.5,0.4-1.8-1.2-3.6c-0.7-0.3-1.4-0.6-2.1-0.9c-0.4,0.3-0.1,0.7,0.2,1c0.4,0.3,0.8,0.6,0.8,0.5
	c0.3,0.7-0.2,1.2,0.2,2c0.5,0.8,2,2,2.5,4.1c-1.6-2.1-3.1-4.4-4.8-6.5c-1.7-2.1-3.4-4.3-5.1-6.5c1.9-0.4,2.8-1.1,3.5-2.4
	c-0.8-1.7-1.6-1.1-2.5-2.8c-1.3-1.1,0.4,1.7-1.4,1.7c-0.6-0.8-1.2-1.6-1.8-2.4c-1.4,1.3-0.1,2.5,1.5,4.1c-2.2-0.2-4.5-4.3-6.8-6.2
	c0.5,0,0.9,0.1,1.4-0.3c-0.9-1.2-1.6-1.1-2.5-1.9c-0.1,0.4-0.2,0.9,0.1,1.5c-2.6-1.2-5.5-4.7-8.2-7.2c0.9,0.1,1.2-0.2,0.6-1.3
	c-0.7-1.2-2.8-0.8-2.1,0.2c-0.8,0.5-1.9-1.7-2.7-2.3C424.8,135,426.3,133.3,425.9,131.2L425.9,131.2z M456.1,162.6
	c-1.2,0.6,0.8,4.9,2.2,4.4C457.9,165.2,456.9,164.9,456.1,162.6z M449.6,153.6c0.1,2.2,0.5,2.7-1.8,3.4c1.4,2.8,2.6-0.6,3.1,0.1
	c-0.4,1.4,2.2,5.4,3.8,4.1c-0.7-1.9-1.4-0.9-2.1-1.6C451.7,157.4,452.1,154.4,449.6,153.6L449.6,153.6z M439.9,144.8
	c0.9,2.4,1.9,2.3,2.9,3.1c0.7,0.6,2,3.4,2.5,1.9c0.6-0.6-1.5-2.2-1.2-2.9C442,147.5,441.7,145.2,439.9,144.8L439.9,144.8z
	 M442.7,144.2c1-0.5,0.1-1.7-0.5-2.7C440.6,141.9,441.6,143,442.7,144.2z M437.3,143c0.9,1.2,1.7,1,2.6,1.1
	c-0.4-0.7-0.3-1.3-1.2-2.1L437.3,143L437.3,143z M435.2,142.4c0.5,0.2,3.3-0.6,1.6-2C436.1,139.6,433.5,141.3,435.2,142.4z
	 M428.4,137.1c-0.4-0.4-0.7,0,0.1,0.7c1.1-0.8,1-1.9-0.1-3.1C427.1,135.1,429.4,136.5,428.4,137.1L428.4,137.1z M468.6,411.4
	c-1.4,1-2.8,4.3-4.1,3.5c0.7-1.2,1.4-1.9,2.1-2.5c0.7-0.7,1.4-1.3,2-2.6C468.9,410.2,468.1,411.1,468.6,411.4L468.6,411.4z M466,412
	c-2,1.3,0.2-3.5,1.5-3.7c0.2,0.6-0.4,1.1-0.9,1.8C466.1,410.7,465.6,411.3,466,412L466,412z M476.7,393.2c0.6,0.7-0.2,6.5-3.2,7.3
	c-0.4,1.2-0.7,2.4-1.4,3.8c-0.4-0.1-0.2-0.4,0-0.8c-0.2-0.3-0.5,0-0.7,0.3c-0.1-0.7,0.2-1.4,0.7-2.1c0.3-0.4,0.6-0.7,0.9-1.1
	l0.9-1.1c1.2-1.5,2.1-2.8,0.8-3.6C475.4,394.1,476.1,394.7,476.7,393.2L476.7,393.2z M463.7,416.8c-1.1,1.2-1.3,2.1-1.6,2.9
	c-0.1,0.4-0.2,0.9-0.5,1.3c-0.2,0.5-0.6,1-1.2,1.5c-0.7-0.6-0.2-1.5,0.3-2.6c0.5-1,1.2-2.2,1.1-3c0.9-0.6,3.6-2.2,3.2-0.1
	c1.1,0.7,0.5-2.9,1.5-2.2c1.3,1-0.7,3.2-2,4.3C463.2,418.8,464.2,417.5,463.7,416.8L463.7,416.8z M475.7,403.4
	c-2.6,3.3-3.3,5.1-6.1,8.7c-1.3-1.5-0.3-4.1,1.5-7c2,0-1.4,2.5-0.4,2.9C473,407.1,473.3,403.2,475.7,403.4L475.7,403.4z M509.5,267
	c-0.7,0.2-1.2-1.1-1.3,0c-1.3-0.9,0.1-3,1.1-2.7L509.5,267L509.5,267z M458.2,426.8c0.9-1.6,2.6-2.1,4.1-5.2
	c0.6,0.8-1.8,2.6-0.3,3.1C460.7,425.7,459.3,427.9,458.2,426.8z M437.8,442.7c-0.3-1.1,3.7-5.7,5.9-6c1.5,0.7-0.8,0.9-1.4,1.4
	C441,439.3,439.3,441.9,437.8,442.7L437.8,442.7z M479,396.9c2-3.7-2.1-1.8,0.1-5.3c0.8,0.9,0.2,2.5,1.6,3.2c-1.4,2.4-2,5.6-4,5.3
	C477.9,398.5,478.3,394.6,479,396.9L479,396.9z M445.2,433.7c0.3-1.8,3.7-4.5,5.2-6.6C449.2,429.8,447.3,432.2,445.2,433.7z
	 M452.8,430.8c1.7-0.8,1.1-1.6,2.8-2.8c0.5,0.7-1.2,2.2-0.7,2.9C454.1,431.4,453.4,431.3,452.8,430.8z M442.1,444.3
	c-0.6-0.9-1.6-0.3-2.7,1c-0.3-2.5,3.8-3.6,4.9-6.2c0.9-0.1,1.6,0.7,2.6-0.3c1.1-1.7-1.1-0.1-1.2-1.2c0.6-0.2,1.3-0.8,2-1.7
	c1,0.1-0.3,2.4,1.2,1.1c0.3,0.6-1.2,3.5-2.3,3.2c-0.9,1,0.2,1.4-1.2,2.5c-0.9-0.4,0.1-1.2,0.8-2c-0.4-0.6-1-0.1-1.4-0.4
	c-1.2,2.2-0.4,4-2.8,6.5c-0.2-2.6-1.2,0.1-2.1,1.6c-0.6-0.5,0-1.2-0.7-1.7C440.3,445.2,440.9,446,442.1,444.3L442.1,444.3z
	 M453.8,421.5c0.8-0.3,1.5-1.1,2.1-2c0.6-0.9,1.2-2,1.9-3.1c0.6-1,1.1-0.9,1.8-1.8c0.7-0.9,0.4-1.4,1.2-2.3c0.8-1,1.6-2.1,2.4-3.2
	c0.9-1.1,1.6-2.4,2.5-3.7c0.8-1.3,1.7-2.7,2.5-4c0.8-1.4,1.7-2.7,2.4-4.1c0.9,0.7,0.6,1.8-0.1,2.7c-0.8,1-1.8,2-2.2,2.6
	c-0.9,1.6-0.7,3.2-2.1,4c-0.4,0.8,0.3,1,0.7,0.5c0.5,1.2-1.8,2.2-2.4,1.5c-1.4,2.4-2.8,4.3-4.1,6.1c-1.3,1.8-2.3,3.5-3.2,5.4
	C456,420.7,454.9,421.9,453.8,421.5L453.8,421.5z M508.3,261.1c-0.5,0.9-0.9-0.1-1.2-1.4c-0.2-1.4-0.4-3.1-0.1-3.8
	c0.6,0.1,0.7,1.3,0.7,2.6C507.7,259.7,507.6,261,508.3,261.1L508.3,261.1z M518,252.2c0,1.3-0.8,2.8-0.4,4.2c-1.6,0.5-0.1-4.7,0-4.2
	c0-0.6-0.8-3.3-1-5.5c-0.3-2-0.1-3.8-0.8-5.5c0.7-0.3,0.8-1.3,0.4-2.9c1.5,2,0.4,5,0.8,8.3C517.2,248.8,517.9,250.4,518,252.2
	L518,252.2z M510.7,258.9c1.3-0.6,0.6,2.3,2.2,1.2c0.1,1.2-0.2,1.8-0.7,2.1C511.7,261,510.4,261.5,510.7,258.9L510.7,258.9z
	 M512.1,262.2c0,1.9,2.7-1,2.2,1.9c-1,0.9-1.9-1.9-2.1,0.1C511.2,264.1,511.1,262.5,512.1,262.2z M518.7,259.1
	c-0.2-2.1,1.1-2.8,0-4.2c0.1-1.1,0.8,0.2,1.1,1.7C520.1,258.2,519.9,259.8,518.7,259.1z M483.9,362.3c0.9-2.5,1.4-2.1,1.6-4.1
	c2.2,0.8-1.8,3.4,0.8,3.8C485.9,364.1,484.7,362.4,483.9,362.3L483.9,362.3z M498.3,294.1c-0.5-1.7-0.5-3.7-0.2-5.7
	c0.3-2,0.7-4,0.6-5.8c-0.1-2.8-1.6-4.5-0.9-6.4c1.2-0.2,0.7,2.4,0.9,3.8c0.2,1.2,0.8,2.2,0.8,3.2c0,0.9-0.4,0.9-0.5,1.3
	c-0.1,0.7,0.9,2.6-0.5,3.2c0.3,1.6,0.4,2.4,0.4,3.2C499,291.8,498.9,292.6,498.3,294.1L498.3,294.1z M515.1,249
	c0.7,0.5,0.8,2.1,1.2,3.4C514.9,253,514.5,250.1,515.1,249z M508.3,243c0.4-1.1,0.5-2.7,0.6-4.2c3.4,1.6,3,8,3.4,12.5
	c0.2,0.8,0.8,0.5,1.3,0.6c-1.4,2,0.5,3.6,1.1,6.1c0.3,2.1-1,1.9-1,3.5c-0.6-1.1-0.5-2.3-0.5-3.5c0-1.3,0-2.6-0.6-3.9
	c-0.8-1.1-2.2-1-2.5-3.2c0.6-0.3,0.8,0.6,1.3,0.5c-0.3-1-0.4-2-0.5-3c0-0.5-0.1-1-0.1-1.5c0-0.5-0.1-0.9-0.2-1.4
	C510.5,243.9,510,242.7,508.3,243L508.3,243z M500.6,255.7c-1.9-0.5-2.1-2.9-1.9-5.6c-0.8-0.6-2.4-5.2-0.3-5.1
	C499.2,248.6,500.7,253.4,500.6,255.7L500.6,255.7z M186.5,64.9c-0.7,0.4-1.5,0.9-2.4,1.3c-0.9,0.4-1.8,0.9-2.8,1.3
	c-1.9,0.9-3.9,1.7-5.4,2.6c1.3-1.1,3-2.2,4.9-3.1c0.9-0.5,1.9-0.9,2.9-1.3C184.6,65.4,185.6,65.1,186.5,64.9L186.5,64.9z
	 M420.5,497.3c-0.4-1.4,2-2.1,3.4-2.8C424.3,495.9,421.9,496.5,420.5,497.3z M423.6,492.7l-5.4,3.7
	C417.4,495.6,423,491.2,423.6,492.7z M425.3,496.6c0.3,1.4-1.3,1.6-2.8,2.4C422,498.1,424.2,496.6,425.3,496.6z M384.5,515
	c0.1,1-3.1,1.7-4.4,2.5C380,515.8,382.6,516,384.5,515z M428.6,498.9c1-0.9,1.9-1.6,2.7-2.3c0.8-0.7,1.6-1.2,2.4-1.7
	c1.5-1,2.9-1.9,4.5-3.2c0.1,2,2.7-2,2.8,0c-2.3,1.1-3.9,2.8-5.7,3.8c-0.1,0.1-0.3-0.7-0.5-0.7c-0.7,0.1-2.2,2-3,2.3
	c-0.7,1,0.5,0.4,0.4,1.8c-2.2,0-3.3,2.3-6,3.2c-0.7,0.5-0.1,0.6,0.2,0.3c0.1,1.5-1.9,0.7-2.7,1.3c-0.8-0.6,3.2-3.4,1-2.7
	c0.6-1.6,3.5-1.6,2.8,0.1C427.8,500.4,429.7,499.5,428.6,498.9L428.6,498.9z M435.3,482.9c0.5,1.5-3.9,3.7-5.9,5.5
	C429.6,486,433.6,485.4,435.3,482.9z M376,525.2c-0.3-1-1.5-0.8-2.6-0.7c-0.5,0.6-0.8,1.2-0.9,1.8c-1.6,0.6-2.8,0.4-5,1.5
	c1.3-1.6-0.1-1.4,1.4-2.7c2.9-0.4,0,0.5,0.6,1.6c1.2-0.5,1.6-1.2,2.2-1.9s1.5-1.3,3.5-1.8c0.6,2.3,1.7,0.5,4.5-0.5
	c0.7,1.7-1.7,3-4.7,4.3C374.4,525.9,375.2,525.5,376,525.2L376,525.2z M437.3,489.2c0.1-0.6,1-1.1,2-1.7c1-0.7,2.3-1.4,3.2-2.5
	C443.2,486.2,439,488.4,437.3,489.2L437.3,489.2z M434.8,498.5c0.6,0.7-2,1.8-2.8,2.6C431.4,499.6,433.4,498.7,434.8,498.5z
	 M363.1,531c-1,0.9-1.4,2-3.8,2.7C358.9,532.6,361.4,531.9,363.1,531z M343.2,536.8c0.6,0.1,1.3,0.1,2.3-0.2c-1.1,0.8-1.5,1.9-4,2.3
	C341.4,538.1,343.2,537.7,343.2,536.8L343.2,536.8z M437.5,481c3.8-3.1,6.3-5.1,8.7-7.2c2.3-2.1,4.7-4.2,8.4-7.5
	c2.1-1.1-1.7,2.1-2.9,3.3c-1,0.9-2.1,2-3.3,3.1c-1.2,1.1-2.5,2.3-3.8,3.4c-2.7,2.2-5.5,4.5-7.7,6.5
	C436.3,482.2,436.9,481.6,437.5,481L437.5,481z M313.6,544.3c-3.1,0.7-3-0.6-2.5-1.7C313.3,542,312.8,543.7,313.6,544.3z
	 M280.3,552.2c-2,0.2-3.2-0.1-3-1.2C279.2,550.8,280.5,551.1,280.3,552.2z M309.7,549.5c-2.1,0.6-4.7,1-7.3,1.2
	c-2.6,0.2-5.3,0.2-7.8-0.1c-2.4,0-1.6,1.4-4.5,1.1c0.1-0.3,0.7-0.5,0.7-0.9c-2-0.1-3.4,0.1-4.7,0.4c-0.6,0.2-1.2,0.3-1.8,0.5
	c-0.6,0.1-1.2,0.3-1.9,0.4c0.9-2.1-1.9-2-3.8-2.5c0.9-1,2.6-1,4.3-0.7c1.7,0.4,3.3,0.9,4,1.3c0.5-1.6,3.8-3.4,5.9-2.9
	c0.4,1.1-2.8,0.6-2.9,1.4c0.8,1.2,2.5-0.3,3-0.6c0.8,0.4,3.5-0.7,4.5-0.3c0.1,0,0,0.8,0,0.8c1-0.1,1.7-0.9,2.9-1.2
	c1.1-0.3,1.1,0.3,1.5,0.3c1-0.1,1.8-1.2,3.7-0.4c0.3,0.1,1.2,0.1,1.5,0.2C308.2,548.1,305.8,550,309.7,549.5L309.7,549.5z
	 M306.5,548.6c-3.4,0.7-6.1-1.6-5.9,1.5C302.9,549.7,306.5,549.9,306.5,548.6z M363.9,524.1c-0.1-1.5,3.1-1.8,4.6-2.1
	C368.5,522.9,365.2,523.3,363.9,524.1z M363.2,526.5c0.5-0.7,2-1.3,3.5-1.8c1.6-0.5,3.4-1,4.5-1.7c-0.3,0.4-0.7,0.7-1.3,1
	c-0.6,0.3-1.4,0.6-2.2,0.8C366.2,525.5,364.4,526,363.2,526.5z M265.8,539.9c-1.4,1.4-2.9,0.2-5.8,0.2
	C258.1,539.3,264.2,540,265.8,539.9z M290.4,539.5c-2.5,0.9-6.2,0.9-10.1,0.9c-1.6,0-5.4,0-7.9,0c-2.5-0.1-3.9-0.3-0.8-0.3
	c2.4-0.1,5.8-0.1,9.2-0.1C284.2,540,287.7,539.8,290.4,539.5L290.4,539.5z M90.5,442c0.1-1.3,1-0.3,2,1.2c1.1,1.4,2.5,3.3,3.6,3.8
	c-1.7-0.4-4-1.8-4-3.7C91.5,442.6,90.9,441.8,90.5,442z M84.9,433.5c1.3,2.1,2.7,4.1,4.9,6.5C87.9,439.2,83.7,434.8,84.9,433.5z
	 M84.8,427.7c-0.9-1.3,1-1,1.3-1c1,1.3,0.7,2,1.3,3.1C86.3,430.1,86.3,426.8,84.8,427.7L84.8,427.7z M459,462.5
	c0.5-1,1.9-2.7,3.4-4.3c0.8-0.8,1.6-1.5,2.3-2.2c0.7-0.7,1.3-1.2,1.8-1.5c-0.4,0.8-0.9,1.7-1.6,2.4s-1.4,1.5-2.2,2.2
	C461.3,460.5,459.8,461.7,459,462.5L459,462.5z M278,548.4c-0.3,3.6-6.7,3.8-11.3,2c-1.1,0.1-0.1,0.7,0.7,0.9
	c-2.2,1.2-4.9-0.8-6.7-1.1c-0.9,0-0.4,0.5,0,0.4c-1.8,0.5-6.7,0-8.2-1c-1.2,0.5-4.3-0.2-3.9,1.4c-2.8-1.4-6.3-1.3-10.4-1.6
	c-1.7-0.8-1.4-2.3-4.1-2.7c-1.9,0.6,4,1.4,1.1,2.7c-1.5-0.1-2.3-0.4-2.1-1.1c-2.5-0.3-5.5-1-8.2-1.5c-1.4-0.3-2.7-0.5-4-0.7
	s-2.4-0.3-3.4-0.3c-1.6-0.3-2.3-0.9-1.9-1.7c-1.4,1.2-5.6,0.3-9-1.3c-1.1,0.8-4.2-0.3-6.2-0.4c-0.1-1,1.3-0.5,2.4-0.2
	c-1.5-1.7-4.7-0.7-6.4-2.2c-0.9-0.2-0.5,0.3-0.1,0.4c-1.2,1.3-1.1-0.6-2-1c0,0-3.1-1-3.6-1.2c-1.1-0.5-2.4-0.7-3.6-1.2
	c-0.8-0.4-1.8-1.5-1.8-1.5c-0.8-0.3-2.2,0.4-3.3,0.2c-1.2-0.2-1.1-0.9-2-1.2c-0.6-0.2-0.9,0.2-1.6-0.2c-2.7-1.2-4.2-2.7-6.1-2.8
	c-0.2,0,0.9,0.9,1.6,1.1c-3.4-0.6-6.3-3-9.2-4.4c-1.1-0.5-2.4-0.6-3.6-1.2c-0.4-0.2-1.3-1.2-2.6-1.6c-1-0.4-0.4,0.5-1.1,0.4
	c-1.4-0.2-3.3-2.1-4.7-2.4c0.5-0.6,1.6-0.3,3.1,0.6c-2.4-1.9,1.6-0.9,0.5-2.6c-0.6-0.2-0.9,0-1.5-0.3c-2.1-0.8,0.2,1.1-0.8,1.5
	c-0.9,0.3-1.4-0.9-2.7-1.4c-0.3-0.1-2.3-0.2-2.4-0.3c-0.3-0.2-2.4-2.7-2.9-1c-1.6-0.6-0.5-1.2-1.5-1.8c-1-0.8-1.4-0.4-1.7,0
	c-2.4-2.3-4.3-3.8-7.9-4.5c-1.4-1.4-2.3-2.8-4.4-4.3c-0.6,0.4,0.1,1,0.8,1.5c-1.4-0.2-2.2-1.6-4.7-2.5c-1.2-0.7-1.2,0.9-2.2,0.6
	c-1.7-1.8-3.3-1-4.5-1.5c-0.7-0.3-1.9-1.6-3.1-2.2c-4.9-2.4-13-9.4-19.2-14.9c-1.2-1.1-4-2-3.7-3.8c-1.1-1.3-1.4-0.1-2.3-0.9
	c-0.8-0.7-1.6-1.5-2.3-2.2c-0.7-0.7-1.4-1.4-2.1-2.1c-1.4-1.3-2.7-2.6-3.9-3.8c-1.2-1.2-2.4-2.4-3.4-3.6c-1-1.2-1.9-2.5-2.8-3.8
	c1.4,0.6,2.3,1.8,3.2,3c1,1.2,2,2.4,3.4,3.2c1.8-0.3-1.3-2.5-2.6-3.7c-0.6-0.6-1.3-2-1.2-1.9c-1.3-1.2-2.5-1.2-3.2-2.2
	c-2-3.6-5.3-7.3-7.9-8.1c-1.9-2.8-4-5-5.9-7c-1.8-2.1-3.2-4.2-3.9-6.4c-1.9-1.3-4-3.7-5.8-6.5c-1.8-2.8-3.4-5.9-4.7-8.2
	c-2.5-0.4-4.4-6.1-7.2-10.7c-0.5-0.9-1.1-1.7-1.7-2.5l-1.7-2.4c-1.1-1.6-2.2-3.1-3-4.6c-0.6-1.1-1.1-2.1-1.7-3.2l-0.8-1.6l-0.8-1.6
	c-1-2.1-2-4-2.9-5.8c-0.9-1.8-1.6-3.8-2.3-5.6c-0.7-1.8-1.5-3.5-2.7-4.5c0.5-2.3-1.4-3.3-2.4-5.6c-0.5-1.1-0.1-1.3-0.4-2.3
	c-0.7-2-1.7-4.1-2.7-6.4s-2.2-4.5-2.9-6.9c-0.9-2.5-1.1-5-1.9-7.3c-0.5-1.5-1.6-2.6-2.1-4.1c-0.5-1.6-0.4-3.5-0.9-5.2
	c-0.4-1.2-1-2.4-1.5-3.6c-0.5-1.2-0.9-2.4-0.8-3.7c-0.2-0.7-0.6-0.5-1-0.6c-0.1-1.8-0.1-3.5-0.8-6c0.5-2.5,1.6-4,0.6-8.5
	c1-1.7,2.5,2.7,4.5,1.6c1-1-0.6-3.8-0.8-5.1c-0.5-1.1-0.6,0.3-1.8-0.5c-0.8-2.7,1.3-1.8,1.1-3.9c0-2.8-1.3-2-1.4-4.3
	c0.8,0,0.8-1,1.6-0.9c0.1-2.6-0.9-2.8-1-5.1c0.6-0.3,0.8,0.6,1.3,0.6c-0.6-2.7-1.4-5-0.2-6.6c-0.1-0.9-0.5-0.3-0.4,0
	c-0.6-2.1-0.9-7-0.1-8.8c-0.4-1.4-1.3-0.5-0.6-2.2c-0.3-2-0.9-3.4-1.8-4.4c0.4-1,1.4-1,1.6-2.2c-0.2-0.6-0.5-1.2-0.4-2.2
	c-1,0-1.2,1.2-2.5,0.7c0-1.9,0.3-0.9,0.8-0.7c0.4-2.1-0.7-2-0.5-3.7c0.3-1.9,3.6-3.6,1-5.1c-0.5,0.1-0.6,2.2-0.1,2.2
	c-0.5,1.2-1.8,0.7-2.6,1.4c-0.2-1.8-0.5-3.4-0.2-6c0.9,0.4-0.2,4.1,1.1,3.8c1.1-2.7,0.3-8.4-0.9-9.8c0.6-2.4,0.2-7.1,2.2-6.5
	c0.7-2.7-0.9-2.2-0.5-4.5c0.4-1.3,0.4,0.5,0.3,1.5c0.7-0.1,1.2-1.2,1.7-2c0.6-0.8,1.1-1.2,1.8,0.2c0.7-0.9,1.1-4,0.6-5.1
	c-0.7,0.5-0.9,2.3-1.3,3.5c-0.5-1.3-2.5,0.8-2.2-2.5c0.5-3.4,0.5,0.9,1.7,0.2c0.2-2.5-1-3.4,0.6-4.4c0-2.2-1,0.6-1.7-0.3
	c0.9-1.3,0.9-4.8,1.5-7.3c0.9-1.3,1.5,1.6,2.3-1.1c0.2-1.2,0-1.9-0.4-2.3c-0.6,0-0.5,2.1-1.2,2c-1.5,0.5-0.2-2.4-0.2-3.8
	c-1.7,0.3-0.8,2.9-1.3,5c-1.9-1.6,0.4-5.1,0.8-9c0.5,0.4,0.4,1.4,1,1.7c0-1.2,0.2-2.1,0.4-2.8c0.2-0.7,0.6-1.1,0.9-1.5
	c0.7-0.7,1.5-1,2.1-1.8c0.1-0.6-0.2-0.8-0.1-1.5c-1.5,0.8-2.8,2.6-4.5,2.7c0.7-1.5,1.5-2.7,2.7-2.4c0.7-2.2,0.2-3.1-0.4-3.9
	c0.5-0.9,1.2-1.1,2-1c0.1-1.2,0-1.5-0.1-1.9c-0.1-0.4,0-0.9,0.8-2.6c0.5-1.1,1-2.8,1.6-2.6c0.4-2.7-1.3,0-1.6-2l-0.6,2.2
	c-0.6-1,1.2-5.3,2.4-3.9c0.6-3.3,1.7-4.1,2.5-7c-1.5,1.4-3.1,7.3-4.1,4.9c0.5-2,1.6-1.3,2.2-3.2c0.1-0.6-0.2-0.8,0.1-1.5
	c-0.7-0.3-1.1,0.6-1.8,0.2c-0.7,1.4-0.3,2-0.5,3c-0.7,0.5-0.6-0.7-0.1-2.1c0.5-1.4,1.3-3.1,1.9-3.6c0.7,0.2,0.5,1.2,1.4,1.3
	c0.2-3,1.9-7.7,3.6-8.2c-0.2-1.6-1.5,0.1-2.4,0.7c0-2.2,1.4-3.8,2.6-5.5c1.2-1.7,2.5-3.5,2.7-6.1c0.6-2.3,1.6-0.3,2.2-3.1
	c1.3-2-0.4-1.9,0.1-3.2c2.2-2.9,2.5-5.3,4.5-6.9c0.1-0.8-0.5-1.1,0.2-2.4c0.1-1.1-0.8-1.5-0.5-2.8c-0.8,0.5-1.1,0.2-0.4-1.1
	c1.2,0.4,1.3,3,2.9,0.7c0.8-1.8-1.1,0.6-1.5-0.8c1.5-2.5,1.4-4.6,2.3-6.4c1.4-2.5,3.6-3.4,5.2-6.5c1-1.5-1.8-0.6,0-2.6
	c1-2.1,0.6,0,1.1-0.2c0.6-0.2,1.3-2,2.2-1.3c1.2-2.8-0.7-1.6-0.9-3.2c1.7-1.6,3.7-4.7,4.5-7c1.6-0.9,1.1,0.9,1.3,1.8
	c0.7-0.3,1.3-1.2,1.9-2.5c0.6-1.2,1.3-2.7,1.9-3.9c0.8,1.4,1.8,0.7,0.8,3.3c0.6,0.1,1.3-1.3,2-2.2c0.9-1.4-1.2-1.3-1.6-2.1
	c1.3-1.8-0.2-2.4,1.6-4.4c0.5-0.8-0.2-1-0.6-1.4c1.6-1.8,3.1-3.7,4.5-5.4c1.4-1.8,2.7-3.5,4.1-5c0.4-0.6,0-0.8-0.2-1.1
	c0.5-0.6,1-1.2,1.4-1.7c0.5-0.5,0.9-1,1.2-1.5c0.8-1,1.4-1.8,2.2-2.5c0.1-0.1,0.5,0.6,0.6,0.6c0.7-0.2,1.8-2.4,2.5-2.8
	c0.5-0.7-0.3-0.9,0.4-1.7c-0.4-1.6-1.8,1.6-2.2,0c0.7-1.7,1.4-1.6,2.2-1.6c0.8,0,1.5-0.2,2.4-2.3c0.6,0.3,0,1,0.4,1.4
	c2-1.3,2-3.9,3.7-3.8c0.6-0.7-0.1-1-0.4-1.4c1.8-1.4,3.1-2.6,4.2-4l3.5-4.3c0.3,0.6-1.5,1.6-1.1,2.2c1.6,0.4,4.9-6.9,1.3-3
	c-0.4-0.9,2.6-2.7,3.6-3.9c0.3,0.9,1.1,0.5,1.7,0.8c0.6-0.6,0-0.6-0.3-0.3c0.3-2.4,6.4-3.8,5.7-6.1c1.7-1.7,2.1-0.1,4-2.2
	c-0.3-0.9-1.3,0.1-2.2,0.8c0-1.2,3.4-2.8,4.3-3.1c0.5-0.5,0.1-0.6-0.2-0.9c-0.2-0.3-0.2-0.6,1.2-1.5c1.2-1.1,1.5-0.4,2,0.1
	c2.2-1.3,3.2-3.7,5.3-5.6c0.3-0.3,0.9-0.2,1.4-0.6c0.8-0.6,0.8-1.1,1-1.3c1.6-1,4.4-2.8,6.9-4.7c1.1-0.9,3.2-2.2,4.4-3
	c1.7-1,2.6-2.9,4.5-2.8c0.4,0,2-0.4,2.8-1.2c0.1-0.1,0.2-1.1,0.2-1.1c0.2-0.2,5.5-1.1,5-3.4c2.6-1.5,4-2.5,7.8-4.7
	c0.8-0.5,2.7-1.9,2.5-1.8c0.9-0.4,1.4,0.2,2.4-0.2c2.2-1,1.3-2.2,3.4-1.6c0.5-0.7,1-1.4,1.5-2.1l3.8-1.9l3.8-1.7
	c2.5-1.2,5-2.3,7.4-3.5c2.4-1.1,4.9-2.1,7.3-3.2c2.4-1,4.7-2.2,6.9-3.2c0.8,0.1,1.3,0.4,1.8,0.8c3.2-2.1,6.6-3.7,10.1-5
	c3.5-1.2,7.1-2.2,10.6-3.5c2-0.4,0.2-1.8,2.7-1.9c-0.1,1.4,1.3,1.5,2.7,1.6c0.3-1.4-2.2-0.4-1.9-1.8c1.9-0.4,3.6-0.8,3.9,0
	c1-0.5,1.2-1.2,1.2-2c2.6-0.7,4.4-1.1,6.2-1.4c1.9-0.3,3.8-0.5,6.7-0.9c-1.8,2.2-1.6,2.5-1.6,4.9c1.6-0.1,1.4-0.8,1.3-1.5
	c2.1-0.1,2.3,1.3,3.3,2c3.6-1.5,7-0.1,8.9-2c1.6-0.4,1.1,0.7,2.3,0.6c0.8-0.2,0.4-0.9,1.4-1c2.6-0.6,2.9,0.3,5.3-0.1
	c0.5,0.8,1.2,1.5,3.8,1c1.7-1.5-6.2-0.1-1.6-1.2c1.2-0.3,2.8-0.1,3-0.2c1.8-0.4,2.2-0.9,3-1c1.3-0.2,1.6,0.3,3,0.2
	c5.9-0.1,13.2-1.2,16.7-0.5c0.9,0,0.7-0.7,0.8-1.2c1.8,0.4,4.4,0.6,6.9,0.4c1.3-0.1,2.5-0.2,3.7-0.3c1.2-0.2,2.3-0.4,3.2-0.7
	c1.6-0.1,2.5,0.6,3.8,0.7c1.4,0.1,1.9-0.7,2.4-0.6c0.9,0,1,0.8,1.4,1c0.4,0.1,3.6,0.1,3.9,0.1c1.4,0.1,2.4-0.3,4.6,0.2
	c-0.1-0.6-1.9-0.6-3-0.8c-1.7-1,5.1,0.4,6.9,0.5c-1.9,0.8,2,1.6-1.1,2c0.5,1.2,1.6-0.9,3.8,0.2c1.2-0.8-1.7-1.9,0.3-1.7
	c3,0.5-0.4,0.6,1.3,1.5c1.4,0.4,1.1-0.8,1.8-1c0.7-0.1,3.9,1.2,3.2-0.3c2.1,0.3,3.9,0.6,5.6,1.1c1.7,0.5,3.2,1,4.9,1.5
	c-0.7,1.2,1.2,2-0.6,2.4c1.4,0.6,3.9,1.4,6.5,2c2.6,0.7,5.2,1.3,6.8,1.4c0.7,0.1,0.8-0.2,1-0.6c3.1,0.6,6.3,1.7,9,2.9
	c2.8,1.1,5.2,1.9,7.1,1.8L362,24c0.8,0.4,1.7,0.8,2.5,1.1c1.6,0.6,2.9,0.8,3.3-0.1c1.8,1.2,3.9,1.1,5.9,1.9c1.4,0.5,2.9,1.8,4.1,2.2
	c0.8,0.3,1.9,0,2.5,0.2c1.5,0.4,3.1,1,4.7,1.7c0.8,0.4,1.6,0.7,2.4,1c0.8,0.4,1.5,0.7,2.2,1.1c2.4,1.1,6.6,3.4,10.5,4.9
	c2.5,1,4.5,1.2,6.7,2.4c1.3,0.7,2.5,1.4,3.7,2.1c0.6,0.4,1.2,0.7,1.9,1c0.6,0.3,1.3,0.6,2,0.9c-1.2,0.8-0.2,1.7-0.7,2.5
	c-2.3-1.8-2.3,0.4-4.2-0.6c0,1.3,2.4,0.8,3.9,2.4c-2.3,0.1-4.1,1.8-1.9,4.3c0.3,0.3,1.8,0.2,2.4,0.5c0.7,0.4,1.8,1.1,3,2
	c1.2,0.9,2.6,1.8,3.9,2.6c2.4,1.4,4.1,1.3,5.8,3.6c1.1-0.1,3.2,1,5.5,2.6c2.3,1.6,4.8,3.5,6.9,4.8c1.3,0.8,2.4,0.6,3.8,1.4
	c3.8,2.2,6.5,6,9.5,8.8c-1.4,0.9,0.3,2.5-0.4,3.6c2.6,3.3,0.9,5.5,2.9,8.7c-2.2,0-1.1,1.2,0.1,3c-3.4-0.4-0.8,3.4-1.8,4.7
	c-0.8-0.9-1.2-0.6-1.9-1.2c-0.2,0.6,1,1.5,1.8,2.3c-2-0.5-1.2,0.7-3.1-0.1c-0.7,0.3-0.2,0.9,0.4,1.6c-0.9-0.5-1.2,0.4-2.2,0.2
	c-0.2-0.1-0.8-1-1-1c-1,0-1.1,1.6-2,1c-0.4-0.3-0.2-1-0.7-1.3c-1.2-0.7-2-0.8-3.5-0.5c-1.5-1.9-2.3-1.4-3.8-3.1
	c-0.7-0.5-1,0.2-1.4,0.5c-1.4-3.4-6.6-7.5-7.2-10.7l-4.4-3.5c-1.8,1.8-0.5,4-1.3,5.9c-3.8-2.6-1.3,2.3-3.5,2.1l-2.1-1.7
	c-0.6,0.8,0.1,1.7-1.1,2.4c-2.7-2.5-3.1-2.8-5.6-4.8c0.2-0.9-0.2-1.9-1.2-2.9c-2-1.3-0.6,0.9-1.8,0.2l-2.2-1.6l1-1.4
	c-2.4-1.2-3.2-3.7-4.7-2.7c-0.3,0.6,3.8,1.5,2.1,2.9c-2.9-1.9-5.8-3.7-8.7-5.6c-1.4-1-3-1.8-4.5-2.7L386,71
	c-0.8-0.3-1.3,0.1-2.2-0.3c-0.5,0.9,0.4,1.6-0.7,2.5c-1.5-0.6-2.3-0.6-3.1-0.8c-0.8-0.1-1.6-0.4-3.1-1.6c-1.2,0.8,1,1.3,2,1.9
	c1.7,1.2-1.3,0-2-0.5c-1.9-1.2-4.8-2.4-7.2-3.5c-2.5-1.1-4.5-2.2-4.7-3.6c-1.5,0.1-2.6,0.7-5.3-1c0.4-0.5,1.9,0.7,2.1,0
	c0-0.4-0.4-0.6-0.3-1c-1.5-0.4-3.1-0.6-3.7,0.3c-2.2-0.6-4-1.6-5.7-2.5c-0.9-0.4-1.7-0.8-2.6-1.2c-0.9-0.3-1.8-0.5-2.7-0.5
	c3.6-0.1-2.3-1.8-3.1-1.1c-2-0.6-4-1.5-6.1-2.1c-2.1-0.6-4.1-1.2-5.8-1.6c-1.2-0.2-2.4-0.5-3.6-0.9c-1.2-0.3-2.5-0.6-3.8-0.9
	c-2.5-0.7-5.1-1.3-7.6-2c-2.5-0.6-5-1-7.3-1.3c-2.3-0.3-4.4-0.4-6.2-0.1c-1.1-0.4,0-0.8,0.2-1.2c-0.8,0-1.1-0.2-1.2-0.6
	c-1.9-0.2-1.7,0.6-3.4,0.4c-1.2-0.1-2.6-1.2-3.8-1.4c-1.4-0.2-1.9,0.8-3.4,0.5c-1.4,0-2-0.5-1.8-1.4c-1.5,0.4-1.8,1.6-4.7,0.9
	c0.2-0.4,1.3-0.2,1.4-0.7c-0.7-0.8-2.8-0.2-4.6-0.8c-0.2-0.1-1.2-0.9-1.3-0.9c-2.4-0.3-5-0.2-7.3-0.1l-1.7,0.1l-1.6,0.1
	c-1,0.1-1.9,0.1-2.7,0c-0.6,0.3-1,0.8-1.3,1.3c-1.3-0.7-3.1-0.8-5-0.6c-1.9,0.2-3.9,0.7-5.6,1l-0.1-1.3c-1.5,0.4-3.6,0.5-3.9,1.5
	c-2.1-0.3,0.7-1.2,0.6-1.7c-2.3,0.1-3.1,1-4.6,1.6c-2.9-0.1-6.9,0.6-9.1,1.8c-1-0.1-1.7-0.4-2.7-0.5c-4.5,1.7-9.4,3-14.4,4.4
	c-1.3,0.3-2.5,0.7-3.8,0.9l-1.9,0.4l-1.9,0.5c-2.6,0.6-5.2,1.2-7.9,1.6c-1.4,0.7-2.9,1.7-4.1,2.5c-2.6,0.5-4.8,0.5-7.8,1.5l-0.5-1.6
	c-2,1.5-5.2,4.6-7.8,3.7c0.4-1.3,3.2-1.2,4.4-1.6c1.4-0.9,0.8-2.3,3.2-3c-0.6-0.4-1.6-0.3-2.8,0.1c1.8-1.4,0.1-2.8,0.9-3.9
	c1.8-2.5,5.6-2.4,8.6-4.4c1.3-0.2,2.8-0.7,2.9,0.4c0.9-0.5,1.5-1,2.4-1.5c-0.3-0.7-1.4-0.6-2.9-0.1c1.3-1.3,6.2-1.9,7.9-2.1
	c-0.4,1.5-0.1,1.2,1.1,1.9c1.6-0.5,1.8-2.2,3.9-1.4c-0.2-0.4,0-0.8,0.5-1c-0.2-0.6-1.6-0.2-2.8,0.2c-1.2,0.4-2.3,0.7-2.1-0.3
	c2.9-0.8,6-1.5,8.1-1.4c2.4-0.8-0.2-1.4,0.9-2.3c-2.1,0.4-3.6,1.8-5.4,1.1c-0.1-0.8,0.2-1.5,1-1.9c-0.5-0.5-1.3-0.8-2.3-0.8
	c-2.3,1.3,1.4,0.9,1.1,1.9c-1.5,0.1-1.2,0.9-1.1,1.5c-2,0.8-2.5,0.2-4.1,0.6c0.1-0.6,1.6-0.8,2.6-1.1c-1.4-1.6-3.5,1.2-4.5,2
	c-2.5,0.7-3.5-0.2-5.1-0.4c-1.3,0.6,0.3,2.1-2.2,2.4c-1.2,0-1.8-0.8-2.5-1.4c-0.8,0.7-0.5,1.6-1.5,2.2c-1.5,0.6-3.2,1.1-5,1.6
	c-1.8,0.6-3.6,1.3-5.5,1.9l-5.8,2c-1.9,0.7-3.9,1.6-5.8,2.4c-1.5,0.5-0.3,1.4-1.4,2c0.6,0.4,1.6,0.2,2.8-0.3c-1.2,2,1.7,2.1,2.6,3
	l-1.2,0.5l-1.2,0.5c0.4-1.6-0.4-2.5-2.8-1.5c0,1.4,2.4-0.4,2,1.4c-2.9-0.1-4.4,1.2-6,3.1c0.7,0.1,1.3-0.2,1.8-0.6
	c0.6-0.4,1.1-0.9,1.8-1.1c2.5-0.9,4.1-0.4,6.2-0.8c-0.7,0.9-1.4,3,0.9,2.4c-1.8,1.4-3.5,2.8-4.7,4.2c-1.5,1-1.6-0.3-2.7,0.3
	c-1.8,0.4-2.9,1.8-4.6,2.7c-0.9,0.5-1.2,0.1-2,0.5c-1,0.5-1.8,1.1-2.6,1.6c-0.8,0.5-1.6,1.1-2.5,1.4c-1.8,0.8-4.5,2.2-7.2,3.7
	c-2.7,1.5-5.2,3.3-7.1,4.4c-1,0.6-3.4,0.7-3.1,2.4c-1.4,1.2-1.5,0-2.6,0.8c-1,0.5-0.9,1-0.6,1.4c-1.5,1.5-1.5-0.7-2.9,0.4
	c-2.2,1.1-2.5,2.9-4.4,3c-0.6,0.5,0,1,0.2,1.4c-2.1,0.5-4.6,2.2-7.3,4.5c-0.3,0.6-0.3,1.2-0.3,1.8c-1.5,1-3.4,2.7-5.6,4.5
	c-2.2,1.9-4.8,3.9-7.3,6.3c-1.3,1.2-2.6,2.4-3.8,3.6c-1.3,1.2-2.6,2.4-3.8,3.8c-2.4,2.6-4.7,5.1-6.7,7.4c-1.2,1.4-1.7,2.9-2.9,4.5
	c-1.3,1.7-2.7,3.2-4.1,4.7c-1.3,1.5-2.4,3-3.2,4.6c2.3-2.4,2.3-1.1,0.2,1.8c0.7-0.8-1.5,1.7-4.1,5.1c-1.2,1.8-2.6,3.7-3.9,5.5
	c-1.3,1.8-2.4,3.4-3.1,4.6c-0.5,0.9-0.9,0.7-1.4,1.4c-0.6,1-1.2,2.7-2.1,4.1c-0.8,1.1-1.7,1.9-2.1,2.5c-0.7,1.4-0.3,2.9-2.2,5.5
	c-0.4,0.5-1.8,1.4-1.7,1.3c-0.5,0.9-0.1,2.4-0.5,3.5c-0.1,0.3-0.9,0.8-1.3,1.5c-0.7,1.5-0.8,3.4-1.6,5c-0.4,0.8-1.4,2.6-2.5,4.6
	c-1,2-1.9,4.2-2.3,5.3c-0.2,0.7,0.7,1,0,2.1c-0.7-0.1-0.4-0.9-0.9-1.1c-0.5,1-0.1,1.5-0.7,2.5c0.4,0.3,0.7,0.2,1-0.2
	c1,0.7-0.8,1.9-1.3,0.8c-0.1,1.6-0.4,2.4-1,3.8c-0.2,0.5-0.5,3.6-0.9,4.5c-0.4,1.1-1.4,2.1-1.8,3.5c-0.5,1.9-1.1,4-1.7,6.1
	c-0.6,2.1-1.2,4.1-1.7,5.7c-0.5,1.6-0.2,3.6-0.6,5.2c-0.3,1-0.6,1-0.9,1.7c-0.4,0.9-0.5,1.8-0.6,2.7c0,0.9-0.1,1.7-0.3,2.4
	c-0.3,1.2-1.2,2.1-1.5,2.9c-0.4,1.1-1.1,2.9-1.3,3.7c-0.1,0.6,0.4,1.8,0.4,2.1c-0.1,1.1-0.6,1-0.8,1.8c-0.2,1.1,0.2,1.4,0,2.6
	c-0.2,1.3-0.9,2.5-1.1,3.7c-0.1,0.5-0.1,1.1,0,1.9c0,0.8,0.1,1.7,0.1,2.7c0,1.9-0.2,4-1.1,5.7c0.4,0.3,0.5,1.7,0.5,3.4
	c0.1,1.7,0,3.9-0.1,5.7c-0.1,0.9-0.6,2.2-0.7,3.2c-0.1,1.7,0,3.5,0.1,5.2c0.1,1.7,0.2,3.5,0.2,5.2l0.1,2.5c0.1,0.8,0.1,1.6,0.1,2.5
	c0,1.6,0,3.2-0.1,4.6c-0.1,1.2-1.2,2.4-0.4,3.9c0.5-0.1,0.3-1.2,0.4-1.9c0.2,0.4,0.3,1,0.5,1.7c0.1,0.8,0.2,1.6,0.2,2.4
	c0,1.6-0.3,3.1-1.2,3c1.1,0.4,0.6,1.6,1.1,3.8c0.1,0.5,0.5,1.2,0.8,2.1c0.4,0.9,0.7,2,0.5,3.6c-0.9,0.4-0.9-0.8-1-1.9
	c-0.3,0.4-1.4,1.6-1.3-0.5c-1.2,0.5,0.5,1.3,0.3,2.6c-0.4-0.5-1-0.6-1.7-0.5c-0.2,1.9,0.8,1.6,0.8,3.2c-1.8-0.6-1.8,2.2-0.9,3.4
	c1.3-1,1.2-3.8,2.9-4.2c0.7,0.9,1,2.6,2,3c-0.4,1-1.5,1.1-1.9,2.1c0.4,1.8,2.2,1.3,1.6-0.8c1.8,2.1-0.3,4.2-1.4,4.7
	c1.1,1.1,1.5,3.6,3.4,2.8c0.1,0.9,0.2,1.8,0.7,1.8c-0.7,1.4,0.2,4.2-1.3,4.8c-0.5-1.6-0.8-3.1,0.7-2.7l-0.5-3.2
	c-1.7-0.3,0,3.1-1.7,2.9c-0.8-1.9-0.5-1.7-0.1-3.2c-1.4,0.4-0.8,3-2,3.6c0.3,2,2,2.6,1.3,4.4c-1.9,0.3-4-4.1-4.9-3.1
	c-1-1.4-0.2-3.6-1.3-5.8c1,1,0.5-0.1,1.7-0.2c-0.3-3.1-3-0.9-3.2-4.3c-0.2-1.7,0.2-0.8,0.7-0.8c0.1-1.5-0.9-0.9-1-1.9
	c-0.8-3,0.9-2.7,0.3-5.4c-0.9-2.1-0.9,1.5-2,0.8c0.7-0.5-0.4-3.1,0.5-3.4c-0.3-1.6-1,0.8-1.1,1.4c-0.4-0.8-0.5-2-0.5-3.2
	c0-1.2-0.2-2.5-0.8-3.4c-1.4,1.4,0.9,2.3,0.7,4c-1,0.4-0.8,3-2,1.5c-0.2,3.1,1.4,2.5,1.4,5.3c0.1,2.4-1,0.6,0,3.4
	c0.2,0.6,0.5,1.1,0.7,1.6c0.2,0.5,0.5,1,0.6,1.6c-0.4,1.3-0.5,3-0.5,4.8c0.8,2.2-0.2-1.9,1.1-0.8c0.9,1.2,1,3.3,1.2,5.2
	c0.2,1.9,0.4,3.6,1.3,4c-0.3,1.2-0.6,2.4,0.1,4.8c-2.4-0.7,0.1-3.9-1.5-5.2c-1.1,2.6-1.5,6-2.5,8.8c1.9,2.1,1.8-2.2,1.8-3.9
	c1.5,0,1.2,5.1,3.3,3.5c0.3,1.1,0.1,1.8-0.3,2.1c1.4,0.9,2,4.1,2.7,7c-0.9,0-0.8-2.9-1.9-2.3c-0.1,1.5-0.1,3.2,0,4.9
	c0.5,1.6,1.8,0.9,2.8,0.6c0.2,1.6,2,4.5,1.2,5.3c-1.8,0.7-0.4-3-2-3.6c-1.3,2.4,1.6,3.6,1.4,5.9c0.8-0.1,0.6-1,1.4-1.1l0.9,2.9
	c0.3,1,0.7,1.9,1,2.9c-0.1,1.1-0.4,0-0.9-1.3c-0.5-1.3-1-2.7-1.6-2.1c-0.5,1.9,2.2,4.4,2.9,6.9c0.1-3.9,1.9,3.3,2.9,5.4
	c0.1,1-0.4,0.3-0.8-0.9c-0.4-1.2-0.9-2.8-1.2-3.4c-1.3,1.5,1.4,5.1,2.4,6.3c-0.4,2,1,6.9,3,8.3c0.5-1.2-1.7-4.4-2.2-6.4
	c0.8-0.4,1.1,2.1,1.7,3c0.5,1.1,0.9,2.4,1.5,3.4c0.5,1,1.1,1.7,1.8,1.8c0.3,2,0.9,3.5,1.7,5.1c0.4,0.8,0.8,1.6,1.2,2.5
	c0.4,0.9,0.9,1.9,1.4,3c0.5,0.6,1,0,1.4,0.8c1,1.5,0.5,2.2-0.5,2.5c1.7,1.7,2.4,3.4,3,5.1c0.6,1.7,1.3,3.3,2.7,4.9
	c0,1.6-0.9,0.2-1.8,0.3c0.7,0.9,0.3,1.2,0.7,2c0.5,0.7,1.6,0.1,1.1-0.6c1.2,0.4,2,1.3,2.7,2.4c0.7,1.1,1.3,2.4,2.3,3.3
	c0.5-0.3,1.1-0.5,0.7-1.2c1.6,0.9,1.7,3.2,3.8,4.8c-1.6-0.7-2.1,1-1.3,2.5c-1.3,0.3-0.5-1.4-1.5-2.2c-0.8,0.4-0.8,1.2,0.1,2.4
	c2,2.3,1.6-1.5,3.2-0.5c0.5,1.5,0.8,2.2,1.3,3.1c0.5,0.8,1.2,1.7,2.4,3.4l-1,0.7c2.1,2.7,3.8,2.6,5.9,5.8c-1.5-0.1-0.1,1.5-0.1,1.8
	c-0.1,0.7-1.7,0.7-0.4,2.1c2.2,1.1-0.6-2.7,1.4-2.8c1.9,1.9,0,2.5,2.1,4.4c0.7,0.6,0.6-0.4,0.2-1c1.8,0.4,1.6,2.5,2.7,3.9
	c0.5,0.6,1.2,1.2,2.1,1.8c0.8,0.6,1.6,1.1,2.2,1.7c1.2,1.2,1.8,2.9,3.2,3.5c-0.4,0.6-1,0-1.4,0.3c1.3,1.6,2.8,1,3.1,2.7
	c-0.6,0.8-1.7-1.1-2.3-0.6c1.4,2.2,2.1,0.8,3.4,2.4c0.5-1-1.2-2.8-0.1-3.7c0.2,0.5,1.8,1.5,1.9,1.9c0,0.2-1.2-0.3-1.1,0.1
	c0.4,1.8,1,3.4,3.4,6.2c1.6,1-0.8-2.1,1.2-1.2c1.2,1.5,2.1,2.9,3.3,4.4l-0.9,0.9c0.7,1.4,1.2,0.9,2.1,1.8c1.6,1.8,0.9,2.8,3.4,2.4
	c-0.8-1.2-2.4-4,0.6-1.7c-0.1-0.7-1.1-1.6-2.2-2.5c-1.1-0.9-2.4-1.8-3.1-2.8c0.4-0.6,1.1-0.2,1.8,0.5c0.8,0.6,1.6,1.6,2.3,2.1
	c1.7,1.4,3.4,3.1,4.6,4l-1.4,1.6c2.1,1.9,3.3,1.8,3.4,0.2c1.1,0.8,2.1,1.7,3.2,2.5c-0.5,0.3-1.4-0.2-1.9,0.1c2.6,1.7,2.8,3.2,5.6,5
	c-0.3,0.2-0.8-0.1-1.1,0.2c1,0.9,1.8,1.7,2.7,2.4c0.9,0.7,1.7,1.2,2.5,1.8c1.6,1.1,3.2,2.2,5,3.8c0.7-0.4,1.5-0.5,2.5-0.1
	c1,0.3,2.2,1,3.6,2.1c0.4-0.7-0.5-1.2-1.5-1.6c-0.5-0.2-1.1-0.5-1.6-0.8c-0.5-0.3-0.8-0.7-0.9-1.2c0.4,0,0.8,0.1,1.3,0.4
	c0.5,0.3,1.1,0.6,1.7,1c1.2,0.8,2.4,1.8,3.5,2.3c-0.2,0.7-0.9,0.4-1.6,0c1.8,1.7-1,1.2,0,2.5c2.5,2-0.2-1.4,1.9-0.3
	c2.9,1.2,0.3,2.4,3.4,3.6c1.2,0.6-0.1-1.8,1.7-1.4c0.9,1.7,5.4,2.2,3.1,2.7c1.6,0.5,3.1,1.1,4.6,1.9c0.7,0.4,1.4,0.8,2,1.2
	c0.7,0.4,1.3,0.8,1.9,1.2c1.9-1.3-2.1-2.2-3.6-3.3c0.6-0.6,1.3-0.3,2,0.3c0.7,0.5,1.5,1.3,2.4,1.6c1.5,0.6,2.6,0.1,4,1.1
	c-0.1,1.5-1.5,0.8-3-0.1c-0.4,0.8,1.1,1.6,2.6,2.3c-0.8,0.8-1.5,0.9-0.4,2.2c0.9,0.2,0.1-2,2.2-1.2c1.1-0.6-1.9-2.6,0.4-2.2
	c1.5,0.8,0.6,0.7,0.2,1c3.3,1.2,4,1.8,7.4,3.4c-0.8,2-2.9-2-3.6-0.2c0.8,1.6,1.7,1.1,3.4,2.4c1.4,0.6,0.6-1.2,0.5-1.1
	c1.2-1.1,2.1,1.3,2.6-0.7c1.1,0.6,2.2,0.8,3.1,1.1c1,0.2,1.8,0.5,2.4,1.3c1-0.3,2.8,0.2,5,1.1c1.1,0.4,2.3,0.9,3.5,1.4
	c1.2,0.5,2.5,0.9,3.8,1.2c2.8,0.8,3.1,0.4,5,2.1c0.7,0.1,0.7-0.7,1.5-0.4c1,0.4,2,0.7,2.9,1c0.9,0.3,1.9,0.5,2.7,0.7
	c1.8,0.4,3.4,0.8,5,1.1c1.6,0.4,3.1,0.7,4.7,1c1.6,0.4,3.1,0.9,4.8,1.5c0.7,0.1,0.6-0.7,1.5-0.5c1.6,0.2,1.2,1.1,3.2,1.1
	c0.4,1.7-1.7,1.1-2.4,1.6c-1-1-3.3-2.8-5.7-2.2c0.1,1.3,2.4,0.7,3.8,1.7c0.3,0.2,0.1,1.2,0.4,1.4c1.1,0.7,2.6,0.8,3.9,1.2
	c1.1-1.2-2.1-0.7-1-1.9c1.1-0.4,5.3-0.5,2.4-1.7c0.4-0.5,6.1,0.1,5.2,1.4c3.6-0.8,8.4,0.8,14,1.6c6.1,0.6,13.9,0.7,18.8,0.5
	c1.8-0.2,1.3,0.9,2.6,0.9c1.5-0.4,3.2,0.2,3.4,0.1c1.1-0.2,1-1.5,3.4-0.9c1.3,1.4-1.1,0.8-2,1.3c-0.4,0.2-0.9,1.2-1.4,1.3
	c-0.9,0.2-3.8-1.3-3.4,0.3c0.2,0.7,1-0.3,2,0.1c0.3,0.1,0.4,2.1,2.7,1.3c0.3-1-3.1,0.3-2-1.2c3.2-0.5,7.2,0.9,10.2,0.7
	c-0.1-1.5-4.5-0.3-5.4-1.2c-0.9-1.7,1.5-1.3,1.4-2.5c1.7-0.2,3.3-0.3,4.8-0.3c1.5,0,3-0.1,4.5-0.1c2.9,0,5.6,0.3,8.2,0.4
	c1.9-0.9,4-1.5,6.1-1.8c1.1-0.2,2.1-0.3,3.2-0.4c0.5,0,1.1,0,1.6,0c0.5,0,1.1,0,1.6,0c0.3-1.7-1-1.9-2.9-1.7c0.1-1,2.8-0.8,3.1-1.7
	c-0.2-1.6-1.9,0.3-2.6,0.4c-2.2,0.3-4.6,0-7.3,0.4c-0.7,0.2-0.4,0.9-1.2,1c-1.2,0.2-2,0.2-2.7,0.1c-0.7-0.2-1.3-0.4-2-0.5
	c-1.5,0.3,0.8,0.6-0.6,1.3c-2.3-0.3-4.7,0-7,0.3c-1.2,0.2-2.4,0.2-3.5,0.2c-1.2,0-2.3-0.1-3.4-0.4c1.8-1.5-3.7-1-3.9-2.5
	c-1.7-0.1,0.6,2.3-2,1.7c0.1,0.5,1.2,0.3,2,0.4c2.1,0.3-1.2,0.6-2,0.5c-1.5-0.5-2.3-1.4-4.6-1.4c-0.7,1.2,1.4,0.8,2.6,0.9
	c-0.1,1.4-2,0.3-3.3,0.3c-1.4,0-3.1,0.2-5,0.2c-1.9,0.1-3.8-0.1-5.6-0.4c-0.2-0.9,1-0.7,2.1-0.7c-1-2.1-3.7-0.2-4.7,0.5
	c-5.3-0.5-5.6-2.6-10.3-2.8c-0.8,1.5,3,0.9,4.5,1.4c-2.6,0.7-5.5,0.3-8.3-0.3c-1.4-0.3-2.7-0.7-4-1c-1.2-0.3-2.4-0.6-3.5-0.6
	c-0.5,0-1.4,0.6-1.5,0.6c-1-0.1,0.3-0.8,0.2-0.8c-1.3-0.2-2.9,0.3-4.1,0.1c-2.5-0.6-2.8-2.1-4.9-2.4c-0.8-0.1-0.7,0.6-0.9,1.1
	c-1.5-0.5-2.9-0.8-4.4-1.1c-1.4-0.3-2.8-0.6-4.1-0.9c-2.6-0.6-5-1.2-6.7-2.5c-0.8-0.2-0.4,0.4-0.1,0.4c-2.4,0.1-8.2-2.1-9.3-3.5
	c-0.7,0-1.5-0.1-2.2-0.2s-1.4-0.1-2,0c-2.4-1-5.3-2.5-8.1-4c-2.8-1.6-5.6-3.4-8.1-5.1c0-2.1-1.4-3.4-0.5-4.8c-2.6-1-4.4-2-6.2-2.9
	l-2.7-1.5c-0.5-0.3-1-0.5-1.5-0.8c-0.5-0.3-1.1-0.6-1.6-1c-0.7,0-1.2,0.2-1.8,0.5c-1.4-0.6-2.1-1.3-2.6-2c-1.4-0.7,0,1.3,0.5,1.7
	c2.3,1.9,4,0.3,5.3,2.5c-1.6,0.2-3.5-0.5-5.7-1.8c0.1,0.5,0.1,0.9,0.7,1.4c-0.7,0.5-0.9-0.4-1.1-0.7c-0.3-0.4-1.2-1.3-0.3-2.1
	c-0.7-0.5-1.6-0.8-2.3-1.3c-0.3-0.2-0.6-0.7-0.9-1c-0.2-0.4-0.4-0.7-0.4-0.7c-1-0.6-1.8,0.5-3.2-1c0.7-1.4-2.5-2.8-1.9-4.2
	c-1.9-0.6-0.1,1.8-1.7,1.4c-1.8-0.9-2.4-2.1-0.9-2.1c-2.1,0.3-3.3-3.5-4.5-1.5c-0.4,1.5,3.2,0.7,2.7,1.8c-0.1,0.8-0.8,0.5-1.6,0
	c-0.8-0.5-1.6-1.3-2.1-1.6c-0.5-0.2-1.8-0.3-2.1-0.5c-1.5-0.8-3.4-2-4.9-3.3c-1.5-1.2-2.7-2.6-3-3.6c-1.8-0.6-3.4-3.1-5.6-4.5
	c-1.3-0.8-2.8-1.3-3.8-1.6c0.7,1.4,1.7,2.2,2.9,2.8c1.1,0.6,2.3,1.2,3.2,2.2c-0.9,0.2-1.9-0.2-2.8-0.8c-0.9-0.6-1.8-1.3-2.6-2
	c-1.6-1.3-3-3.8-5.7-5.5c0.5-1.4,1.9,0.5,2.6,0.1c-1.8-1-3.3-1.1-5.1-2.2c-0.1-1.9-1.8-2.2-3.6-4.7c-0.9,0.6,2.9,2.3,1,2.7
	c-1.5-1.3-3.3-3.9-4.4-3.1c-0.4-0.8-0.9-1.6-1.3-2.4c-0.4-0.8-0.6-1.6-0.4-2.3c-0.9-0.5-2-1.6-2.6-0.3c-1.5-0.9-1-2.9-2.1-1.7
	c-1.7-1.8-0.6-2.8-1.1-4.3c-1.5-1,0.6,1.8-1.1,1.9c-0.5-1.1-1.2-2-1.8-2.8c-0.6-0.8-1.3-1.6-2.1-2.3c-1.4-1.5-2.9-2.8-4-4.6
	c-0.7-0.3-1.2,0.1-1.9-1c1.3,0.1,1.2-0.3,0.9-0.9c-0.3-0.6-0.8-1.4-0.4-2c-1.1-0.1-4.3-3.5-4.1-1.9c-1.5,0.3-0.4-1.3-0.8-1.8
	c-1.4-1.2-0.3,1.4-1.8,0.5c-1.9-2.6-3.6-5.1-5.3-7.4c-0.9-1.2-1.7-2.3-2.5-3.3l-1.2-1.6c-0.4-0.5-0.7-1.1-1.1-1.6
	c-0.6-0.9-0.2-1.2-0.7-1.9c-1-1.4-2.5-2.1-3.5-4.1c-0.3-0.6-1-1.7-0.7-2.7c-1.3-2-2.8-4.6-4.2-6.8c-2-3-3.4-6-4.3-8.6
	c-0.4-1.3-0.7-2.6-0.8-3.8c-0.1-1.2,0-2.4,0.5-3.5c1.6-0.5,2.8-1.2,2.3-3.1c0.7-0.1,1.3,0.6,1.8,2c0.2-1.6,3.5,0.1,2.3-3.1
	c1.1,1.9,2.7,1,4,1.7c0.5,0.3,0.8,2.4,1.6,1.3c0.4,1.5,1,3.1,1.6,4.6s1.2,3.1,2.1,4.6c1.6,3,3.1,6.1,4.4,9c0.5,0.9,0.3,2.1,0.9,3.1
	c0.8,1.4,2.2,2.5,3,4.1c0.5,1,0.3,1.4,1,2.4c1.3,1.8,3.1,2.1,2.8,4.2c0.5,0.5,0.9-0.1,1.4,0.6c0.8,1.5,2.1,2.7,2.8,4.1
	c0.2,0.3,0.3,0.8,0.4,1.2l0.1,0.5c0,0.1,0,0.2,0,0.2c0.4,0.6,1.3,0.5,1.8,1c1.1,1,1.5,2.8,2.3,3.8c0.8,0.9,1.4,0.8,2.2,1.5
	c1.6,1.3,2.7,3,3.7,5.1c0.6,0.9,1,0.7,1.4,0.4c1.8,3.4,5.8,6.7,9.7,10.7c0.4,1.3-2,0.4-0.7,2.4c1.8,1,0.5-1.7,2-1
	c3.4,3.5,4.5,4.8,8.1,7.9c-0.6,0.2-1.2,0.1-1.9-0.7c0.1,0.7,0.3,1.1,0.7,1.3c0.3,0.2,0.7,0.3,1.1,0.3c0.7,0,1.4-0.4,1.4-0.4
	c2.4,1.7-1.4,0.2,0.1,1.8c0.9,1,1.3,0.3,1.8-0.1l3.3,2.9c0.2,1.3-0.4,0.4-1.1,1.3l1.4,1.2c1.2,0.7-0.6-2.8,2.1-0.5
	c2.1,1.5-0.5,0.4-0.6,1.7c1.4,1,0.6,1.3,2,1.6c1.1,0.8,1.4-1.2,2.1-1.5l3.4,2.7c-0.6,0-1.1,0.3-1.5,0.9c1,0,2.6,2,3,0.2
	c3,1.8,4,3.4,4.1,5c0.9,0.8,3.6,0,2.6,1.8c1.6,0.7-0.2-2.2,2.3,0.1c0-0.5,0-0.9-0.5-1.4c0.2,0,1.5,0.7,2.5,1.2
	c1.1,0.6,1.8,1.3,0.6,1.9c1.6,1,2.1-0.5,3.9,1c-0.2,0.3-0.5,0.7-0.7,1c0.7-0.4,2,0.4,2.8,0.3c1.5,1,1.4,2.1,1.7,3.1
	c1.1-1.6,4.6,1.4,5.5,1.7c0.1,0-0.8-1.3-1.4-1.3c1.8,0.3,3.4,1.3,5.1,2.5c1.6,1.2,3.4,2.4,5.3,3.1c0.3,1.8,0.4,3.1,2.2,5.4
	c1.6,1.2,1.6-0.5,3.2,0.6c-1-2.2,2.6-0.9,0.5-2.5c1.1-0.5,4,2,3.8-0.6c1.8,0.5,3.6,1.2,5.5,2c1.9,0.8,3.8,1.5,5.7,2.3
	c1.9,0.8,3.8,1.7,5.6,2.3c1.8,0.6,3.6,1.2,5.2,1.6c-0.9,1.3-3.8-0.5-6.2-1.2c-2.1-0.7-4.4-1.8-5.9-1.9c0.9,1,2.7,1.8,2.9,2.9
	c2.2,1.2,2.1-1,4.1-0.3l-0.3,0.8c2.9,0.8,4.2,2,5.5,3.2c0.7,0.1,0.7-0.7,1.5-0.4l2.1,0.7l2.1,0.6c1.3,1,0.1,0.9,0.8,1.5
	c2.4,0.7,0-0.7,1.6-0.9c1.6,0.4,3.7,1.5,3.4-0.4c0.9,0.5,1.8,0.9,2.9,1.2c1.1,0.3,2.2,0.5,3.3,0.8c2.2,0.5,4.4,0.8,5.8,1.4
	c-2.3,0.5-6.7-1.4-9.8-1.9c-0.9,0.4-2,0.5-2.4,1.5c1.6,0.6,2.6,0.6,2.8-0.5c2.1,1.4,4.1,0.6,7.3,1.7c-0.9,0.4-0.4,0.6-0.3,1.2
	c2.7,0.4,5.3,0.7,8.2,1.1c1.4,0.2,2.9,0.4,4.4,0.6c1.5,0.3,3.2,0.3,4.9,0.6c1.4,0.8-1.3,1.1,0.4,1.7c2.7,0.3-0.6-2.3,3.4-1.2
	c1.2,1.2-1.2,2.1-2.9,2.2c0.2,1.6,4.1,1.2,3.3-0.8c1.2,0.3,2.3,0,1.3-0.2c1.5,0.2,3.2,0.2,4.9,0.4s3.4,0.3,5.3,0.5
	c1.8,0.2,3.6,0.3,5.5,0.3c1.9,0.1,3.8,0.2,5.6,0.3c1.9,0.1,3.8,0,5.6,0c1.9,0,3.7-0.1,5.5-0.1c1.8,0,3.5-0.2,5.2-0.4
	c1.7-0.2,3.2-0.4,4.7-0.6c0.7-0.1,0.3-0.4,0-0.4c0.7-0.2,1.7-0.2,2.9-0.4s2.5-0.3,4-0.6c0.5,1.3-2.2,0.8-0.5,1.7
	c1.8,0.8,2.7,0,3.2,0.1c1.7,0.3-2.3,0.3-3.1,1.2c2.5,0.2,4.5,0.8,7.2,0.9c0.4-2,2.6-3.2,4.6-4.5c1.5,0,3.3-0.2,3.4,1.2
	c0.7-0.5,1.4-0.8,2.2-1c0.8-0.2,1.7-0.4,2.8-0.5c2-0.3,4.5-0.5,7.4-1.4c0.6,0.3,0.9,0.8,1,1.5c1.4-0.1,1.1-0.9,1-1.5
	c2.9-0.3,6.1-1.6,9.9-2.5c5.4-1.7,11-2.3,15.6-3.8c2.2-0.7,4-2.4,5.6-1.6c0.7-0.5,0.7-1.1,1.5-1.5c1.5-0.6,2.4-0.2,3.4-0.1
	c4-3.3,10.8-4.7,17.9-8.8c1.8,0.1-0.5,1.2,0.4,2.2c2.7-1.6,1-3.5,4.7-5c-0.1,0.9-1.1,1.8,0,2.8c2.2-0.9,1.4-2.7,3.8-2.5
	c0,0.9-2.5,1.7-2.3,2.7c1.8,0.1,2.3-2.8,5.2-4c0.7,0.9-0.1,1.7-1.6,2.5c1.8,0.6,1.6-1.8,3.1-2.4c0.6,0.7,2.5-1.4,3.2-1
	c1.1-1.5,2.1-4.4,3.9-4.9c-0.2,0.8,0.3,1.7,0,2.5c-0.9,0.7-1.5,0.3-2.5,1c0.4,0.9,1.3,0.7,2.3,0.1c1-0.7,2-1.7,2.5-2.2
	c0.8,0.9-0.5,1.9,0.3,2.9c0.6-1,0.7-1.9,1.3-2.9c1.8-1.5,2.5-0.4,3.7-0.5c-1.3,1-3.2,2.8-5.3,4.4c-2.1,1.6-4.4,2.7-6.1,2.5
	c-1.2,1,1,0.1,0.1,1.4c-1.3,0.7-2.7,1.7-4,2.5c-1.3,0.9-2.7,1.4-3.7,1.5c-0.6,0.3-0.2,0.7-0.2,1.1c-1.7,1-3.3,1.5-4.7,2.1
	c-1.4,0.6-2.5,1.4-3.4,2.7c-2.2-0.3-8,3.4-10.1,5.3c-1.3-0.6-3.9,0.6-6,1.2c0.5,1.5,3,0.2,4.5,0.4c-0.1,1.9-1.3,0.4-3.1,1.3
	c-1.4,0.5,0.3,1.5,0.1,2.2c4-1.3,4.7-3.1,6-4.8c3.9-1.7,6.9-3.2,9.6-4.5c2.7-1.4,5.1-2.8,8-3.9c-1.2,1.2-0.1,2.6-1.8,3.8
	c0.7,0.7,3.2-1.7,4-1.2c-0.2-0.8-0.7-1.1-1.8-0.5c-0.5-1.2,2.7-2.2,4.4-3.4c0.4,0.5,0.5,1.6,1.4,1.1c2.3-0.9-0.7-1.9,2.3-2.9
	c-0.3,1.8-0.5,1.5,1.6,1.5c0.9-0.8-0.1-1.1-1-0.4c-0.2-0.6,1.7-1.2,1.3-1.8c1.8-0.2,3.3-0.7,3,1.1c1.2-0.7,1.7-1.3,2.2-2
	c0.5-0.7,1-1.4,2.6-2.1c2.2-1.6,2.7,0.3,4.9-1.3c1.3-1.6,2.8-3.2,0.9-3.6c1.6-1,2.6-2.1,3.1-2.9c0.5-0.8,0.5-1.5,0.1-2
	c1.3-1.4,1.8-0.6,3-1.7c0.8,0.5-0.3,1.2-1.1,1.9c0.8,1,2.2,0.3,3.4,0c1.7-2.2,1.3-1.8,3.8-2.9c0.7,0.3,0.4,0.7,0,1.1
	c-0.4,0.4-0.8,0.8,0,1.1c0.3,0.4,0.6,0.1,0.8-0.4c0.2-0.5,0.1-1-0.3-1.2c1.7-1.5,2.2-2.8,4.5-4.3c-0.4-0.9-1.1-1.2-1.9-1.2
	c-0.3,1-2,2.2-3.4,3.4c-0.5-1-1.4-0.6-2.3-0.3c-1,0.3-1.9,0.6-2.4-0.2c1.6-1.1,3.4-2.6,5.2-4.2c1.9-1.6,3.9-3.3,5.9-5
	c1.9-1.8,3.8-3.6,5.6-5.2c1.8-1.6,3.5-2.9,4.9-4c1.3,1.4-0.8,1.5-1.6,2.2c-2.1,1.9-4.7,4.4-7.4,6.9c-0.6,0.6-1.3,1.2-2,1.8
	s-1.4,1.2-2,1.7c-1.3,1.1-2.6,2.2-3.8,3.1c1.9-0.6,4.5-3,6-2.3c2-1.3-0.4-1.8,1.8-3.2c1-1.2,1.2,0,2-0.8c1.6-0.6,0.8-1.8,1-2
	c0.2-0.2,0.9-0.3,1.3-0.6c0.7-0.6,0.6-1.1,0.7-1.2c2.2-2,4.7-3,6.4-6.2c0.7-0.9,1.1-0.7,1.5-0.4c1.2-1.7-1.1-0.2-1.2-1.2
	c1.1-1.3,1.8-0.5,2.8-1.1c1.1-1-0.8-1.3-1-2c0.9-1,1.7-2,2.5-3c0.8-1,1.5-2,2.3-3c1.5-2,3-3.8,4.5-5.6c0.5-0.6,1.3-0.2,1.5-0.5
	c0.5-0.5,1.5-2.5,2.2-3.5c0.8-1.1,2.4-2.4,2.2-3.4c0.6-0.2,1.3-1.3,1.9-1.1c0.6-1.7,2.2-3.9,4-6.3c0.9-1.2,1.8-2.4,2.7-3.7
	c0.4-0.6,0.8-1.2,1.2-1.8c0.3-0.6,0.6-1.3,0.9-1.9c1.4,0.3-0.2,2,0.3,2.7c-1.9,2-2.7,3.1-3.9,5.5c-0.6,1.2,1,1.4-0.6,3
	c2.4-0.9,1.7-3.8,2.9-5.5c1.2,0,2.6-3.7,3.7-2.4c0.1-1.4-1.9-0.5-1.3-2.6c0.8-1.8,1.4-1.2,2.2-2.6c-0.7-1.3-1.4,0.9-2.2,1.8
	c-0.3-1.4,1.5-4.5,2.6-6.4c0.5-0.8,1-1.7,1.4-2.4c0.5-0.8,0.9-1.5,1.4-2.2c0.2-0.3,0.7-0.7,1-0.9c0.4-0.2,0.7-0.4,0.7-0.4
	c0.4-0.7-0.2-1.2,0-1.6c0.5-1.4,2.1-1.8,1.6-3.7c0.4-1.1,0.9-0.9,1.4-0.8c1-1.7,0.1-2.3,1.1-4c0.6,0.5,0.3,1.5-0.5,2.8
	c0.9,0,1.8-1.4,2.7-1.6c0.6-1.5,1.2-3-0.2-3.2c0.5-0.3,2.8-3.1,1.2-3.2c-1.2,0.1-0.7,2.6-2.1,4.2c-0.3-0.8,0.4-2.2,0.8-3.4
	c-1.3-0.2-2.4,2.8-3.7,2.6c-0.8,2.9-1.5,3.2-3.2,4.3c-0.6-0.7,2.7-1.8,1.2-3.1c-0.5-0.1-1,1-0.6,1.2c-1.8,1.4-1-4-3.1,0.5
	c-1.5-1.2,3.2-4.2,1.6-5.8c-0.7,1-1.5,1.7-2.2,2.5c-0.4,0.4-0.7,0.9-1.1,1.4c-0.4,0.5-0.8,1.1-1.1,1.8c-0.6,1.8,1.3-0.2,1.8,1
	c-1.1,1.3-2.3,0.6-3.5,1c-0.6,1.4-0.6,2.7-1.9,3.4c-0.3-1.6,0.4-3.1,1.4-4.7c0.5-0.8,1.1-1.7,1.6-2.5c0.5-0.9,0.9-1.9,1.2-2.9
	c0.5,0.6-0.6,2,0.9,2c1.5-2.1-1.1-1.8,0.6-4c-0.4-0.3-0.7-0.2-1,0.2c0.2-2.3,0.9-4.9-0.7-6.1c0.6-2,1.5-1.5,2.1-2.5
	c1.5-2.4,1-3.7,2.2-6c0.9,0.3,1,1,0.4,2.3c1.3-0.4,2-2,2.6-3.4c0.7-1.3,1.2-2.5,2.5-2.1c0.5-2.7-2.3-0.8-3.2,0
	c-0.9-0.3,0.6-2.2,0.8-3.1c0.5,2.3,2-0.2,3.2-0.1c0.2-1.6,0-2.9,0-4.3c0-0.7,0-1.4,0.1-2.2c0.1-0.8,0.3-1.7,0.7-2.8
	c0.3-1.7,1.2-0.9,1.8-1.4c0.1-0.5-0.2-0.8,0-1.4c0-1.4-1.6,1.4-1.4-1.2c0.2-1.4,1-1,1.6-0.8c0-1,0-1.9,0.1-3c0-1,0.1-2.1,0.6-3.5
	c0.6-1.5,1.8-1.3,2-4c-0.5,0-0.7,1-0.9,1.7c-0.4-1.1,0.3-3.2,1-5.6c0.6-2.4,1.3-5,1.3-7c0.7-1.2,2.2,0,2.6-2c0-1-0.6,0.1-1.2-0.3
	c0.8-3.6,1.4-7.2,1.4-10.1c1.2,0.1,2.2-0.4,2.1-2.9c-0.5,0.3-0.6,1.4-1.4,1.1c-0.3-1.3,0.9-0.9,1-1.1c0.4-1.3-0.8-3.1,0.6-4.4
	c0.6,1.2,0.5,2.2,0.3,3.5c-0.2,1.2-0.5,2.6-0.6,4.3c-0.1,1.5,1.2,1.4,0.7,3.4c-1.2-2.2-1.2,4.5-2.3,5.5c0.3,0.7,0.5,1.5,0.8,2.2
	c-0.7,1.5-2.1,1.2-3,1.9c0.7,2.2-1.5,1.9-1.5,4.9c2.2,1.5,2.5-3.4,4.1-0.9c-1.1,1.5-2.2,2.8-4,2.3c-1,2.6,0.3,3.1,1.3,1.7
	c0.6,0.6-0.1,1.5-0.8,1.1c-0.4,2.3-1.3,2.9-2,4.1c-0.5,1.1,1.6,1.5,1.4-0.2c1,1.2-1.5,2.5-0.6,3.8c0.6,0.4,0.9-0.4,1.4-0.2
	c-0.2-1.2,1.3-3.9-0.2-4.1c0.3-2.6,1.7-1.5,2-4.1c1-0.1,0.2,1.4,0.9,1.6c1,0-0.1-1.2,0-1.4c0.2-0.8,1.1-0.8,1.3-1.7
	c0.1-1.1-0.5-1.9-0.1-3.4c0.1-0.9-0.9-0.8-1.5-1c0.4-2.6,1.8-2.6,2.7-4c0.7-1.9-0.6-2-1.1-2.9c0.8-1.3,2.1-1.7,3-2.7
	c-0.7-0.8-0.9-2.1-0.9-3.7s0.3-3.3,0.2-5c1.4,0.9,0.9-2.4,1.3-3.7c0-2-2.1-1.6-1.1-4.7c0.3,0.5,0.5,1.2,0.6,2c1,0,0.6-2.8,0.4-3.2
	c-0.4,0.5-1,0.6-1.4,1.1c-1.5,1.6-0.8,3-1.9,1.7l-0.8,5.7c-1.3-1.3,0.4-4,0.5-7c0.1-1.1,0.1-2.7,0.2-4.5c0.1-1.8,0.3-3.7,0.7-5.7
	c1.2,0.6,1.6-0.5,2.6-0.4c0.5-1.7,0.4-2.9,0.4-4c0-1.2,0-2.2,0.4-3.7c0.9,0.3,1.5,1.2,1.6,2.7c1.4-1.8-1.4-3-1.5-4.6
	c-0.2-2.3,1.6-1.5,1.4-3.8c-0.1-1.2-1.7,0.1-1.3,1.9c-2-1.4,0.6-2.3,0.9-3.9c-0.5-2.6-1.5-0.8-2.5-2c0.2-2.5,1.8,0.8,2.1-1.9
	c-1-0.4-0.4-3.3-2.1-2.6c0.8-2-0.7-5.5,0.7-3.9c-0.4-1.7,0.2-5.1-0.8-5.8c0.2-1.2,0.8-0.1,1.3-0.1c0.2-2.1-1.4-0.8-1.8-1.8
	c1.5-1.2-0.9-1.7-0.5-5.1c0.9,0.3,1.5,1.2,2.3,1.7c0.1,1.5,0.2,2.9,0.3,4.3s0.2,2.5,0.3,3.7s0.3,2.3,0.4,3.3
	c0.1,0.5,0.2,1.1,0.2,1.6c0.1,0.5,0.1,1,0.2,1.5c0.2,2,0.5,4,0.8,6.2c0.1,1.1,0.2,2.2,0.3,3.4c0,1.2,0,2.5,0,3.8
	c0.1,0.9,0.7,0.1,0.9-0.6c0.2,2.3,0.8,4.8,0.6,6.6c-0.1,0.5-0.8,1.1-0.9,1.9c0,0.5,0.2,1.6,0.3,1.3c-0.3,1-1.1-1-1,2.5
	c-2.5-1.3-0.2-4.5-0.8-6.6c-0.4,0.7-0.8,1.4-1.1,2.3c-0.4,0.8-0.7,1.7-1,2.7c-0.6,1.9-1,4.1-1.3,6.4c-0.3-0.4-0.6-0.7-1.2-0.8
	c0.2,2.6,1.9,1.7,3.3,1c0.7-2.8-1.2-2.3-0.9-4.6c1.9,0.5,3.6,3.2,4.3-0.9c-0.1,1.3-0.1,2.8,0,4.3c0,1.5,0.1,3.2,0,4.9
	c-0.2,3.3-0.5,6.8-1.7,9.8c0.9,2.2-0.5,6.7-1,10.5c-0.1,1.3,1.5,0.9,0.7,2.9c-1.4,1.3-2.2,1.1-3.3,1.2c-0.3,3.1-0.5,2.4-1.1,6.5
	c0.8,0.5,1.2-0.1,1.8-0.2c-0.6-1.2,0.1-3.8-0.6-4.9c3.5-3.3,3,3.5,1.5,6.5c0,0-0.6-1-0.7-0.9c-0.1,0.3-1,3.8-0.1,3.4
	c-0.6,1.8-1.4,4.7-2.1,7.9c-0.8,3.1-1.8,6.6-2.4,9.5c-0.4,2-1.3,4-2.1,5.8s-1.6,3.7-2.1,5.4c-0.5,1.6-0.5,4-1.2,6
	c-0.9,2.5-2.1,4.8-1.6,6.6c1.5,0.3,2.4-3.1,3.9-2.6c0.5-3.1,2.8-7.5,4.7-7.6c-1.2-1.2-1-3.5-0.4-6c-0.9-1-1.4,0.5-2.2-0.2
	c1-4,3-1.1,3.6,0c0.2-0.2,0.5-1,0.9-2c0.4-1,0.9-2.1,1.4-2.9c0.4-1.2-1.8,0.5-1.8-1.4c-0.4,0-0.3,0.9-0.4,1.9
	c-0.1,1-0.3,2.1-1.2,2.5c-0.3-0.8-0.1-2-0.8-2.5c1.1-2.2,1.8-4.8,2.7-7.6c0.4-1.4,0.9-2.9,1.3-4.5c0.4-1.6,0.9-3.3,1.5-5.1
	c1.4-1.8-1.3,4,0.3,3.6c1,0.2,1.4-1.9,1.9-3.6c0.6-1.7-1.4-1-0.5-3c0.8,1.9,1.8-0.4,1.8-1.6c-0.1-1.6-1.8-0.5-0.1-1.4
	c1.4-0.7,2.3-2.6,1.9-4.4c-1,0.5-1.3,2.8-2.6,2.1c0.3-2.1,1.5-1.5,2-3c0-0.5-0.3-0.8-0.1-1.4c-1-0.7-1.1,1.2-1.7,1.7
	c-1,0.4,0-2,0-2.1c0-1.6-0.4-1.7-0.2-2.8c0.4-2.9,1.5-6.8,1.9-10.5c0.8,1.9-0.1,2.6-0.5,5.3c1.1,0.1,1.2-2,1.5-3.8
	c1.2,0.2,1.8-1.2,2.5-2.3c-0.3-2.3-1.4,1.5-2.6,0.2c0.3-3.9,2.9-2.2,4-4.1c0.3-2.5,1-4.2,1.6-6c0.1-1.3-1.4-0.6-1.5-1.6
	c0-3.5,2.1-2.6,1.8-6.6c1.9,0.6,2-2.4,3.9-1.7c-1.3,2.2,0.1,4.9,0.7,6.4c0.6-0.1,0.5-1.7,0.7-2.7c0.3,0.6,0.9,0.9,1.6,0.9
	c0,1.5-0.5,2.2-1.4,2c-0.3,1,1.5,1.9,0.2,2.1c-0.9,0.9-1,0.5-0.7-1.5c-0.8,1.2-2.3,0.4-2.5-1c-0.7,0.4-0.5,1-0.3,1.7
	c0.2,0.7,0.5,1.6,0.2,2.4c-1,0.1-1.7,0.9-3,0.3c-0.3,2,2,1,1.7,3c1.1,0.4,0.7-2.6,1.9-1.8c-0.4,1,0,3.6-0.9,3.4
	c0.4,1.2,1.2,1.9,0.7,4.3c-0.6-0.7-1.2-1-1.7-0.7c-0.2,0.2-0.4,0.5-0.5,1c-0.2,0.5-0.3,1.2-0.3,2.1c-1.3,1.6-0.8-2-2.1-0.4
	c0.3,0.9,1,1.4,0.2,3.5c-0.7-0.4-0.9,0.4-1.1,1.2c-0.9-0.6-2.2-1.8-3.3-0.7c0.2,1.2,1.5,1.2,0.6,3.6c-1.8,0.5-0.5-2.4-2.2-1.9
	c-1,2.5,0.8,2,1.2,3c-0.4,1.2-1.9-0.4-1.8,2.3c0.4,0.5,1.5,0.5,1.6,2.5c1.1-0.3-0.8-1.9,0.5-4c0.4,0.6,0.7,0.3,1-0.2
	c0.2-0.5,0.4-1.3,0.7-1.5c0.3-0.2,0.9,0.4,1.2,0.3c0.5-0.1,0.7-1.6,1.5-1.1c0.2,0.9,0.2,1.9-0.2,3.5c-0.5-0.4-0.4-1.3-1-1.6
	c-0.4,1.7-0.4,2.8,0.1,3.5c1,0.1,1.6-0.7,2-1.8c0.3-1.1,0.4-2.6,0.5-4c1.4-0.4,0.5,1.7,0.3,2.9c1.3-1,2.3-1.6,2.9,0.6
	c0.5-0.1,0.5-1.3,1.1-1.2c0.2-1.8-1.1-2.6,0.3-4.2c1.7,0.9,0,6.5-0.8,10.6c-0.4,2.3-0.2,4.3-1,6.3c-0.3,0-0.2-2.3,0.2-2.9
	c-1.4,1.9-0.2,2.4-0.5,4.2c-0.2,1-1.4,1.7-1.4,1.8c-0.2,1.2,0.5,2.4,0.3,3.7c-0.2,1.1-0.8,1.4-1.2,2.6c-0.3,1.1-0.4,2.5-0.6,3.8
	c-0.3,1.2-0.7,2.4-1.4,3c-0.9-0.6-1.4-1.6-1.3-2.9c0.1-1.3,0.5-2.8,1.4-4.5c-0.7-0.1-1.2,0.6-1.6,1.5c-0.2,0.5-0.4,1.1-0.6,1.6
	c-0.2,0.6-0.4,1.2-0.6,1.8c-0.3,2,0.4,1,1.4,1.2c-0.6,1.3-0.6,2.1,0.1,2.3c-0.3,1.2-1.5,3.2-0.1,3c0.8,0.2,0.2-2.7,1.5-3.2
	c0,1.8-0.6,3.5-1.3,5.3c-0.4,0.9-0.7,1.8-1.1,2.7c-0.4,0.9-0.7,1.9-1,2.8c-0.2,0.9,0.1,1.9-0.2,3c-0.5,1.5-1.1,3.2-1.7,5
	c-0.6,1.8-1.4,3.5-2,5c-1,2.5-2.1,5.1-3.1,7.5c-1.1,2.3-2.3,4.5-3.3,6c-0.1,0.1-0.6-0.5-0.7-0.4c-0.7,0.4-0.2,2.1-0.9,2.7
	c-0.9-1.3-0.9-0.9-0.9,0.2c0,0.5-0.1,1.3-0.3,2c-0.2,0.8-0.5,1.5-1.1,2.2c-0.4,0.8,0.4,0.9,0.7,1.2c-1.5,2.5-3.1,6.2-4.6,6.3
	c-1.3,1.8,0.3,2.1-1.5,4.1c-1.5-0.3-1.5-1.4,0.1-3.3c-1-0.7-2.2,1.1-3.3,2.9c0.8,1.1,1.7,0.2,2.5,0.8c-8.2,14.8-18.5,28.6-30.1,40.8
	c-11.6,12.3-24.5,23.2-37.8,32.7c-2.3,1.6-4.3,3-6.4,4.5c-1,0.7-2.1,1.4-3.1,2.2c-1.1,0.7-2.2,1.3-3.5,2c-1,0.6-0.8,1-1.6,1.5
	c-1.1,0.6-2.6,1.4-4.4,2.4c-0.9,0.5-1.8,1-2.8,1.5c-1,0.5-1.9,1-2.9,1.5c-2.1,1.1-3.7,2.7-6,3.8c-3.2,1.2-12.3,5.6-17.4,8
	c-1.5,0.8-3,1.8-4.9,2.8c-1.8,0.9-3.9,1.6-6.4,1.6c-3.2,1.8-5.7,3.1-8.7,3c0.6,0.3,1.7-0.1,1.7,0.8c-2.6,0.5-4.8,1.2-7.1,2.1
	c-1.2,0.4-2.3,0.9-3.6,1.3c-1.3,0.4-2.7,0.8-4.3,1.1c0.1-0.6,1.1-1,1.1-1.6c-2.9,0.3-1.4,1.9-3,2.5c-1.6,0.3-0.8-1.7-0.5-2
	c-1.9,0.7-2.7,1.7-4.5,2.5c-2.3-0.2-3.6,0.7-6.2,1.3c-1.2,0.3-2.5,0-3.5,0.3c-0.9,0.2-1.9,0.8-3.3,1.3c-1.4,0.5-3,0.9-5,1
	c-1,0-1.9-0.5-2.2-0.5c-1.2,0.1-1.6,1.7-3.5,0.5c-2.3,0.6-7.9,2.4-11.1,2.9c-1.3,0.2-2.5-0.2-2.9-0.2c-1.3,0-1.5,0.6-2.8,0.6
	c-1.5,0-1.5-0.7-2.2-0.7c-0.4,0-1.3,0.5-2.1,0.5c-3.1,0.2-7.9-0.5-10.6-0.1c-1.2,0.2-2.1,0.8-3.6,0.9c-0.5-0.4-1.3-0.6-2.1-0.8
	c-1.5,0.8-4.3,0.3-6.4,0.2c-1.5-0.1-3.4,0.7-5,0.7c-1.3,0-1.5-0.6-2.8-0.6c-2.4-0.1-5.2-0.2-8-0.2c-1.4,0-2.9-0.1-4.3-0.2
	s-2.8-0.2-4.1-0.3c-1.1-0.1-1.1-0.6-2.1-0.7c-1.2-0.1-2.4-0.2-3.5-0.2c-1.1-0.1-2.2-0.2-3.2-0.2c-2.1-0.2-3.9-0.3-5.4-0.7
	c-1.5-0.4-0.9-0.7-1.9-1.2c-0.5,0-0.9-0.1-1.4-0.1c-0.5-0.1-0.9-0.1-1.4-0.2c-0.9-0.1-1.8-0.2-2.7-0.3c-1.8-0.2-3.7-0.5-5.8-1
	c-0.3-0.5-1.5-0.8-1.1-1.5c-0.8-0.1-0.8,0.6-1,1.1c-4.4-1.5-8.2-0.3-11-3.1c-2.5-0.4-2.5-0.7-5.6-1.4c-0.6-0.7-1.7-1.4-0.6-2.4
	c-3-1-1.2,0.6-2.6,0.9c-3.2-0.7-2.9-2-5.7-2.9c-1.2-0.4-0.9,1.2-1.9,1c-3-2-8.1-2.7-12.6-5.2c-1.3-0.7-2.7-2.1-4.2-2.8
	c-2-0.9-4.9-2-7.5-3.1c-2.6-1.2-5-2.4-5.6-3.9c-0.7,0-1.3,0.1-1.9,0.4c-1.8-1.6-3.6-2.3-5.4-3.1c-0.9-0.4-1.9-0.8-2.8-1.3
	c-1-0.5-1.9-1.2-2.9-2.1c-1.9,0.9-2.8-0.8-5.5-2c-0.5,0.2,0.3,1.7,0.5,1.8c0.6,0.5,1.5,0,2.3,0.5c1,0.5,0.9,1.2,1.6,1.5
	c1,0.4,2.1,0.4,2.9,0.8c1.4,0.7,2.1,1.6,3.5,2.5c1.5,0.9,3.8,1.6,6.2,3.6c0.7,0.5,1.4,1.6,1.5,1.7c0.7,0.4,3.1,1,4.7,1.9
	c2.1,1.2,2.5,1.2,5.1,2.6c2.3,1.1,5.5,2.6,9.2,4.1c-0.1,0.7-0.9,0.4-1.2,0.8c1,0.4,2.1,0.9,2.9,1.3c0.8,0.4,1.1,0.9,0.6,1.5
	c0.8,0.2,0.9-0.5,1.2-0.9c0.5-0.8-2.3-1.1-3.2-1.8c1.3-0.2,3.1,0.2,4.9,0.9c1.8,0.7,3.8,1.8,5.3,2.7c1.5,1.2,2.7-0.7,2.8,0.7
	c1.1,1.3-0.6,0.7-1.8,0.7c-0.8,0-0.1,0.9-1.7,0.3c-0.5-0.2-0.5-0.7-1.2-0.9c0.3-0.4,1.4,0.2,2.2,0.4c-1.8-1.9-4.6-1.5-6.6-3
	c-1.9,1.7,5.2,2.1,3.1,3.9c2,0.4,3.5,0.3,5,0.4c1.5,0.1,3.1,0.3,5.2,1.5c1.5-1.4-3.1-1.6-2-2.9c3.2,0.9,5.9,2,7.2,3.3
	c-1.4,0.2-5.3-1.1-3.4,1.1c1.4,0.3,1.1-1.3,3.2-0.3c-0.7,1,0.3,1.8,1.7,2.2c1.4,0.4,3.1,0.3,3.7-0.1c-0.4-0.9-1.9-1.4-3.9-2
	c1.1-1.3,3.6,0.7,5.7,1.2c-2.1,1.1,0.8,2,2.1,3.2c1.2-1.3-2-2.1,0-2.6c1.8,0.8,1.2,2.2,3.7,2.8c2.1,0.3-1-0.9-1.2-1.2
	c0.9,0.1,1.8,0.3,2.8,0.5c1,0.2,2,0.3,3,0.5c2.1,0.4,4.3,0.8,6.6,1.3c1.1,0.2,2.3,0.5,3.4,0.7c1.2,0.2,2.4,0.4,3.5,0.6
	c2.4,0.4,4.7,0.8,7,1.2c0.8,0.2,3.8,1.6,5.1,0.3c1.9,0.6,4.9,1.1,7.8,1.5c2.9,0.3,5.7,0.5,7.3,0.5c-1.2,1.3-5,0.4-8,0.1
	c-4.4-0.5-8.4-1.2-11.6-1.1c0,1.5,1.8,1.3,0.3,2.6c2.7,0,3.8,1.2,5.1,0.7c-0.9-0.3-1.4-0.6-3.5-1.3c2-1.9,4.3,0.8,7.2,1
	c0.4-1-3.3-0.2-2-1.5c2.1,0.3,4.3,0.6,6.5,0.8c2.3,0.2,4.6,0.4,7.1,0.6c1.2,0.1,2.4,0.2,3.7,0.3s2.5,0.1,3.8,0.2
	c2.5,0.1,5.1,0.2,7.6,0.3l1.9,0.1l1.9,0c1.3,0,2.6,0,3.8,0c2.5-0.1,5.1,0,7.6-0.2c2.5-0.2,5-0.3,7.3-0.5c1.2-0.1,2.4-0.2,3.5-0.2
	s2.3-0.3,3.4-0.4c1.2-0.2,2.5,0.2,3.7,0c1.6-0.2,2.8-0.8,4.3-0.9c0.6,0,1.3,0,1.9,0.1c0.7,0.1,1.3,0.2,2,0.2c1.3,0.1,2.5,0,3.3-1
	c0.4,0.9,3,0.1,3.8,0.7c0.9-0.2,0.6-0.9-0.1-0.8c3.1-1,6.3-2,9.5-2.7s6.5-1.3,9.6-2.1c3.1-0.7,6.2-1.4,9.1-2.2
	c2.8-0.9,5.5-1.9,7.8-3.1c1.1-0.1,0,0.4,0.2,0.8c1.1-0.6,2.3-1.2,3.6-1.8c1.3-0.6,2.7-1.2,4.4-1.8c0.3,1-2.5,1.5-2.2,2.6
	c2.2-0.8,4.7-3.4,6.8-2.9c0.6,1.7-3.1,0.6-3,2.5c-2.1,1-2.7,0.2-5,1.4c-0.5,0.3-0.6,0.6-1.3,0.9c0.1,1,0.6,1.5,1.9,1.2
	c-2.1,1.2-2,3.1-2,3.7c0.8,0.6,1.9,0.2,2.9-0.2c1-0.5,2.1-1.1,3-0.9c0.8,1.1-2.2,1.2-2.7,1.4c-0.7,0.3-0.1,0.9-0.5,1
	c-2,0.9-4.8,1.6-7.8,2.9c-1.4-0.3-1.9-2.7-0.2-3.5c0.3-1.1-3.1-0.8-3.1,0.1c-2.4,0,1.1-1.7,0.9-2.5c-1.6,0.4-2.2,1-1.8,1.9
	c-2.2,0.9-1.9-0.8-4.5,0.4c0.4-1,1.6-1.2,2.8-1.3c1.2-0.2,2.3-0.5,2.6-1.5c2.4-0.8,5.9,0.1,7.9-2c0.4-2-5.6,1.7-3.3-0.7
	c-2.6,1.9-4.9,1.6-6.7,3.4c-1.4,0.2-3.1,0.7-3.1-0.5c-1.3,1-3.5,1.7-6.1,2.2c-1.3,0.3-2.6,0.5-4,0.8c-1.4,0.2-2.8,0.3-4.1,0.5
	c-2.5,1.5-6.2,2.8-8.5,2.6c-1.9,0.8-3.5,1.8-6.4,2.3c-0.2-0.7,0.8-1,0.5-1.8c-1.8,0.2-1.6,1.2-2.8,1.7c-1.2,0.2-2.7,0.4-4.1,0.6
	c-1.4,0.2-2.5,0.4-3.2,0.8c0.5,0.5,1.6,0.6,3,0.5c-1.3,0.9-4.7,0.9-5.8,1.9c-1.7,0.2-2.8-0.1-3.9-0.4s-2.1-0.6-3.6-0.6
	c-1.1,0.2,0.3,0.5,0.1,1.3c-3.1,0.3-4-0.8-7.4-0.4c-0.7,0.3-0.7,1-2.2,1c-0.3,0.7,0.6,0.8,1.5,0.8c-2.4,1-4.2,0.4-6-0.2
	c-1.7,0.3,0.9,0.6-0.8,1.3c-2.5-0.3-1-2.8-5.2-2c0.5,0.4,1.7,0.4,1.5,1.2c-2.5-0.7-2.8,1-4.5,0.5c0.2,0.1,0.8-1.1,0-1.3
	c-0.7-0.1-2,0.9-0.8,0.8c0.3,1.2-4-0.5-3.8,0.7c0.4,0.6,2.2,0.5,3.7,0.6c1.5,0,2.8,0.1,2.2,1.2c1-0.1,0.6-1.1,0.8-1.7l3.7,0
	L278,548.4z M356,538.3c-0.5-1.2-1.2-2.2-3.6-1.5l0.7,2.4L356,538.3L356,538.3z M353.7,533.3l-2.1,0.7c1,1,1.5,2.6,5,1.1
	C357.2,532.8,353.1,535.6,353.7,533.3z M298.6,543.6c2.2-0.1,0.8,2.4,4.5,1.2c0.7-1.4-1.2-0.9-1.6-1.5
	C302,542.5,298.1,543,298.6,543.6L298.6,543.6z M515.1,314.9c-0.4-1.6,0.2-4.5-1.5-4.4c-0.7,2.1,0.9,1.6,0.9,2.9c-1-0.3-2-0.4-2.2,1
	C513.2,314.6,514.1,314.8,515.1,314.9L515.1,314.9z M507.5,346.2c-0.2,0.7-0.4,1.3-0.6,2c1.4-0.1,1.3,1.1,2.2,1.4
	C510,347.2,508.3,347.2,507.5,346.2L507.5,346.2z M511.5,346c0.8,1.8,1.7,1.3,1.9,4.2C514,347.8,513.2,343.2,511.5,346z
	 M512.5,333.4c1.2,0.3,1.7,3.5,2.6-0.1c-1.7,0.4-1-1.7-1.6-2.5C513.3,332.1,512.7,332.2,512.5,333.4L512.5,333.4z M509.9,333.4
	c-0.5-0.3-0.4-1.3-0.9-1.6c-0.3,0.9-0.9,1.1-1,2.5C508.8,334.8,509.5,334.6,509.9,333.4z M513.6,337.9c0.5,0.4,0.5,1.2,1.5,1.1
	c0.2-1.2,0.6-2.1,1-2.6C515,336,513.9,335.8,513.6,337.9L513.6,337.9z M505,349c1.6-1.7,0.7-4.3,2-7.2c0.6,0,1-0.9,1.6-1
	c0.5,0.2,0,1.3,0.4,1.5c0.8-1.5,2.3-1,2.7-3.5c0.2-1.4-0.4-2-0.6-3c-2.1-0.3-3.8,0.6-4.7,3.7c0.7,0.7,0.8-0.7,1.1-1.1
	c0.6-0.6,2.2-1.5,2.2-0.1c-0.7,1.6-1.7,2.6-3.1,2C505.6,343.6,504.9,346.6,505,349L505,349z M497,347.9c0.6-1.8,0.8-3.2,0.3-4
	c0.1,2.5-0.6,1.8-1.5,3.7L497,347.9L497,347.9z M487.9,359.1c0.6-0.3,2.8-4.4,1.1-4.4c-0.5,0.1-1,1.2-1.3,2.2S487.3,359,487.9,359.1
	L487.9,359.1z M489.8,366.9c0.9-3.2,3.7-4.7,3.5-7.8c-1.9-1.4-2.7,2.1-2.2,3.4C490.3,365,489,365.3,489.8,366.9L489.8,366.9z
	 M486.2,375.3c1.1-0.7,1.3-2,1.5-3.3c0.2-1.3,0.4-2.5,1.4-3.3c-0.6,0-1.1,0.4-1.4,0.8c-0.4,0.5-0.6,1.1-0.8,1.8
	C486.4,372.7,486.3,374.3,486.2,375.3L486.2,375.3z M480.9,375.7c1.2-2.7,4.4-4.9,3.4-7.6C483.6,371.4,480.7,373.4,480.9,375.7z
	 M507.4,359.3c0.2,0.1,0.4,0.3,0.2,0.8c1,0.6,1.6-0.5,2.1-2.2C508.6,357.3,507.8,357.5,507.4,359.3L507.4,359.3z M500.1,357.4
	c1.4,1,1.6-3.4,2.5-4.9c1,1.5,1.6,0.4,2.4-2C502.6,349.1,500.4,355.3,500.1,357.4z M502.8,358.4c0.4-2.2,1.3-1.8,2.1-2.2
	c0.4-1.2,0.5-2.3,0.1-2.9c-1,2.5-1.6,2.6-2,0.8C502.3,355.7,502.3,359.2,502.8,358.4L502.8,358.4z M508.5,361.2
	c-0.5,0.9-1.2,0.9-1.9,1.2c-0.7,0.3-1.2,0.9-1.7,2.6c0.6,1,1.3-0.9,2.1-0.7c0.2,0-0.1,1.7,0.7,1.8c0.4,0,1.1,0.1,1.8-2.3
	C507,363.6,509,362.4,508.5,361.2L508.5,361.2z M500.5,375.2c-2.6-0.3,2.7-5.1-0.7-4c1.2-2.1,0.6-2.9,0.7-4.1
	c1.6-1.8,3.3-3.6,4.6-6.3l-1.6-0.6c-0.8,3-1.8,4.5-2.7,2.6c-1.2,3.4-1.3,6.1-2.3,9.4c1,0,0.8,1.7,0.6,2.9
	C499,376.2,498.9,376.9,500.5,375.2L500.5,375.2z M502.7,384.7c0.9-2.7,1-4.9,1.4-7.2c0.9-1,1.6-2.3,2.3-3.9c0.7-1.5,1.4-3.2,2.1-5
	c-0.8-0.6-1.5-0.5-2.2-0.1c0,1.4-1.4,3.8-1,4.9c1.3-1.4,0.5-2.5,1.7-3.1c0.2,2.2-1.7,4.3-2.8,4.9c0.7-3.7-1.1-1.7-1-4.2
	c0.4-1.3,1-1.2,1.4-2.4c-1.1-0.5-1.7,1.6-2.7,1.1c-0.1-0.3,0.6-3.4-0.3-1.6c-0.4,2.3,1.4,2.9-0.1,6c2.4-1,1.5,1.8,1.1,2.8
	c0.6-1.2,1.3,1.1,1,2c-1.8-1.1-2.9,4.1-4.6,4l1.9,0.9c0.8-1.7,1.5-3.9,2.5-3.5C502.6,382.1,500.6,384.8,502.7,384.7L502.7,384.7z
	 M494.5,384.6c-0.5,1.9-1.3,1.3-1.9,2.9C493.7,389.4,495.6,384.9,494.5,384.6z M496.4,390.2c1.5-2.6-0.6-1.3-0.2-2.4
	c0.9-1.6,1.9-3.6,1-4.1c-1.4,2.3-1.3,4.3-2.4,5C496.1,388.6,495.3,390,496.4,390.2L496.4,390.2z M496.3,394.9
	c0.5-1.1,2.6-2.6,1.9-3.8c-0.3,0.5-0.7,0.6-1.1,0.2C496.3,392.9,495.5,394.4,496.3,394.9z M493.3,398.9c-0.7,2.2-1.4-0.2-2.1,2
	c-0.4,1,0.8,1.2-0.7,2.9c0.7,1.5,1.4-1.8,2.1-0.4c-1,1.9-3.1,2.2-2.1,3.7c0.9-1.8,1.9-1.4,2.8-3.2c0.7-2.6,0.5-4.6,1.9-7.8
	c-0.4-0.3-1.1-0.5-0.8-1.2c1.1-3.3-1.2,1.5-0.6,2.1c-0.2,0.4-0.8,0.7-1.3,1c-0.5,0.3-0.8,0.6-0.4,1.3
	C492.7,398.5,493.7,398,493.3,398.9L493.3,398.9z M486.6,404.7c0.8-0.5,1.6-1.9,2.4-3.4c-0.8-1.4-1.4,1.8-2.1,0.3
	c0.8-2,1.6-2,2.4-3.4c-0.1-1.4-0.5-0.2-1.5-0.8c-0.6,2-2.7,4.8-2,6C487.5,400.6,486.3,404.2,486.6,404.7L486.6,404.7z M487.4,408.4
	c-1.1,0.1-4-0.9-4,1.6c0.7-1,1.5-0.9,2.2-0.3c-0.6,1.1-2.2,2.7-0.8,2.8c1.1-2.1,2.3-3.2,3.3-4.5c0.5-0.8,2.6-4.4,1-2.7L487.4,408.4
	L487.4,408.4z M483.8,403.7c-0.4,0.3-1.4,1.6-2.2,2.6s-1.4,1.8-0.6,1.3c0.4,0.2,1.2-0.5,1.9-1.3C483.5,405.4,484,404.3,483.8,403.7
	L483.8,403.7z M479.5,407.5c1.6-1.6-0.9-1.2,0.8-2.7c0.6-0.9,1.2,0.1,1.7-1.3l-1.4-0.9c-1,2.4-2.1,2.5-3.2,4.4
	C478.3,407.9,479.6,405.6,479.5,407.5L479.5,407.5z M480.1,414.5c0.7,1.5,4.5-4.2,2.9-3C482,414,481.1,411.8,480.1,414.5z
	 M475.5,414.6c1.3-1.4,2.6-1.6,4-3.9C478.4,409.6,475.4,412.8,475.5,414.6z M472.2,421.5c1.2-1.2,4.5-3.5,3.6-5
	C474.6,417.7,471.2,420.6,472.2,421.5z M473.9,426.3c0.9-1.5,3.4-1.5,3.1-2.9C475.9,423.7,473,424.6,473.9,426.3z M476.9,428.6
	c1.6-0.9,3.5-4.5,5.3-6.7c-1-1.5-2.4,3.1-3.4,1.9c0.5-0.8-0.4-1.2-1.1,0.1c0.3,0.7,2.2,0.6,1.3,1.8
	C477.8,425.7,476.7,427.2,476.9,428.6L476.9,428.6z M460.1,448.5c-1.1,1.2-1.9,1.1-3.2,2.8c0.1,0.8,1.1,0.2,1.9-0.6
	C459.7,449.9,460.4,448.8,460.1,448.5L460.1,448.5z M468.7,424.9c-0.2,0.5-0.8,1.1-0.5,1.4c1.9-1.9,0.3-2.5-0.1-3.5l-1.6,2.2
	C467.2,426.1,468.1,424.4,468.7,424.9L468.7,424.9z M473.8,431.5c0.7,0.7,1.7,0,2.6-0.7c-0.3-0.5,0-1.3-0.9-1.6
	C474.9,430,474.4,430.7,473.8,431.5L473.8,431.5z M461.6,434c2.6-2.5,2.2-3.8,3.6-5.9c0.9,0.7-0.3,2.2-0.4,3.2
	c2.2-1,1.6-3.4,1.7-4.8c-2.7,2.5-3.4,4.8-6,5.6C461.7,432.5,460.6,433.6,461.6,434L461.6,434z M467.7,436.5
	c-4.1,5.8,2.7-1.5,1.4-2.5C468.3,435,468.4,435.5,467.7,436.5z M461.5,443.1l1.6,1.4c0.4,0.4-3.1,4-1.2,2.7c1.7-2.1,3.4-3.9,5-5
	c-0.8-2.2-2.9,2.3-3.7,0.5c0.9-0.9,0.7-1.5,1.5-2.4c1.5,1.8,7-2.8,5.8-5.2c-1.8,2.2-3.6,4.1-4.2,4.7c-2.4-0.3,0.6-2.6-0.6-3.3
	C463.6,439,464.3,440.5,461.5,443.1L461.5,443.1z M450.3,446.8c1.1-1.5,1.5-0.4,2.5-1.4c0.6-1.5-1.3-0.1-0.5-1.4
	c0.7,0.3,0.5-0.7,1.4-1.5c1.2,0.6,0.1,1.9,1.5,1.4c0.6-0.8,1.8-1.8,1.5-2.3c-0.2,0.3-0.8,0.3-0.3-0.3c1.9-3,2.9-1.3,4.4-2.5
	c-1.4-0.9-0.9-2.5-2.7-3.3c-1.5,2.4-2.2,2.5-4.3,4.3c0.3,0.4,0.6,0.8-0.3,1.6c-0.7,0.8-1.2,0.9-1.8,1.2c-0.6,0.2-1.2,0.6-2,1.8
	C450.1,445.1,449,446.3,450.3,446.8L450.3,446.8z M452.6,448.1c2.6-1.2,2,0.2,2.7-2.2c0.6,1.6,2-0.5,2.8,0.7c1.2-0.8,0.7-2.9,0-1.9
	c0.3,0.3-0.4,1.3-0.9,1l-0.6-0.6c0.8-1.2,3.4-3.1,2.9-3.9c-1.5,0.4-2.3,2.3-3.2,3.6c-1.2,0.2-2,0.8-2.8,1.6
	c-0.8,0.8-1.7,1.7-2.8,2.6C451,450.1,451.7,448.4,452.6,448.1L452.6,448.1z M449.6,455.9c1-0.7,2.2-1.9,3-1.9l-3.4,3.5
	c-0.1,0.8,0.1,1.5,1,2c3.3-2.6,2.1-4.1,4.5-6.5c-0.3-0.9-1.4,0.3-1.9,0.1c0,0,0.6-1.4,0.4-1.6c0.1,0.1-1.2,0.7-1.3,0.7
	c-0.5-0.1,0.3-1.7-1.1-0.1C453.3,452.7,449.1,454.9,449.6,455.9L449.6,455.9z M442.9,457.8c0.7-0.2,1.6-0.9,2.5-1.8
	c0.9-0.9,1.8-2,2.7-2.8c-1-0.7-2.1-0.1-3.1,1C444.1,455.4,443.3,456.8,442.9,457.8L442.9,457.8z M442.5,460.8
	c-0.2,0.1-0.5,0.3-1,0.6c-0.7,0.4-0.9-0.3-2.1,0.8c-0.4,0.3-2,1.6-1.5,2.5c1-0.7,2.6-3.2,3.3-2.5c-2.6,2-0.7,2.1-1.2,2.8
	c-0.9,0.2-2.1,1.3-3.4,2.5c0.8,0.5,2-0.1,3.2-1.2c1.2-1,2.5-2.3,3.6-2.7c0.3,0.3-0.1,0.8,0,1.1c1.8-1.2,1.2-0.7,2.6-2.4
	c-0.3-1.9-2.4,2.1-2.7,0.2l2.6-2.4c-0.7-1.8-2.4,2-3.4,1.4C442.1,461.3,442.3,461,442.5,460.8C443.1,460.4,442.8,460.5,442.5,460.8
	L442.5,460.8z M433.4,466.9c3.1-2,0.8-1.6,1.6-2.4c2-2.1,5-3.3,6.3-5.3c-0.8,0.6-1.1-0.3-1.6-0.8c-0.8,1.5-1.7,2.5-2.9,3.6
	c-1.2,1.1-2.7,2-4.4,3.6L433.4,466.9L433.4,466.9z M418.4,477.8c0.3,0.5,0.8,0.6,1.3,0.6c1.4-1,1.3-1.8,1.5-2.7
	C420.1,475.8,418.8,476.8,418.4,477.8z M414.3,485.3c0.9-0.9,3.7-1.9,3.2-2.7C416.5,482.6,413.7,484.3,414.3,485.3z M402.9,496.1
	c1.5-0.1,0.7-0.5,2.4-1.5C405,493,401.6,495,402.9,496.1z M400.2,492.8c1.5-0.5,5.2-1.2,6.1-3.2
	C404.8,490.2,400.8,491.6,400.2,492.8z M386.3,494.4c1-0.3,1.1,0.9,2.8-0.5l-0.6-1.1C387.7,493.3,386.2,493.8,386.3,494.4
	L386.3,494.4z M382.2,498.3c2.4-0.3,4.8-2,3.5-3.7c-0.4,0.1-2.7,0.3-2.4,1.3c0.4-0.2,0.8-0.3,0.8,0.1
	C382,496.7,382.5,497.5,382.2,498.3L382.2,498.3z M373,500.9c0.5,2,2.5-1.1,3.7-1.8c1.4-0.8,4.7-1,4.7-2.7
	C378.6,497.9,374.5,499.3,373,500.9z M369.7,507.3c1,0.2,4.1-0.9,3.6-2C372.3,506,369.4,506.4,369.7,507.3z M398.4,481.6
	c0.9-0.5,1.6-0.6,2.4-0.8c0.7-0.2,1.5-0.4,2.6-1.3c-0.5-0.9-1.4-0.8-2.4-0.2C400,479.8,399.1,480.8,398.4,481.6L398.4,481.6z
	 M392,485c1.6-1.6,3.8-0.4,4.2-2c-2.5,1-1.8,0-0.8-1.5C393.7,482.7,392,483.8,392,485z M383.3,485.5c1,0.6,1.4,2.3,3.5,1
	C386.3,484.9,384.6,485.4,383.3,485.5z M382.5,488.3c3.4-1.2-1,3.4,2.9,1.3C385.7,487.9,383.6,486.8,382.5,488.3z M367.2,497.4
	c-0.7,0.2-0.9-0.3-1.1-0.9c-1.1,0.4-1.9,0.9-2.3,1.4C363.8,499.1,367.1,498.5,367.2,497.4L367.2,497.4z M360.3,494.4
	c0.3,0.5,0.3,1.5,1.2,1.3c-0.5-0.7,1.8-0.7,2-0.4c0.2,0.6-1.4,1-0.7,1.7c1.4-0.5,2.9-1.4,4.4-2.2c0.8-0.4,1.5-0.8,2.3-1.2
	c0.8-0.3,1.5-0.7,2.2-0.9c1.5-0.5,2.8,0.4,4.2-0.2c-1.9,1-4.7,3.7-3.3,3.9c0.7-1.8,4.7-3.7,4.9-5.2c0,0.2-2,0.7-1.5-0.2
	c1.2-0.3,1.9-2.3,3-1.4c-0.7,0.4-1.7,0.7-1.6,1.2c1.1,0,2.6-0.7,3.5-0.3c-0.4,0.9-0.2,1.2,1.1,0.8c-1-0.9,1.8-1.5,0.2-2.5
	c-1.4,0.8-1.5,1.7-2.5,0.8c0-1.4,0.1-2.8,0.1-4.3c-0.7,0.4-1.5,0.8-2.3,1.2c-0.3,1.3,2.9,0.1,1.3,1.2c-0.6,0.3-2.6,1.3-2.5,0.7
	c0,0.1,1.5-1,1-0.9c-1.9,0.3-3.4,1.6-5.3,2.5c-1.2,0.6-3.7,0.6-3.4,2c2.8-1.3,4.1-0.4,6.6-1.3c-1.2,2-3.8,0.8-5.2,1.1
	c-1.1,0.7-4,2.8-5.4,2.3c-0.6-1.1,4.1-1.2,2.5-2.4C364.5,493.9,363.3,493.3,360.3,494.4L360.3,494.4z M351.8,507.9
	c0.7,1,3.4,2.5,5.1,0.4c-0.7,0.2-1.1-0.1-1.5-0.3c0.6-0.8,2.6-1.4,4.3-2c-0.3,1.5,1.3,0.6,1.8,1.1c1.2-0.2,1.7-0.6,2.2-1
	c0.5-0.4,1-0.8,2-1.1c-0.9-1-0.7-0.6-0.8-2l-3.2,1.4l-3.3,1.2L351.8,507.9L351.8,507.9z M334.2,514.8c2.4-0.5,4.2-1.2,5.8-1.9
	c0.5,0.9-1.8,0.9-1.6,1.7c0.5,0,1.3-0.3,1.4,0.1c0.4-0.1,0.9-0.2,1.3-0.4c0-0.6-0.6-1.4,0.2-1.8c1.4,1.5,3.4-1,5.1-1.6l0.4,1.2
	c1.1-1,2.9-1.2,4.5-1.4c1.5-0.2,2.7-0.4,2.5-1.3c-2.6,1.4-5,0.6-3.8-0.9c-2.5,0.8-4.6,1.7-5.4,3c-0.8,0.3-1.8,0.5-2.9,0.7
	c-0.5,0.1-1.1,0.1-1.6,0.2c-0.5,0-1.1,0.1-1.6,0.2C336.2,512.8,334.5,513.3,334.2,514.8L334.2,514.8z M318.2,506c1.7-1,2.4,0,3-1.5
	c-1.6-0.2-1.2,0.3-3.2,0.2L318.2,506z M315.7,514.6c0.9,0.4,2.4,0,4-0.3C320.4,512.7,315.7,514,315.7,514.6z M315.7,518.4
	c4.4-0.9-0.4,1.5,1.7,1.9c3-0.4,5-1.2,7.2-1.9c1.5-0.9-1.4-1,0.3-1.8c0.9,0.2,1.7,0.5,2.6,0.7c0.9,0.2,1.9,0.3,3.1,0.2
	c1-0.8,1.5-1.8,1.4-3c-1.2,0.3-2.5,0.6-3.2,0.9c-0.7,0.2-0.7,0.5,0.7,0.6c-2.3,0.3-3.7-0.3-6.2,0c-0.6,1.1-2.1,1.3-3.6,1.5
	c-0.8,0.1-1.6,0.1-2.3,0.2C316.8,517.9,316.1,518,315.7,518.4L315.7,518.4z M315.3,520.6c-0.8,0-0.5-0.4-0.1-0.8
	c-1.8,0.3-1.6-1.1-3.5-0.7C310.4,519.9,314,522.1,315.3,520.6L315.3,520.6z M74.5,390.1c-0.4-0.6-0.8-1.6-1.3-1.5
	c0.9,2.1-2.7-0.5-0.9,1.9C73,390.9,73.1,390.3,74.5,390.1z M82.6,422.8c-0.4-0.6-0.8-1.1-1.1-1.6c-0.3-0.5-0.6-1-0.8-1.4
	c-0.6-0.9-1.2-1.5-2.2-2.1C78.7,418.3,81.2,422.1,82.6,422.8z M110.6,439.1c-1.5-1.2-1.2-2-2.3-3.1
	C107.3,436.8,109.5,439.9,110.6,439.1z M117.6,445.5c-1.9-0.5-2.1-3-3.9-3.2C113.8,443,116.7,446.9,117.6,445.5z M166.2,481.2
	c-0.8,0.2-1.3,1-2.1,1.2c0.7,0.4,1.5,0.9,2.2,1.2C166.9,482.8,167.3,482,166.2,481.2z M189.2,501.5c-2.4-0.7-0.5-2.3-3.8-2.8
	c-0.8,1.1,1.7,1.8-0.2,2.2C187,501.7,188.4,502,189.2,501.5L189.2,501.5z M202.6,495.2c-2-0.2-1.2-1.1-2.1-1.6
	c-0.6,1.1,0.6,1.7,1.1,2.6c-0.3,0.8-1.8,0-1.8,1.2C203.4,498.8,201.6,496.8,202.6,495.2L202.6,495.2z M237.1,505.1
	c-1.8-0.4-3.2-0.5-3.9,0.2C235.6,505.4,236.7,507.1,237.1,505.1z M252.6,515.5l-3.3-0.3C248.4,516.9,253,517.2,252.6,515.5z
	 M258.3,509.7c-1.7-0.1-3.7-0.5-3.9,0.5C255.8,510,258.8,511.2,258.3,509.7z M268.5,511.4c-2.2-0.4-5.4,0.8-4,1.5
	C264.8,512.4,269.5,513.9,268.5,511.4z M283.5,517.6c-0.5-1.2-2.1-1.7-4.6-1.6C277.7,518.3,281.1,517.7,283.5,517.6z M295.4,508.4
	c-2-0.9-4.2,0.4-6.4-0.8c-0.4,1.1,1.1,0.4,2,0.7c0.8,0.2,1.7,0.7,2.6,0.9C294.4,509.4,295.1,509.3,295.4,508.4z M307,519.4
	c-2.9,0.7-4.5,1.8-5.8,3.2c1.8-0.4,4.9,0.7,6.1-0.7C305.8,521.9,306.5,519.7,307,519.4L307,519.4z M290.3,522.7
	c-0.3,1.7,3.8,0.3,5.5,0.5c0.9-0.2,1.2-0.7,2.7-0.7c-0.3,1.1,0.4,1.5,2.1,1c0.4-1.3-1.9-0.6-1.5-2c2.6,0.1,2.8-1,3.9-1.7
	C299,520.7,294,523.2,290.3,522.7L290.3,522.7z M254.6,522c0.5,0.1,0.8,0.4,0.6,0.9c2.1-0.1,1.3-0.2,3.4,0.3
	C259.3,522,254.2,521.7,254.6,522L254.6,522z M241.7,521.5c1.5,0.3,2.5,0.2,2.8-0.5c-0.9-0.2-1.2-0.8-2.6-0.8L241.7,521.5
	L241.7,521.5z M237.1,520.4c0.6,1.3,0.6,2.8,3.6,3c0.9-1.4-0.7-0.9-1.1-1.8c0.1,0.1,1.1-0.5,0.1-0.8L237.1,520.4L237.1,520.4z
	 M192.4,511.7c1.8,0.7,3.3,1,4.2,0.5c-1.9-0.5-1.6-1.5-3.6-2.1L192.4,511.7L192.4,511.7z M39.7,324.5c0.8-0.4,1.3,1.3,2.2,3
	c-0.3-1.3,1-1,0.4-2.7C41.7,324.5,39.1,321.9,39.7,324.5z M36.8,310.2c0,0.5-0.3,0.8-0.8,0.7c0,2.2,1.1,2.1,1.6,3.2
	C37.3,313,37.8,310.2,36.8,310.2z M198.9,51.4c-1.5,0.8-3.2-0.9-4,0.8C195.6,52.2,198.3,52.8,198.9,51.4z M209.3,51.5
	c-1.1,0.4-1.6,0-1.6-0.9c-2.1,0.3-2.1,1.3-4.4,1.6c0,0.8,3.6,1,4.3,0.6c0.3-0.1-0.4-1,0.4-1C208.2,52.5,210.1,52.7,209.3,51.5
	L209.3,51.5z M219.9,46.5c0.1-1.1-3.8-0.9-4.1,0C217.1,46.5,218.3,46.6,219.9,46.5z M410.3,83c1.9,1.8,3.4-0.1,1-1.4L410.3,83z
	 M394.6,73.6c-0.8,1.1,1,2.2,2.7,3.2C398.5,75.8,396.4,74.7,394.6,73.6z M403.9,42.1c0.5,1.1-1.6,2.2,0.7,3.3
	c0.8-0.1,1.5-0.5,1.8-1.4C405,43.3,405.1,42.7,403.9,42.1L403.9,42.1z M386.6,32.1c-0.6,0.6,0.6,1.2,0.8,1.8
	c-0.9,0.7-2.4,1.2,0.4,2.6c0.3-0.5,0.1-1-0.1-1.5c1.5,0.8,2.3,0.8,2.6-0.1C387.8,34,387.7,33,386.6,32.1L386.6,32.1z M367.4,66.3
	c0.9,0.2,2.2,1,3.4,1.6c1.1,0.6,2.1,1,2.4,0.2c0-1.4-1.3,0.4-2.5-0.8c0.2-0.5,0.3-1-0.8-1.3C370,67.7,367.6,65.3,367.4,66.3
	L367.4,66.3z M378.8,32.3c1.8,0.6,4.8,1.1,4.4-0.3c-2.7-1.1-5.1,0.6-7.5-2C374.6,30.8,377.6,31.8,378.8,32.3L378.8,32.3z
	 M369.6,30.7c1.4-0.4,3.9,0.5,4.5-0.9C371.1,28,366.8,28.8,369.6,30.7z M318.6,50.1c-1.5-0.5-0.9-1.8-3-1.9c-0.3,0.5,0.2,1.2,1,1.6
	C317.3,50.2,318.2,50.4,318.6,50.1L318.6,50.1z M269.5,33.5l0-1.7l-2.1,0C267.3,32.9,267.7,33.6,269.5,33.5z M184.3,50.5
	c2-0.6,6.2-2.7,4.9-2.7C188.1,48.6,182.8,50.4,184.3,50.5z M174.8,50.9c0.8-0.2,1.3,0,1.9,0.1c0.6,0.1,1.2,0.1,2.4-0.5
	c-0.2-0.4-1.1-0.7-2.1-0.7C176.1,49.9,175.1,50.2,174.8,50.9z M171.3,58.8c-0.5-1.7-3.8,1.3-4.4,1.9
	C168.4,60.2,170.4,60.1,171.3,58.8z M146.6,66.4c1.5-1.1,1.6,0.1,2.4,0.1c2.5-1.2,4.5-2.4,5.1-3.7c0.4,0.4,1.6-0.3,2.2-0.2
	c2.7-2.9,7.9-4.7,11.7-6.1c-0.9-0.5,3.6-1.8,0.9-1.3c-1.2,0.4-1.2,1-2.4,1.5c-0.6-0.8-3-0.2-4.4,0.3c-1.2,0.4-1.4,1.2-3,1.9
	c-1.5,0.7-4,0.9-5.4,1.7c-0.8,0.4-0.6,0.9-1.7,1.4C150.4,62.7,145.8,64.8,146.6,66.4L146.6,66.4z M82.8,120.7c1.2-1.1,3-1.6,4.1-2.8
	c1.3-1.3,0.9-2.1,1.7-3.1c0.4-0.5,0.7-0.1,0.8-0.2c0.5-0.4,0.2-0.8,0.2-0.8c2.3-2.6,3.5-4.2,3.2-5.7c-1,0.8-2.1,2.1-3.2,3.6
	c-0.5,0.7-1.1,1.5-1.7,2.3l-1.8,2.3C84.9,117.8,81.9,119,82.8,120.7L82.8,120.7z M51,209.8c0.6-1.4,1.6-2.3,1.2-3.7
	C51,205,50,209.8,51,209.8z M52.3,197.7c-1.7,2,0.8,3.1,1.5,2C52.4,199.7,54.1,197.4,52.3,197.7z M49.2,200c0.7-1.4,1.8-0.6,2.4-2.6
	C51.8,193.7,47.7,198.1,49.2,200z M83.2,122.9c-0.8-1-2,0.3-2.8-0.6c0.3-0.5,0.9-1,0.6-1.3C78.6,123.9,80.3,126,83.2,122.9z
	 M43.3,143.8c1.4-0.8,2.6-3.8,2.9-5.3C44.7,141.2,42.9,141.9,43.3,143.8z M34.1,161.8c0.5-2.9,1.7-2.2,3.1-4.2
	c-0.9-0.6-0.4-1.9-1.8-1C35.4,157.9,32.7,161.3,34.1,161.8z M18.9,201.3c0.8-0.7,1.8-3.2,0.8-3.7C18.8,198.4,17.9,200.9,18.9,201.3z
	 M41,205.5c1.5-2,0.7-3,1.4-5.3c1.3,1.2,1.3-2.2,1.4-2.4c0.6-1.3,1.8-1.2,2.4-2.7c-1.9-0.2,0.6-3.8-0.5-4.6c0.5-1.1,1-3.3,1.9-2.1
	c-0.3,1-0.8,1.5-1.1,2c-0.3,0.4-0.3,0.8,0.2,1.3c0.8-0.9,1.4-1.8,1.7-2.9c0.3-1.2-0.4-6.4,1.7-5.9c-0.2,0.3,0,0.9,0.4,0.2
	c-0.7-1.3,3.2-2.8,1.6-4.5c-0.3,0.1-0.7,0.6-1,1.2c-0.3,0.5-0.6,1-1,0.9c0.6-1.5,1.5-2.7,2.2-3.7c0.7-1.1,1.1-2,0.8-3.2
	c0.2-0.5,1.6-0.4,1.7-0.6c0.4-0.4,1.8-4,2.2-4.2c0.1-0.1,0.7,0.5,0.7,0.4c0.7-1.1,0.6-2.8,1.7-3.7c0.5,0.2,1,0.7,1.4,0
	c0-1.7-1.2-0.6-2.1-0.5c1-2.7-1.1-1.5,0.2-4.6c0.7-1.2,1.4-0.1,2.1-1.9c-0.4-0.8,0.3-2,0.7-2.8c0.9-1.9,2-3.8,3.3-5.8
	c0.6-1,1.3-2,2-2.9c0.7-0.9,1.5-1.8,2.3-2.7c-0.2-0.9-0.5-1.6,0.6-3c2-3.1,3.4-5.4,5-7.7c1.6-2.2,3.3-4.5,5.6-7.6
	c-2-2.4-3.8,3.5-5.4,5.4c-1.3,1.7-2.8,3.1-4.1,4.6c-1.3,1.5-2.6,2.9-3.7,4.3c0.6,0.4,0.6,1.1,0.2,1.9c-1,1.1-1.8,2.1-2.6,3.1
	c-0.7,1-1.2,2-1.7,3c-1,2-1.8,4-3.1,6.4c-1-0.1-0.1-2.4-1.4-0.1c0.2,1.1-0.6,2.8-0.3,3.9c-1.4,2.1-2.5,4.4-3.5,6.3
	c-0.5,1-1,1.8-1.5,2.6c-0.5,0.8-0.9,1.4-1.5,1.8c-0.5,2.8-1.9,5.4-3.4,6.8c1.1,0.1,0.9,1,0.5,2c-0.4,1-1.1,2.3-1,3.1
	c-0.7-0.6,0-2.1-0.7-2.6c-0.3,2.5-1.4,3-2.5,5.7c1,1.7,1.3-2.7,2.3-2c1.2,1-1.5,3-2.2,5.8c0.4,0.3,0.8,0.6,0.2,1.6
	c-0.7-1.8-0.4,0.1-1.1,1.7c-1.2,2.6-2.1,4.6-1.5,6.1c-0.7-0.2-1.2-0.6-1.3-1.3c-1.3,2.2,0,2.4-0.1,3.7c-1.8,4-2.9,8-4.3,8.6
	c-0.4-0.2-0.5-1.5-1.2-0.4c0.1,1.1,1.2,1.5,1.3,2.6c-0.6,1.8-2.6,2.5-1.2,3.9c1.3-2.7,1.2-5.2,2.6-5.6c0,1.2-0.5,3.1-0.7,4.8
	c-0.3,2.9-0.5,0.9-1.3,3.2c0.9,2,2.2-0.9,3.2-4.2C40.8,209.3,41.6,205.5,41,205.5L41,205.5z M34.7,236.7c-1.3-0.8-1.9,2-1.4,3.1
	C34.6,240.6,35.1,237.9,34.7,236.7z M40.3,257.9c0.3-1.9,0.3-4.3,1.1-5.1c-0.8,0.3-2.9,2-2.1,3c0.1-0.4,0.2-0.8,0.5-0.6
	C39.7,256.4,39.8,257.4,40.3,257.9z M35.6,261.9c0.8-1,0.6-3.4,0-4C34.7,258.9,34.9,261.3,35.6,261.9z M33.4,263.7
	c1.7,0.3,1.2-1.6,1.1-3.2C33.1,259.6,33.7,262.5,33.4,263.7z M9.4,263.4c1.3-2-0.5-3.6-0.8-5.3C8.2,260.7,8.5,262.5,9.4,263.4z
	 M6.8,264.6c-1.3-0.5-1.5,1.5-1.6,3.6C6.5,268.6,6.7,266.7,6.8,264.6z M8.7,275.1c0.1-1.8,0.2-3.6-0.7-3.7
	C7.3,272.4,7.2,275.5,8.7,275.1z M29.1,283.7c0.6-2.5-1.2-1.3-0.8-3.4c0.4-1.4,2.2-6.7,0.3-7.5c-0.4,2.4,0.5,5.2-0.6,6.1
	c0.2-0.2-0.3-2.2-0.4-0.7c0.5,0.6,0.3,2.1,0.3,3.4C27.9,282.9,28.1,284,29.1,283.7L29.1,283.7z M8.5,284.7c-0.4-2.1,0.5-1.9,0.4-3.7
	c-0.7-0.1-1.3,0.1-1.7,0.7C7.2,283.5,7.9,284,8.5,284.7L8.5,284.7z M31.2,304.6c-1.2-3.3,0.8-5.5-0.8-6.7c-0.3,2.1-1.9,2.2-1.8,4.9
	c0.7,0.8,1.1,0.7,1.7-0.1C30.3,303.8,30.6,304.4,31.2,304.6z M29,311.6c-0.1-1.8-0.8-2.2-1.9-1.9C27.3,311.5,28.4,312.9,29,311.6z
	 M35.6,348.7c0-0.5,0.1-0.9,0.6-0.9c-0.1-2-1.8-4.4-1.2-4.6c0.9,0,0.8,2.9,1.9,2.4c0.2-2.5-0.8-2.4-1.6-4.5c-1,1.3-1.7,0.1-2.3,1.2
	C34.3,344.5,35,347,35.6,348.7L35.6,348.7z M52.7,386c-0.6-1.1-0.2-1.5-0.8-2.6c-0.9,1-1.4-0.5-2.2,0.2
	C50.6,385.4,51.7,385.5,52.7,386L52.7,386z M56.8,394.6c-0.4-1.5,0.2-3-1-4c-0.5,0.2-0.7,0.7-0.8,1.1c-2.2-1.6-0.9-4.1-2.4-4.9
	c-0.8,1.1,1.3,4.2,1.5,6c0.6-0.2,1.3-0.9,1.8-0.1c-0.7,0.4,0.8,2.2,0.5,2.8C59.5,398.8,57.5,396.8,56.8,394.6L56.8,394.6z
	 M93.4,484.5c-1.2-1-1.9-1.8-2.5-2.4c-0.6-0.6-1.2-1.1-2.3-1.3c0.6,0.7,0,0.7-0.6,0.6C90.4,482.6,90.9,485.7,93.4,484.5L93.4,484.5z
	 M95.2,484.9c0.3-0.3-0.6-1.3-1.1-1c0.9,1.3,0,2.2,1.7,3.7C97.1,487,94.8,485.7,95.2,484.9L95.2,484.9z M102.6,492.4
	c-0.2-0.5-1.1-1.3-1.9-1.9c-0.8-0.6-1.7-0.9-2.1-0.4c1,0.4,1.6,1.1,2.1,1.7C101.2,492.3,101.7,492.6,102.6,492.4L102.6,492.4z
	 M122.9,489.5c-0.8-0.4-1.7-0.9-2.6-1.3c-0.8-0.4-1.6-0.7-2.2-0.7c1,1.2,1.8,1.7,2.5,2C121.3,489.7,121.9,489.6,122.9,489.5z
	 M117.3,503c-2.2-1.8-2.5-2.4-4.2-2C113.8,502.7,116.3,503.6,117.3,503z M167,517.7c-1.6-0.8-3.1-1.5-4.1-1.4
	c-0.3,0.7-0.2,1.5,0.6,2.1C163.4,516.4,165.9,518.1,167,517.7L167,517.7z M170.6,520.3c-0.3-0.4-1.3-2.4-2.5-1.6
	c0.9,2.5-1.8-0.5-3-0.4C164.3,520.6,169.5,520.8,170.6,520.3z M197.1,537.2c-0.8-0.8-4.7-2.3-5.1-1.2
	C194.2,535.7,195.4,537.8,197.1,537.2z M224.7,543.4c-0.4,0.5-1.1,0.7-2.4,0.4c-0.6,1.2,0.6,1.8,1.8,2.5c0.1-0.8,0.9-0.8,2.4-0.4
	C227.1,544.6,225.9,544,224.7,543.4L224.7,543.4z M230.9,546.7c-0.2-1.1-1.1-2-1.7-2.9C229.2,545,227.5,546.7,230.9,546.7z
	 M232.4,538.4c-2.8,0.2-7.8-1.5-8.9,0.1c1.1,0.8,0.9-0.1,2.2,0C228,538.6,232.4,540.2,232.4,538.4L232.4,538.4z M256.7,544.5
	c0.7-0.2,1.6-0.2,2.3-0.4c0.7-0.2,1.3-0.5,1.5-1c-2.1,0.3-1.9-0.7-3.6-0.6L256.7,544.5L256.7,544.5z M252.8,546.7
	c-1.7-0.3-2.9-0.2-3.8,0.1c-0.7,0.9,0.5,2.9,1.3,1.8C248.7,548,252,547.1,252.8,546.7L252.8,546.7z M264.6,548.7
	c-1.9,0.3-6.4-1-6,0.6C260.4,549,264.9,550.4,264.6,548.7z M264.6,548.3c-0.2-1.8-6.2-0.5-8.9-1.3c-0.2,0.8-2.5,0.1-2.4,1.1
	c2.5,0.1,4.1,0,5.6-0.1C260.5,547.8,262,547.8,264.6,548.3L264.6,548.3z M56.6,168.6c-0.8-0.9-0.5-2.4,0.6-4.4
	c0.3,0.5,0.3,1.2-0.3,2.2c0.2,0.3,0.5,0,0.7-0.4C58,166.5,57,167.6,56.6,168.6z M503.7,338.1c1.3,0.8-0.1,2.6-0.7,4
	C502.1,341.1,503.3,339.3,503.7,338.1z M63.8,403.9c1.5,1,4.9,5.5,5.3,7.8c-1.5,1-0.5-0.9-1.1-1.7C66.2,408.9,64.7,405.6,63.8,403.9
	z M126.2,475.1c1,0.4,1.9,1.2,3.1,2c1.2,0.8,2.6,1.8,4.2,2.9C131.2,479.1,127.6,477,126.2,475.1L126.2,475.1z M502.8,404.3
	c1.5,2.1-2.4,6.2-4,8.7c-1.1,1.7-2.2,5.1-3.8,4.5c0.9-1,1.7-2,2.5-3.2c0.7-1.2,1.4-2.4,2.1-3.6C500.9,408.4,502,406,502.8,404.3
	L502.8,404.3z M517.4,319.5c-0.3,1.2,0.2,1.5-0.1,2.8c-1.1,0.5-2.2,0.8-3.5,0.7C514.6,321,515.7,319.5,517.4,319.5z M510.6,391.8
	c0.1,2-2.8,6-3.9,8.8C506.7,398.1,509.5,394.3,510.6,391.8z M474.2,445.8c2.6-3.3,5.6-7.1,7.7-9.7c-1.4,3.3-3.5,5.8-5.9,8.5
	c-0.6,0.7-1.2,1.3-1.9,2.1c-0.7,0.7-1.4,1.4-2.1,2.1c-1.4,1.5-2.9,3.1-4.3,5C466.3,454.4,472.3,448.1,474.2,445.8L474.2,445.8z
	 M520.1,315.7c-0.2,2.3-0.8,4.6-1.2,6.9c0-0.7-0.2-2.4-0.1-4C519,317.2,519.1,315.8,520.1,315.7L520.1,315.7z M520.9,296.1
	c1,1.1,0.5,2.5,0.1,4.2C520.1,299.2,520.5,297.8,520.9,296.1z M520.8,307.3c0.5,2.8-0.4,4.3-1.3,6.9c-0.6-1.2-0.5-3.3-0.1-5.7
	C520.1,308.7,520.5,308.2,520.8,307.3z M496.1,368.1c-1.5,2.4-0.1,2.8-1,4.7c-3,0.5-1.6,4.1-2.9,5.4c-0.2-0.5-0.3-0.9-0.9-1.1
	c0.8-1.2,1.3-4.2,2.3-4.1C494,371.4,494.1,367.1,496.1,368.1L496.1,368.1z M140,90.8c-1.6,1.4-3.3,2.7-5.2,3.9
	c-1.8,1.3-3.7,2.6-5.9,4.1c1.2-1.3,2.6-2.7,4.2-4s3.4-2.6,5.3-3.9C139.3,90.1,139.6,90.4,140,90.8z M5,335.8
	c-0.2-0.9-0.4-1.7-0.5-2.6l-0.4-2.6c0.4,0,1,1.4,1.3,2.7C5.8,334.6,5.9,335.9,5,335.8L5,335.8z M245,10.1c0.1-0.7,3.1-1.5,4.5-1.6
	c1.2-0.1,4.3,0.1,3.9,1C250,9.2,249.1,9.9,245,10.1L245,10.1z M0.1,298.9c0.3-0.8,0.3-2.1,0.2-3.6c-0.1-1.5-0.1-3.2-0.1-4.7
	c0-3.1-0.8-7.2,0.7-7.6c-0.3,2.5,0.1,6.1,0.3,9.3c0,0.8,0,1.6,0,2.3c0,0.7,0,1.4-0.1,2C1,297.7,0.7,298.6,0.1,298.9L0.1,298.9z
	 M54.5,121.4c-2.7,1.1,3.2-4.8,3.2-6.1c0.5,0.2,1.1-0.9,1.7-1.5C60.2,115.8,54.7,120.1,54.5,121.4z M5.8,252.5
	c0.3-1.9,0.6-3.8,1.7-3.5C7.3,251.1,7.1,253,5.8,252.5z M4.2,304c-1.2,0.4,0.1-4.1-1.1-3.7c1-0.7-0.8-5.9,0.9-5.3
	C4.2,298.2,3.7,300.3,4.2,304L4.2,304z M7,327.9c-0.8-3.4,0.4-4.2,0.2-6.8C7.3,321.2,9,328.5,7,327.9z M5.7,301.7
	c-0.1-2.5-0.5-5.3,0.9-5.2C6,297.7,7.3,301.9,5.7,301.7z M6.5,292c-1.4-0.5-0.5,3-2.1,2.3c0-2.5,1.3-2.6,1.2-5.2
	C6.4,289.2,6.6,290.3,6.5,292z M166.9,73.8c-0.2,0.9-1.2,1.6-2.5,2.2c-1.2,0.6-2.6,1.2-3.5,1.8c-2.6,1.5-5,2.8-7.3,4.1
	c-2.3,1.4-4.4,2.7-6.7,4c-1.1,0.7-2.3,1.8-3.3,2.7s-2,1.4-2.9,0.8c1.2-0.5,2.3-1.2,3.4-1.9c1.1-0.7,2.3-1.5,3.4-2.3l3.3-2.4
	c1.1-0.8,2.2-1.6,3.5-2.3c1.9-1,3.9-2,6-3.1c1.1-0.6,2.1-1.1,3.2-1.7C164.6,75,165.8,74.4,166.9,73.8L166.9,73.8z M120.3,105.6
	c-0.8,0.9-3.4,3.5-5,4.2C115.7,107.8,118.3,106.6,120.3,105.6z M93.2,131.8c-0.2,1.2-1.4,2.6-2.3,4c-0.8-0.3-0.4-1,0.3-1.8
	C91.8,133.3,92.8,132.5,93.2,131.8L93.2,131.8z M114.1,110.4c1.2,1.1-4.7,5.4-5.9,6.1C108.7,114.7,112.4,112.4,114.1,110.4z
	 M212.4,55.9c-1.7,1.6-3.4,1.4-6.2,2C206.8,56.8,210.5,56.7,212.4,55.9z M264,47c-0.7,1.4-2.4,0.4-3.9,0.5c-2.8,0.3-6.2,0.7-9.5,1.1
	c-1.7,0.1-3.3,0.5-4.9,0.7c-1.6,0.2-3.1,0.4-4.4,0.6c0.7-2.4,4.1-1.2,5.8-1.5c2.3-0.4,4.7-0.5,7.5-0.8C257.1,47.3,260.2,46.9,264,47
	L264,47z M174.6,70.2c-0.1,0.8-1.8,1.9-3.4,2.6c-1.6,0.7-3.2,1.1-3.1,0.5C170,72.9,171.5,71.2,174.6,70.2L174.6,70.2z M204.8,57.9
	c0.3,1.1-2.7,1.9-3.6,1.6C201,58.5,203.8,58.5,204.8,57.9z M27.8,401c-1.5-1-2.9-5.6-4.2-8.1c0.8,0.5,1.4,2,2.1,3.6
	C26.4,398.1,27,399.8,27.8,401z M378,526.1c-0.7,1-2.8,1.9-3.7,2.9c0.4,0.2,0.9,0.4,1.7,0.2c-0.5,1.9-1.4-0.5-2.9,0.8
	C374.1,528.7,376.3,526.2,378,526.1z M394.7,519.4c0.4,2.2-3,2.2-5.2,3C389.5,521.3,393.1,520.4,394.7,519.4z M373.8,534.3
	c-2.1,0.8-4.4,1.6-4.7,0.4C370,535.4,373.9,532.5,373.8,534.3z M389.4,526.1c-0.6,1.6-4.1,2-5,1.9c-1.7,0.8-1.9,1.7-3.5,1.5
	c0.9-1,2.5-1.7,4.2-2.2C386.7,526.8,388.4,526.4,389.4,526.1L389.4,526.1z M373.4,530.8c-0.3,1.2-2.2,1-3.4,1.7
	c-0.4,0.3-0.3,1-0.4,1c-1.1,0.6-1.4,0-2.3,0.4c-0.6,0.3-1.4,2.4-3.9,2.8c-1.1-0.9,1.4-1.3,2.6-1.8c-0.8-1.1,1.1-2.2-1.4-1.7
	c0.4-1.7,1.6-0.2,2.3-0.4c1-0.3,0-0.7,0.4-1c1-0.7,3.2-0.1,5.1-1.4C372.5,530.8,372.8,531,373.4,530.8z M333.2,543.6
	c-3.7,0.6-4.1,2.3-8.7,2.7c0.2-1-1.2-0.5-2.4-0.4c1.5-2.1,5.8-3,8.8-2.2c-0.3-1-1.6-1-0.4-2.1c-1.6,0.5-4.5,1.2-7.1,1.5
	c-2.6,0.3-5.1,0-5.6-1.2c1.5-0.2,2.7-0.1,3.8,0s2.2,0.2,3.7-0.1c0.9-0.1,2.3-1.7,0.5-1.4c2.2-1.2,5.4-1.7,8.5-2.2
	c3.1-0.6,6.1-1.2,8-2.1c-0.9,1.8-4.7,2.5-6.1,3.3c-0.3,1,3,1,3.1,0.1c2.9,0.3-2.6,1.6-4.2,1.9c-1.5-0.4,0.1-1.3,0.3-2.2
	c-2.9,1-4.2,0.5-6.6,1c-0.3,1.7,2.5,0.4,3.1,0.6c0.2,0.1-1,0.9-0.6,1c0.6,0.1,2.7-0.7,2.5,0.8C333,542.8,333.3,543.3,333.2,543.6
	L333.2,543.6z M375.6,536.7c-2.8,1.3-4.9,3.5-7.3,4.9c-1.8,1.1-1.2-0.3-2.9,1.1c-1.6,1.4-4.1,2.6-7.2,3.9c-3.1,1.2-6.7,2.7-10.8,3.9
	c-0.9-0.4-2.7,0.1-3.3-0.4c-0.7-1.8,4-2.2,1.6-3.4c1.2-0.7,2.1-0.8,2.9-1c0.9-0.2,1.7-0.3,2.9-1.1c-0.2-0.9-1.4-0.8-2.9-0.5
	c-1.5,0.3-3.3,0.9-4.8,1.2c-0.3-0.7,0.7-1.1,0.4-1.8c1,0.1,2.1,0.1,3.2-0.1c1.1-0.2,2.2-0.5,3.4-0.9c2.3-0.8,4.8-1.9,7.4-2.6
	c0.6,0.8-0.8,1.1-2,1.5c-1.6,0.8-1.8,1.9-2.4,2.9c3,0.4,2.2-1,3.4-2c1.5-0.4,2.9-0.8,4.3-1.1c1.4-0.3,2.7-0.7,4-1.1
	c2.6-0.8,4.9-1.7,6.9-3.1C373.1,537.4,374.2,537.2,375.6,536.7L375.6,536.7z M362.1,542.6c-0.4-0.5-1.8,0-2.5-0.1
	c0,1.7,3.2,0.3,5.5-0.5C370,540,364.1,541.6,362.1,542.6z M340,542.9c0.1-0.5,1.4-0.7,1.3-1.2c-0.3-0.9-3.1,0.6-4.5,0.7
	c0.1,0.4,1,0.1,1.5,0c0.7,1.2-1.6,2.3,1.8,1.3c-1.4,1.5-2,1.2-4.3,1.5c-0.6,0.1,1.5-0.9,1.4-0.8c0.1-0.2-0.9,0.1-2.1,0.4
	c-1.2,0.3-2.5,0.7-3,0.7c-0.5-0.8,0.9-1,2.1-1.3c0.4-0.5,1-1,1.5-1.5c0.6-0.5,1.3-0.9,2.1-1.4c1.6-0.9,3.6-1.6,6-2.2
	c-0.3,0.4-0.6,0.9-0.4,1.4c1.4-0.9,0.8-2.3,4-2.8c0.1,1.1,0.7,1.7,2.6,1c0,1.3-1,2.1-2.4,2.5c-1.4,0.5-3,0.8-4.4,1.5
	c-0.3-1.1,1-1.1-0.4-1.6C341.6,541.8,342.4,542.7,340,542.9L340,542.9z M395.4,515.7c0.1,0.7-1.9,1.1-1.6,1.8
	c-1.8,0.8-3.9,1.9-5.4,2.6c-2.4,1-5.1,2.5-5.9,1.4c1.5-0.9,1.8,0,3.5-1.2l-0.5-1.2c-1.2-0.2-2.2,0.2-3.3,0.9c-1.1,0.6-2.4,1.4-4.2,2
	c-1.4-1.2,1.9-1.5,3.1-2.2c1-0.5,2-1.8,3-2.3c3.2-1.9,6.9-3.2,9-4.8c2,0-0.6,1.2,0.3,2.2c-1.4-1.2-6.2,1.4-8.3,3.1
	c1,0.8,2.6,0.9,4.9,0c-0.1-1.2-0.9-1.2-2.5-0.2C389.4,515.5,392.7,516.9,395.4,515.7L395.4,515.7z M322.3,546.7
	c-2.7,2.3-3.9-0.2-8.3,0.9c3.3,0,1.7,1.2-1.3,1.9c0.2-2-3-0.1-4.7-1.5c0.5-0.4,3-1.7-0.1-1.2c0.3-0.9,1.2-1,2.3-1.1
	c1.1-0.1,2.5,0,3.5-0.2c-0.4,1-3.8,0.9-2.7,2.5c0.7-0.1,0.5-0.6,0.6-1c1.7-0.3,3.5-0.5,5.2-0.8c1.2-0.3-1.5-1.8,2-2
	C320.5,545.3,316.4,547.8,322.3,546.7L322.3,546.7z M416.6,507.9c2.3-1.3,2.2,0.1,4-2C421.9,507.1,416.8,509,416.6,507.9z
	 M463.7,127.4c-0.4-0.2-0.9-0.6-1.4-1.1c-0.5-0.5-1-1.1-1.5-1.8c-1-1.3-2.1-2.8-3.1-3.8c0.9,0.3,1.9,1.5,3,2.8
	C461.7,124.9,462.8,126.4,463.7,127.4L463.7,127.4z M416.8,506.8c-1,1.3-2.5,2.5-2.1,3.8c-2.3,1.3-4.9,3.2-5.8,2
	c1.7-0.1,4.4-2.3,5.8-3.5c-0.2-0.3-1,0.2-1.5,0.4C413.3,508.5,415.4,506.8,416.8,506.8z M472.8,105.6c0.7-0.3,1.6,0.4,2.6,1.8
	c0.9-0.7-0.1-1.5,1.3-1.1c1.2,0.8,2.2,1.9,3.3,3c0.5,0.6,1,1.1,1.6,1.7c0.5,0.6,1,1.2,1.5,1.8c1.7,1.8,3.4,3.6,5.1,5.5
	c0.9,0.9,1.7,1.9,2.6,2.9c0.8,1,1.6,2.1,2.4,3.1c0.7,0.9,0.8,1.9,0.9,2.1c1.1,1.6,2.2,3.1,3.4,4.6l0.9,1.1l0.9,1.1l1.7,2.3
	c1.2,1.5,2.3,3.1,3.5,4.6c1.1,1.5,2.3,3.1,3.2,4.7c0.7,1.2,1.1,3,1.8,4.2c0.5,0.7,1.8,1.5,2.2,2.3c0.6,1.1,0.9,2.5,1.4,3.5
	c1.2,2.3,2.7,4.9,4.1,7.6c0.7,1.3,1.4,2.7,2.1,4c0.6,1.4,1.2,2.8,1.6,4.1c-1.3-0.1-0.6,1.4-1.7,1.5c1.7,2.6,0.7-0.5,2-0.8
	c2.6,5,3.2,7.7,5.2,9.5c1.5,1.3,0.4,2.2,0.7,3c0.5,1.6,2.4,2.6,1.8,5c2.2-1.7,1.5,1.8,2.8,3.1c-0.1-1.6,0.6-2.4,1-3.6
	c-1.1-1-1.4,0.8-2.9-0.7c-1-2.2-0.2-2.8-1.5-5.2l1.6-0.5c-0.8-2.5-2.2,0.3-3.7-2.8c0.7-0.4,1.2,0.6,1.8,0.2
	c-0.2-0.7-0.5-1.3-0.8-1.8c-0.3-0.5-0.7-0.9-1-1.2c-0.6-0.7-1.1-1.4-1-2.6c-1.7-1.7-3.4-3.1-4.9-7.2c1,0.7,2,2,3,3.8
	c0.2-0.9,0-2.2,0-3.3c-0.7-1.5-0.5,1-0.5,1c-0.8-0.1-0.6-1.2-1.3-2c-0.8-0.9-2.5-0.2-2.4-3.2c0.7-1.2,1.2,1.3,1.8,1.8
	c0.6,0.5,1.4-0.8,2.2,0.8c0.3-3.4-1.5-4.4-2.6-7.4c-1.8,0.8,1.1,2.9,0.5,4c-1.2,1.6-2.2-1.9-3.3-1.9c-0.8-2.5,0.5-0.7,1.6-1.6
	c0.1-1.6,0.8-2.7-0.8-5.6c1.3-0.6,3.7,1.4,2.8,3c1.3,1.8-0.2-2.2,1.6-1.6c1.7,1,1.6,3.3,2.4,5c0.3,0.7,1.2,1.4,1.8,2.7
	c1.4,3.4,2.3,7.5,3.9,11.2c0.6,1.5,1.3,1.8,1.6,2.8c0.9,2.7,1.9,5.7,2.8,8.7c0.5,1.5,1,3,1.4,4.4c0.4,1.5,0.9,2.8,1.3,4.1
	c0.8,2.2,0.9,4,1.5,6.1c0.2,0.8,0.4,1.6,0.6,2.4c0.2,0.8,0.3,1.6,0.5,2.5c0.3,1.6,0.7,3.3,1.1,4.9c0.4,1.6,0.7,3.3,1.1,4.9
	c0.3,1.6,0.6,3.3,0.9,5c0.5,3.3,1.1,6.6,1.5,9.9c0.3,3.3,0.6,6.5,0.8,9.8c0.1,1.3-0.3,2.1-0.4,3.2c-0.1,2.7,0.6,5.3,0.9,8.5
	c0.1,1.2,0,2.1,0,3c0,0.9,0.1,1.8,0.5,3.2c0.3,2.4-1,2.1-1,3.9c1,3.8,0,8.1,1,12.3c0.2,1.4-1.6,0-1.3-1.5c-1.4,2.8,0.7,6.9,1.3,6.2
	c-0.2,1.4-0.3,3-0.5,4.3c-0.3,1.3-0.8,2.3-1.6,2.5c0.9,1.8,0.5,4.3,0.1,6.7c-0.2,1.2-0.4,2.4-0.4,3.5c0,1.1,0.1,2.1,0.6,2.9
	c0.3,1.5-0.9,1.8-1,2.2c-0.1,0.5,0.4,1.3,0.2,2.3c-0.3,1.6-0.8,3.9-1.3,6.3c-0.6,2.4-1.2,4.9-1.4,7.2c-0.1,1.1-0.3,3.8,0.3,3.9
	c-0.2,0.9-0.8,0.5-1.3,0.5c-0.2,4.2-0.8,7.5-1.8,10.5c-0.1,0.7,0.4,0.7,0.7,0.9c-1.2,2.6-0.5,4.3-2.1,5.8c-0.6,1.6,0.5,1.2,0.3,2.4
	c-0.9,1.6-1.9,4.8-2.8,8c-0.5,1.9-1.2,5.6-1.5,6.7c-0.3,1.6-0.1,3.2-0.4,4.7c-0.7,2.7-1.6,5.4-2.5,8c-0.9,2.6-1.8,5-2.7,7.2
	c-0.9,2.1-1.3,4.4-1.9,6.4c-0.6,2-1.2,3.9-2.6,5c-0.4,1.2,0,1.9-0.5,3.1c-0.5,1.1-1,1-1.3,1.9c-0.6,1.6-1,4.2-1.8,6
	c-1.9,3.9-4.4,7.2-6.2,11.5c-0.5,1.1-0.3,1.4-0.7,2.2c-0.6,1.2-1.6,2-2.3,3.1c-0.5,0.9-0.4,2.3-0.8,3.1c-0.2,0.4-1,1-1.5,1.8
	c-0.7,1.2-0.4,1.6-1.2,2.9c-1.6,2.5-3.4,5.1-5,7.6c-0.8,1.2-1.6,2.5-2.4,3.7c-0.8,1.2-1.6,2.3-2.2,3.5c-0.6,1.1-1.1,0.8-1.7,1.6
	c-0.7,1.2-1.3,2.7-2.1,4.3c-0.4,0.8-0.9,1.6-1.5,2.4c-0.6,0.8-1.4,1.5-2.4,2.2c-0.4,1.6-1.6,3-3,4.7c-1.5,1.7-3.1,3.5-4.9,5.7
	c-0.5-0.6,1.5-2.1,0.6-2.6c-1.3,1.4-1.1,2.2-1.1,3.1c-1.5,0.6-3.6,3.6-5.4,5.5c-1.3,1.2,0.3,1.5-0.6,2.6
	c-5.1,5.9-10.6,10.4-15.2,15.2c-1.2,1.3-1.7,2.6-2.8,3.8c-1.6,1.8-3.6,3.2-5.6,4.7c-2,1.5-3.9,2.9-5.8,4.5c-1.1,1-2.2,2.4-3.4,3.2
	c-1.2,0.8-2.2,0.8-3.6,1.7c-1.2,0.7-1.6,1.8-2.8,2.7c-1.1,0.8-2.3,1.8-3.6,2.5c-1.3,0.8-2.6,1.6-4,2.5c-2.7,1.6-5.4,3.3-8.1,4.8
	c-0.5-0.4,0.1-0.8,1-1.4c1-0.5,2.3-1.2,3.2-2c1.1-0.9,3-4.4,4.4-3c2.4-1.3,0.7-2.3,3.1-3.7c0.4,0.6,1.1,0.6,1.9,0.1
	c-0.8-0.5,1-3.1,3.4-3.1c-0.3-1.8-2.7,1.2-3-0.3c2-1.7,3.4-2.8,4.7-3.8c1.3-1.1,2.6-2,4-3.5c-0.5-1.7-3,1.6-3.3-0.5
	c4.6-2.6,5.7-6.9,10-7.9c1-1.2,0.8-1.5-0.2-1.5c0.9-1.6,2.8-1.1,2.2-2c1.4-1.1,0.1,1.4,0.5,1.8c1.6-2.2,2.9-3.9,4.4-5.5
	c1.5-1.6,3.2-3.1,5.4-4.9c-0.3-0.3-0.9,0.4-1.3,0.8c1.9-1.9,6-7.5,9.4-9.7c1.9-1.8,0.1-2.4,2-4.2c1-0.3,2.3-1.4,3.6-2.8
	c1-0.9,0.7-1.3,0.4-1.7c0.6-0.6,1.5-1.2,2.1-1.8c0.6-0.6,0.9-1.3,0.5-1.9c-0.5-0.1-1.2,0.7-1.9,1.7c-0.8,0.9-1.5,2-2.2,2.6
	c-0.7-0.9-1.5-1-2.7,0.5c-0.3,0.5-0.2,0.8-0.7,1.4c0.6-0.1,1.4-1,1.9-0.3c-1.6,1.7-3.1,3.2-4.5,4.7c-1.4,1.5-2.8,2.8-4,4.1
	c-2.5,2.6-4.7,5-7,7.3c-2.3,2.2-4.6,4.5-7.2,6.9c-0.6,0.6-1.3,1.2-2,1.8c-0.7,0.6-1.4,1.2-2.2,1.8c-1.5,1.2-3.1,2.5-4.8,3.8
	c-1,0.1-0.6-0.3-0.8-1c-3.5,3.1-6.6,5.8-9.9,7.8c-0.6,0.6,0.1,1-0.7,1.6c-1.8,1-3.6,2.1-4.1,0.5c-1.3,1.5-1.7,1.6-0.3,2.2
	c-0.8,0.2-1.2-0.4-2.3,0.5c-0.6-1.4,1.7-3,2.2-4.6c2.6-1,2.4-1.2,5.5-3.6c1.8,0.5-1.8,1.7-1,2.3c1.8-0.1,4.7-3.4,2.2-3.2
	c2.5-1.4,2.9-3.3,4.6-3.6c0.8,0.5-0.3,1.3-1.2,2c1.5,0.3,3.8-2.8,2.9-3.5c1.5-1,3.1-2.2,4.7-3.5c0.8-0.7,1.6-1.4,2.4-2.1
	c0.8-0.8,1.5-1.6,2.3-2.4c1.7-1.2,3-1.4,4.6-2.5c0.5-0.6-0.2-1,0.5-1.6c0.6-0.6,1.3-1.2,2-1.8c0.7-0.6,1.3-1.2,2-2
	c1.3-1.4,2.6-2.8,3.9-4.1c1.3-1.4,2.6-2.7,3.8-3.9c1.3-1.2,2.4-2.3,3.5-3.2c1.5,0.4-1,2.2-1.8,3.3c2.8-1,3.1-4.4,3.5-5.8
	c1.7-1.6,3.2-3.1,4.7-4.6c1.4-1.5,2.7-3.1,3.9-4.7c1.2-1.6,2.5-3.1,3.7-4.8c0.6-0.8,1.2-1.7,1.8-2.5c0.6-0.9,1.2-1.8,1.8-2.7
	c1,0,1.5-1.6,1.4,0.2c1.7-1.6,0.5-1.9,1-2.9c1-1.1,1.9-2.3,2.9-3.5c0.9-1.2,1.8-2.5,2.6-3.8c1.7-2.5,3.3-5,4.5-7.4
	c1.2-2.5,2.8-5.6,4-7.9c1.1-2,2.4-3.1,3.2-5c0.5-1,0.8-2.5,1.3-3.5c0.5-1,1.5-1.2,2.1-2.2c0.2-0.5,0.9-2.1,1.6-3.8
	c0.6-1.8,1.2-3.7,1.4-4.6c0.2-0.8-0.5-0.8-0.2-1.7c1.3-1.4,1.5-2,2.5-4.5c0.9-2.3,2.1-2.5,1.3-4.3c0.8-2.2,1.9-1.9,2.7-4.5
	c-0.5-0.1-0.8,1.1-1.2,1.9c-1.2-1.4,0.6-2.7,1.2-4.3c0.4-1.1,0.8-2.1,1.2-3.2c0.3-1.1,0.7-2.1,1-3.2c0.7-2.1,1.3-4.3,2-6.5
	c0.8-2.2,1.3-4.5,2-6.9c0.7-2.4,1.5-4.9,2.4-7.6c0.5-1.7,1-4.1,1.6-6.6c0.6-2.6,1.2-5.3,1.5-7.8c0.2-1.3,0.7-1.4,0.9-2.8
	c0.4-3,0-6.7,1.8-8c-0.9-0.8-0.5-7.6,0.3-8.9c0.2-0.3,0.4,1.8,0.1,2.3c0.7,0.3,1.3-4,0-3c0.4-0.5,0.8-1.3,1-2.2
	c0.2-1,0.3-2.1,0.4-3.5c-0.4,0-0.4,0.9-0.5,1.4c-0.4-1.5-0.2-3.8,0-6.2c0.1-1.2,0.3-2.5,0.4-3.7c0.1-1.2,0.1-2.4,0.1-3.4
	c1.2-2.7,2.3-5.8,2-11c-0.8,0.4-0.2,3.8-1.7,2.9c0.3-2.1-0.1-3.4-0.4-4.6c-0.3-1.3-0.7-2.6-0.5-5c0.1-1.4,0.3-2.8,0.4-4.3
	c0.1-1.5,0.2-3,0.1-4.6c0.5,0.1,0.4,1.3,0.6,2.2c1-1.6-0.3-4.9-1.4-2.9c-0.2-1.7-0.1-2.8,0.7-3c-1.4-4.3-1.3-11.5-2.5-16.9
	c0.8,1.2,1.1,0.3,1.1-0.9c0-1.3-0.4-3-0.9-3.5c-1.5,0.6,1.7,3.6-0.4,3c-0.6-3.5-1.2-7.4-1.7-11c-0.7-3.6-1.3-6.9-1.9-9.3
	c0.7,0.1,0.6-0.8,1.1-1c-0.6-0.7-1.1-1.3-1.7-1.9c-0.7-3.1-1.4-6.4-2.4-9.3c-0.4-1.3-0.8-2.6-1.1-3.9c-0.4-1.3-0.8-2.7-1.1-4.1
	c-0.7-2.8-1.4-5.6-2.3-8.4c-0.5-1.3-1.4-2.8-1.9-4c-0.5-1.5-1.2-3.2-1.8-5.1c-0.3-1-0.7-2-1.1-3c-0.4-1-0.8-2-1.2-3.1
	c-1.7-4.2-3.5-8.6-5.4-12.1c-1.1-2.1-2.6-3.7-3.7-5.6c-1.1-2.1-2.3-4.1-3.3-6.2c-1.1-2.1-2.1-4.1-3.3-6.2c-1.5-2.5-3.2-4.9-4.9-7.2
	c-1.6-2.3-3.2-4.6-4.8-6.8c-0.8-1.1-0.5-1.5-1.3-2.7c-0.9-1.2-1.5-1.4-2-2.2c-0.5-0.8-0.9-1.8-1.4-2.6c-0.3-0.4-0.5-0.8-0.9-1.2
	c-0.4-0.3-0.8-0.6-1.4-0.8c-5.3-7.2-6.1-8.1-11.9-15c0.5-0.5,1.3,0.1,1.8-0.5l3.8,4.5c1,1.3,1.4-0.6,2.1-0.7
	c-0.9-1.4-1.3-0.4-2.1-1.2c-1.3-1.4,0.1-0.9-0.3-1.7c-0.6-1.1-1.6-1.3-1.8-1.4C473.5,107.5,474.5,106.2,472.8,105.6L472.8,105.6z
	 M466.5,459.6c-1,1.1-3.4,0.8-3.4,2.9C464.1,461.4,466.5,461.7,466.5,459.6z M448,485.9c-1.4,0.6-3.1,1.9-4.6,2.7
	c0.6,1.5,4.6-0.6,4.8-1.3C446.4,488.6,448.7,486.1,448,485.9z M456.8,484.4c-0.4-0.5-1.5,0.2-2.7,0.9c-1.2,0.8-2.3,1.8-2.4,2.5
	c0.8-0.4,1.6-0.7,2.4-1.1C454.9,486.2,455.8,485.6,456.8,484.4L456.8,484.4z M474.5,465.3c-1.4,1.1-5.2,3.8-4.5,5.2
	C471.3,468.1,473.7,467.7,474.5,465.3z M479.8,444.8c-1.3,0.2-3.8,5.5-2.6,4.6C477,448.3,480.3,445.8,479.8,444.8z M513.7,406.1
	c-0.7,0.8-1.2,1.6-1.6,2.4c-0.4,0.8-0.6,1.6-0.6,2.5c0.5-0.7,1.3-1.6,1.9-2.5C514,407.6,514.2,406.7,513.7,406.1L513.7,406.1z
	 M522.7,385.1c-1-0.2-0.4,2.1-0.2,2.4l1.4-3.1l1.3-3.2C524.1,379.9,523.7,383.8,522.7,385.1L522.7,385.1z M539.9,295.5
	c-0.4,2.3,0.3,3.1,1,3.9C541,297.4,541.1,295.5,539.9,295.5z M536.3,291.5c0.1,0.7,0,1.6-0.1,2.5c-0.2,1-0.4,2-0.6,2.9
	c-0.4,1.9-0.5,3.6,0.5,4.2c0.7-2.8,0.3-1.1-0.2-2.3c-0.6-1.2,0.3-2.9,0.9-4.4C537.4,293,537.7,291.7,536.3,291.5L536.3,291.5z
	 M535.7,275.2c-0.7,1.4-0.1,4.5,1.3,4.5C537.4,276.8,536.3,276.4,535.7,275.2z M536.6,273.7c-0.1-2.2,0.9-2.3,0.8-4.5
	C535.9,268.3,535.7,273,536.6,273.7z M543.7,240.7c0.2,1,0.3,2,0.4,3c1,0.5,1.3-0.5,1.1-1.5C545,241.2,544.3,240.2,543.7,240.7
	L543.7,240.7z M541.4,229.4c1.2,4-1.7,2.7-0.7,6.3c1.3-0.2,0.9-2.8,1.5-4.1c1.2-1.1,0.7,2.4,1.9,1.3
	C543.7,230.3,542.4,230.2,541.4,229.4L541.4,229.4z M540,204.4c-0.3-1-0.5-2-0.8-3C537.4,201.2,538.6,205.4,540,204.4z M534.6,201
	c0.6,2.1,1.2,3.7,2.1,4.2c-0.1-0.9,0.2-1.3,0.4-1.7C536.6,201.6,535.7,200.8,534.6,201z M523.6,162.1c0.1-1.8,1-2.9,0.3-5.3
	c-1.9-0.5-0.2,2.5-0.2,3.5c0,0.3-0.7,0.1-0.8,0.3c0-0.1,0.3,1.8,0.3,1.6c0.1,1,0.8,1.9,0.9,3c0.7,0.1,0.7-0.4,0.5-1
	C524.4,163.6,523.8,162.8,523.6,162.1z M527,166.6c0.5,1.2,1,2.4,1.5,3.6C530.2,170.9,527.7,165,527,166.6z M527,174.2
	c1.7-1.4-1.3-3.8-0.6-5.6c-0.8,0.6-1.3-1.9-2.1-1.7C525,169.8,526.2,170.8,527,174.2L527,174.2z M532.8,178.7
	c-0.2-2-1.4-1.9-2.2-3.4c-0.4-0.7-0.3-4.4-1.9-3.5c0,0.8,0.7,2.7,1.5,4.3C531.1,177.7,532.1,179,532.8,178.7L532.8,178.7z
	 M536.3,190.8c-0.8-1.8-1.7-3.7-2.9-3.2C534.3,189.3,535.1,191.3,536.3,190.8z M489.7,126.6c-0.5,0.7-1.4,1.2-0.1,2.8
	c1.5,0.6,2,0.7,2.5-0.8C491.2,126.8,490.5,127.8,489.7,126.6L489.7,126.6z M481.5,119.6c0.4,0.7,0.3,1.2,0.2,1.7
	c-0.5-0.6-1.3-1.4-0.8-0.3c1.7,0.7,1.2,2.2,3.1,4.1c1.6-0.8-0.7-2.8-2-4C482.7,120.8,482.3,119.6,481.5,119.6z M405.6,509.7
	c-3.1,1.8-3.2,2.8-5.7,5c-2.1,0.4-3.9,0.3-5.7,0.2c0.7-2.1,3.5-4.1,6-6.1c-0.7,1.3-1.4,2.7-3.8,4c0.3,1.1,1.5,0.8,3.2-0.3
	c-0.2-1.1,1.2-3.2,3.1-4.7c1.9-1.5,4-2.7,5.3-1.5c-1.6,0.9-2.3,0.5-3.1,1.9c3.6,0.1,7.1-5.3,9.9-5l-0.9-1.4
	c-2.5,1.2-2.7,2.3-4.8,3.4c-2.5-1.3,4.8-5.4,5.8-4.5c1.5-1.5,2.9-2.5,4.9-3.3c-0.1,1-1.9,2.1-1.5,3.1c-1.2,0.7-1.2-0.9-2.5,0.2
	c-0.9,0.6,0.4,1.2-0.6,1.8c0.5,0.4,1.8-0.7,2.7-1.2c0.3,2-2.4,3.9-4.6,5.3C411.1,507.9,407.9,508.2,405.6,509.7L405.6,509.7z
	 M408.9,514.1c-0.6,0.4-1.3,0.7-2,1.1c1.1-1.8-1.4-0.2-1.7-1.5C407.3,512.5,408,513.4,408.9,514.1z M418.5,505.3
	c2.6-1.4,2.2-1.5,4-2.2C422.8,503.6,418.3,507,418.5,505.3z"/>
</svg>
