<svg xmlns="http://www.w3.org/2000/svg" width="314" height="60" viewBox="0 0 314 60" fill="none"><path d="M70.5136 2.50873H2.50879V56.6044H70.5136V2.50873Z" fill="#C59B6C"/><path d="M35.7855 22.6941C35.7855 28.2047 33.6037 31.7628 29.2418 33.3702L37.9492 45.67H28.5031L20.8776 34.6995H15.5639V45.67H7.88965V11.2811H20.9264C26.2725 11.2811 30.0853 12.1842 32.3647 13.9867C34.644 15.7911 35.7837 18.6935 35.7837 22.6941H35.7855ZM26.5362 26.7778C27.4881 25.9253 27.9631 24.5725 27.9631 22.7194C27.9631 20.8663 27.47 19.5948 26.4875 18.9067C25.5031 18.2185 23.7819 17.8735 21.3219 17.8735H15.5657V28.0566H21.1738C23.7981 28.0566 25.5844 27.6303 26.5362 26.7778Z" fill="white"/><path d="M65.7996 11.2811V18.1192H48.6792V25.2029H64.0783V31.7465H48.6792V38.8808H66.3414V45.67H41.0049V11.2811H65.7996Z" fill="white"/><path d="M106.765 1.96875V8.70927H90.8257V16.1379H105.977V22.8784H90.8257V36.3577H83.1514V1.96875H106.767H106.765Z" fill="#231F20"/><path d="M145.736 36.3577L142.539 28.929H128.124L124.927 36.3577H116.76L131.615 1.96875H139.044L153.901 36.3577H145.734H145.736ZM135.356 12.2023L131.026 22.1903H139.636L135.356 12.2023Z" fill="#231F20"/><path d="M195.628 13.3818C195.628 18.8923 193.446 22.4504 189.085 24.0578L197.792 36.3577H188.346L180.72 25.3872H175.407V36.3577H167.732V1.96875H180.769C186.115 1.96875 189.928 2.87182 192.207 4.67435C194.487 6.47868 195.626 9.38115 195.626 13.3818H195.628ZM186.379 17.4654C187.331 16.6129 187.806 15.2601 187.806 13.407C187.806 11.5539 187.313 10.2824 186.33 9.59427C185.346 8.90614 183.625 8.56116 181.165 8.56116H175.409V18.7442H181.017C183.641 18.7442 185.427 18.3179 186.379 17.4654Z" fill="#231F20"/><path d="M241.241 13.3818C241.241 18.8923 239.059 22.4504 234.697 24.0578L243.404 36.3577H233.958L226.333 25.3872H221.019V36.3577H213.345V1.96875H226.381C231.728 1.96875 235.54 2.87182 237.82 4.67435C240.099 6.47868 241.239 9.38115 241.239 13.3818H241.241ZM231.991 17.4654C232.943 16.6129 233.418 15.2601 233.418 13.407C233.418 11.5539 232.925 10.2824 231.943 9.59427C230.958 8.90614 229.237 8.56116 226.777 8.56116H221.021V18.7442H226.629C229.253 18.7442 231.039 18.3179 231.991 17.4654Z" fill="#231F20"/><path d="M258.959 1.96875H266.633V36.3577H258.959V1.96875Z" fill="#231F20"/><path d="M292.983 8.83205C292.244 9.43891 291.876 10.2426 291.876 11.2432C291.876 12.2438 292.326 13.0386 293.229 13.6292C294.132 14.2198 296.212 14.9169 299.476 15.7207C302.74 16.5244 305.274 17.7291 307.076 19.3366C308.881 20.944 309.782 23.2884 309.782 26.3715C309.782 29.4546 308.626 31.9543 306.314 33.8742C304.002 35.7923 300.959 36.7514 297.188 36.7514C291.742 36.7514 286.84 34.7339 282.479 30.7008L287.053 25.0927C290.76 28.3402 294.188 29.9639 297.336 29.9639C298.746 29.9639 299.852 29.6605 300.657 29.0536C301.461 28.4467 301.864 27.6267 301.864 26.5936C301.864 25.5605 301.438 24.7405 300.585 24.1337C299.733 23.5268 298.044 22.9127 295.517 22.2878C291.516 21.3378 288.589 20.0988 286.736 18.5744C284.883 17.0482 283.956 14.655 283.956 11.3914C283.956 8.12766 285.128 5.6117 287.472 3.83988C289.819 2.06805 292.745 1.18304 296.254 1.18304C298.55 1.18304 300.845 1.57678 303.143 2.36426C305.438 3.15174 307.439 4.26613 309.144 5.70923L305.258 11.3173C302.274 9.0542 299.189 7.92175 296.008 7.92175C294.73 7.92175 293.72 8.22519 292.983 8.83205Z" fill="#231F20"/><path d="M88.6564 55.1217C90.4897 55.1217 91.9906 54.3956 93.1537 52.9453L95.5469 55.4089C93.6486 57.5473 91.4108 58.6148 88.8352 58.6148C86.2597 58.6148 84.1375 57.802 82.4704 56.1747C80.8033 54.5473 79.9707 52.4938 79.9707 50.0139C79.9707 47.5341 80.8196 45.4643 82.5192 43.8044C84.2187 42.1464 86.2958 41.3156 88.7522 41.3156C91.4957 41.3156 93.7931 42.3613 95.6426 44.4492L93.3217 47.0808C92.1405 45.6142 90.6739 44.8791 88.9201 44.8791C87.5168 44.8791 86.3157 45.3378 85.3187 46.2553C84.3217 47.1729 83.8232 48.4083 83.8232 49.9634C83.8232 51.5184 84.2928 52.7665 85.2356 53.7075C86.1766 54.6485 87.3163 55.1199 88.6564 55.1199V55.1217Z" fill="#231F20"/><path d="M124.642 58.4231L123.087 54.8108H116.078L114.522 58.4231H110.551L117.777 41.6982H121.389L128.616 58.4231H124.644H124.642ZM119.594 46.676L117.488 51.5327H121.675L119.594 46.676Z" fill="#231F20"/><path d="M152.227 58.4231H144.905V41.6982H151.413C152.545 41.6982 153.522 41.8337 154.344 42.1046C155.166 42.3755 155.784 42.7422 156.199 43.2046C156.949 44.0661 157.324 45.0396 157.324 46.1233C157.324 47.4309 156.902 48.4044 156.056 49.042C155.769 49.266 155.571 49.405 155.459 49.461C155.347 49.517 155.148 49.6091 154.861 49.7356C155.897 49.9595 156.723 50.4255 157.337 51.1353C157.951 51.8451 158.258 52.7265 158.258 53.7795C158.258 54.9445 157.859 55.9722 157.062 56.8662C156.138 57.9029 154.527 58.4213 152.229 58.4213L152.227 58.4231ZM148.639 48.4695H150.409C151.445 48.4695 152.215 48.3575 152.717 48.1353C153.219 47.9114 153.47 47.4291 153.47 46.6886C153.47 45.9481 153.239 45.4568 152.776 45.2166C152.314 44.9782 151.532 44.8572 150.432 44.8572H148.639V48.4695ZM148.639 55.2642H151.198C152.267 55.2642 153.067 55.1323 153.602 54.8686C154.136 54.6049 154.404 54.0866 154.404 53.3135C154.404 52.5405 154.12 52.0294 153.555 51.7819C152.988 51.5345 152.083 51.4117 150.838 51.4117H148.637V55.2642H148.639Z" fill="#231F20"/><path d="M175.746 41.7003H179.479V58.4251H175.746V41.7003Z" fill="#231F20"/><path d="M209.647 41.7003H213.379V58.4251H209.647L201.681 47.9459V58.4251H197.947V41.7003H201.44L209.647 52.4667V41.7003Z" fill="#231F20"/><path d="M243.91 41.7003V45.0254H235.584V48.4715H243.072V51.6539H235.584V55.1235H244.174V58.4251H231.853V41.7003H243.91Z" fill="#231F20"/><path d="M268.936 44.9296V58.4233H265.204V44.9296H260.467V41.7003H273.673V44.9296H268.936Z" fill="#231F20"/><path d="M294.524 45.0379C294.164 45.3341 293.986 45.7242 293.986 46.2101C293.986 46.6959 294.204 47.0842 294.643 47.3696C295.082 47.6568 296.095 47.9963 297.681 48.3865C299.269 48.7784 300.5 49.3636 301.378 50.1456C302.256 50.9277 302.695 52.0674 302.695 53.5665C302.695 55.0656 302.133 56.2829 301.008 57.2149C299.883 58.1486 298.403 58.6146 296.57 58.6146C293.922 58.6146 291.538 57.6339 289.416 55.6724L291.641 52.9452C293.444 54.5237 295.111 55.313 296.642 55.313C297.329 55.313 297.867 55.1649 298.257 54.8705C298.647 54.5761 298.844 54.1769 298.844 53.6748C298.844 53.1727 298.636 52.7736 298.223 52.4792C297.807 52.1848 296.987 51.885 295.759 51.5815C293.812 51.1191 292.389 50.5177 291.488 49.7754C290.586 49.0331 290.137 47.8699 290.137 46.2823C290.137 44.6947 290.707 43.4701 291.847 42.6104C292.987 41.7489 294.41 41.319 296.119 41.319C297.235 41.319 298.351 41.5105 299.469 41.8934C300.585 42.2763 301.559 42.8181 302.388 43.5207L300.498 46.248C299.046 45.148 297.547 44.5972 296.001 44.5972C295.38 44.5972 294.889 44.7453 294.529 45.0397L294.524 45.0379Z" fill="#231F20"/><path d="M306.906 42.8778H313.75V44.4058H308.268V47.3227H306.908V42.8778H306.906Z" fill="#231F20"/><path d="M306.906 48.4389H313.75V49.9669H308.268V52.8838H306.908V48.4389H306.906Z" fill="#231F20"/><path d="M308.258 57.1409C308.258 57.8904 308.554 58.5045 309.148 58.9813L308.14 59.9603C307.266 59.1836 306.829 58.2679 306.829 57.2149C306.829 56.1619 307.161 55.2932 307.828 54.6105C308.494 53.9277 309.334 53.5882 310.349 53.5882C311.364 53.5882 312.211 53.935 312.889 54.6303C313.568 55.3257 313.907 56.1746 313.907 57.1806C313.907 58.3022 313.479 59.2432 312.625 60L311.549 59.05C312.148 58.5677 312.45 57.9663 312.45 57.2492C312.45 56.6749 312.262 56.1836 311.886 55.7754C311.511 55.3672 311.005 55.1632 310.369 55.1632C309.733 55.1632 309.222 55.3564 308.838 55.7411C308.453 56.1258 308.26 56.5936 308.26 57.1409H308.258Z" fill="#231F20"/><path d="M0 0V59.1132H73.0223V0H0ZM70.5135 56.6044H2.50873V2.50873H70.5135V56.6044Z" fill="#231F20"/></svg>