<?xml version="1.0" encoding="UTF-8"?> <svg xmlns="http://www.w3.org/2000/svg" width="151" height="60" viewBox="0 0 151 60" fill="none"><g clip-path="url(#clip0_523_2938)"><path d="M19.4789 0L49.4956 60L55.5805 47.2349L32.2105 0H19.4789Z" fill="#B2B2B3"></path><path d="M39.1057 0.11286L58.5373 39.602L76.934 0L39.1057 0.11286Z" fill="#D29E2A"></path><path d="M0 0L29.5909 60L35.5812 47.2349L39.1234 39.2219L33.1035 27.2409L29.5673 34.9035L12.5543 0H0Z" fill="#1C3564"></path><mask id="mask0_523_2938" style="mask-type:luminance" maskUnits="userSpaceOnUse" x="0" y="0" width="151" height="60"><path d="M151 0H0V60H151V0Z" fill="white"></path></mask><g mask="url(#mask0_523_2938)"><path d="M66.4022 32.6047L68.0638 39.0259C68.4246 40.4337 68.7675 41.7405 68.9982 43.0473H69.075C69.3589 41.7702 69.7787 40.4099 70.1927 39.0556L72.2446 32.6107H74.1665L76.118 38.9249C76.5851 40.4396 76.9517 41.7702 77.2356 43.0473H77.3125C77.5194 41.7702 77.8565 40.4396 78.2764 38.9487L80.0681 32.6047H82.3271L78.2764 45.2391H76.1948L74.273 39.21C73.8294 37.8022 73.4687 36.5489 73.1553 35.058H73.1021C72.7887 36.5727 72.3984 37.8735 71.9608 39.2338L69.9325 45.2391H67.8509L64.0604 32.6047H66.3962H66.4022Z" fill="#1C3564"></path><path d="M86.5375 39.3407C86.5907 42.4473 88.5658 43.7244 90.8484 43.7244C92.4864 43.7244 93.4739 43.4393 94.3314 43.071L94.7217 44.7164C93.9174 45.0847 92.5396 45.5005 90.535 45.5005C86.6617 45.5005 84.3495 42.9403 84.3495 39.1328C84.3495 35.3252 86.5848 32.3196 90.2452 32.3196C94.3491 32.3196 95.4431 35.9489 95.4431 38.2715C95.4431 38.7407 95.3899 39.109 95.3663 39.3407H86.5316H86.5375ZM93.2374 37.6953C93.267 36.234 92.6401 33.965 90.0678 33.965C87.7556 33.965 86.7444 36.1034 86.5611 37.6953H93.2374Z" fill="#1C3564"></path><path d="M98.6187 42.8868C99.2928 43.3323 100.493 43.8016 101.635 43.8016C103.296 43.8016 104.077 42.9641 104.077 41.9246C104.077 40.8316 103.426 40.2257 101.741 39.602C99.482 38.7942 98.4176 37.5408 98.4176 36.0261C98.4176 33.9887 100.056 32.3196 102.758 32.3196C104.029 32.3196 105.147 32.6819 105.851 33.1037L105.277 34.7728C104.786 34.458 103.876 34.0422 102.705 34.0422C101.357 34.0422 100.6 34.8263 100.6 35.7648C100.6 36.8102 101.351 37.2795 102.989 37.9032C105.171 38.7407 106.288 39.8337 106.288 41.7107C106.288 43.9264 104.573 45.4945 101.587 45.4945C100.209 45.4945 98.938 45.1559 98.051 44.6332L98.6187 42.8868Z" fill="#1C3564"></path><path d="M112.622 28.9753V32.6047H115.898V34.351H112.622V41.1642C112.622 42.7324 113.065 43.6175 114.337 43.6175C114.934 43.6175 115.377 43.5402 115.661 43.463L115.768 45.1856C115.324 45.3698 114.626 45.5004 113.739 45.5004C112.675 45.5004 111.817 45.1619 111.273 44.5322C110.623 43.8551 110.392 42.7324 110.392 41.2415V34.351H108.441V32.6047H110.392V29.5753L112.628 28.9753H112.622Z" fill="#1C3564"></path><path d="M109.559 48.8625H110.593V49.9139H109.559V48.8625ZM109.57 50.9891H110.593V56.3588H109.57V50.9891Z" fill="#D29E2A"></path><path d="M112.462 50.989H113.456V51.7018C113.456 51.9156 113.438 52.0938 113.438 52.0938H113.456C113.668 51.6246 114.301 50.8643 115.466 50.8643C116.726 50.8643 117.305 51.5533 117.305 52.9254V56.3647H116.282V53.1571C116.282 52.4027 116.122 51.8087 115.265 51.8087C114.408 51.8087 113.798 52.3493 113.574 53.1274C113.509 53.3412 113.491 53.5848 113.491 53.8521V56.3647H112.468V50.9949L112.462 50.989Z" fill="#D29E2A"></path><path d="M119.322 51.886H118.624V51.0604H119.351V49.51H120.345V51.0604H121.634V51.886H120.345V54.2739C120.345 55.3431 121.096 55.4857 121.486 55.4857C121.634 55.4857 121.728 55.4619 121.728 55.4619V56.3767C121.728 56.3767 121.581 56.4004 121.368 56.4004C120.682 56.4004 119.316 56.1866 119.316 54.3927V51.886H119.322Z" fill="#D29E2A"></path><path d="M125.448 50.8582C126.956 50.8582 127.76 51.9809 127.76 53.3709C127.76 53.5075 127.731 53.8164 127.731 53.8164H123.834C123.887 54.9925 124.721 55.5865 125.673 55.5865C126.625 55.5865 127.257 54.9568 127.257 54.9568L127.677 55.7112C127.677 55.7112 126.885 56.4775 125.608 56.4775C123.928 56.4775 122.775 55.2598 122.775 53.6619C122.775 51.9512 123.928 50.8523 125.448 50.8523M126.713 53.0382C126.684 52.1116 126.11 51.672 125.424 51.672C124.644 51.672 124.011 52.1591 123.863 53.0382H126.719H126.713Z" fill="#D29E2A"></path><path d="M129.268 50.9889H130.262V51.9215C130.262 52.1472 130.238 52.3254 130.238 52.3254H130.262C130.504 51.5413 131.131 50.9236 131.953 50.9236C132.089 50.9236 132.219 50.9414 132.219 50.9414V51.9631C132.219 51.9631 132.083 51.9334 131.923 51.9334C131.267 51.9334 130.664 52.3967 130.421 53.1986C130.327 53.5075 130.297 53.8342 130.297 54.1609V56.3587H129.274V50.9889H129.268Z" fill="#D29E2A"></path><path d="M133.484 48.8625H134.519V49.9139H133.484V48.8625ZM133.496 50.9891H134.519V56.3588H133.496V50.9891Z" fill="#D29E2A"></path><path d="M138.883 50.8584C140.48 50.8584 141.769 52.0345 141.769 53.6621C141.769 55.2896 140.48 56.4836 138.883 56.4836C137.287 56.4836 135.998 55.2956 135.998 53.6621C135.998 52.0286 137.287 50.8584 138.883 50.8584ZM138.883 55.5926C139.9 55.5926 140.722 54.7847 140.722 53.6621C140.722 52.5394 139.9 51.7494 138.883 51.7494C137.866 51.7494 137.044 52.5454 137.044 53.6621C137.044 54.7788 137.878 55.5926 138.883 55.5926Z" fill="#D29E2A"></path><path d="M143.242 50.9889H144.235V51.9215C144.235 52.1472 144.211 52.3254 144.211 52.3254H144.235C144.477 51.5413 145.104 50.9236 145.926 50.9236C146.062 50.9236 146.192 50.9414 146.192 50.9414V51.9631C146.192 51.9631 146.056 51.9334 145.897 51.9334C145.24 51.9334 144.637 52.3967 144.395 53.1986C144.3 53.5075 144.265 53.8342 144.265 54.1609V56.3587H143.242V50.9889Z" fill="#D29E2A"></path><path d="M147.535 54.9689C147.535 54.9689 148.138 55.5926 149.066 55.5926C149.51 55.5926 149.953 55.3609 149.953 54.9214C149.953 53.9353 147.204 54.1373 147.204 52.385C147.204 51.4108 148.073 50.8584 149.137 50.8584C150.308 50.8584 150.858 51.4524 150.858 51.4524L150.444 52.2305C150.444 52.2305 149.965 51.7553 149.125 51.7553C148.682 51.7553 148.25 51.9454 148.25 52.4147C148.25 53.3829 151 53.1691 151 54.9332C151 55.8242 150.237 56.4955 149.066 56.4955C147.753 56.4955 147.038 55.7114 147.038 55.7114L147.535 54.9808V54.9689Z" fill="#D29E2A"></path><path d="M65.7812 48.8625H66.8043V51.3158C66.8043 51.5831 66.7865 51.7732 66.7865 51.7732H66.8043C66.8043 51.7732 67.2596 50.8584 68.5192 50.8584C69.9562 50.8584 70.8668 52.0048 70.8668 53.668C70.8668 55.3312 69.8438 56.4836 68.4364 56.4836C67.2419 56.4836 66.757 55.5629 66.757 55.5629H66.7333C66.7333 55.5629 66.757 55.7351 66.757 55.9668V56.3588H65.7872V48.8625H65.7812ZM68.2826 55.6045C69.1283 55.6045 69.8261 54.9035 69.8261 53.6858C69.8261 52.4681 69.2051 51.7672 68.3122 51.7672C67.508 51.7672 66.7688 52.3315 66.7688 53.6977C66.7688 54.6541 67.2655 55.6104 68.2826 55.6104" fill="#B2B2B3"></path><path d="M72.1914 50.989H73.2144V54.1966C73.2144 54.9391 73.3623 55.5331 74.2197 55.5331C75.3078 55.5331 75.9524 54.5649 75.9524 53.5076V50.995H76.9754V56.3647H75.9819V55.6519C75.9819 55.4262 76.0056 55.2599 76.0056 55.2599H75.9819C75.7572 55.7885 75.0653 56.4895 74.0187 56.4895C72.8123 56.4895 72.1914 55.8539 72.1914 54.4283V50.989Z" fill="#B2B2B3"></path><path d="M78.8559 54.9689C78.8559 54.9689 79.459 55.5926 80.3874 55.5926C80.8309 55.5926 81.2745 55.3609 81.2745 54.9214C81.2745 53.9353 78.5247 54.1373 78.5247 52.385C78.5247 51.4108 79.3881 50.8584 80.4584 50.8584C81.6293 50.8584 82.1792 51.4524 82.1792 51.4524L81.7653 52.2305C81.7653 52.2305 81.2922 51.7553 80.4466 51.7553C80.0031 51.7553 79.5714 51.9454 79.5714 52.4147C79.5714 53.3829 82.3152 53.1691 82.3152 54.9332C82.3152 55.8242 81.5583 56.4955 80.3815 56.4955C79.0687 56.4955 78.3532 55.7114 78.3532 55.7114L78.8499 54.9808L78.8559 54.9689Z" fill="#B2B2B3"></path><path d="M83.7581 48.8625H84.793V49.9139H83.7581V48.8625ZM83.7699 50.9891H84.793V56.3588H83.7699V50.9891Z" fill="#B2B2B3"></path><path d="M86.638 50.989H87.6315V51.7018C87.6315 51.9156 87.6078 52.0938 87.6078 52.0938H87.6315C87.8443 51.6246 88.4771 50.8643 89.642 50.8643C90.9016 50.8643 91.4811 51.5533 91.4811 52.9254V56.3647H90.4581V53.1571C90.4581 52.4027 90.2984 51.8087 89.441 51.8087C88.5835 51.8087 87.9744 52.3493 87.7497 53.1274C87.6847 53.3412 87.6669 53.5848 87.6669 53.8521V56.3647H86.6439V50.9949L86.638 50.989Z" fill="#B2B2B3"></path><path d="M95.4372 50.8582C96.9452 50.8582 97.7494 51.9809 97.7494 53.3709C97.7494 53.5075 97.7198 53.8164 97.7198 53.8164H93.8229C93.8761 54.9925 94.7099 55.5865 95.6619 55.5865C96.614 55.5865 97.2467 54.9568 97.2467 54.9568L97.6666 55.7112C97.6666 55.7112 96.8742 56.4775 95.5969 56.4775C93.9175 56.4775 92.7643 55.2598 92.7643 53.6619C92.7643 51.9512 93.9175 50.8523 95.4372 50.8523M96.7027 53.0382C96.6731 52.1116 96.0995 51.672 95.4136 51.672C94.633 51.672 94.0003 52.1591 93.8524 53.0382H96.7086H96.7027Z" fill="#B2B2B3"></path><path d="M99.3046 54.9689C99.3046 54.9689 99.9078 55.5926 100.836 55.5926C101.28 55.5926 101.723 55.3609 101.723 54.9214C101.723 53.9353 98.9734 54.1373 98.9734 52.385C98.9734 51.4108 99.8427 50.8584 100.907 50.8584C102.078 50.8584 102.628 51.4524 102.628 51.4524L102.214 52.2305C102.214 52.2305 101.741 51.7553 100.895 51.7553C100.452 51.7553 100.02 51.9454 100.02 52.4147C100.02 53.3829 102.77 53.1691 102.77 54.9332C102.77 55.8242 102.007 56.4955 100.836 56.4955C99.5234 56.4955 98.8079 55.7114 98.8079 55.7114L99.3046 54.9808V54.9689Z" fill="#B2B2B3"></path><path d="M104.278 54.9689C104.278 54.9689 104.881 55.5926 105.809 55.5926C106.253 55.5926 106.696 55.3609 106.696 54.9214C106.696 53.9353 103.947 54.1373 103.947 52.385C103.947 51.4108 104.81 50.8584 105.88 50.8584C107.051 50.8584 107.601 51.4524 107.601 51.4524L107.187 52.2305C107.187 52.2305 106.708 51.7553 105.869 51.7553C105.425 51.7553 104.993 51.9454 104.993 52.4147C104.993 53.3829 107.743 53.1691 107.743 54.9332C107.743 55.8242 106.98 56.4955 105.809 56.4955C104.503 56.4955 103.781 55.7114 103.781 55.7114L104.278 54.9808V54.9689Z" fill="#B2B2B3"></path></g></g><defs><clipPath id="clip0_523_2938"><rect width="151" height="60" fill="white"></rect></clipPath></defs></svg> 